<?xml version="1.0" encoding="UTF-8" standalone="no"?>
<!DOCTYPE svg PUBLIC "-//W3C//DTD SVG 1.1//EN" "http://www.w3.org/Graphics/SVG/1.1/DTD/svg11.dtd">
<svg width="100%" height="100%" viewBox="0 0 1454 1454" version="1.1" xmlns="http://www.w3.org/2000/svg" xmlns:xlink="http://www.w3.org/1999/xlink" xml:space="preserve" xmlns:serif="http://www.serif.com/" style="fill-rule:evenodd;clip-rule:evenodd;stroke-linejoin:round;stroke-miterlimit:2;">
    <g id="Artboard3" transform="matrix(1,0,0,1,105.127,2038.1)">
        <rect x="-105.127" y="-2038.1" width="1453.63" height="1453.63" style="fill:none;"/>
        <g transform="matrix(0.969761,0,0,0.974553,-61.1705,-2001.11)">
            <path d="M1453.63,498.148C1453.63,202.264 1212.22,-37.956 914.873,-37.956L493.426,-37.956C196.08,-37.956 -45.327,202.264 -45.327,498.148L-45.327,917.523C-45.327,1213.41 196.08,1453.63 493.426,1453.63L914.873,1453.63C1212.22,1453.63 1453.63,1213.41 1453.63,917.523L1453.63,498.148Z" style="fill:url(#_Linear1);"/>
        </g>
        <g transform="matrix(1.16935,0,0,1,-252.646,-2038.13)">
            <path d="M1112.2,425.451C1112.2,399.287 1103.31,374.195 1087.49,355.695C1071.67,337.194 1050.21,326.801 1027.84,326.801L467.587,326.801C445.212,326.801 423.754,337.194 407.933,355.695C392.111,374.195 383.223,399.287 383.223,425.451L383.223,425.452C383.223,451.616 392.111,476.708 407.933,495.209C423.754,513.709 445.212,524.102 467.587,524.102L1027.84,524.102C1050.21,524.102 1071.67,513.709 1087.49,495.209C1103.31,476.708 1112.2,451.616 1112.2,425.452L1112.2,425.451Z" style="fill:rgb(102,163,255);"/>
        </g>
        <g transform="matrix(0.316331,0,0,1,74.2492,-1417.01)">
            <path d="M1112.2,425.451C1112.2,399.287 1079.34,374.195 1020.86,355.695C962.373,337.194 883.051,326.801 800.342,326.801L695.08,326.801C612.37,326.801 533.048,337.194 474.564,355.695C416.079,374.195 383.223,399.287 383.223,425.451L383.223,425.452C383.223,451.616 416.079,476.708 474.564,495.209C533.048,513.709 612.37,524.102 695.08,524.102L800.342,524.102C883.051,524.102 962.373,513.709 1020.86,495.209C1079.34,476.708 1112.2,451.616 1112.2,425.452L1112.2,425.451Z" style="fill:rgb(255,213,62);"/>
        </g>
        <g transform="matrix(0.630778,0,0,1,-46.2542,-1727.57)">
            <path d="M1112.2,425.451C1112.2,370.968 1042.18,326.801 955.805,326.801L539.617,326.801C453.243,326.801 383.223,370.968 383.223,425.451L383.223,425.452C383.223,479.935 453.243,524.102 539.617,524.102L955.805,524.102C1042.18,524.102 1112.2,479.935 1112.2,425.452L1112.2,425.451Z" style="fill:rgb(38,240,233);"/>
        </g>
    </g>
    <defs>
        <linearGradient id="_Linear1" x1="0" y1="0" x2="1" y2="0" gradientUnits="userSpaceOnUse" gradientTransform="matrix(1121.11,1233.86,-1239.96,1115.59,156.4,79.9998)"><stop offset="0" style="stop-color:white;stop-opacity:1"/><stop offset="1" style="stop-color:rgb(221,234,255);stop-opacity:1"/></linearGradient>
    </defs>
</svg>
