<?xml version="1.0" encoding="UTF-8" standalone="no"?><!DOCTYPE svg PUBLIC "-//W3C//DTD SVG 1.1//EN" "http://www.w3.org/Graphics/SVG/1.1/DTD/svg11.dtd"><svg width="100%" height="100%" viewBox="0 0 188 29" version="1.1" xmlns="http://www.w3.org/2000/svg" xmlns:xlink="http://www.w3.org/1999/xlink" xml:space="preserve" xmlns:serif="http://www.serif.com/" style="fill-rule:evenodd;clip-rule:evenodd;stroke-linejoin:round;stroke-miterlimit:2;"><path d="M8.308,3.577c-1.519,0 -2.279,0.827 -2.279,2.481l0,0.923l4.241,0l0,2.885l-4.125,0l-0,12.405l-3.606,0l-0,-12.405l-2.539,0l-0,-2.885l2.539,0l-0,-0.98c-0,-1.654 0.481,-2.957 1.442,-3.909c0.962,-0.952 2.318,-1.428 4.068,-1.428c1.385,-0 2.471,0.278 3.26,0.836l-1.01,2.712c-0.615,-0.423 -1.279,-0.635 -1.991,-0.635Zm4.385,-2.712l3.607,0l-0,21.406l-3.607,0l0,-21.406Z" style="fill:url(#_Linear1);fill-rule:nonzero;"/><path d="M26.916,6.693c2.269,-0 4.005,0.543 5.207,1.63c1.202,1.087 1.803,2.726 1.803,4.919l0,9.029l-3.404,0l0,-1.875c-0.442,0.673 -1.072,1.188 -1.89,1.544c-0.817,0.355 -1.803,0.533 -2.957,0.533c-1.153,0 -2.163,-0.197 -3.029,-0.591c-0.865,-0.394 -1.533,-0.943 -2.005,-1.645c-0.471,-0.702 -0.706,-1.495 -0.706,-2.38c-0,-1.384 0.514,-2.495 1.543,-3.332c1.029,-0.836 2.649,-1.255 4.861,-1.255l3.981,0l0,-0.23c0,-1.077 -0.322,-1.904 -0.966,-2.481c-0.645,-0.577 -1.601,-0.866 -2.871,-0.866c-0.865,0 -1.716,0.135 -2.553,0.404c-0.836,0.269 -1.543,0.644 -2.12,1.125l-1.414,-2.625c0.808,-0.615 1.779,-1.087 2.914,-1.414c1.135,-0.327 2.337,-0.49 3.606,-0.49Zm-0.49,13.155c0.903,0 1.706,-0.207 2.408,-0.62c0.702,-0.414 1.198,-1.005 1.486,-1.774l0,-1.789l-3.721,-0c-2.077,-0 -3.116,0.683 -3.116,2.048c-0,0.654 0.26,1.173 0.779,1.558c0.519,0.385 1.24,0.577 2.164,0.577Z" style="fill:url(#_Linear2);fill-rule:nonzero;"/><path d="M47.803,21.435c-0.424,0.346 -0.938,0.606 -1.544,0.779c-0.606,0.173 -1.245,0.259 -1.918,0.259c-1.693,0 -3.001,-0.442 -3.924,-1.327c-0.923,-0.884 -1.385,-2.173 -1.385,-3.866l0,-7.414l-2.538,0l-0,-2.885l2.538,0l0,-3.519l3.607,-0l-0,3.519l4.125,0l-0,2.885l-4.125,0l-0,7.328c-0,0.75 0.182,1.322 0.548,1.716c0.365,0.395 0.894,0.592 1.586,0.592c0.808,-0 1.481,-0.212 2.02,-0.635l1.01,2.568Z" style="fill:url(#_Linear3);fill-rule:nonzero;"/><path d="M73.218,14.655c0,0.25 -0.019,0.606 -0.057,1.068l-12.088,-0c0.212,1.134 0.765,2.033 1.659,2.697c0.894,0.664 2.005,0.995 3.332,0.995c1.692,0 3.087,-0.557 4.183,-1.673l1.933,2.221c-0.693,0.827 -1.568,1.452 -2.625,1.876c-1.058,0.423 -2.251,0.634 -3.578,0.634c-1.692,0 -3.183,-0.336 -4.471,-1.009c-1.289,-0.674 -2.284,-1.611 -2.986,-2.813c-0.702,-1.202 -1.053,-2.563 -1.053,-4.082c-0,-1.5 0.341,-2.852 1.024,-4.054c0.683,-1.202 1.63,-2.139 2.842,-2.812c1.211,-0.673 2.577,-1.01 4.096,-1.01c1.5,-0 2.842,0.332 4.025,0.995c1.182,0.664 2.106,1.597 2.769,2.799c0.664,1.202 0.995,2.591 0.995,4.168Zm-7.789,-5.077c-1.154,-0 -2.13,0.341 -2.928,1.024c-0.798,0.683 -1.284,1.591 -1.457,2.726l8.741,0c-0.153,-1.115 -0.625,-2.019 -1.413,-2.712c-0.789,-0.692 -1.77,-1.038 -2.943,-1.038Z" style="fill:url(#_Linear4);fill-rule:nonzero;"/><path d="M76.68,6.866l3.606,0l0,15.405l-3.606,0l0,-15.405Zm1.818,-2.539c-0.654,0 -1.202,-0.206 -1.645,-0.62c-0.442,-0.413 -0.663,-0.928 -0.663,-1.543c-0,-0.616 0.221,-1.13 0.663,-1.544c0.443,-0.413 0.991,-0.62 1.645,-0.62c0.654,0 1.202,0.197 1.644,0.591c0.442,0.395 0.664,0.89 0.664,1.486c-0,0.635 -0.217,1.168 -0.649,1.601c-0.433,0.433 -0.986,0.649 -1.659,0.649Z" style="fill:url(#_Linear5);fill-rule:nonzero;"/><path d="M100.307,6.866l0,13.069c0,5.423 -2.769,8.135 -8.308,8.135c-1.481,-0 -2.885,-0.188 -4.212,-0.563c-1.327,-0.375 -2.423,-0.918 -3.289,-1.63l1.616,-2.711c0.673,0.557 1.524,1.005 2.553,1.341c1.029,0.337 2.072,0.505 3.13,0.505c1.693,-0 2.933,-0.385 3.722,-1.154c0.788,-0.769 1.182,-1.942 1.182,-3.52l0,-0.807c-0.615,0.673 -1.365,1.182 -2.25,1.529c-0.885,0.346 -1.856,0.519 -2.914,0.519c-1.461,-0 -2.783,-0.313 -3.966,-0.938c-1.183,-0.625 -2.116,-1.505 -2.799,-2.639c-0.682,-1.135 -1.024,-2.433 -1.024,-3.895c0,-1.462 0.342,-2.755 1.024,-3.88c0.683,-1.125 1.616,-1.995 2.799,-2.611c1.183,-0.615 2.505,-0.923 3.966,-0.923c1.116,-0 2.13,0.183 3.044,0.548c0.914,0.365 1.678,0.923 2.293,1.673l0,-2.048l3.433,0Zm-8.221,11.655c1.365,-0 2.485,-0.409 3.36,-1.226c0.876,-0.817 1.313,-1.88 1.313,-3.188c0,-1.288 -0.437,-2.337 -1.313,-3.144c-0.875,-0.808 -1.995,-1.212 -3.36,-1.212c-1.385,-0 -2.515,0.404 -3.39,1.212c-0.875,0.807 -1.313,1.856 -1.313,3.144c0,1.308 0.438,2.371 1.313,3.188c0.875,0.817 2.005,1.226 3.39,1.226Z" style="fill:url(#_Linear6);fill-rule:nonzero;"/><path d="M113.78,6.693c1.942,-0 3.5,0.567 4.673,1.702c1.174,1.135 1.76,2.818 1.76,5.049l0,8.827l-3.606,0l0,-8.366c0,-1.346 -0.317,-2.361 -0.952,-3.043c-0.635,-0.683 -1.539,-1.025 -2.712,-1.025c-1.327,0 -2.375,0.4 -3.144,1.198c-0.77,0.798 -1.154,1.947 -1.154,3.447l-0,7.789l-3.606,0l-0,-21.406l3.606,0l-0,7.79c0.596,-0.635 1.332,-1.121 2.207,-1.457c0.875,-0.337 1.851,-0.505 2.928,-0.505Z" style="fill:url(#_Linear7);fill-rule:nonzero;"/><path d="M134.061,21.435c-0.423,0.346 -0.938,0.606 -1.544,0.779c-0.606,0.173 -1.245,0.259 -1.918,0.259c-1.693,0 -3.001,-0.442 -3.924,-1.327c-0.923,-0.884 -1.384,-2.173 -1.384,-3.866l-0,-7.414l-2.539,0l-0,-2.885l2.539,0l-0,-3.519l3.606,-0l-0,3.519l4.125,0l0,2.885l-4.125,0l-0,7.328c-0,0.75 0.182,1.322 0.548,1.716c0.365,0.395 0.894,0.592 1.586,0.592c0.808,-0 1.481,-0.212 2.02,-0.635l1.01,2.568Z" style="fill:url(#_Linear8);fill-rule:nonzero;"/><path d="M150.995,14.655c-0,0.25 -0.019,0.606 -0.058,1.068l-12.087,-0c0.211,1.134 0.764,2.033 1.658,2.697c0.895,0.664 2.005,0.995 3.332,0.995c1.693,0 3.087,-0.557 4.183,-1.673l1.933,2.221c-0.692,0.827 -1.567,1.452 -2.625,1.876c-1.058,0.423 -2.25,0.634 -3.577,0.634c-1.693,0 -3.183,-0.336 -4.472,-1.009c-1.288,-0.674 -2.284,-1.611 -2.986,-2.813c-0.702,-1.202 -1.053,-2.563 -1.053,-4.082c0,-1.5 0.342,-2.852 1.025,-4.054c0.682,-1.202 1.63,-2.139 2.841,-2.812c1.212,-0.673 2.577,-1.01 4.097,-1.01c1.5,-0 2.841,0.332 4.024,0.995c1.183,0.664 2.106,1.597 2.77,2.799c0.663,1.202 0.995,2.591 0.995,4.168Zm-7.789,-5.077c-1.154,-0 -2.13,0.341 -2.928,1.024c-0.799,0.683 -1.284,1.591 -1.457,2.726l8.741,0c-0.154,-1.115 -0.625,-2.019 -1.414,-2.712c-0.788,-0.692 -1.769,-1.038 -2.942,-1.038Z" style="fill:url(#_Linear9);fill-rule:nonzero;"/><path d="M168.939,14.655c-0,0.25 -0.019,0.606 -0.058,1.068l-12.087,-0c0.211,1.134 0.764,2.033 1.658,2.697c0.895,0.664 2.005,0.995 3.332,0.995c1.693,0 3.087,-0.557 4.183,-1.673l1.933,2.221c-0.692,0.827 -1.567,1.452 -2.625,1.876c-1.058,0.423 -2.25,0.634 -3.577,0.634c-1.693,0 -3.183,-0.336 -4.472,-1.009c-1.288,-0.674 -2.284,-1.611 -2.986,-2.813c-0.702,-1.202 -1.053,-2.563 -1.053,-4.082c0,-1.5 0.342,-2.852 1.025,-4.054c0.682,-1.202 1.63,-2.139 2.841,-2.812c1.212,-0.673 2.577,-1.01 4.097,-1.01c1.5,-0 2.841,0.332 4.024,0.995c1.183,0.664 2.106,1.597 2.77,2.799c0.663,1.202 0.995,2.591 0.995,4.168Zm-7.789,-5.077c-1.154,-0 -2.13,0.341 -2.928,1.024c-0.799,0.683 -1.284,1.591 -1.457,2.726l8.741,0c-0.154,-1.115 -0.625,-2.019 -1.414,-2.712c-0.788,-0.692 -1.769,-1.038 -2.942,-1.038Z" style="fill:url(#_Linear10);fill-rule:nonzero;"/><path d="M181.142,6.693c1.942,-0 3.5,0.567 4.673,1.702c1.174,1.135 1.76,2.818 1.76,5.049l0,8.827l-3.606,0l0,-8.366c0,-1.346 -0.317,-2.361 -0.952,-3.043c-0.635,-0.683 -1.538,-1.025 -2.712,-1.025c-1.327,0 -2.375,0.4 -3.144,1.198c-0.769,0.798 -1.154,1.947 -1.154,3.447l-0,7.789l-3.606,0l-0,-15.405l3.433,0l-0,1.991c0.596,-0.712 1.346,-1.251 2.25,-1.616c0.904,-0.365 1.923,-0.548 3.058,-0.548Z" style="fill:url(#_Linear11);fill-rule:nonzero;"/><defs><linearGradient id="_Linear1" x1="0" y1="0" x2="1" y2="0" gradientUnits="userSpaceOnUse" gradientTransform="matrix(196.413,0,0,196.413,-2.85354,15.402)"><stop offset="0" style="stop-color:#24cff0;stop-opacity:1"/><stop offset="1" style="stop-color:#1963fd;stop-opacity:1"/></linearGradient><linearGradient id="_Linear2" x1="0" y1="0" x2="1" y2="0" gradientUnits="userSpaceOnUse" gradientTransform="matrix(196.413,0,0,196.413,-2.85354,15.402)"><stop offset="0" style="stop-color:#24cff0;stop-opacity:1"/><stop offset="1" style="stop-color:#1963fd;stop-opacity:1"/></linearGradient><linearGradient id="_Linear3" x1="0" y1="0" x2="1" y2="0" gradientUnits="userSpaceOnUse" gradientTransform="matrix(196.413,0,0,196.413,-2.85354,15.402)"><stop offset="0" style="stop-color:#24cff0;stop-opacity:1"/><stop offset="1" style="stop-color:#1963fd;stop-opacity:1"/></linearGradient><linearGradient id="_Linear4" x1="0" y1="0" x2="1" y2="0" gradientUnits="userSpaceOnUse" gradientTransform="matrix(196.413,0,0,196.413,-2.85354,15.402)"><stop offset="0" style="stop-color:#24cff0;stop-opacity:1"/><stop offset="1" style="stop-color:#1963fd;stop-opacity:1"/></linearGradient><linearGradient id="_Linear5" x1="0" y1="0" x2="1" y2="0" gradientUnits="userSpaceOnUse" gradientTransform="matrix(196.413,0,0,196.413,-2.85354,15.402)"><stop offset="0" style="stop-color:#24cff0;stop-opacity:1"/><stop offset="1" style="stop-color:#1963fd;stop-opacity:1"/></linearGradient><linearGradient id="_Linear6" x1="0" y1="0" x2="1" y2="0" gradientUnits="userSpaceOnUse" gradientTransform="matrix(196.413,0,0,196.413,-2.85354,15.402)"><stop offset="0" style="stop-color:#24cff0;stop-opacity:1"/><stop offset="1" style="stop-color:#1963fd;stop-opacity:1"/></linearGradient><linearGradient id="_Linear7" x1="0" y1="0" x2="1" y2="0" gradientUnits="userSpaceOnUse" gradientTransform="matrix(196.413,0,0,196.413,-2.85354,15.402)"><stop offset="0" style="stop-color:#24cff0;stop-opacity:1"/><stop offset="1" style="stop-color:#1963fd;stop-opacity:1"/></linearGradient><linearGradient id="_Linear8" x1="0" y1="0" x2="1" y2="0" gradientUnits="userSpaceOnUse" gradientTransform="matrix(196.413,0,0,196.413,-2.85354,15.402)"><stop offset="0" style="stop-color:#24cff0;stop-opacity:1"/><stop offset="1" style="stop-color:#1963fd;stop-opacity:1"/></linearGradient><linearGradient id="_Linear9" x1="0" y1="0" x2="1" y2="0" gradientUnits="userSpaceOnUse" gradientTransform="matrix(196.413,0,0,196.413,-2.85354,15.402)"><stop offset="0" style="stop-color:#24cff0;stop-opacity:1"/><stop offset="1" style="stop-color:#1963fd;stop-opacity:1"/></linearGradient><linearGradient id="_Linear10" x1="0" y1="0" x2="1" y2="0" gradientUnits="userSpaceOnUse" gradientTransform="matrix(196.413,0,0,196.413,-2.85354,15.402)"><stop offset="0" style="stop-color:#24cff0;stop-opacity:1"/><stop offset="1" style="stop-color:#1963fd;stop-opacity:1"/></linearGradient><linearGradient id="_Linear11" x1="0" y1="0" x2="1" y2="0" gradientUnits="userSpaceOnUse" gradientTransform="matrix(196.413,0,0,196.413,-2.85354,15.402)"><stop offset="0" style="stop-color:#24cff0;stop-opacity:1"/><stop offset="1" style="stop-color:#1963fd;stop-opacity:1"/></linearGradient></defs></svg>