<?xml version="1.0" encoding="UTF-8" standalone="no"?>
<!DOCTYPE svg PUBLIC "-//W3C//DTD SVG 1.1//EN" "http://www.w3.org/Graphics/SVG/1.1/DTD/svg11.dtd">
<svg width="100%" height="100%" viewBox="0 0 756 492" version="1.1" xmlns="http://www.w3.org/2000/svg" xmlns:xlink="http://www.w3.org/1999/xlink" xml:space="preserve" xmlns:serif="http://www.serif.com/" style="fill-rule:evenodd;clip-rule:evenodd;stroke-linecap:round;stroke-linejoin:round;stroke-miterlimit:1.5;">
    <g id="Artboard1" transform="matrix(0.24,0,0,0.156077,0,0)">
        <rect x="0" y="0" width="3149.61" height="3149.61" style="fill:none;"/>
        <clipPath id="_clip1">
            <rect x="0" y="0" width="3149.61" height="3149.61"/>
        </clipPath>
        <g clip-path="url(#_clip1)">
            <g transform="matrix(0.697131,-0.41179,0.250542,1.00292,-332.845,573.182)">
                <path d="M1062.41,677.682L1606.92,1600.83L517.887,1600.83L1062.41,677.682Z" style="fill:none;stroke:rgb(50,215,217);stroke-width:72.98px;"/>
            </g>
            <g transform="matrix(1.18403,0,0,1.75774,-488.242,57.0704)">
                <circle cx="2143.25" cy="250.386" r="509.752" style="fill:rgb(50,215,217);"/>
                <clipPath id="_clip2">
                    <circle cx="2143.25" cy="250.386" r="509.752"/>
                </clipPath>
                <g clip-path="url(#_clip2)">
                    <g transform="matrix(1,0,0,1,149.802,102.156)">
                        <path d="M2370.95,889.251C2370.95,912.204 2369.52,873.928 2368,866.652C2361.76,836.783 2343.36,806.877 2331.65,778.736C2298.18,698.329 2248.25,610.597 2150.42,602.405C2007.34,590.424 1820.16,508.054 1771.23,361.241C1736.07,255.781 1773.22,151.406 1678.9,68.016C1586.81,-13.397 1431.39,5.313 1321.82,-26.294C1257.32,-44.901 1201.35,-83.426 1152.37,-128.45" style="fill:none;stroke:rgb(29,29,29);stroke-width:45.35px;"/>
                    </g>
                    <g transform="matrix(1,0,0,1,-79.2879,-23.5668)">
                        <path d="M2622.42,707.509C2633.23,606.208 2531.34,505.112 2444.13,468.808C2349.82,429.55 2227.47,406.863 2167.6,313.594C2095.36,201.028 2143.38,43.469 2016.82,-35.123C1923.34,-93.176 1799.9,-43.245 1712.79,-116.66" style="fill:none;stroke:rgb(29,29,29);stroke-width:45.35px;"/>
                    </g>
                    <path d="M2741.28,515.956C2740.5,518.676 2752.1,460.094 2742.26,436.882C2724.76,395.569 2655.12,365.634 2614.56,353.879C2548.66,334.776 2384.75,301.364 2345.4,244.831C2289.77,164.914 2292.01,-19.269 2226.54,-84.734C2175.75,-135.531 2086.01,-123.03 2024.68,-150.066" style="fill:none;stroke:rgb(29,29,29);stroke-width:45.35px;"/>
                    <g transform="matrix(1,0,0,1,-72.694,77.3374)">
                        <path d="M2121.44,978.15C2121.44,1002.65 2121.44,952.169 2121.44,943.761C2121.44,903.253 2119.19,865.725 2110.63,825.884C2088,720.514 2050.91,619.907 1981.95,535.606C1925.93,467.137 1837.68,405.387 1756,372.049C1685,343.067 1607.3,327.785 1544.8,280.202C1510.19,253.853 1485.99,212.694 1458.37,179.513C1433.41,149.533 1406.79,122.892 1406.79,81.771" style="fill:none;stroke:rgb(29,29,29);stroke-width:45.35px;"/>
                    </g>
                    <path d="M2780.09,255.639C2749.21,239.697 2709.83,239.453 2681.36,217.818C2563.64,128.364 2503.25,-34.445 2347.37,-65.582C2301.49,-74.746 2252.01,-70.288 2205.43,-73.442" style="fill:none;stroke:rgb(29,29,29);stroke-width:45.35px;"/>
                </g>
            </g>
            <g transform="matrix(0.406054,0.779468,-0.543644,0.669646,2033.99,-550.297)">
                <path d="M2702.97,746.386C2437.57,634.385 2208.15,834.726 2136.43,1032.91C2069.34,1218.25 2147.83,1428 2023.88,1565.19C1964.7,1630.69 1761.91,1718.19 1572.5,1716.6C1391.28,1715.09 1261.03,1785.86 1198.39,1952.79C1143.98,2097.78 1169.57,2267.23 1298.83,2374.61C1409.45,2466.5 1570.98,2506.99 1711.3,2517.98C1840.54,2528.11 2202.22,2478.91 2372.19,2374.61C2702.65,2171.82 2910.91,1938.61 2979.14,1565.19C3017.27,1356.49 2993.32,894.225 2702.97,746.386" style="fill:none;stroke:rgb(50,215,217);stroke-width:78.37px;"/>
            </g>
            <g transform="matrix(1,0,0,1.5377,0,0)">
                <ellipse cx="2927.44" cy="841.527" rx="45.183" ry="41.993" style="fill:rgb(50,215,217);"/>
            </g>
            <g transform="matrix(1,0,0,1.5377,0,0)">
                <ellipse cx="841.698" cy="175.748" rx="69.504" ry="64.834" style="fill:rgb(50,215,217);"/>
            </g>
            <g transform="matrix(0.951895,-0.471189,0.306424,1.46373,-388.414,504.763)">
                <path d="M1027.61,1401.21C1027.61,1361.36 995.259,1329.01 955.409,1329.01L747.153,1329.01C707.303,1329.01 674.95,1361.36 674.95,1401.21C674.95,1441.06 707.303,1473.42 747.153,1473.42L955.409,1473.42C995.259,1473.42 1027.61,1441.06 1027.61,1401.21Z" style="fill:rgb(50,215,217);"/>
            </g>
            <g transform="matrix(0.625858,-1.19931,0.779937,0.962384,383.431,4690.8)">
                <path d="M3024.7,512.795C3024.7,487.524 3004.18,467.008 2978.91,467.008L2647.5,467.008C2622.23,467.008 2601.72,487.524 2601.72,512.795C2601.72,538.066 2622.23,558.583 2647.5,558.583L2978.91,558.583C3004.18,558.583 3024.7,538.066 3024.7,512.795Z" style="fill:rgb(50,215,217);"/>
            </g>
            <g transform="matrix(1,0,0,1.5377,0,0)">
                <path d="M301.171,305.539C301.171,292.731 290.772,282.332 277.964,282.332L229.584,282.332C216.776,282.332 206.377,292.731 206.377,305.539L206.377,351.954C206.377,364.762 216.776,375.161 229.584,375.161L277.964,375.161C290.772,375.161 301.171,364.762 301.171,351.954L301.171,305.539Z" style="fill:rgb(50,215,217);"/>
            </g>
            <g transform="matrix(1,0,0,1.5377,0,0)">
                <path d="M183.778,1844.61C183.778,1834.65 175.691,1826.56 165.729,1826.56L114.409,1826.56C104.448,1826.56 96.36,1834.65 96.36,1844.61L96.36,1880.71C96.36,1890.67 104.448,1898.76 114.409,1898.76L165.729,1898.76C175.691,1898.76 183.778,1890.67 183.778,1880.71L183.778,1844.61Z" style="fill:rgb(50,215,217);"/>
            </g>
            <g transform="matrix(1,0,0,1.5377,0,0)">
                <path d="M428.873,1362.67C428.873,1356.98 424.252,1352.35 418.56,1352.35L397.934,1352.35C392.242,1352.35 387.62,1356.98 387.62,1362.67L387.62,1390.9C387.62,1396.59 392.242,1401.21 397.934,1401.21L418.56,1401.21C424.252,1401.21 428.873,1396.59 428.873,1390.9L428.873,1362.67Z" style="fill:rgb(50,215,217);"/>
            </g>
            <g transform="matrix(1,0,0,1.5377,0,0)">
                <path d="M2298.74,1647.65C2298.74,1642.84 2294.83,1638.94 2290.02,1638.94L2272.59,1638.94C2267.78,1638.94 2263.88,1642.84 2263.88,1647.65L2263.88,1669.03C2263.88,1673.84 2267.78,1677.74 2272.59,1677.74L2290.02,1677.74C2294.83,1677.74 2298.74,1673.84 2298.74,1669.03L2298.74,1647.65Z" style="fill:rgb(50,215,217);"/>
            </g>
            <g transform="matrix(1,0,0,1.5377,0,0)">
                <path d="M2855.24,223.522C2855.24,219.93 2852.33,217.014 2848.73,217.014L2823.93,217.014C2820.34,217.014 2817.42,219.93 2817.42,223.522L2817.42,236.537C2817.42,240.129 2820.34,243.045 2823.93,243.045L2848.73,243.045C2852.33,243.045 2855.24,240.129 2855.24,236.537L2855.24,223.522Z" style="fill:rgb(50,215,217);"/>
            </g>
            <g transform="matrix(1,0,0,1.5377,0,0)">
                <path d="M1420.05,773.248C1420.05,768.776 1416.41,765.145 1411.94,765.145L1395.74,765.145C1391.27,765.145 1387.64,768.776 1387.64,773.248L1387.64,821.877C1387.64,826.348 1391.27,829.979 1395.74,829.979L1411.94,829.979C1416.41,829.979 1420.05,826.348 1420.05,821.877L1420.05,773.248Z" style="fill:rgb(50,215,217);"/>
            </g>
            <g transform="matrix(1,0,0,1.5377,0,0)">
                <path d="M1173.48,1904.28C1173.48,1901.23 1171.01,1898.76 1167.96,1898.76L1120.56,1898.76C1117.51,1898.76 1115.03,1901.23 1115.03,1904.28L1115.03,1915.33C1115.03,1918.38 1117.51,1920.86 1120.56,1920.86L1167.96,1920.86C1171.01,1920.86 1173.48,1918.38 1173.48,1915.33L1173.48,1904.28Z" style="fill:rgb(50,215,217);"/>
            </g>
            <g transform="matrix(1,0,0,1.5377,0,0)">
                <path d="M1769.26,1478.2C1769.26,1475.56 1767.12,1473.42 1764.47,1473.42L1679.26,1473.42C1676.61,1473.42 1674.47,1475.56 1674.47,1478.2L1674.47,1487.78C1674.47,1490.42 1676.61,1492.57 1679.26,1492.57L1764.47,1492.57C1767.12,1492.57 1769.26,1490.42 1769.26,1487.78L1769.26,1478.2Z" style="fill:rgb(50,215,217);"/>
            </g>
            <g transform="matrix(1,0,0,1.5377,0,0)">
                <path d="M1173.48,471.557C1173.48,466.61 1169.47,462.593 1164.52,462.593L1069.97,462.593C1065.02,462.593 1061,466.61 1061,471.557L1061,489.485C1061,494.432 1065.02,498.449 1069.97,498.449L1164.52,498.449C1169.47,498.449 1173.48,494.432 1173.48,489.485L1173.48,471.557Z" style="fill:rgb(50,215,217);"/>
            </g>
            <g transform="matrix(1,0,0,1.5377,0,0)">
                <path d="M731.923,1929.22C673.592,1777.07 537.188,1780.74 444.359,1674.01C387.233,1608.33 389.685,1517.29 340.901,1448.82C287.398,1373.73 185.091,1358.85 122.796,1293.89C69.259,1238.08 69.907,1157.99 22.023,1100.17" style="fill:none;stroke:rgb(25,86,235);stroke-width:52.78px;"/>
            </g>
            <g transform="matrix(1,0,0,1.5377,0,0)">
                <path d="M1354.23,1955.25C1370.67,1722.12 1124.96,1793.45 1029.48,1681.13C958.555,1597.7 973.221,1462.49 888.784,1388.28C795.364,1306.17 652.131,1334.26 569.985,1229.31C506.505,1148.2 523.337,1026.5 453.793,953.446C364.492,859.646 236.685,919.406 143.125,786.093" style="fill:none;stroke:rgb(25,86,235);stroke-width:52.78px;"/>
            </g>
            <g transform="matrix(1,0,0,1.5377,0,0)">
                <path d="M2850.81,1880.1C2780.3,1714.25 2612.81,1750.94 2498.22,1656.94C2424.25,1596.26 2441.51,1483.92 2367.39,1424.81C2287.9,1361.43 2171.76,1382.16 2096.85,1310.9C2023.9,1241.51 2036.82,1125.95 1965.89,1069.24C1873.77,995.589 1789.67,1030.7 1719.07,896.285" style="fill:none;stroke:rgb(25,86,235);stroke-width:52.78px;"/>
            </g>
            <g transform="matrix(1,0,0,1.5377,0,0)">
                <path d="M1531.06,1001.4C1542.91,858.453 1373.38,882.564 1303.54,799.389C1246.3,731.216 1286.58,654.625 1247.67,593.383C1199.77,517.987 1083.31,534.917 1020.8,478.464C959.82,423.398 985.531,333.501 931.012,279.396C844.277,193.318 687.174,260.564 660.023,75.08" style="fill:none;stroke:rgb(25,86,235);stroke-width:52.78px;"/>
            </g>
            <g transform="matrix(1,0,0,1.5377,0,0)">
                <path d="M1779.09,1709.67C1750.54,1646.29 1680.65,1624.24 1642.65,1569.3C1618.3,1534.1 1619.99,1482.9 1587.25,1453.18C1503.53,1377.18 1442.01,1434.2 1391.92,1283.12" style="fill:none;stroke:rgb(25,86,235);stroke-width:52.78px;"/>
            </g>
            <g transform="matrix(1,0,0,1.5377,0,0)">
                <path d="M2881.27,725.858C2837.51,692.996 2783.66,679.617 2739.61,647.808" style="fill:none;stroke:rgb(25,86,235);stroke-width:52.78px;"/>
            </g>
            <g transform="matrix(1,0,0,1.5377,0,0)">
                <path d="M2950.52,1360.94C2939.62,1258.59 2834.85,1249.82 2772.71,1191.93C2738.28,1159.84 2722.25,1112.75 2682.27,1086.38" style="fill:none;stroke:rgb(25,86,235);stroke-width:52.78px;"/>
            </g>
        </g>
    </g>
</svg>
