<?xml version="1.0" encoding="UTF-8" standalone="no"?><!DOCTYPE svg PUBLIC "-//W3C//DTD SVG 1.1//EN" "http://www.w3.org/Graphics/SVG/1.1/DTD/svg11.dtd"><svg width="100%" height="100%" viewBox="0 0 28 28" version="1.1" xmlns="http://www.w3.org/2000/svg" xmlns:xlink="http://www.w3.org/1999/xlink" xml:space="preserve" xmlns:serif="http://www.serif.com/" style="fill-rule:evenodd;clip-rule:evenodd;stroke-linejoin:round;stroke-miterlimit:2;"><path d="M27.199,6.8l0,13.6c0,3.752 -3.047,6.799 -6.799,6.799l-13.6,0c-3.753,0 -6.8,-3.047 -6.8,-6.799l-0,-13.6c-0,-3.753 3.047,-6.8 6.8,-6.8l13.6,0c3.752,0 6.799,3.047 6.799,6.8Z" style="fill:#20abf4;fill-opacity:0.1;"/><clipPath id="_clip1"><path d="M27.199,6.8l0,13.6c0,3.752 -3.047,6.799 -6.799,6.799l-13.6,0c-3.753,0 -6.8,-3.047 -6.8,-6.799l-0,-13.6c-0,-3.753 3.047,-6.8 6.8,-6.8l13.6,0c3.752,0 6.799,3.047 6.799,6.8Z"/></clipPath><g clip-path="url(#_clip1)"><g><path d="M31.368,27.343l-21.068,0l-0.765,0l0,-17.176l-3.855,2.656l-4.348,-6.755l9.744,-6.212l20.292,-0l-0,3.392l-2.332,10.352l2.332,9.067l-0,4.676Z" style="fill:url(#_Linear2);"/></g></g><defs><linearGradient id="_Linear2" x1="0" y1="0" x2="1" y2="0" gradientUnits="userSpaceOnUse" gradientTransform="matrix(25.8679,0,0,25.8679,1.3315,10.5266)"><stop offset="0" style="stop-color:#20abf4;stop-opacity:1"/><stop offset="1" style="stop-color:#20abf4;stop-opacity:0"/></linearGradient></defs></svg>