<?xml version="1.0" encoding="UTF-8" standalone="no"?><!DOCTYPE svg PUBLIC "-//W3C//DTD SVG 1.1//EN" "http://www.w3.org/Graphics/SVG/1.1/DTD/svg11.dtd"><svg width="100%" height="100%" viewBox="0 0 23 23" version="1.1" xmlns="http://www.w3.org/2000/svg" xmlns:xlink="http://www.w3.org/1999/xlink" xml:space="preserve" xmlns:serif="http://www.serif.com/" style="fill-rule:evenodd;clip-rule:evenodd;stroke-linecap:round;stroke-linejoin:round;stroke-miterlimit:1.5;"><rect id="Artboard1" x="0" y="0" width="22.5" height="22.5" style="fill:none;"/><clipPath id="_clip1"><rect x="0" y="0" width="22.5" height="22.5"/></clipPath><g clip-path="url(#_clip1)"><g><path id="graph" d="M21.436,1.061l0.651,-0l0.001,0.04l-0.652,-0l-0,1.152l0.645,-0l-0,0.04l-0.645,-0l-0,1.152l0.622,-0l-0.001,0.04l-0.621,-0l-0,1.152l0.581,-0l-0.002,0.04l-0.579,-0l-0,1.152l0.519,-0l-0.003,0.04l-0.516,-0l-0,1.152l0.433,-0l-0,0.011l-0.003,0.029l-0.43,-0l-0,1.152l0.322,-0l-0.004,0.04l-0.318,-0l-0,1.152l0.181,-0l-0.004,0.029l-0.001,0.011l-0.176,-0l-0,1.152l0.005,-0c-0.015,0.09 -0.03,0.18 -0.045,0.269l-0,-0.229l-1.152,-0l-0,1.152l0.98,-0l-0.008,0.04l-0.972,-0l-0,1.152l0.714,-0l-0.01,0.04l-0.704,-0l-0,1.152l0.388,-0l-0.009,0.028l-0.003,0.012l-0.376,-0l-0,1.115l-0.013,0.033c-0.006,0.017 -0.012,0.033 -0.018,0.05l-0.009,0.023l-0,-0.029l-1.152,-0l-0,1.152l0.676,-0l-0.011,0.023l-0.008,0.017l-0.657,-0l-0,1.152l0.035,-0l-0.006,0.008l-0.019,0.032l-0.01,-0l-0,0.017c-0.014,0.021 -0.027,0.042 -0.04,0.064l-0,-0.081l-1.153,-0l0,1.152l0.375,-0l-0.025,0.029l-0.009,0.011l-0.341,-0l0,0.377c-0.013,0.014 -0.026,0.028 -0.039,0.042l-0,-0.419l-1.153,-0l0,1.152l0.335,-0l-0.028,0.022l-0.024,0.018l-0.283,-0l0,0.205c-0.013,0.009 -0.026,0.018 -0.039,0.027l-0,-0.232l-1.153,-0l0,0.873c-0.013,0.006 -0.026,0.012 -0.039,0.018l-0,-0.891l-1.153,-0l0,1.152l0.474,0c-0.041,0.014 -0.082,0.027 -0.123,0.04l-0.351,-0l0,0.102l-0.018,0.005l-0.022,0.006l0,-0.113l-1.152,-0l0,0.342l-0.017,0.002l-0.023,0.003l0,-0.347l-1.152,-0l0,0.446l-0.04,0.001l0,-0.447l-1.152,-0l0,0.451l-0.04,-0.001l0,-0.45l-1.152,-0l0,0.383l-0.032,-0.003l-0.008,-0l0,-0.38l-1.152,-0l0,0.212l-0.04,-0.008l0,-0.204l-0.817,-0c-0.043,-0.013 -0.086,-0.026 -0.129,-0.04l0.946,0l0,-1.152l-1.152,-0l0,1.084l-0.015,-0.006l-0.025,-0.008l0,-1.07l-1.152,-0l0,0.549l-0.018,-0.01l-0.022,-0.012l0,-0.527l-0.792,-0l-0.024,-0.019l-0.027,-0.021l0.843,-0l0,-1.152l-1.152,-0l0,0.896l-0.024,-0.022l-0.016,-0.013l0,-0.861l-0.824,-0c-0.01,-0.013 -0.021,-0.027 -0.032,-0.04l0.856,-0l0,-1.152l-1.152,-0l0,0.766l-0.018,-0.026l-0.022,-0.03l0,-0.71l-0.459,-0l-0.011,-0.019l-0.013,-0.021l0.483,-0l0,-1.152l-1.071,-0l-0.002,-0.004l-0.016,-0.036l1.089,-0l0,-1.152l-1.152,-0l0,1.008l-0.001,-0.004c-0.007,-0.015 -0.014,-0.031 -0.02,-0.047l-0.019,-0.043l0,-0.914l-0.351,-0l-0.012,-0.033l-0.002,-0.007l0.365,-0l0,-1.152l-0.725,-0l0,-0.001l-0.011,-0.039l0.736,-0l0,-1.152l-1.024,-0l-0.007,-0.032l-0.002,-0.008l1.033,-0l0,-1.152l-1.152,-0l0,0.589c-0.013,-0.067 -0.027,-0.135 -0.04,-0.203l0,-0.386l-0.072,-0l-0.007,-0.04l0.079,-0l0,-1.152l-0.265,-0l-0.002,-0.012l-0.004,-0.028l0.271,-0l0,-1.152l-0.419,-0l-0.004,-0.04l0.423,-0l0,-1.152l-0.539,-0l-0.003,-0.03l-0.001,-0.01l0.543,-0l0,-1.152l-0.631,-0l-0.003,-0.04l0.634,-0l0,-1.152l-0.698,-0l-0.002,-0.04l0.7,-0l0,-1.152l-0.744,-0l-0.001,-0.04l0.745,-0l0,-1.152l-0.769,-0l-0.001,-0.04l0.77,-0l0,-1.152l-0.778,-0l0,-0.04l0.778,-0l0,-1.152l-0.771,-0l0.001,-0.04l0.77,-0l0,-1.074l0.04,-0l0,1.074l1.152,-0l0,-1.074l0.04,-0l0,1.074l1.152,-0l0,-1.074l0.04,-0l0,1.074l1.152,-0l0,-1.074l0.04,-0l0,1.074l1.152,-0l0,-1.074l0.04,-0l0,1.074l1.152,-0l0,-1.074l0.04,-0l0,1.074l1.152,-0l0,-1.074l0.04,-0l0,1.074l1.152,-0l0,-1.074l0.04,-0l0,1.074l1.152,-0l0,-1.074l0.04,-0l0,1.074l1.152,-0l0,-1.074l0.04,-0l0,1.074l1.152,-0l0,-1.074l0.04,-0l0,1.074l1.152,-0l0,-1.074l0.04,-0l0,1.074l1.153,-0l-0,-1.074l0.039,-0l0,1.074l1.153,-0l-0,-1.074l0.039,-0l0,1.074l1.153,-0l-0,-1.074l0.039,-0l0,1.074l1.153,-0l-0,-1.074l0.04,-0l-0,1.074l1.152,-0l-0,-1.074l0.04,-0l-0,1.074l1.152,-0l-0,-1.074l0.04,-0l-0,1.074Zm-13.113,19.112l0,1.152l1.152,0l0,-1.152l-1.152,-0Zm1.192,-0l0,1.152l1.152,0l0,-1.152l-1.152,-0Zm1.192,-0l0,1.152l1.152,0l0,-1.152l-1.152,-0Zm1.192,-0l0,1.152l1.152,0l0,-1.152l-1.152,-0Zm1.192,-0l0,1.152l1.152,0l0,-1.152l-1.152,-0Zm2.384,-1.192l0,1.152l1.153,-0l-0,-1.152l-1.153,-0Zm-1.192,-0l0,1.152l1.153,-0l-0,-1.152l-1.153,-0Zm-1.192,-0l0,1.152l1.152,-0l0,-1.152l-1.152,-0Zm-1.192,-0l0,1.152l1.152,-0l0,-1.152l-1.152,-0Zm-1.192,-0l0,1.152l1.152,-0l0,-1.152l-1.152,-0Zm-1.192,-0l0,1.152l1.152,-0l0,-1.152l-1.152,-0Zm-1.192,-0l0,1.152l1.152,-0l0,-1.152l-1.152,-0Zm-1.192,-0l0,1.152l1.152,-0l0,-1.152l-1.152,-0Zm-1.192,-0l0,1.152l1.152,-0l0,-1.152l-1.152,-0Zm-1.192,-1.192l0,1.152l1.152,-0l0,-1.152l-1.152,-0Zm1.192,-0l0,1.152l1.152,-0l0,-1.152l-1.152,-0Zm1.192,-0l0,1.152l1.152,-0l0,-1.152l-1.152,-0Zm1.192,-0l0,1.152l1.152,-0l0,-1.152l-1.152,-0Zm1.192,-0l0,1.152l1.152,-0l0,-1.152l-1.152,-0Zm1.192,-0l0,1.152l1.152,-0l0,-1.152l-1.152,-0Zm1.192,-0l0,1.152l1.152,-0l0,-1.152l-1.152,-0Zm1.192,-0l0,1.152l1.152,-0l0,-1.152l-1.152,-0Zm1.192,-0l0,1.152l1.153,-0l-0,-1.152l-1.153,-0Zm1.192,-0l0,1.152l1.153,-0l-0,-1.152l-1.153,-0Zm1.192,-0l0,1.152l1.153,-0l-0,-1.152l-1.153,-0Zm1.192,-1.192l0,1.152l1.153,-0l-0,-1.152l-1.153,-0Zm-1.192,-0l0,1.152l1.153,-0l-0,-1.152l-1.153,-0Zm-1.192,-0l0,1.152l1.153,-0l-0,-1.152l-1.153,-0Zm-1.192,-0l0,1.152l1.153,-0l-0,-1.152l-1.153,-0Zm-1.192,-0l0,1.152l1.152,-0l0,-1.152l-1.152,-0Zm-1.192,-0l0,1.152l1.152,-0l0,-1.152l-1.152,-0Zm-1.192,-0l0,1.152l1.152,-0l0,-1.152l-1.152,-0Zm-1.192,-0l0,1.152l1.152,-0l0,-1.152l-1.152,-0Zm-1.192,-0l0,1.152l1.152,-0l0,-1.152l-1.152,-0Zm-1.192,-0l0,1.152l1.152,-0l0,-1.152l-1.152,-0Zm-1.192,-0l0,1.152l1.152,-0l0,-1.152l-1.152,-0Zm-1.192,-0l0,1.152l1.152,-0l0,-1.152l-1.152,-0Zm-1.192,-0l0,1.152l1.152,-0l0,-1.152l-1.152,-0Zm14.304,-1.192l0,1.152l1.153,-0l-0,-1.152l-1.153,-0Zm-1.192,-0l0,1.152l1.153,-0l-0,-1.152l-1.153,-0Zm-1.192,-0l0,1.152l1.153,-0l-0,-1.152l-1.153,-0Zm-1.192,-0l0,1.152l1.153,-0l-0,-1.152l-1.153,-0Zm-1.192,-0l0,1.152l1.152,-0l0,-1.152l-1.152,-0Zm-1.192,-0l0,1.152l1.152,-0l0,-1.152l-1.152,-0Zm-1.192,-0l0,1.152l1.152,-0l0,-1.152l-1.152,-0Zm-1.192,-0l0,1.152l1.152,-0l0,-1.152l-1.152,-0Zm-1.192,-0l0,1.152l1.152,-0l0,-1.152l-1.152,-0Zm-1.192,-0l0,1.152l1.152,-0l0,-1.152l-1.152,-0Zm-1.192,-0l0,1.152l1.152,-0l0,-1.152l-1.152,-0Zm-1.192,-0l0,1.152l1.152,-0l0,-1.152l-1.152,-0Zm-1.192,-0l0,1.152l1.152,-0l0,-1.152l-1.152,-0Zm15.497,-1.192l-0,1.152l1.152,-0l-0,-1.152l-1.152,-0Zm-1.193,-0l0,1.152l1.153,-0l-0,-1.152l-1.153,-0Zm-1.192,-0l0,1.152l1.153,-0l-0,-1.152l-1.153,-0Zm-1.192,-0l0,1.152l1.153,-0l-0,-1.152l-1.153,-0Zm-1.192,-0l0,1.152l1.153,-0l-0,-1.152l-1.153,-0Zm-1.192,-0l0,1.152l1.152,-0l0,-1.152l-1.152,-0Zm-1.192,-0l0,1.152l1.152,-0l0,-1.152l-1.152,-0Zm-1.192,-0l0,1.152l1.152,-0l0,-1.152l-1.152,-0Zm-1.192,-0l0,1.152l1.152,-0l0,-1.152l-1.152,-0Zm-1.192,-0l0,1.152l1.152,-0l0,-1.152l-1.152,-0Zm-1.192,-0l0,1.152l1.152,-0l0,-1.152l-1.152,-0Zm-1.192,-0l0,1.152l1.152,-0l0,-1.152l-1.152,-0Zm-1.192,-0l0,1.152l1.152,-0l0,-1.152l-1.152,-0Zm-1.192,-0l0,1.152l1.152,-0l0,-1.152l-1.152,-0Zm-1.192,-0l0,1.152l1.152,-0l0,-1.152l-1.152,-0Zm1.192,-1.192l0,1.152l1.152,-0l0,-1.152l-1.152,-0Zm1.192,-0l0,1.152l1.152,-0l0,-1.152l-1.152,-0Zm1.192,-0l0,1.152l1.152,-0l0,-1.152l-1.152,-0Zm1.192,-0l0,1.152l1.152,-0l0,-1.152l-1.152,-0Zm1.192,-0l0,1.152l1.152,-0l0,-1.152l-1.152,-0Zm1.192,-0l0,1.152l1.152,-0l0,-1.152l-1.152,-0Zm1.192,-0l0,1.152l1.152,-0l0,-1.152l-1.152,-0Zm1.192,-0l0,1.152l1.152,-0l0,-1.152l-1.152,-0Zm1.192,-0l0,1.152l1.152,-0l0,-1.152l-1.152,-0Zm1.192,-0l0,1.152l1.153,-0l-0,-1.152l-1.153,-0Zm1.192,-0l0,1.152l1.153,-0l-0,-1.152l-1.153,-0Zm1.192,-0l0,1.152l1.153,-0l-0,-1.152l-1.153,-0Zm1.192,-0l0,1.152l1.153,-0l-0,-1.152l-1.153,-0Zm1.193,-0l-0,1.152l1.152,-0l-0,-1.152l-1.152,-0Zm-16.689,-0l0,1.152l1.152,-0l0,-1.152l-1.152,-0Zm8.344,-1.192l0,1.152l1.152,-0l0,-1.152l-1.152,-0Zm8.345,-0l-0,1.152l1.152,-0l-0,-1.152l-1.152,-0Zm-1.193,-0l0,1.152l1.153,-0l-0,-1.152l-1.153,-0Zm-1.192,-0l0,1.152l1.153,-0l-0,-1.152l-1.153,-0Zm-1.192,-0l0,1.152l1.153,-0l-0,-1.152l-1.153,-0Zm-1.192,-0l0,1.152l1.153,-0l-0,-1.152l-1.153,-0Zm-1.192,-0l0,1.152l1.152,-0l0,-1.152l-1.152,-0Zm-1.192,-0l0,1.152l1.152,-0l0,-1.152l-1.152,-0Zm-2.384,-0l0,1.152l1.152,-0l0,-1.152l-1.152,-0Zm-1.192,-0l0,1.152l1.152,-0l0,-1.152l-1.152,-0Zm-1.192,-0l0,1.152l1.152,-0l0,-1.152l-1.152,-0Zm-1.192,-0l0,1.152l1.152,-0l0,-1.152l-1.152,-0Zm-1.192,-0l0,1.152l1.152,-0l0,-1.152l-1.152,-0Zm-1.192,-0l0,1.152l1.152,-0l0,-1.152l-1.152,-0Zm-1.192,-0l0,1.152l1.152,-0l0,-1.152l-1.152,-0Zm1.192,-1.192l0,1.152l1.152,-0l0,-1.152l-1.152,-0Zm1.192,-0l0,1.152l1.152,-0l0,-1.152l-1.152,-0Zm1.192,-0l0,1.152l1.152,-0l0,-1.152l-1.152,-0Zm1.192,-0l0,1.152l1.152,-0l0,-1.152l-1.152,-0Zm1.192,-0l0,1.152l1.152,-0l0,-1.152l-1.152,-0Zm1.192,-0l0,1.152l1.152,-0l0,-1.152l-1.152,-0Zm1.192,-0l0,1.152l1.152,-0l0,-1.152l-1.152,-0Zm1.192,-0l0,1.152l1.152,-0l0,-1.152l-1.152,-0Zm-9.536,-0l0,1.152l1.152,-0l0,-1.152l-1.152,-0Zm10.728,-0l0,1.152l1.152,-0l0,-1.152l-1.152,-0Zm1.192,-0l0,1.152l1.153,-0l-0,-1.152l-1.153,-0Zm1.192,-0l0,1.152l1.153,-0l-0,-1.152l-1.153,-0Zm1.192,-0l0,1.152l1.153,-0l-0,-1.152l-1.153,-0Zm1.192,-0l0,1.152l1.153,-0l-0,-1.152l-1.153,-0Zm1.193,-0l-0,1.152l1.152,-0l-0,-1.152l-1.152,-0Zm-17.881,-0l0,1.152l1.152,-0l0,-1.152l-1.152,-0Zm0,-1.192l0,1.152l1.152,-0l0,-1.152l-1.152,-0Zm19.073,-0l-0,1.152l1.152,-0l-0,-1.152l-1.152,-0Zm-1.192,-0l-0,1.152l1.152,-0l-0,-1.152l-1.152,-0Zm-1.193,-0l0,1.152l1.153,-0l-0,-1.152l-1.153,-0Zm-1.192,-0l0,1.152l1.153,-0l-0,-1.152l-1.153,-0Zm-1.192,-0l0,1.152l1.153,-0l-0,-1.152l-1.153,-0Zm-1.192,-0l0,1.152l1.153,-0l-0,-1.152l-1.153,-0Zm-1.192,-0l0,1.152l1.152,-0l0,-1.152l-1.152,-0Zm-1.192,-0l0,1.152l1.152,-0l0,-1.152l-1.152,-0Zm-1.192,-0l0,1.152l1.152,-0l0,-1.152l-1.152,-0Zm-1.192,-0l0,1.152l1.152,-0l0,-1.152l-1.152,-0Zm-1.192,-0l0,1.152l1.152,-0l0,-1.152l-1.152,-0Zm-1.192,-0l0,1.152l1.152,-0l0,-1.152l-1.152,-0Zm-1.192,-0l0,1.152l1.152,-0l0,-1.152l-1.152,-0Zm-1.192,-0l0,1.152l1.152,-0l0,-1.152l-1.152,-0Zm-1.192,-0l0,1.152l1.152,-0l0,-1.152l-1.152,-0Zm-1.192,-0l0,1.152l1.152,-0l0,-1.152l-1.152,-0Zm-1.192,-1.192l0,1.152l1.152,-0l0,-1.152l-1.152,-0Zm19.073,-0l-0,1.152l1.152,-0l-0,-1.152l-1.152,-0Zm-1.192,-0l-0,1.152l1.152,-0l-0,-1.152l-1.152,-0Zm-1.193,-0l0,1.152l1.153,-0l-0,-1.152l-1.153,-0Zm-1.192,-0l0,1.152l1.153,-0l-0,-1.152l-1.153,-0Zm-1.192,-0l0,1.152l1.153,-0l-0,-1.152l-1.153,-0Zm-1.192,-0l0,1.152l1.153,-0l-0,-1.152l-1.153,-0Zm-1.192,-0l0,1.152l1.152,-0l0,-1.152l-1.152,-0Zm-1.192,-0l0,1.152l1.152,-0l0,-1.152l-1.152,-0Zm-1.192,-0l0,1.152l1.152,-0l0,-1.152l-1.152,-0Zm-1.192,-0l0,1.152l1.152,-0l0,-1.152l-1.152,-0Zm-1.192,-0l0,1.152l1.152,-0l0,-1.152l-1.152,-0Zm-1.192,-0l0,1.152l1.152,-0l0,-1.152l-1.152,-0Zm-1.192,-0l0,1.152l1.152,-0l0,-1.152l-1.152,-0Zm-1.192,-0l0,1.152l1.152,-0l0,-1.152l-1.152,-0Zm-1.192,-0l0,1.152l1.152,-0l0,-1.152l-1.152,-0Zm-1.192,-0l0,1.152l1.152,-0l0,-1.152l-1.152,-0Zm-1.192,-1.192l0,1.152l1.152,-0l0,-1.152l-1.152,-0Zm19.073,-0l-0,1.152l1.152,-0l-0,-1.152l-1.152,-0Zm-1.192,-0l-0,1.152l1.152,-0l-0,-1.152l-1.152,-0Zm-1.193,-0l0,1.152l1.153,-0l-0,-1.152l-1.153,-0Zm-1.192,-0l0,1.152l1.153,-0l-0,-1.152l-1.153,-0Zm-1.192,-0l0,1.152l1.153,-0l-0,-1.152l-1.153,-0Zm-1.192,-0l0,1.152l1.153,-0l-0,-1.152l-1.153,-0Zm-2.384,-0l0,1.152l1.152,-0l0,-1.152l-1.152,-0Zm-1.192,-0l0,1.152l1.152,-0l0,-1.152l-1.152,-0Zm-1.192,-0l0,1.152l1.152,-0l0,-1.152l-1.152,-0Zm-1.192,-0l0,1.152l1.152,-0l0,-1.152l-1.152,-0Zm-1.192,-0l0,1.152l1.152,-0l0,-1.152l-1.152,-0Zm-1.192,-0l0,1.152l1.152,-0l0,-1.152l-1.152,-0Zm-1.192,-0l0,1.152l1.152,-0l0,-1.152l-1.152,-0Zm-1.192,-0l0,1.152l1.152,-0l0,-1.152l-1.152,-0Zm-1.192,-0l0,1.152l1.152,-0l0,-1.152l-1.152,-0Zm10.728,-0l0,1.152l1.152,-0l0,-1.152l-1.152,-0Zm-11.92,-1.192l0,1.152l1.152,-0l0,-1.152l-1.152,-0Zm3.576,-0l0,1.152l1.152,-0l0,-1.152l-1.152,-0Zm1.192,-0l0,1.152l1.152,-0l0,-1.152l-1.152,-0Zm1.192,-0l0,1.152l1.152,-0l0,-1.152l-1.152,-0Zm1.192,-0l0,1.152l1.152,-0l0,-1.152l-1.152,-0Zm1.192,-0l0,1.152l1.152,-0l0,-1.152l-1.152,-0Zm1.192,-0l0,1.152l1.152,-0l0,-1.152l-1.152,-0Zm1.192,-0l0,1.152l1.152,-0l0,-1.152l-1.152,-0Zm1.192,-0l0,1.152l1.152,-0l0,-1.152l-1.152,-0Zm1.192,-0l0,1.152l1.153,-0l-0,-1.152l-1.153,-0Zm-11.92,-0l0,1.152l1.152,-0l0,-1.152l-1.152,-0Zm13.112,-0l0,1.152l1.153,-0l-0,-1.152l-1.153,-0Zm1.192,-0l0,1.152l1.153,-0l-0,-1.152l-1.153,-0Zm1.192,-0l0,1.152l1.153,-0l-0,-1.152l-1.153,-0Zm1.193,-0l-0,1.152l1.152,-0l-0,-1.152l-1.152,-0Zm1.192,-0l-0,1.152l1.152,-0l-0,-1.152l-1.152,-0Zm-16.689,-0l0,1.152l1.152,-0l0,-1.152l-1.152,-0Zm-2.384,-1.192l0,1.152l1.152,-0l0,-1.152l-1.152,-0Zm19.073,-0l-0,1.152l1.152,-0l-0,-1.152l-1.152,-0Zm-1.192,-0l-0,1.152l1.152,-0l-0,-1.152l-1.152,-0Zm-1.193,-0l0,1.152l1.153,-0l-0,-1.152l-1.153,-0Zm-1.192,-0l0,1.152l1.153,-0l-0,-1.152l-1.153,-0Zm-1.192,-0l0,1.152l1.153,-0l-0,-1.152l-1.153,-0Zm-1.192,-0l0,1.152l1.153,-0l-0,-1.152l-1.153,-0Zm-1.192,-0l0,1.152l1.152,-0l0,-1.152l-1.152,-0Zm-1.192,-0l0,1.152l1.152,-0l0,-1.152l-1.152,-0Zm-1.192,-0l0,1.152l1.152,-0l0,-1.152l-1.152,-0Zm-1.192,-0l0,1.152l1.152,-0l0,-1.152l-1.152,-0Zm-1.192,-0l0,1.152l1.152,-0l0,-1.152l-1.152,-0Zm-1.192,-0l0,1.152l1.152,-0l0,-1.152l-1.152,-0Zm-1.192,-0l0,1.152l1.152,-0l0,-1.152l-1.152,-0Zm-1.192,-0l0,1.152l1.152,-0l0,-1.152l-1.152,-0Zm-1.192,-0l0,1.152l1.152,-0l0,-1.152l-1.152,-0Zm-1.192,-0l0,1.152l1.152,-0l0,-1.152l-1.152,-0Zm0,-1.192l0,1.152l1.152,-0l0,-1.152l-1.152,-0Zm17.881,-0l-0,1.152l1.152,-0l-0,-1.152l-1.152,-0Zm-1.192,-0l-0,1.152l1.152,-0l-0,-1.152l-1.152,-0Zm-1.193,-0l0,1.152l1.153,-0l-0,-1.152l-1.153,-0Zm-1.192,-0l0,1.152l1.153,-0l-0,-1.152l-1.153,-0Zm-1.192,-0l0,1.152l1.153,-0l-0,-1.152l-1.153,-0Zm-1.192,-0l0,1.152l1.153,-0l-0,-1.152l-1.153,-0Zm-1.192,-0l0,1.152l1.152,-0l0,-1.152l-1.152,-0Zm-1.192,-0l0,1.152l1.152,-0l0,-1.152l-1.152,-0Zm-1.192,-0l0,1.152l1.152,-0l0,-1.152l-1.152,-0Zm-1.192,-0l0,1.152l1.152,-0l0,-1.152l-1.152,-0Zm-1.192,-0l0,1.152l1.152,-0l0,-1.152l-1.152,-0Zm-1.192,-0l0,1.152l1.152,-0l0,-1.152l-1.152,-0Zm-1.192,-0l0,1.152l1.152,-0l0,-1.152l-1.152,-0Zm-1.192,-0l0,1.152l1.152,-0l0,-1.152l-1.152,-0Zm-1.192,-0l0,1.152l1.152,-0l0,-1.152l-1.152,-0Zm-2.384,-0l0,1.152l1.152,-0l0,-1.152l-1.152,-0Zm0,-1.192l0,1.152l1.152,-0l0,-1.152l-1.152,-0Zm19.073,-0l-0,1.152l1.152,-0l-0,-1.152l-1.152,-0Zm-1.192,-0l-0,1.152l1.152,-0l-0,-1.152l-1.152,-0Zm-1.193,-0l0,1.152l1.153,-0l-0,-1.152l-1.153,-0Zm-1.192,-0l0,1.152l1.153,-0l-0,-1.152l-1.153,-0Zm-1.192,-0l0,1.152l1.153,-0l-0,-1.152l-1.153,-0Zm-1.192,-0l0,1.152l1.153,-0l-0,-1.152l-1.153,-0Zm-1.192,-0l0,1.152l1.152,-0l0,-1.152l-1.152,-0Zm-1.192,-0l0,1.152l1.152,-0l0,-1.152l-1.152,-0Zm-1.192,-0l0,1.152l1.152,-0l0,-1.152l-1.152,-0Zm-1.192,-0l0,1.152l1.152,-0l0,-1.152l-1.152,-0Zm-1.192,-0l0,1.152l1.152,-0l0,-1.152l-1.152,-0Zm-1.192,-0l0,1.152l1.152,-0l0,-1.152l-1.152,-0Zm-1.192,-0l0,1.152l1.152,-0l0,-1.152l-1.152,-0Zm-1.192,-0l0,1.152l1.152,-0l0,-1.152l-1.152,-0Zm-1.192,-0l0,1.152l1.152,-0l0,-1.152l-1.152,-0Zm-1.192,-0l0,1.152l1.152,-0l0,-1.152l-1.152,-0Zm-1.192,-1.192l0,1.152l1.152,-0l0,-1.152l-1.152,-0Zm3.576,-0l0,1.152l1.152,-0l0,-1.152l-1.152,-0Zm1.192,-0l0,1.152l1.152,-0l0,-1.152l-1.152,-0Zm1.192,-0l0,1.152l1.152,-0l0,-1.152l-1.152,-0Zm1.192,-0l0,1.152l1.152,-0l0,-1.152l-1.152,-0Zm1.192,-0l0,1.152l1.152,-0l0,-1.152l-1.152,-0Zm1.192,-0l0,1.152l1.152,-0l0,-1.152l-1.152,-0Zm1.192,-0l0,1.152l1.152,-0l0,-1.152l-1.152,-0Zm1.192,-0l0,1.152l1.152,-0l0,-1.152l-1.152,-0Zm1.192,-0l0,1.152l1.153,-0l-0,-1.152l-1.153,-0Zm1.192,-0l0,1.152l1.153,-0l-0,-1.152l-1.153,-0Zm1.192,-0l0,1.152l1.153,-0l-0,-1.152l-1.153,-0Zm1.192,-0l0,1.152l1.153,-0l-0,-1.152l-1.153,-0Zm1.193,-0l-0,1.152l1.152,-0l-0,-1.152l-1.152,-0Zm1.192,-0l-0,1.152l1.152,-0l-0,-1.152l-1.152,-0Zm-17.881,-0l0,1.152l1.152,-0l0,-1.152l-1.152,-0Zm1.192,-0l0,1.152l1.152,-0l0,-1.152l-1.152,-0Z" style="fill:url(#_Radial2);"/><path d="M0.314,19.131c0,0 0.08,0.051 0.115,0.063c0.49,0.187 0.889,0.196 1.223,0.095c0.492,-0.148 0.858,-0.545 1.168,-1.072c0.326,-0.555 0.596,-1.258 0.97,-1.857c0.325,-0.521 0.731,-0.963 1.375,-1.081c0.529,-0.097 0.947,0.197 1.337,0.643c0.465,0.53 0.88,1.275 1.319,2.01c0.468,0.783 0.963,1.554 1.551,2.084c0.647,0.584 1.403,0.89 2.345,0.679c0.812,-0.183 1.259,-0.756 1.461,-1.59c0.262,-1.078 0.092,-2.634 -0.083,-4.21c-0.165,-1.49 -0.334,-2.998 -0.067,-4.091c0.154,-0.629 0.457,-1.11 1.047,-1.309c1.346,-0.453 2.639,-0.057 3.757,0.797c0.021,0.016 0.15,0.114 0.171,0.13l0.411,-0.525c-0.021,-0.017 -0.155,-0.119 -0.177,-0.135c-1.3,-0.993 -2.81,-1.426 -4.375,-0.898c-0.815,0.275 -1.269,0.912 -1.482,1.781c-0.282,1.155 -0.122,2.749 0.053,4.324c0.165,1.489 0.345,2.96 0.097,3.978c-0.136,0.564 -0.411,0.974 -0.959,1.097c-0.706,0.159 -1.268,-0.086 -1.753,-0.523c-0.543,-0.49 -0.993,-1.208 -1.425,-1.931c-0.558,-0.936 -1.09,-1.879 -1.71,-2.434c-0.481,-0.432 -1.015,-0.647 -1.638,-0.533c-0.709,0.13 -1.213,0.538 -1.609,1.071c-0.357,0.482 -0.623,1.068 -0.888,1.61c-0.169,0.344 -0.336,0.669 -0.537,0.925c-0.164,0.21 -0.348,0.372 -0.588,0.432c-0.211,0.052 -0.459,0.024 -0.761,-0.092c-0.004,-0.001 -0.007,-0.002 -0.011,-0.003l-0.065,-0.021c-0,-0 -0,-0 -0.001,-0c-0.152,-0.036 -0.308,0.04 -0.373,0.182c-0.066,0.142 -0.024,0.31 0.101,0.403c0.001,0.001 0.001,0.001 0.001,0.001Z" style="fill:url(#_Linear3);"/><path d="M18.726,10.215c0.447,-0.94 0.984,-1.927 1.62,-2.953c0.827,-1.334 0.983,-2.504 0.733,-3.503c-0.369,-1.481 -1.653,-2.601 -3.089,-3.323l-0.074,-0.037c-0,-0 -0.011,-0.003 -0.03,-0.009c-0.161,-0.049 -0.333,0.03 -0.402,0.184c-0.068,0.154 -0.011,0.334 0.133,0.421c0,0 0.001,0 0.001,0l0.073,0.037c1.26,0.634 2.417,1.589 2.742,2.888c0.213,0.854 0.054,1.85 -0.653,2.99c-3.585,5.782 -4.069,10.362 -3.17,12.808c0.325,0.885 0.831,1.506 1.434,1.842l0.234,-0.339l0.091,-0.244c-0.484,-0.269 -0.873,-0.78 -1.134,-1.489c-0.665,-1.81 -0.49,-4.83 1.212,-8.666" style="fill:url(#_Linear4);"/><path d="M18.447,10.822c1.834,1.773 3.081,4.724 3.111,7.067c0.019,1.468 -0.435,2.699 -1.614,3.151c-0.552,0.211 -1.076,0.195 -1.525,-0.036c-0.017,-0.008 -0.034,-0.017 -0.05,-0.027l-0.325,0.583c0.016,0.009 0.032,0.017 0.048,0.025c0.615,0.326 1.333,0.368 2.09,0.077c1.432,-0.548 2.066,-2 2.043,-3.781c-0.033,-2.515 -1.377,-5.689 -3.353,-7.575c-0.019,-0.018 -0.104,-0.097 -0.123,-0.115l-0.011,-0.011l-0.291,0.642Z" style="fill:url(#_Linear5);"/><path d="M18.22,9.766c-1.295,-0.985 -2.797,-1.414 -4.353,-0.889c-0.811,0.273 -1.262,0.907 -1.473,1.772c-0.282,1.153 -0.122,2.746 0.052,4.318c0.166,1.491 0.345,2.964 0.098,3.984c-0.138,0.568 -0.417,0.982 -0.97,1.107c-0.711,0.159 -1.277,-0.086 -1.765,-0.526c-0.544,-0.491 -0.995,-1.211 -1.428,-1.935c-0.558,-0.934 -1.089,-1.876 -1.707,-2.431c-0.478,-0.428 -1.008,-0.643 -1.626,-0.53c-0.706,0.13 -1.207,0.536 -1.601,1.067c-0.356,0.481 -0.622,1.066 -0.887,1.607c-0.169,0.345 -0.337,0.671 -0.538,0.927c-0.166,0.213 -0.353,0.377 -0.595,0.437c-0.214,0.053 -0.464,0.025 -0.77,-0.092c-0.165,-0.063 -0.35,0.02 -0.413,0.184c-0.063,0.165 0.02,0.35 0.185,0.413c0.488,0.187 0.886,0.197 1.219,0.097c0.488,-0.147 0.853,-0.543 1.16,-1.066c0.326,-0.555 0.596,-1.259 0.97,-1.857c0.327,-0.525 0.736,-0.969 1.385,-1.088c0.534,-0.098 0.956,0.198 1.35,0.648c0.465,0.531 0.88,1.276 1.32,2.011c0.467,0.782 0.961,1.552 1.548,2.082c0.644,0.58 1.396,0.886 2.333,0.675c0.807,-0.181 1.249,-0.751 1.451,-1.58c0.261,-1.076 0.091,-2.63 -0.084,-4.204c-0.165,-1.492 -0.334,-3.002 -0.066,-4.096c0.155,-0.634 0.461,-1.118 1.056,-1.319c1.374,-0.463 2.694,-0.044 3.83,0.845l0.042,0.03c-1.875,4.148 -2.032,7.421 -1.32,9.356c0.324,0.881 0.828,1.5 1.428,1.835c0.622,0.346 1.353,0.397 2.126,0.101c1.435,-0.549 2.064,-2.009 2.034,-3.798c-0.043,-2.515 -1.392,-5.68 -3.369,-7.554c0,0 -0.118,-0.11 -0.116,-0.114c0.444,-0.933 0.978,-1.911 1.609,-2.929c0.824,-1.329 0.98,-2.496 0.731,-3.492c-0.368,-1.477 -1.65,-2.594 -3.082,-3.313c-0.158,-0.079 -0.35,-0.016 -0.429,0.142c-0.079,0.157 -0.016,0.35 0.142,0.429c1.264,0.635 2.424,1.594 2.749,2.897c0.214,0.857 0.055,1.856 -0.655,3.001c-0.611,0.986 -1.132,1.937 -1.571,2.848Zm0.222,1.033c-1.711,3.849 -1.886,6.879 -1.22,8.693c0.263,0.714 0.654,1.227 1.14,1.497c0.464,0.259 1.01,0.285 1.587,0.064c1.191,-0.457 1.648,-1.705 1.623,-3.191c-0.04,-2.348 -1.292,-5.297 -3.13,-7.063Z" style="fill:none;"/><path id="threadcover2" d="M18.069,10.055c-0.074,-0.034 -0.059,-0.047 -0.071,-0.056c-1.201,-0.904 -2.589,-1.305 -4.029,-0.82c-3.514,1.185 1.075,10.426 -2.325,11.191c-3.295,0.74 -3.957,-5.892 -6.539,-5.419c-2.479,0.453 -2.021,4.902 -4.562,3.93c-0,-0 -0.207,-0.072 -0.419,-0.17" style="fill:none;stroke:#15181e;stroke-width:0.67px;stroke-linecap:butt;"/><path id="threadcover1" d="M17.459,0.542l0.381,0.192c2.247,1.129 4.14,3.259 2.223,6.352c-2.349,3.789 -3.355,7.045 -3.498,9.502c-0.214,3.654 1.48,5.536 3.498,4.763c3.249,-1.245 1.783,-7.702 -1.381,-10.765c-0.013,-0.013 -0.059,-0.088 -0.083,-0.099" style="fill:none;stroke:#15181e;stroke-width:0.67px;stroke-linecap:butt;"/><g id="handles"><path id="thread" d="M0.481,18.856c2.61,1.069 2.125,-3.448 4.624,-3.905c2.582,-0.473 3.244,6.159 6.539,5.419c3.4,-0.765 -1.189,-10.006 2.325,-11.191c1.5,-0.505 2.943,-0.049 4.177,0.934" style="fill:none;stroke:#247cff;stroke-width:0.06px;stroke-linecap:butt;"/><path id="thread1" serif:id="thread" d="M18.521,10.434c3.274,2.995 4.846,9.651 1.542,10.917c-3.374,1.293 -5.844,-4.84 -0,-14.265c1.927,-3.109 0.004,-5.245 -2.257,-6.369" style="fill:none;stroke:#247cff;stroke-width:0.06px;stroke-linecap:butt;"/><g id="point5"><path d="M6.768,14.648l-3.526,0.604" style="fill:none;stroke:#1b72fd;stroke-width:0.02px;"/><path d="M3.162,15.196c0.038,-0.007 0.073,0.019 0.08,0.056c0.006,0.038 -0.019,0.074 -0.057,0.08c-0.037,0.007 -0.073,-0.019 -0.08,-0.056c-0.006,-0.038 0.019,-0.074 0.057,-0.08Z" style="fill:#1b72fd;stroke:#d2edfa;stroke-width:0.02px;"/><path d="M6.825,14.568c0.037,-0.007 0.073,0.019 0.079,0.056c0.007,0.038 -0.018,0.074 -0.056,0.08c-0.038,0.006 -0.073,-0.019 -0.08,-0.056c-0.006,-0.038 0.019,-0.074 0.057,-0.08Z" style="fill:#1b72fd;stroke:#d2edfa;stroke-width:0.02px;"/><circle cx="5.087" cy="14.95" r="0.14" style="fill:#d2edfa;stroke:#1b72fd;stroke-width:0.04px;"/></g><g id="point4"><path d="M13.475,19.953l-3.472,0.867" style="fill:none;stroke:#1b72fd;stroke-width:0.02px;"/><path d="M9.92,20.769c0.037,-0.009 0.074,0.013 0.083,0.051c0.01,0.037 -0.013,0.074 -0.05,0.083c-0.037,0.01 -0.075,-0.013 -0.084,-0.05c-0.009,-0.037 0.014,-0.075 0.051,-0.084Z" style="fill:#1b72fd;stroke:#d2edfa;stroke-width:0.02px;"/><path d="M13.525,19.869c0.037,-0.009 0.075,0.014 0.084,0.051c0.009,0.037 -0.013,0.074 -0.05,0.084c-0.037,0.009 -0.075,-0.014 -0.084,-0.051c-0.009,-0.037 0.013,-0.074 0.05,-0.084Z" style="fill:#1b72fd;stroke:#d2edfa;stroke-width:0.02px;"/><circle cx="11.69" cy="20.368" r="0.14" style="fill:#d2edfa;stroke:#1b72fd;stroke-width:0.04px;"/></g><circle id="point7" cx="0.52" cy="18.879" r="0.14" style="fill:#d2edfa;stroke:#1b72fd;stroke-width:0.04px;"/><circle id="point6" cx="1.517" cy="18.976" r="0.14" style="fill:#d2edfa;stroke:#1b72fd;stroke-width:0.04px;"/><g id="point3"><path d="M18.364,6.961l-6.72,3.372" style="fill:none;stroke:#1b72fd;stroke-width:0.02px;"/><path d="M11.627,10.266c0.037,-0.009 0.075,0.014 0.084,0.051c0.009,0.037 -0.013,0.074 -0.05,0.083c-0.037,0.01 -0.075,-0.013 -0.084,-0.05c-0.009,-0.037 0.013,-0.074 0.05,-0.084Z" style="fill:#1b72fd;stroke:#d2edfa;stroke-width:0.02px;"/><path d="M18.348,6.894c0.037,-0.009 0.074,0.014 0.083,0.051c0.01,0.037 -0.013,0.074 -0.05,0.083c-0.037,0.01 -0.074,-0.013 -0.084,-0.05c-0.009,-0.037 0.014,-0.074 0.051,-0.084Z" style="fill:#1b72fd;stroke:#d2edfa;stroke-width:0.02px;"/><circle cx="13.874" cy="9.215" r="0.14" style="fill:#d2edfa;stroke:#1b72fd;stroke-width:0.04px;"/></g><g id="point2"><path d="M22.196,20.759l-4.176,1.242" style="fill:none;stroke:#1b72fd;stroke-width:0.02px;"/><path d="M18.003,21.934c0.037,-0.01 0.075,0.013 0.084,0.05c0.009,0.037 -0.013,0.075 -0.05,0.084c-0.037,0.009 -0.075,-0.014 -0.084,-0.051c-0.01,-0.037 0.013,-0.074 0.05,-0.083Z" style="fill:#1b72fd;stroke:#d2edfa;stroke-width:0.02px;"/><path d="M22.248,20.667c0.037,-0.009 0.075,0.014 0.084,0.051c0.009,0.037 -0.013,0.074 -0.05,0.083c-0.037,0.01 -0.075,-0.013 -0.084,-0.05c-0.009,-0.037 0.013,-0.075 0.05,-0.084Z" style="fill:#1b72fd;stroke:#d2edfa;stroke-width:0.02px;"/><circle cx="19.917" cy="21.439" r="0.14" style="fill:#d2edfa;stroke:#1b72fd;stroke-width:0.04px;"/></g><g id="point1"><path d="M14.581,15.024l7.653,-11.074" style="fill:none;stroke:#1b72fd;stroke-width:0.02px;"/><path d="M22.251,4.017c-0.037,0.01 -0.075,-0.013 -0.084,-0.05c-0.009,-0.037 0.013,-0.075 0.05,-0.084c0.037,-0.009 0.075,0.014 0.084,0.051c0.009,0.037 -0.013,0.074 -0.05,0.083Z" style="fill:#1b72fd;stroke:#d2edfa;stroke-width:0.02px;"/><path d="M14.598,15.091c-0.037,0.009 -0.075,-0.013 -0.084,-0.05c-0.009,-0.037 0.014,-0.075 0.051,-0.084c0.037,-0.009 0.074,0.013 0.083,0.05c0.01,0.037 -0.013,0.075 -0.05,0.084Z" style="fill:#1b72fd;stroke:#d2edfa;stroke-width:0.02px;"/><circle cx="19.935" cy="7.314" r="0.14" style="fill:#d2edfa;stroke:#1b72fd;stroke-width:0.04px;"/></g><circle id="point0" cx="17.808" cy="0.717" r="0.14" style="fill:#d2edfa;stroke:#1b72fd;stroke-width:0.04px;"/></g><path id="quad1" d="M7.926,9.484c0.096,-0.219 0.101,-0.467 0.014,-0.689c-0.086,-0.222 -0.258,-0.401 -0.477,-0.497c0,-0 0,-0 0,-0c-0.219,-0.096 -0.466,-0.101 -0.689,-0.014c-0.222,0.086 -0.401,0.258 -0.497,0.477c0,-0 0,-0 0,-0c-0.096,0.219 -0.101,0.466 -0.014,0.689c0.087,0.222 0.258,0.401 0.477,0.497c0,-0 0,-0 0,-0c0.219,0.096 0.467,0.101 0.689,0.014c0.222,-0.087 0.401,-0.258 0.497,-0.477c0,-0 0,-0 0,-0Z" style="fill:#32d7d9;"/><path id="quad2" d="M3.52,20.624c-0.065,-0.15 -0.186,-0.268 -0.337,-0.329c-0.151,-0.061 -0.321,-0.059 -0.471,0.005c0,-0 0,-0 -0,-0c-0.15,0.064 -0.269,0.185 -0.33,0.336c-0.06,0.152 -0.059,0.321 0.005,0.471c0,0 0.001,0 0.001,0c0.064,0.151 0.185,0.269 0.336,0.33c0.151,0.061 0.321,0.059 0.471,-0.005c-0,-0 0,-0 0,-0c0.15,-0.064 0.269,-0.185 0.33,-0.337c0.06,-0.151 0.059,-0.32 -0.005,-0.471c-0,0 -0,0 -0,0Z" style="fill:#32d7d9;"/></g></g><defs><radialGradient id="_Radial2" cx="0" cy="0" r="1" gradientUnits="userSpaceOnUse" gradientTransform="matrix(1.33586e-15,21.8163,-11.3802,1.06581e-15,10.7074,0)"><stop offset="0" style="stop-color:#1a62fd;stop-opacity:1"/><stop offset="0.55" style="stop-color:#1b54ce;stop-opacity:0.79"/><stop offset="1" style="stop-color:#15181e;stop-opacity:0"/></radialGradient><linearGradient id="_Linear3" x1="0" y1="0" x2="1" y2="0" gradientUnits="userSpaceOnUse" gradientTransform="matrix(18.4301,0,0,12.1246,-0.0161704,14.6995)"><stop offset="0" style="stop-color:#1372ff;stop-opacity:1"/><stop offset="0.31" style="stop-color:#1f7efc;stop-opacity:1"/><stop offset="0.69" style="stop-color:#3c9cf6;stop-opacity:1"/><stop offset="0.86" style="stop-color:#2a98f2;stop-opacity:1"/><stop offset="1" style="stop-color:#2397f0;stop-opacity:1"/></linearGradient><linearGradient id="_Linear4" x1="0" y1="0" x2="1" y2="0" gradientUnits="userSpaceOnUse" gradientTransform="matrix(-0.240836,21.1671,-21.1671,-0.240836,18.1915,0.556525)"><stop offset="0" style="stop-color:#32d7d9;stop-opacity:1"/><stop offset="0.57" style="stop-color:#31d0db;stop-opacity:1"/><stop offset="0.8" style="stop-color:#2ec2e0;stop-opacity:1"/><stop offset="1" style="stop-color:#2bb5e5;stop-opacity:1"/></linearGradient><linearGradient id="_Linear5" x1="0" y1="0" x2="1" y2="0" gradientUnits="userSpaceOnUse" gradientTransform="matrix(3.57493e-16,-5.8383,8.60052,5.2663e-16,18.0443,16.0185)"><stop offset="0" style="stop-color:#2bb6e5;stop-opacity:1"/><stop offset="0.53" style="stop-color:#2ab1e7;stop-opacity:1"/><stop offset="1" style="stop-color:#259fed;stop-opacity:1"/></linearGradient></defs>
  <style>
    #threadcover1,
    #threadcover2 {
      stroke-dasharray: 100;
      stroke-dashoffset: 0;
      animation: dash 10s linear forwards infinite;
    }

    #threadcover1 {
      animation-delay: 2000ms;
    }
    
    @keyframes dash {
      0% {
        stroke-dashoffset: 0; 
      }
      50% {
        stroke-dashoffset: 100; 
      }
      100% {
        stroke-dashoffset: 200; 
      }
    }
    </style>
</svg>