<?xml version="1.0" encoding="UTF-8" standalone="no"?>
<!DOCTYPE svg PUBLIC "-//W3C//DTD SVG 1.1//EN" "http://www.w3.org/Graphics/SVG/1.1/DTD/svg11.dtd">
<svg width="100%" height="100%" viewBox="0 0 28 28" version="1.1" xmlns="http://www.w3.org/2000/svg" xmlns:xlink="http://www.w3.org/1999/xlink" xml:space="preserve" xmlns:serif="http://www.serif.com/" style="fill-rule:evenodd;clip-rule:evenodd;stroke-linejoin:round;stroke-miterlimit:2;">
    <g transform="matrix(1,0,0,1,-103104,-140)">
        <g id="Artboard16" transform="matrix(1,0,0,1,-0.900305,-0.200757)">
            <rect x="103105" y="140.201" width="27.199" height="27.199" style="fill:none;"/>
            <g transform="matrix(0.00097601,0,0,0.00097601,103011,231.619)">
                <path d="M124495,-86698.2L124495,-72764.3C124495,-68919.1 121373,-65797.3 117528,-65797.3L103594,-65797.3C99748.9,-65797.3 96627.1,-68919.1 96627.1,-72764.3L96627.1,-86698.2C96627.1,-90543.4 99748.9,-93665.2 103594,-93665.2L117528,-93665.2C121373,-93665.2 124495,-90543.4 124495,-86698.2Z" style="fill:none;"/>
                <clipPath id="_clip1">
                    <path d="M124495,-86698.2L124495,-72764.3C124495,-68919.1 121373,-65797.3 117528,-65797.3L103594,-65797.3C99748.9,-65797.3 96627.1,-68919.1 96627.1,-72764.3L96627.1,-86698.2C96627.1,-90543.4 99748.9,-93665.2 103594,-93665.2L117528,-93665.2C121373,-93665.2 124495,-90543.4 124495,-86698.2Z"/>
                </clipPath>
                <g clip-path="url(#_clip1)">
                    <g transform="matrix(1.38119,0,0,1.38119,-79502.9,-116057)">
                        <path d="M150789,36495.6L135161,36495.6L134593,36495.6L134593,23753.7L131733,25724.4L128508,20713.2L135737,16105.2L150789,16105.2L150789,18621.7L149059,26300.4L150789,33026.7L150789,36495.6Z" style="fill:url(#_Linear2);"/>
                    </g>
                </g>
            </g>
        </g>
    </g>
    <defs>
        <linearGradient id="_Linear2" x1="0" y1="0" x2="1" y2="0" gradientUnits="userSpaceOnUse" gradientTransform="matrix(19189,0,0,19189,128508,24020.7)"><stop offset="0" style="stop-color:rgb(32,171,244);stop-opacity:1"/><stop offset="1" style="stop-color:rgb(32,171,244);stop-opacity:0"/></linearGradient>
    </defs>
</svg>
