<?xml version="1.0" encoding="UTF-8" standalone="no"?>
<!DOCTYPE svg PUBLIC "-//W3C//DTD SVG 1.1//EN" "http://www.w3.org/Graphics/SVG/1.1/DTD/svg11.dtd">
<svg width="100%" height="100%" viewBox="0 0 503 571" version="1.1" xmlns="http://www.w3.org/2000/svg" xmlns:xlink="http://www.w3.org/1999/xlink" xml:space="preserve" xmlns:serif="http://www.serif.com/" style="fill-rule:evenodd;clip-rule:evenodd;stroke-linecap:round;stroke-linejoin:round;stroke-miterlimit:1.5;">
    <g transform="matrix(1,0,0,1,-5307.24,-1750.22)">
        <g transform="matrix(0.617118,-0.0628832,0.0628832,0.617118,3178.86,-1754.7)">
            <path d="M3417.5,6248.55C3417.57,6226.69 3434.11,6208.4 3455.85,6206.13C3456.13,6206.1 3456.4,6206.07 3456.68,6206.04C3481.33,6203.47 3503.73,6220.53 3507.81,6244.98C3519.94,6317.61 3543.45,6458.51 3548.37,6487.99C3548.97,6491.54 3549.78,6495.05 3550.8,6498.51C3561.93,6537.07 3623.37,6787.44 3378.51,6889.55C3189.89,6968.2 3039.33,6837.94 2967.89,6662.29C2918.98,6542.02 2870.79,6427.98 2845.37,6368.28C2835.08,6344.2 2845.8,6316.31 2869.56,6305.32C2869.56,6305.32 2869.56,6305.32 2869.56,6305.32C2880.91,6300.06 2893.89,6299.55 2905.62,6303.89C2917.35,6308.22 2926.87,6317.06 2932.07,6328.43C2964.7,6399.73 3026.51,6534.79 3026.51,6534.79L3041.61,6519.01C3041.61,6519.01 2962.31,6332.85 2922.2,6238.67C2916.28,6224.79 2916.31,6209.09 2922.26,6195.22C2928.22,6181.35 2939.6,6170.52 2953.74,6165.25C2954.14,6165.11 2954.53,6164.96 2954.93,6164.81C2974.95,6157.35 2997.32,6166.74 3006.01,6186.26C3041.72,6266.42 3126.87,6457.55 3126.87,6457.55L3148.29,6448.9C3148.29,6448.9 3059.83,6242.11 3015.92,6139.47C3009.75,6125.03 3009.96,6108.66 3016.51,6094.39C3023.06,6080.12 3035.34,6069.29 3050.31,6064.57C3051.28,6064.26 3052.23,6063.96 3053.18,6063.66C3069.55,6058.5 3087.2,6066.34 3094.34,6081.95C3132.34,6165.02 3243.84,6408.81 3243.84,6408.81L3263.47,6403.32C3263.47,6403.32 3181.08,6212.68 3138.4,6113.93C3132.05,6099.23 3132.27,6082.53 3139.01,6068C3145.75,6053.48 3158.37,6042.52 3173.69,6037.88C3174.51,6037.64 3175.32,6037.39 3176.12,6037.15C3192.41,6032.21 3209.85,6040.09 3216.92,6055.58C3259.61,6149.13 3398.42,6453.29 3398.42,6453.29L3416.82,6445.88C3416.82,6445.88 3417.27,6315.36 3417.5,6248.55Z" style="fill:url(#_Radial1);"/>
            <clipPath id="_clip2">
                <path d="M3417.5,6248.55C3417.57,6226.69 3434.11,6208.4 3455.85,6206.13C3456.13,6206.1 3456.4,6206.07 3456.68,6206.04C3481.33,6203.47 3503.73,6220.53 3507.81,6244.98C3519.94,6317.61 3543.45,6458.51 3548.37,6487.99C3548.97,6491.54 3549.78,6495.05 3550.8,6498.51C3561.93,6537.07 3623.37,6787.44 3378.51,6889.55C3189.89,6968.2 3039.33,6837.94 2967.89,6662.29C2918.98,6542.02 2870.79,6427.98 2845.37,6368.28C2835.08,6344.2 2845.8,6316.31 2869.56,6305.32C2869.56,6305.32 2869.56,6305.32 2869.56,6305.32C2880.91,6300.06 2893.89,6299.55 2905.62,6303.89C2917.35,6308.22 2926.87,6317.06 2932.07,6328.43C2964.7,6399.73 3026.51,6534.79 3026.51,6534.79L3041.61,6519.01C3041.61,6519.01 2962.31,6332.85 2922.2,6238.67C2916.28,6224.79 2916.31,6209.09 2922.26,6195.22C2928.22,6181.35 2939.6,6170.52 2953.74,6165.25C2954.14,6165.11 2954.53,6164.96 2954.93,6164.81C2974.95,6157.35 2997.32,6166.74 3006.01,6186.26C3041.72,6266.42 3126.87,6457.55 3126.87,6457.55L3148.29,6448.9C3148.29,6448.9 3059.83,6242.11 3015.92,6139.47C3009.75,6125.03 3009.96,6108.66 3016.51,6094.39C3023.06,6080.12 3035.34,6069.29 3050.31,6064.57C3051.28,6064.26 3052.23,6063.96 3053.18,6063.66C3069.55,6058.5 3087.2,6066.34 3094.34,6081.95C3132.34,6165.02 3243.84,6408.81 3243.84,6408.81L3263.47,6403.32C3263.47,6403.32 3181.08,6212.68 3138.4,6113.93C3132.05,6099.23 3132.27,6082.53 3139.01,6068C3145.75,6053.48 3158.37,6042.52 3173.69,6037.88C3174.51,6037.64 3175.32,6037.39 3176.12,6037.15C3192.41,6032.21 3209.85,6040.09 3216.92,6055.58C3259.61,6149.13 3398.42,6453.29 3398.42,6453.29L3416.82,6445.88C3416.82,6445.88 3417.27,6315.36 3417.5,6248.55Z"/>
            </clipPath>
            <g clip-path="url(#_clip2)">
                <path d="M3413.45,6447.66C3413.45,6447.66 3162.71,6522.59 3275.14,6772.89" style="fill:none;stroke:rgb(48,55,69);stroke-width:44.78px;"/>
            </g>
            <path d="M3417.5,6248.55C3417.57,6226.69 3434.11,6208.4 3455.85,6206.13C3456.13,6206.1 3456.4,6206.07 3456.68,6206.04C3481.33,6203.47 3503.73,6220.53 3507.81,6244.98C3519.94,6317.61 3543.45,6458.51 3548.37,6487.99C3548.97,6491.54 3549.78,6495.05 3550.8,6498.51C3561.93,6537.07 3623.37,6787.44 3378.51,6889.55C3189.89,6968.2 3039.33,6837.94 2967.89,6662.29C2918.98,6542.02 2870.79,6427.98 2845.37,6368.28C2835.08,6344.2 2845.8,6316.31 2869.56,6305.32C2869.56,6305.32 2869.56,6305.32 2869.56,6305.32C2880.91,6300.06 2893.89,6299.55 2905.62,6303.89C2917.35,6308.22 2926.87,6317.06 2932.07,6328.43C2964.7,6399.73 3026.51,6534.79 3026.51,6534.79L3041.61,6519.01C3041.61,6519.01 2962.31,6332.85 2922.2,6238.67C2916.28,6224.79 2916.31,6209.09 2922.26,6195.22C2928.22,6181.35 2939.6,6170.52 2953.74,6165.25C2954.14,6165.11 2954.53,6164.96 2954.93,6164.81C2974.95,6157.35 2997.32,6166.74 3006.01,6186.26C3041.72,6266.42 3126.87,6457.55 3126.87,6457.55L3148.29,6448.9C3148.29,6448.9 3059.83,6242.11 3015.92,6139.47C3009.75,6125.03 3009.96,6108.66 3016.51,6094.39C3023.06,6080.12 3035.34,6069.29 3050.31,6064.57C3051.28,6064.26 3052.23,6063.96 3053.18,6063.66C3069.55,6058.5 3087.2,6066.34 3094.34,6081.95C3132.34,6165.02 3243.84,6408.81 3243.84,6408.81L3263.47,6403.32C3263.47,6403.32 3181.08,6212.68 3138.4,6113.93C3132.05,6099.23 3132.27,6082.53 3139.01,6068C3145.75,6053.48 3158.37,6042.52 3173.69,6037.88C3174.51,6037.64 3175.32,6037.39 3176.12,6037.15C3192.41,6032.21 3209.85,6040.09 3216.92,6055.58C3259.61,6149.13 3398.42,6453.29 3398.42,6453.29L3416.82,6445.88C3416.82,6445.88 3417.27,6315.36 3417.5,6248.55Z" style="fill:none;stroke:rgb(48,55,69);stroke-width:44.78px;"/>
        </g>
    </g>
    <defs>
        <radialGradient id="_Radial1" cx="0" cy="0" r="1" gradientUnits="userSpaceOnUse" gradientTransform="matrix(-343.876,-782.944,782.944,-343.876,3373.01,6878.62)"><stop offset="0" style="stop-color:rgb(255,166,0);stop-opacity:1"/><stop offset="0.48" style="stop-color:rgb(255,199,27);stop-opacity:1"/><stop offset="1" style="stop-color:rgb(255,209,35);stop-opacity:1"/></radialGradient>
    </defs>
</svg>
