<svg clip-rule="evenodd" fill-rule="evenodd" stroke-linecap="round" stroke-linejoin="round" stroke-miterlimit="1.5" viewBox="0 0 503 571" xmlns="http://www.w3.org/2000/svg" xmlns:xlink="http://www.w3.org/1999/xlink"><radialGradient id="a" cx="0" cy="0" gradientTransform="matrix(-343.876 -782.944 782.944 -343.876 3373.01 6878.62)" gradientUnits="userSpaceOnUse" r="1"><stop offset="0" stop-color="#ffa600"/><stop offset=".48" stop-color="#ffc71b"/><stop offset="1" stop-color="#ffd123"/></radialGradient><clipPath id="b"><path clip-rule="evenodd" d="m3417.5 6248.55c.07-21.86 16.61-40.15 38.35-42.42.28-.03.55-.06.83-.09 24.65-2.57 47.05 14.49 51.13 38.94 12.13 72.63 35.64 213.53 40.56 243.01.6 3.55 1.41 7.06 2.43 10.52 11.13 38.56 72.57 288.93-172.29 391.04-188.62 78.65-339.18-51.61-410.62-227.26-48.91-120.27-97.1-234.31-122.52-294.01-10.29-24.08.43-51.97 24.19-62.96 11.35-5.26 24.33-5.77 36.06-1.43 11.73 4.33 21.25 13.17 26.45 24.54 32.63 71.3 94.44 206.36 94.44 206.36l15.1-15.78s-79.3-186.16-119.41-280.34c-5.92-13.88-5.89-29.58.06-43.45 5.96-13.87 17.34-24.7 31.48-29.97.4-.14.79-.29 1.19-.44 20.02-7.46 42.39 1.93 51.08 21.45 35.71 80.16 120.86 271.29 120.86 271.29l21.42-8.65s-88.46-206.79-132.37-309.43c-6.17-14.44-5.96-30.81.59-45.08s18.83-25.1 33.8-29.82c.97-.31 1.92-.61 2.87-.91 16.37-5.16 34.02 2.68 41.16 18.29 38 83.07 149.5 326.86 149.5 326.86l19.63-5.49s-82.39-190.64-125.07-289.39c-6.35-14.7-6.13-31.4.61-45.93 6.74-14.52 19.36-25.48 34.68-30.12.82-.24 1.63-.49 2.43-.73 16.29-4.94 33.73 2.94 40.8 18.43 42.69 93.55 181.5 397.71 181.5 397.71l18.4-7.41s.45-130.52.68-197.33z"/></clipPath><g transform="matrix(.617118 -.0628832 .0628832 .617118 -2128.38 -3504.92)"><path d="m3417.5 6248.55c.07-21.86 16.61-40.15 38.35-42.42.28-.03.55-.06.83-.09 24.65-2.57 47.05 14.49 51.13 38.94 12.13 72.63 35.64 213.53 40.56 243.01.6 3.55 1.41 7.06 2.43 10.52 11.13 38.56 72.57 288.93-172.29 391.04-188.62 78.65-339.18-51.61-410.62-227.26-48.91-120.27-97.1-234.31-122.52-294.01-10.29-24.08.43-51.97 24.19-62.96 11.35-5.26 24.33-5.77 36.06-1.43 11.73 4.33 21.25 13.17 26.45 24.54 32.63 71.3 94.44 206.36 94.44 206.36l15.1-15.78s-79.3-186.16-119.41-280.34c-5.92-13.88-5.89-29.58.06-43.45 5.96-13.87 17.34-24.7 31.48-29.97.4-.14.79-.29 1.19-.44 20.02-7.46 42.39 1.93 51.08 21.45 35.71 80.16 120.86 271.29 120.86 271.29l21.42-8.65s-88.46-206.79-132.37-309.43c-6.17-14.44-5.96-30.81.59-45.08s18.83-25.1 33.8-29.82c.97-.31 1.92-.61 2.87-.91 16.37-5.16 34.02 2.68 41.16 18.29 38 83.07 149.5 326.86 149.5 326.86l19.63-5.49s-82.39-190.64-125.07-289.39c-6.35-14.7-6.13-31.4.61-45.93 6.74-14.52 19.36-25.48 34.68-30.12.82-.24 1.63-.49 2.43-.73 16.29-4.94 33.73 2.94 40.8 18.43 42.69 93.55 181.5 397.71 181.5 397.71l18.4-7.41s.45-130.52.68-197.33z" fill="url(#a)"/><g clip-path="url(#b)"><path d="m3413.45 6447.66s-250.74 74.93-138.31 325.23" fill="none" stroke="#303745" stroke-width="44.78"/></g><path d="m3417.5 6248.55c.07-21.86 16.61-40.15 38.35-42.42.28-.03.55-.06.83-.09 24.65-2.57 47.05 14.49 51.13 38.94 12.13 72.63 35.64 213.53 40.56 243.01.6 3.55 1.41 7.06 2.43 10.52 11.13 38.56 72.57 288.93-172.29 391.04-188.62 78.65-339.18-51.61-410.62-227.26-48.91-120.27-97.1-234.31-122.52-294.01-10.29-24.08.43-51.97 24.19-62.96 11.35-5.26 24.33-5.77 36.06-1.43 11.73 4.33 21.25 13.17 26.45 24.54 32.63 71.3 94.44 206.36 94.44 206.36l15.1-15.78s-79.3-186.16-119.41-280.34c-5.92-13.88-5.89-29.58.06-43.45 5.96-13.87 17.34-24.7 31.48-29.97.4-.14.79-.29 1.19-.44 20.02-7.46 42.39 1.93 51.08 21.45 35.71 80.16 120.86 271.29 120.86 271.29l21.42-8.65s-88.46-206.79-132.37-309.43c-6.17-14.44-5.96-30.81.59-45.08s18.83-25.1 33.8-29.82c.97-.31 1.92-.61 2.87-.91 16.37-5.16 34.02 2.68 41.16 18.29 38 83.07 149.5 326.86 149.5 326.86l19.63-5.49s-82.39-190.64-125.07-289.39c-6.35-14.7-6.13-31.4.61-45.93 6.74-14.52 19.36-25.48 34.68-30.12.82-.24 1.63-.49 2.43-.73 16.29-4.94 33.73 2.94 40.8 18.43 42.69 93.55 181.5 397.71 181.5 397.71l18.4-7.41s.45-130.52.68-197.33z" fill="none" stroke="#303745" stroke-width="44.78"/></g></svg>