<?xml version="1.0" encoding="UTF-8" standalone="no"?>
<!DOCTYPE svg PUBLIC "-//W3C//DTD SVG 1.1//EN" "http://www.w3.org/Graphics/SVG/1.1/DTD/svg11.dtd">
<svg width="100%" height="100%" viewBox="0 0 315 315" version="1.1" xmlns="http://www.w3.org/2000/svg" xmlns:xlink="http://www.w3.org/1999/xlink" xml:space="preserve" xmlns:serif="http://www.serif.com/" style="fill-rule:evenodd;clip-rule:evenodd;stroke-linejoin:round;stroke-miterlimit:2;">
    <rect id="Artboard1" x="0" y="0" width="314.961" height="314.961" style="fill:none;"/>
    <clipPath id="_clip1">
        <rect id="Artboard11" serif:id="Artboard1" x="0" y="0" width="314.961" height="314.961"/>
    </clipPath>
    <g clip-path="url(#_clip1)">
        <g transform="matrix(-0.508105,0.861295,-0.861295,-0.508105,581.685,71.1806)">
            <g transform="matrix(0.880769,-0.473546,0.473546,0.880769,-60.0074,108.384)">
                <text x="185.229px" y="173.357px" style="font-family:'AppleColorEmoji', 'Apple Color Emoji';font-size:44.444px;">🎉</text>
            </g>
            <g transform="matrix(0.970125,-0.242606,0.242606,0.970125,-30.2243,59.0262)">
                <text x="224.555px" y="152.234px" style="font-family:'AppleColorEmoji', 'Apple Color Emoji';font-size:44.444px;">🎉</text>
            </g>
            <g transform="matrix(0.999999,0.00158568,-0.00158568,0.999999,0.224622,-0.424687)">
                <text x="267.939px" y="141.444px" style="font-family:'AppleColorEmoji', 'Apple Color Emoji';font-size:44.444px;">🎉</text>
            </g>
            <g transform="matrix(0.969364,0.24563,-0.24563,0.969364,44.3395,-72.4548)">
                <text x="312.626px" y="141.521px" style="font-family:'AppleColorEmoji', 'Apple Color Emoji';font-size:44.444px;">🎉</text>
            </g>
            <g transform="matrix(0.87933,0.476212,-0.476212,0.87933,115.571,-151.07)">
                <text x="355.877px" y="152.51px" style="font-family:'AppleColorEmoji', 'Apple Color Emoji';font-size:44.444px;">🎉</text>
            </g>
            <g transform="matrix(0.73672,0.676198,-0.676198,0.73672,221.59,-221.447)">
                <text x="395.173px" y="173.838px" style="font-family:'AppleColorEmoji', 'Apple Color Emoji';font-size:44.444px;">🎉</text>
            </g>
            <g transform="matrix(0.550578,0.834784,-0.834784,0.550578,362.685,-265.624)">
                <text x="428.036px" y="204.025px" style="font-family:'AppleColorEmoji', 'Apple Color Emoji';font-size:44.444px;">🎉</text>
            </g>
            <g transform="matrix(0.328823,0.944391,-0.944391,0.328823,531.757,-265.464)">
                <text x="452.641px" y="241.378px" style="font-family:'AppleColorEmoji', 'Apple Color Emoji';font-size:44.444px;">🎉</text>
            </g>
            <g transform="matrix(0.0870044,0.996208,-0.996208,0.0870044,709.093,-206.644)">
                <text x="467.285px" y="283.539px" style="font-family:'AppleColorEmoji', 'Apple Color Emoji';font-size:44.444px;">🎉</text>
            </g>
            <g transform="matrix(-0.15705,0.987591,-0.987591,-0.15705,869.102,-85.7776)">
                <text x="471.158px" y="328.019px" style="font-family:'AppleColorEmoji', 'Apple Color Emoji';font-size:44.444px;">🎉</text>
            </g>
            <g transform="matrix(-0.39542,0.9185,-0.9185,-0.39542,989.456,93.0426)">
                <text x="464.107px" y="372.164px" style="font-family:'AppleColorEmoji', 'Apple Color Emoji';font-size:44.444px;">🎉</text>
            </g>
            <g transform="matrix(-0.607943,0.793981,-0.793981,-0.607943,1045.85,309.933)">
                <text x="446.406px" y="413.181px" style="font-family:'AppleColorEmoji', 'Apple Color Emoji';font-size:44.444px;">🎉</text>
            </g>
            <g transform="matrix(-0.782491,0.622662,-0.622662,-0.782491,1026.62,538.632)">
                <text x="419.232px" y="448.626px" style="font-family:'AppleColorEmoji', 'Apple Color Emoji';font-size:44.444px;">🎉</text>
            </g>
            <g transform="matrix(-0.910778,0.412897,-0.412897,-0.910778,931.015,751.633)">
                <text x="384.298px" y="476.407px" style="font-family:'AppleColorEmoji', 'Apple Color Emoji';font-size:44.444px;">🎉</text>
            </g>
            <g transform="matrix(-0.984384,0.176036,-0.176036,-0.984384,768.937,921.442)">
                <text x="343.598px" y="494.827px" style="font-family:'AppleColorEmoji', 'Apple Color Emoji';font-size:44.444px;">🎉</text>
            </g>
            <g transform="matrix(-0.99768,-0.0680797,0.0680797,-0.99768,564.339,1024.52)">
                <text x="299.627px" y="502.644px" style="font-family:'AppleColorEmoji', 'Apple Color Emoji';font-size:44.444px;">🎉</text>
            </g>
            <g transform="matrix(-0.950447,-0.310887,0.310887,-0.950447,342.132,1053.7)">
                <text x="255.042px" y="499.585px" style="font-family:'AppleColorEmoji', 'Apple Color Emoji';font-size:44.444px;">🎉</text>
            </g>
            <g transform="matrix(-0.845183,-0.534478,0.534478,-0.845183,132.735,1009.79)">
                <text x="212.616px" y="485.67px" style="font-family:'AppleColorEmoji', 'Apple Color Emoji';font-size:44.444px;">🎉</text>
            </g>
            <g transform="matrix(-0.689794,-0.724006,0.724006,-0.689794,-38.8404,906.85)">
                <text x="174.853px" y="461.746px" style="font-family:'AppleColorEmoji', 'Apple Color Emoji';font-size:44.444px;">🎉</text>
            </g>
            <g transform="matrix(-0.492758,-0.870167,0.870167,-0.492758,-158.606,766.297)">
                <text x="144.044px" y="429.376px" style="font-family:'AppleColorEmoji', 'Apple Color Emoji';font-size:44.444px;">🎉</text>
            </g>
            <g transform="matrix(-0.264081,-0.9645,0.9645,-0.264081,-222.372,611.413)">
                <text x="122.07px" y="390.542px" style="font-family:'AppleColorEmoji', 'Apple Color Emoji';font-size:44.444px;">🎉</text>
            </g>
            <g transform="matrix(-0.0202134,-0.999796,0.999796,-0.0202134,-234.816,464.757)">
                <text x="110.32px" y="347.437px" style="font-family:'AppleColorEmoji', 'Apple Color Emoji';font-size:44.444px;">🎉</text>
            </g>
            <g transform="matrix(0.223625,-0.974675,0.974675,0.223625,-210.194,341.737)">
                <text x="109.415px" y="302.81px" style="font-family:'AppleColorEmoji', 'Apple Color Emoji';font-size:44.444px;">🎉</text>
            </g>
            <g transform="matrix(0.456763,-0.889588,0.889588,0.456763,-165.717,247.088)">
                <text x="119.453px" y="259.231px" style="font-family:'AppleColorEmoji', 'Apple Color Emoji';font-size:44.444px;">🎉</text>
            </g>
            <g transform="matrix(0.659847,-0.7514,0.7514,0.659847,-117.35,179.781)">
                <text x="139.894px" y="219.504px" style="font-family:'AppleColorEmoji', 'Apple Color Emoji';font-size:44.444px;">🎉</text>
            </g>
        </g>
        <g transform="matrix(0.508105,-0.861295,0.861295,0.508105,-197.798,226.003)">
            <g transform="matrix(0.883269,-0.468867,0.468867,0.883269,-57.9006,96.1431)">
                <text x="164.136px" y="164.355px" style="font-family:'AppleColorEmoji', 'Apple Color Emoji';font-size:33.333px;">🤩</text>
            </g>
            <g transform="matrix(0.982317,-0.187228,0.187228,0.982317,-23.9876,39.8135)">
                <text x="198.774px" y="146.894px" style="font-family:'AppleColorEmoji', 'Apple Color Emoji';font-size:33.333px;">🤩</text>
            </g>
            <g transform="matrix(0.994211,0.107448,-0.107448,0.994211,16.4628,-24.6561)">
                <text x="237.036px" y="140.444px" style="font-family:'AppleColorEmoji', 'Apple Color Emoji';font-size:33.333px;">🤩</text>
            </g>
            <g transform="matrix(0.918197,0.396123,-0.396123,0.918197,80.1444,-97.2422)">
                <text x="275.516px" y="145.426px" style="font-family:'AppleColorEmoji', 'Apple Color Emoji';font-size:33.333px;">🤩</text>
            </g>
            <g transform="matrix(0.761635,0.648006,-0.648006,0.761635,178.782,-162.901)">
                <text x="310.819px" y="161.563px" style="font-family:'AppleColorEmoji', 'Apple Color Emoji';font-size:33.333px;">🤩</text>
            </g>
            <g transform="matrix(0.539236,0.842154,-0.842154,0.539236,314.366,-199.895)">
                <text x="339.86px" y="187.341px" style="font-family:'AppleColorEmoji', 'Apple Color Emoji';font-size:33.333px;">🤩</text>
            </g>
            <g transform="matrix(0.267455,0.96357,-0.96357,0.267455,476.144,-185.503)">
                <text x="360.075px" y="220.402px" style="font-family:'AppleColorEmoji', 'Apple Color Emoji';font-size:33.333px;">🤩</text>
            </g>
            <g transform="matrix(-0.026552,0.999647,-0.999647,-0.026552,637.384,-104.631)">
                <text x="369.636px" y="258.024px" style="font-family:'AppleColorEmoji', 'Apple Color Emoji';font-size:33.333px;">🤩</text>
            </g>
            <g transform="matrix(-0.319325,0.947645,-0.947645,-0.319325,766.5,43.0014)">
                <text x="367.806px" y="296.781px" style="font-family:'AppleColorEmoji', 'Apple Color Emoji';font-size:33.333px;">🤩</text>
            </g>
            <g transform="matrix(-0.584223,0.811593,-0.811593,-0.584223,832.295,240.245)">
                <text x="354.609px" y="333.314px" style="font-family:'AppleColorEmoji', 'Apple Color Emoji';font-size:33.333px;">🤩</text>
            </g>
            <g transform="matrix(-0.795342,0.606161,-0.606161,-0.795342,815.635,453.212)">
                <text x="331.309px" y="364.297px" style="font-family:'AppleColorEmoji', 'Apple Color Emoji';font-size:33.333px;">🤩</text>
            </g>
            <g transform="matrix(-0.938412,0.345517,-0.345517,-0.938412,715.187,646.887)">
                <text x="299.94px" y="387.184px" style="font-family:'AppleColorEmoji', 'Apple Color Emoji';font-size:33.333px;">🤩</text>
            </g>
            <g transform="matrix(-0.998549,0.0538584,-0.0538584,-0.998549,547.678,784.837)">
                <text x="263.264px" y="399.798px" style="font-family:'AppleColorEmoji', 'Apple Color Emoji';font-size:33.333px;">🤩</text>
            </g>
            <g transform="matrix(-0.970596,-0.240713,0.240713,-0.970596,345.718,844.42)">
                <text x="224.433px" y="401.095px" style="font-family:'AppleColorEmoji', 'Apple Color Emoji';font-size:33.333px;">🤩</text>
            </g>
            <g transform="matrix(-0.856458,-0.516217,0.516217,-0.856458,145.33,822.32)">
                <text x="186.995px" y="390.954px" style="font-family:'AppleColorEmoji', 'Apple Color Emoji';font-size:33.333px;">🤩</text>
            </g>
            <g transform="matrix(-0.668479,-0.743731,0.743731,-0.668479,-18.0759,732.398)">
                <text x="154.197px" y="370.228px" style="font-family:'AppleColorEmoji', 'Apple Color Emoji';font-size:33.333px;">🤩</text>
            </g>
            <g transform="matrix(-0.421219,-0.906959,0.906959,-0.421219,-125.983,601.243)">
                <text x="128.852px" y="340.82px" style="font-family:'AppleColorEmoji', 'Apple Color Emoji';font-size:33.333px;">🤩</text>
            </g>
            <g transform="matrix(-0.134462,-0.990919,0.990919,-0.134462,-174.013,458.547)">
                <text x="113.257px" y="305.271px" style="font-family:'AppleColorEmoji', 'Apple Color Emoji';font-size:33.333px;">🤩</text>
            </g>
            <g transform="matrix(0.160156,-0.987092,0.987092,0.160156,-171.885,331.455)">
                <text x="108.842px" y="266.738px" style="font-family:'AppleColorEmoji', 'Apple Color Emoji';font-size:33.333px;">🤩</text>
            </g>
            <g transform="matrix(0.444556,-0.895751,0.895751,0.444556,-140.388,230.752)">
                <text x="115.87px" y="228.576px" style="font-family:'AppleColorEmoji', 'Apple Color Emoji';font-size:33.333px;">🤩</text>
            </g>
            <g transform="matrix(0.687364,-0.726313,0.726313,0.687364,-99.1752,157.94)">
                <text x="133.875px" y="194.171px" style="font-family:'AppleColorEmoji', 'Apple Color Emoji';font-size:33.333px;">🤩</text>
            </g>
        </g>
        <g transform="matrix(1,0,0,1,-34.7059,-66.3519)">
            <g transform="matrix(0.951998,-0.306103,0.306103,0.951998,-37.9308,55.2461)">
                <text x="157.185px" y="148.564px" style="font-family:'AppleColorEmoji', 'Apple Color Emoji';font-size:20.587px;">🎉</text>
            </g>
            <g transform="matrix(0.998211,-0.0597865,0.0597865,0.998211,-8.18777,10.8319)">
                <text x="176.92px" y="142.244px" style="font-family:'AppleColorEmoji', 'Apple Color Emoji';font-size:20.587px;">🎉</text>
            </g>
            <g transform="matrix(0.982317,0.187228,-0.187228,0.982317,29.8942,-34.4954)">
                <text x="197.561px" y="141.009px" style="font-family:'AppleColorEmoji', 'Apple Color Emoji';font-size:20.587px;">🎉</text>
            </g>
            <g transform="matrix(0.904698,0.426053,-0.426053,0.904698,82.4989,-79.0225)">
                <text x="217.887px" y="144.897px" style="font-family:'AppleColorEmoji', 'Apple Color Emoji';font-size:20.587px;">🎉</text>
            </g>
            <g transform="matrix(0.771215,0.636575,-0.636575,0.771215,152.003,-115.452)">
                <text x="236.619px" y="153.742px" style="font-family:'AppleColorEmoji', 'Apple Color Emoji';font-size:20.587px;">🎉</text>
            </g>
            <g transform="matrix(0.591187,0.806535,-0.806535,0.591187,237.875,-135.463)">
                <text x="252.563px" y="166.917px" style="font-family:'AppleColorEmoji', 'Apple Color Emoji';font-size:20.587px;">🎉</text>
            </g>
            <g transform="matrix(0.373137,0.927776,-0.927776,0.373137,336.325,-130.568)">
                <text x="264.785px" y="183.602px" style="font-family:'AppleColorEmoji', 'Apple Color Emoji';font-size:20.587px;">🎉</text>
            </g>
            <g transform="matrix(0.130165,0.991492,-0.991492,0.130165,438.123,-93.7558)">
                <text x="272.496px" y="202.822px" style="font-family:'AppleColorEmoji', 'Apple Color Emoji';font-size:20.587px;">🎉</text>
            </g>
            <g transform="matrix(-0.11686,0.993148,-0.993148,-0.11686,529.12,-23.8741)">
                <text x="275.175px" y="223.318px" style="font-family:'AppleColorEmoji', 'Apple Color Emoji';font-size:20.587px;">🎉</text>
            </g>
            <g transform="matrix(-0.360634,0.932707,-0.932707,-0.360634,598.578,77.4556)">
                <text x="272.741px" y="243.889px" style="font-family:'AppleColorEmoji', 'Apple Color Emoji';font-size:20.587px;">🎉</text>
            </g>
            <g transform="matrix(-0.580266,0.814427,-0.814427,-0.580266,633.528,199.815)">
                <text x="265.274px" y="263.159px" style="font-family:'AppleColorEmoji', 'Apple Color Emoji';font-size:20.587px;">🎉</text>
            </g>
            <g transform="matrix(-0.762842,0.646585,-0.646585,-0.762842,627.479,329.89)">
                <text x="253.24px" y="280.02px" style="font-family:'AppleColorEmoji', 'Apple Color Emoji';font-size:20.587px;">🎉</text>
            </g>
            <g transform="matrix(-0.898773,0.438413,-0.438413,-0.898773,579.515,452.96)">
                <text x="237.465px" y="293.383px" style="font-family:'AppleColorEmoji', 'Apple Color Emoji';font-size:20.587px;">🎉</text>
            </g>
            <g transform="matrix(-0.979656,0.200686,-0.200686,-0.979656,493.961,554.815)">
                <text x="218.859px" y="302.445px" style="font-family:'AppleColorEmoji', 'Apple Color Emoji';font-size:20.587px;">🎉</text>
            </g>
            <g transform="matrix(-0.998907,-0.0467404,0.0467404,-0.998907,382.578,622.096)">
                <text x="198.562px" y="306.575px" style="font-family:'AppleColorEmoji', 'Apple Color Emoji';font-size:20.587px;">🎉</text>
            </g>
            <g transform="matrix(-0.956174,-0.292799,0.292799,-0.956174,258.549,649.912)">
                <text x="177.914px" y="305.606px" style="font-family:'AppleColorEmoji', 'Apple Color Emoji';font-size:20.587px;">🎉</text>
            </g>
            <g transform="matrix(-0.85333,-0.521371,0.521371,-0.85333,136.887,637.56)">
                <text x="158.122px" y="299.526px" style="font-family:'AppleColorEmoji', 'Apple Color Emoji';font-size:20.587px;">🎉</text>
            </g>
            <g transform="matrix(-0.698635,-0.715478,0.715478,-0.698635,32.0244,590.919)">
                <text x="140.462px" y="288.715px" style="font-family:'AppleColorEmoji', 'Apple Color Emoji';font-size:20.587px;">🎉</text>
            </g>
            <g transform="matrix(-0.500953,-0.865475,0.865475,-0.500953,-47.9162,520.186)">
                <text x="126.016px" y="273.908px" style="font-family:'AppleColorEmoji', 'Apple Color Emoji';font-size:20.587px;">🎉</text>
            </g>
            <g transform="matrix(-0.269702,-0.962944,0.962944,-0.269702,-99.6474,436.374)">
                <text x="115.65px" y="255.973px" style="font-family:'AppleColorEmoji', 'Apple Color Emoji';font-size:20.587px;">🎉</text>
            </g>
            <g transform="matrix(-0.0229867,-0.999736,0.999736,-0.0229867,-123.364,351.538)">
                <text x="110.092px" y="236.049px" style="font-family:'AppleColorEmoji', 'Apple Color Emoji';font-size:20.587px;">🎉</text>
            </g>
            <g transform="matrix(0.224006,-0.974588,0.974588,0.224006,-124.834,273.955)">
                <text x="109.616px" y="215.369px" style="font-family:'AppleColorEmoji', 'Apple Color Emoji';font-size:20.587px;">🎉</text>
            </g>
            <g transform="matrix(0.459462,-0.888197,0.888197,0.459462,-111.631,207.01)">
                <text x="114.261px" y="195.22px" style="font-family:'AppleColorEmoji', 'Apple Color Emoji';font-size:20.587px;">🎉</text>
            </g>
            <g transform="matrix(0.664592,-0.747207,0.747207,0.664592,-90.6055,151.813)">
                <text x="123.798px" y="176.83px" style="font-family:'AppleColorEmoji', 'Apple Color Emoji';font-size:20.587px;">🎉</text>
            </g>
            <g transform="matrix(0.827901,-0.560875,0.560875,0.827901,-66.8392,104.925)">
                <text x="137.556px" y="161.377px" style="font-family:'AppleColorEmoji', 'Apple Color Emoji';font-size:20.587px;">🎉</text>
            </g>
        </g>
        <g transform="matrix(1,0,0,1,-0.0337006,-31.6797)">
            <g transform="matrix(-0.75017,0.661245,-0.661245,-0.75017,326.824,175.939)">
                <text x="130.175px" y="149.709px" style="font-family:'AppleColorEmoji', 'Apple Color Emoji';font-size:11.111px;">🙂</text>
            </g>
            <g transform="matrix(-0.479538,0.877521,-0.877521,-0.479538,316.734,135.084)">
                <text x="118.307px" y="161.47px" style="font-family:'AppleColorEmoji', 'Apple Color Emoji';font-size:11.111px;">🤩</text>
            </g>
            <g transform="matrix(-0.148107,0.988971,-0.988971,-0.148107,302.26,92.7485)">
                <text x="111.183px" y="176.556px" style="font-family:'AppleColorEmoji', 'Apple Color Emoji';font-size:11.111px;">🙂</text>
            </g>
            <g transform="matrix(0.197998,0.980202,-0.980202,0.197998,277.328,47.4344)">
                <text x="109.677px" y="193.191px" style="font-family:'AppleColorEmoji', 'Apple Color Emoji';font-size:11.111px;">🤩</text>
            </g>
            <g transform="matrix(0.523298,0.85215,-0.85215,0.523298,232.695,2.68769)">
                <text x="113.945px" y="209.326px" style="font-family:'AppleColorEmoji', 'Apple Color Emoji';font-size:11.111px;">🙂</text>
            </g>
            <g transform="matrix(0.782259,0.622954,-0.622954,0.782259,165.82,-28.3746)">
                <text x="123.499px" y="223.016px" style="font-family:'AppleColorEmoji', 'Apple Color Emoji';font-size:11.111px;">🤩</text>
            </g>
            <g transform="matrix(0.948383,0.317127,-0.317127,0.948383,80.8518,-31.4808)">
                <text x="137.133px" y="232.63px" style="font-family:'AppleColorEmoji', 'Apple Color Emoji';font-size:11.111px;">🙂</text>
            </g>
            <g transform="matrix(0.999637,-0.026948,0.026948,0.999637,-6.3303,4.21631)">
                <text x="153.267px" y="236.973px" style="font-family:'AppleColorEmoji', 'Apple Color Emoji';font-size:11.111px;">🤩</text>
            </g>
            <g transform="matrix(0.929627,-0.368503,0.368503,0.929627,-74.8456,79.1827)">
                <text x="169.893px" y="235.552px" style="font-family:'AppleColorEmoji', 'Apple Color Emoji';font-size:11.111px;">🙂</text>
            </g>
            <g transform="matrix(0.747454,-0.664313,0.664313,0.747454,-105.069,180.614)">
                <text x="185.015px" y="228.497px" style="font-family:'AppleColorEmoji', 'Apple Color Emoji';font-size:11.111px;">🤩</text>
            </g>
            <g transform="matrix(0.475879,-0.879511,0.879511,0.475879,-87.4126,286.689)">
                <text x="196.836px" y="216.687px" style="font-family:'AppleColorEmoji', 'Apple Color Emoji';font-size:11.111px;">🙂</text>
            </g>
            <g transform="matrix(0.143823,-0.989603,0.989603,0.143823,-24.8946,374.353)">
                <text x="203.898px" y="201.563px" style="font-family:'AppleColorEmoji', 'Apple Color Emoji';font-size:11.111px;">🤩</text>
            </g>
            <g transform="matrix(-0.20222,-0.97934,0.97934,-0.20222,65.7533,423.411)">
                <text x="205.334px" y="184.924px" style="font-family:'AppleColorEmoji', 'Apple Color Emoji';font-size:11.111px;">🙂</text>
            </g>
            <g transform="matrix(-0.526823,-0.849975,0.849975,-0.526823,163.402,428.592)">
                <text x="200.998px" y="168.813px" style="font-family:'AppleColorEmoji', 'Apple Color Emoji';font-size:11.111px;">🤩</text>
            </g>
            <g transform="matrix(-0.78481,-0.619736,0.619736,-0.78481,245.432,395.548)">
                <text x="191.389px" y="155.164px" style="font-family:'AppleColorEmoji', 'Apple Color Emoji';font-size:11.111px;">🙂</text>
            </g>
            <g transform="matrix(-0.949844,-0.312724,0.312724,-0.949844,300.947,339.459)">
                <text x="177.695px" y="145.596px" style="font-family:'AppleColorEmoji', 'Apple Color Emoji';font-size:11.111px;">🤩</text>
            </g>
            <g transform="matrix(-0.999522,0.0309085,-0.0309085,-0.999522,327.429,277.6)">
                <text x="161.569px" y="141.331px" style="font-family:'AppleColorEmoji', 'Apple Color Emoji';font-size:11.111px;">🙂</text>
            </g>
            <g transform="matrix(-0.928062,0.372425,-0.372425,-0.928062,332.644,221.387)">
                <text x="144.94px" y="142.821px" style="font-family:'AppleColorEmoji', 'Apple Color Emoji';font-size:11.111px;">🤩</text>
            </g>
            <g transform="matrix(-0.744477,0.667648,-0.667648,-0.744477,326.609,174.894)">
                <text x="129.836px" y="149.947px" style="font-family:'AppleColorEmoji', 'Apple Color Emoji';font-size:11.111px;">🙂</text>
            </g>
            <g transform="matrix(-0.472211,0.881486,-0.881486,-0.472211,316.457,134.115)">
                <text x="118.078px" y="161.797px" style="font-family:'AppleColorEmoji', 'Apple Color Emoji';font-size:11.111px;">🤩</text>
            </g>
            <g transform="matrix(-0.139535,0.990217,-0.990217,-0.139535,301.802,91.6591)">
                <text x="111.077px" y="176.957px" style="font-family:'AppleColorEmoji', 'Apple Color Emoji';font-size:11.111px;">🙂</text>
            </g>
            <g transform="matrix(0.206054,0.978541,-0.978541,0.206054,276.533,46.3376)">
                <text x="109.711px" y="193.582px" style="font-family:'AppleColorEmoji', 'Apple Color Emoji';font-size:11.111px;">🤩</text>
            </g>
            <g transform="matrix(0.530337,0.847787,-0.847787,0.530337,231.365,1.7371)">
                <text x="114.115px" y="209.687px" style="font-family:'AppleColorEmoji', 'Apple Color Emoji';font-size:11.111px;">🙂</text>
            </g>
            <g transform="matrix(0.787349,0.616508,-0.616508,0.787349,163.986,-28.8273)">
                <text x="123.78px" y="223.296px" style="font-family:'AppleColorEmoji', 'Apple Color Emoji';font-size:11.111px;">🤩</text>
            </g>
            <g transform="matrix(0.951046,0.309048,-0.309048,0.951046,78.6779,-31.0976)">
                <text x="137.5px" y="232.801px" style="font-family:'AppleColorEmoji', 'Apple Color Emoji';font-size:11.111px;">🙂</text>
            </g>
            <g transform="matrix(0.999378,-0.035264,0.035264,0.999378,-8.26223,5.56644)">
                <text x="153.67px" y="237.007px" style="font-family:'AppleColorEmoji', 'Apple Color Emoji';font-size:11.111px;">🤩</text>
            </g>
            <g transform="matrix(0.926483,-0.376338,0.376338,0.926483,-76.0887,81.3929)">
                <text x="170.282px" y="235.446px" style="font-family:'AppleColorEmoji', 'Apple Color Emoji';font-size:11.111px;">🙂</text>
            </g>
            <g transform="matrix(0.741736,-0.670692,0.670692,0.741736,-105.221,183.266)">
                <text x="185.353px" y="228.258px" style="font-family:'AppleColorEmoji', 'Apple Color Emoji';font-size:11.111px;">🤩</text>
            </g>
        </g>
    </g>
</svg>
