<?xml version="1.0" encoding="UTF-8" standalone="no"?>
<!DOCTYPE svg PUBLIC "-//W3C//DTD SVG 1.1//EN" "http://www.w3.org/Graphics/SVG/1.1/DTD/svg11.dtd">
<svg width="100%" height="100%" viewBox="0 0 315 315" version="1.1" xmlns="http://www.w3.org/2000/svg" xmlns:xlink="http://www.w3.org/1999/xlink" xml:space="preserve" xmlns:serif="http://www.serif.com/" style="fill-rule:evenodd;clip-rule:evenodd;stroke-linejoin:round;stroke-miterlimit:2;">
    <g transform="matrix(1,0,0,1,-5.68434e-14,-327.979)">
        <g id="Artboard1" transform="matrix(1,0,0,1,5.68434e-14,327.979)">
            <rect x="0" y="0" width="314.961" height="314.961" style="fill:none;"/>
            <clipPath id="_clip1">
                <rect x="0" y="0" width="314.961" height="314.961"/>
            </clipPath>
            <g clip-path="url(#_clip1)">
                <g transform="matrix(0.508105,-0.861295,0.861295,0.508105,-230.417,234.416)">
                    <g transform="matrix(0.882379,-0.47054,0.47054,0.882379,-58.849,101.76)">
                        <text x="174.119px" y="168.592px" style="font-family:'AppleColorEmoji', 'Apple Color Emoji';font-size:38.889px;">🤩</text>
                    </g>
                    <g transform="matrix(0.981123,-0.193387,0.193387,0.981123,-24.5991,44.2719)">
                        <text x="214.469px" y="148.137px" style="font-family:'AppleColorEmoji', 'Apple Color Emoji';font-size:38.889px;">🎉</text>
                    </g>
                    <g transform="matrix(0.998373,0.0570205,-0.0570205,0.998373,8.42974,-14.1871)">
                        <text x="252.819px" y="140.623px" style="font-family:'AppleColorEmoji', 'Apple Color Emoji';font-size:38.889px;">🤩</text>
                    </g>
                    <g transform="matrix(0.938678,0.344794,-0.344794,0.938678,67.9704,-93.9027)">
                        <text x="297.979px" y="144.137px" style="font-family:'AppleColorEmoji', 'Apple Color Emoji';font-size:38.889px;">🎉</text>
                    </g>
                    <g transform="matrix(0.821966,0.569537,-0.569537,0.821966,149.369,-162.536)">
                        <text x="334.663px" y="157.65px" style="font-family:'AppleColorEmoji', 'Apple Color Emoji';font-size:38.889px;">🤩</text>
                    </g>
                    <g transform="matrix(0.623246,0.782026,-0.782026,0.623246,283.978,-221.003)">
                        <text x="371.356px" y="184.224px" style="font-family:'AppleColorEmoji', 'Apple Color Emoji';font-size:38.889px;">🎉</text>
                    </g>
                    <g transform="matrix(0.407674,0.913128,-0.913128,0.407674,430.504,-234.097)">
                        <text x="395.694px" y="214.783px" style="font-family:'AppleColorEmoji', 'Apple Color Emoji';font-size:38.889px;">🤩</text>
                    </g>
                    <g transform="matrix(0.123908,0.992294,-0.992294,0.123908,616.623,-185.357)">
                        <text x="413.282px" y="256.526px" style="font-family:'AppleColorEmoji', 'Apple Color Emoji';font-size:38.889px;">🎉</text>
                    </g>
                    <g transform="matrix(-0.126255,0.991998,-0.991998,-0.126255,763.782,-82.2217)">
                        <text x="418.101px" y="295.256px" style="font-family:'AppleColorEmoji', 'Apple Color Emoji';font-size:38.889px;">🤩</text>
                    </g>
                    <g transform="matrix(-0.409765,0.912191,-0.912191,-0.409765,890.232,104.074)">
                        <text x="411.446px" y="340.05px" style="font-family:'AppleColorEmoji', 'Apple Color Emoji';font-size:38.889px;">🎉</text>
                    </g>
                    <g transform="matrix(-0.625287,0.780395,-0.780395,-0.625287,935.816,302.094)">
                        <text x="395.381px" y="375.717px" style="font-family:'AppleColorEmoji', 'Apple Color Emoji';font-size:38.889px;">🤩</text>
                    </g>
                    <g transform="matrix(-0.823245,0.567686,-0.567686,-0.823245,900.981,540.35)">
                        <text x="366.369px" y="410.44px" style="font-family:'AppleColorEmoji', 'Apple Color Emoji';font-size:38.889px;">🎉</text>
                    </g>
                    <g transform="matrix(-0.939473,0.342624,-0.342624,-0.939473,796.337,724.567)">
                        <text x="334.168px" y="432.623px" style="font-family:'AppleColorEmoji', 'Apple Color Emoji';font-size:38.889px;">🤩</text>
                    </g>
                    <g transform="matrix(-0.998506,0.054649,-0.054649,-0.998506,606.566,877.877)">
                        <text x="291.28px" y="447.232px" style="font-family:'AppleColorEmoji', 'Apple Color Emoji';font-size:38.889px;">🎉</text>
                    </g>
                    <g transform="matrix(-0.980665,-0.195693,0.195693,-0.980665,411.711,939.407)">
                        <text x="252.263px" y="449.364px" style="font-family:'AppleColorEmoji', 'Apple Color Emoji';font-size:38.889px;">🤩</text>
                    </g>
                    <g transform="matrix(-0.881128,-0.472878,0.472878,-0.881128,183.51,925.264)">
                        <text x="208.051px" y="439.567px" style="font-family:'AppleColorEmoji', 'Apple Color Emoji';font-size:38.889px;">🎉</text>
                    </g>
                    <g transform="matrix(-0.735208,-0.677842,0.677842,-0.735208,15.8896,848.339)">
                        <text x="173.642px" y="421.066px" style="font-family:'AppleColorEmoji', 'Apple Color Emoji';font-size:38.889px;">🤩</text>
                    </g>
                    <g transform="matrix(-0.509095,-0.86071,0.86071,-0.509095,-122.636,709.52)">
                        <text x="141.019px" y="389.733px" style="font-family:'AppleColorEmoji', 'Apple Color Emoji';font-size:38.889px;">🎉</text>
                    </g>
                    <g transform="matrix(-0.275684,-0.961248,0.961248,-0.275684,-187.737,570.626)">
                        <text x="121.119px" y="356.044px" style="font-family:'AppleColorEmoji', 'Apple Color Emoji';font-size:38.889px;">🤩</text>
                    </g>
                    <g transform="matrix(0.0138731,-0.999904,0.999904,0.0138731,-204.189,417.513)">
                        <text x="109.578px" y="312.277px" style="font-family:'AppleColorEmoji', 'Apple Color Emoji';font-size:38.889px;">🎉</text>
                    </g>
                    <g transform="matrix(0.264081,-0.9645,0.9645,0.264081,-182.43,307.253)">
                        <text x="110.129px" y="273.174px" style="font-family:'AppleColorEmoji', 'Apple Color Emoji';font-size:38.889px;">🤩</text>
                    </g>
                    <g transform="matrix(0.532887,-0.846186,0.846186,0.532887,-137.01,211.418)">
                        <text x="122.99px" y="229.808px" style="font-family:'AppleColorEmoji', 'Apple Color Emoji';font-size:38.889px;">🎉</text>
                    </g>
                </g>
                <g transform="matrix(1,0,0,1,-79.7091,-111.355)">
                    <g transform="matrix(-0.762118,0.647438,-0.647438,-0.762118,395.527,181.974)">
                        <text x="164.333px" y="163.649px" style="font-family:'AppleColorEmoji', 'Apple Color Emoji';font-size:25px;">🎉</text>
                    </g>
                    <g transform="matrix(-0.622077,0.782956,-0.782956,-0.622077,376.395,178.149)">
                        <text x="145.202px" y="179.915px" style="font-family:'AppleColorEmoji', 'Apple Color Emoji';font-size:25px;">👏</text>
                    </g>
                    <g transform="matrix(-0.457776,0.889068,-0.889068,-0.457776,366.351,175.669)">
                        <text x="129.607px" y="199.549px" style="font-family:'AppleColorEmoji', 'Apple Color Emoji';font-size:25px;">🎉</text>
                    </g>
                    <g transform="matrix(-0.274564,0.961569,-0.961569,-0.274564,363.878,169.131)">
                        <text x="118.14px" y="221.826px" style="font-family:'AppleColorEmoji', 'Apple Color Emoji';font-size:25px;">👏</text>
                    </g>
                    <g transform="matrix(-0.0807014,0.996738,-0.996738,-0.0807014,365.416,154.93)">
                        <text x="111.261px" y="245.978px" style="font-family:'AppleColorEmoji', 'Apple Color Emoji';font-size:25px;">🎉</text>
                    </g>
                    <g transform="matrix(0.113333,0.993557,-0.993557,0.113333,366.097,131.732)">
                        <text x="109.242px" y="270.981px" style="font-family:'AppleColorEmoji', 'Apple Color Emoji';font-size:25px;">👏</text>
                    </g>
                    <g transform="matrix(0.305734,0.952117,-0.952117,0.305734,359.508,98.6925)">
                        <text x="112.08px" y="295.861px" style="font-family:'AppleColorEmoji', 'Apple Color Emoji';font-size:25px;">🎉</text>
                    </g>
                    <g transform="matrix(0.486495,0.873684,-0.873684,0.486495,340.846,59.5554)">
                        <text x="119.759px" y="319.737px" style="font-family:'AppleColorEmoji', 'Apple Color Emoji';font-size:25px;">👏</text>
                    </g>
                    <g transform="matrix(0.647154,0.762359,-0.762359,0.647154,307.029,19.9377)">
                        <text x="131.976px" y="341.653px" style="font-family:'AppleColorEmoji', 'Apple Color Emoji';font-size:25px;">🎉</text>
                    </g>
                    <g transform="matrix(0.782491,0.622662,-0.622662,0.782491,256.864,-13.8109)">
                        <text x="148.2px" y="360.756px" style="font-family:'AppleColorEmoji', 'Apple Color Emoji';font-size:25px;">👏</text>
                    </g>
                    <g transform="matrix(0.888894,0.458113,-0.458113,0.888894,191.081,-35.0807)">
                        <text x="167.863px" y="376.392px" style="font-family:'AppleColorEmoji', 'Apple Color Emoji';font-size:25px;">🎉</text>
                    </g>
                    <g transform="matrix(0.961462,0.274937,-0.274937,0.961462,113.966,-37.3273)">
                        <text x="190.134px" y="387.866px" style="font-family:'AppleColorEmoji', 'Apple Color Emoji';font-size:25px;">👏</text>
                    </g>
                    <g transform="matrix(0.996706,0.0810955,-0.0810955,0.996706,32.7186,-16.0771)">
                        <text x="214.282px" y="394.755px" style="font-family:'AppleColorEmoji', 'Apple Color Emoji';font-size:25px;">🎉</text>
                    </g>
                    <g transform="matrix(0.993646,-0.112548,0.112548,0.993646,-43.1374,29.4465)">
                        <text x="239.234px" y="396.784px" style="font-family:'AppleColorEmoji', 'Apple Color Emoji';font-size:25px;">👏</text>
                    </g>
                    <g transform="matrix(0.952235,-0.305366,0.305366,0.952235,-107.682,99.4847)">
                        <text x="264.167px" y="393.955px" style="font-family:'AppleColorEmoji', 'Apple Color Emoji';font-size:25px;">🎉</text>
                    </g>
                    <g transform="matrix(0.873868,-0.486164,0.486164,0.873868,-151.466,188.761)">
                        <text x="288.047px" y="386.285px" style="font-family:'AppleColorEmoji', 'Apple Color Emoji';font-size:25px;">👏</text>
                    </g>
                    <g transform="matrix(0.762601,-0.64687,0.64687,0.762601,-168.393,289.314)">
                        <text x="309.967px" y="374.076px" style="font-family:'AppleColorEmoji', 'Apple Color Emoji';font-size:25px;">🎉</text>
                    </g>
                    <g transform="matrix(0.622954,-0.782259,0.782259,0.622954,-155.861,392.352)">
                        <text x="329.077px" y="357.859px" style="font-family:'AppleColorEmoji', 'Apple Color Emoji';font-size:25px;">👏</text>
                    </g>
                    <g transform="matrix(0.458788,-0.888546,0.888546,0.458788,-113.993,489.337)">
                        <text x="344.693px" y="338.244px" style="font-family:'AppleColorEmoji', 'Apple Color Emoji';font-size:25px;">🎉</text>
                    </g>
                    <g transform="matrix(0.275311,-0.961355,0.961355,0.275311,-45.5919,571.393)">
                        <text x="356.202px" y="315.937px" style="font-family:'AppleColorEmoji', 'Apple Color Emoji';font-size:25px;">👏</text>
                    </g>
                    <g transform="matrix(0.0818836,-0.996642,0.996642,0.0818836,42.4962,629.817)">
                        <text x="363.091px" y="291.843px" style="font-family:'AppleColorEmoji', 'Apple Color Emoji';font-size:25px;">🎉</text>
                    </g>
                    <g transform="matrix(-0.112156,-0.993691,0.993691,-0.112156,140.934,659.604)">
                        <text x="365.139px" y="266.841px" style="font-family:'AppleColorEmoji', 'Apple Color Emoji';font-size:25px;">👏</text>
                    </g>
                    <g transform="matrix(-0.304997,-0.952353,0.952353,-0.304997,242.445,660.742)">
                        <text x="362.319px" y="241.906px" style="font-family:'AppleColorEmoji', 'Apple Color Emoji';font-size:25px;">🎉</text>
                    </g>
                    <g transform="matrix(-0.485834,-0.874051,0.874051,-0.485834,336.401,633.934)">
                        <text x="354.658px" y="218.022px" style="font-family:'AppleColorEmoji', 'Apple Color Emoji';font-size:25px;">👏</text>
                    </g>
                    <g transform="matrix(-0.646585,-0.762842,0.762842,-0.646585,414.295,584.132)">
                        <text x="342.458px" y="196.097px" style="font-family:'AppleColorEmoji', 'Apple Color Emoji';font-size:25px;">🎉</text>
                    </g>
                    <g transform="matrix(-0.782026,-0.623246,0.623246,-0.782026,471.079,518.719)">
                        <text x="326.248px" y="176.982px" style="font-family:'AppleColorEmoji', 'Apple Color Emoji';font-size:25px;">👏</text>
                    </g>
                    <g transform="matrix(-0.888372,-0.459125,0.459125,-0.888372,504.963,445.49)">
                        <text x="306.638px" y="161.358px" style="font-family:'AppleColorEmoji', 'Apple Color Emoji';font-size:25px;">🎉</text>
                    </g>
                    <g transform="matrix(-0.961248,-0.275684,0.275684,-0.961248,516.346,372.262)">
                        <text x="284.337px" y="149.841px" style="font-family:'AppleColorEmoji', 'Apple Color Emoji';font-size:25px;">👏</text>
                    </g>
                    <g transform="matrix(-0.996609,-0.0822777,0.0822777,-0.996609,507.851,306.815)">
                        <text x="260.247px" y="142.943px" style="font-family:'AppleColorEmoji', 'Apple Color Emoji';font-size:25px;">🎉</text>
                    </g>
                    <g transform="matrix(-0.993735,0.111764,-0.111764,-0.993735,484.763,254.595)">
                        <text x="235.246px" y="140.885px" style="font-family:'AppleColorEmoji', 'Apple Color Emoji';font-size:25px;">👏</text>
                    </g>
                    <g transform="matrix(-0.952471,0.304628,-0.304628,-0.952471,454.394,216.495)">
                        <text x="210.308px" y="143.695px" style="font-family:'AppleColorEmoji', 'Apple Color Emoji';font-size:25px;">🎉</text>
                    </g>
                    <g transform="matrix(-0.874235,0.485503,-0.485503,-0.874235,422.875,193.153)">
                        <text x="186.42px" y="151.347px" style="font-family:'AppleColorEmoji', 'Apple Color Emoji';font-size:25px;">👏</text>
                    </g>
                    <g transform="matrix(-0.763083,0.646301,-0.646301,-0.763083,395.706,182.024)">
                        <text x="164.491px" y="163.54px" style="font-family:'AppleColorEmoji', 'Apple Color Emoji';font-size:25px;">🎉</text>
                    </g>
                    <g transform="matrix(-0.623538,0.781793,-0.781793,-0.623538,376.534,178.17)">
                        <text x="145.369px" y="179.743px" style="font-family:'AppleColorEmoji', 'Apple Color Emoji';font-size:25px;">👏</text>
                    </g>
                    <g transform="matrix(-0.459462,0.888197,-0.888197,-0.459462,366.407,175.704)">
                        <text x="129.739px" y="199.346px" style="font-family:'AppleColorEmoji', 'Apple Color Emoji';font-size:25px;">🎉</text>
                    </g>
                    <g transform="matrix(-0.276058,0.961141,-0.961141,-0.276058,363.876,169.209)">
                        <text x="118.213px" y="221.642px" style="font-family:'AppleColorEmoji', 'Apple Color Emoji';font-size:25px;">👏</text>
                    </g>
                    <g transform="matrix(-0.0826717,0.996577,-0.996577,-0.0826717,365.395,155.117)">
                        <text x="111.306px" y="245.728px" style="font-family:'AppleColorEmoji', 'Apple Color Emoji';font-size:25px;">🎉</text>
                    </g>
                    <g transform="matrix(0.111372,0.993779,-0.993779,0.111372,366.117,132.019)">
                        <text x="109.238px" y="270.729px" style="font-family:'AppleColorEmoji', 'Apple Color Emoji';font-size:25px;">👏</text>
                    </g>
                </g>
                <g transform="matrix(-0.995462,0.095156,-0.095156,-0.995462,345.844,341.991)">
                    <g transform="matrix(0.956174,-0.292799,0.292799,0.956174,-36.5798,48.6963)">
                        <text x="144.379px" y="146.542px" style="font-family:'AppleColorEmoji', 'Apple Color Emoji';font-size:16.667px;">🙂</text>
                    </g>
                    <g transform="matrix(0.993056,0.117644,-0.117644,0.993056,17.7504,-18.881)">
                        <text x="168.811px" y="140.919px" style="font-family:'AppleColorEmoji', 'Apple Color Emoji';font-size:16.667px;">🤩</text>
                    </g>
                    <g transform="matrix(0.859941,0.510393,-0.510393,0.859941,101.405,-78.3187)">
                        <text x="193.405px" y="145.608px" style="font-family:'AppleColorEmoji', 'Apple Color Emoji';font-size:16.667px;">🙂</text>
                    </g>
                    <g transform="matrix(0.582094,0.813122,-0.813122,0.582094,219.442,-107.205)">
                        <text x="214.016px" y="159.882px" style="font-family:'AppleColorEmoji', 'Apple Color Emoji';font-size:16.667px;">🤩</text>
                    </g>
                    <g transform="matrix(0.20222,0.97934,-0.97934,0.20222,358.701,-77.8648)">
                        <text x="227.143px" y="181.235px" style="font-family:'AppleColorEmoji', 'Apple Color Emoji';font-size:16.667px;">🙂</text>
                    </g>
                    <g transform="matrix(-0.209117,0.977891,-0.977891,-0.209117,480.188,23.7636)">
                        <text x="230.484px" y="206.061px" style="font-family:'AppleColorEmoji', 'Apple Color Emoji';font-size:16.667px;">🤩</text>
                    </g>
                    <g transform="matrix(-0.587559,0.809181,-0.809181,-0.587559,541.071,184.462)">
                        <text x="223.525px" y="230.123px" style="font-family:'AppleColorEmoji', 'Apple Color Emoji';font-size:16.667px;">🙂</text>
                    </g>
                    <g transform="matrix(-0.863387,0.504542,-0.504542,-0.863387,512.293,359.961)">
                        <text x="207.414px" y="249.336px" style="font-family:'AppleColorEmoji', 'Apple Color Emoji';font-size:16.667px;">🤩</text>
                    </g>
                    <g transform="matrix(-0.993866,0.110587,-0.110587,-0.993866,397.553,498.796)">
                        <text x="184.944px" y="260.423px" style="font-family:'AppleColorEmoji', 'Apple Color Emoji';font-size:16.667px;">🙂</text>
                    </g>
                    <g transform="matrix(-0.954109,-0.299461,0.299461,-0.954109,234.165,558.815)">
                        <text x="159.901px" y="261.465px" style="font-family:'AppleColorEmoji', 'Apple Color Emoji';font-size:16.667px;">🤩</text>
                    </g>
                    <g transform="matrix(-0.751892,-0.659287,0.659287,-0.751892,72.9869,532.077)">
                        <text x="136.611px" y="252.305px" style="font-family:'AppleColorEmoji', 'Apple Color Emoji';font-size:16.667px;">🙂</text>
                    </g>
                    <g transform="matrix(-0.422602,-0.906316,0.906316,-0.422602,-43.3088,441.415)">
                        <text x="118.955px" y="234.503px" style="font-family:'AppleColorEmoji', 'Apple Color Emoji';font-size:16.667px;">🤩</text>
                    </g>
                    <g transform="matrix(-0.0190247,-0.999819,0.999819,-0.0190247,-98.9592,325.092)">
                        <text x="110.003px" y="211.093px" style="font-family:'AppleColorEmoji', 'Apple Color Emoji';font-size:16.667px;">🙂</text>
                    </g>
                    <g transform="matrix(0.386966,-0.922094,0.922094,0.386966,-103.355,216.657)">
                        <text x="111.265px" y="186.059px" style="font-family:'AppleColorEmoji', 'Apple Color Emoji';font-size:16.667px;">🤩</text>
                    </g>
                    <g transform="matrix(0.725801,-0.687905,0.687905,0.725801,-79.0003,129.198)">
                        <text x="122.564px" y="163.696px" style="font-family:'AppleColorEmoji', 'Apple Color Emoji';font-size:16.667px;">🙂</text>
                    </g>
                </g>
                <g transform="matrix(1,0,0,1,16.2857,-15.3603)">
                    <g transform="matrix(-0.768119,0.640307,-0.640307,-0.768119,312.052,180.92)">
                        <text x="123.267px" y="146.963px" style="font-family:'AppleColorEmoji', 'Apple Color Emoji';font-size:5.556px;">🔥</text>
                    </g>
                    <g transform="matrix(-0.574455,0.818536,-0.818536,-0.574455,309.266,144.379)">
                        <text x="117.102px" y="152.581px" style="font-family:'AppleColorEmoji', 'Apple Color Emoji';font-size:5.556px;">🔥</text>
                    </g>
                    <g transform="matrix(-0.338639,0.940916,-0.940916,-0.338639,300.94,107.707)">
                        <text x="112.617px" y="159.618px" style="font-family:'AppleColorEmoji', 'Apple Color Emoji';font-size:5.556px;">🔥</text>
                    </g>
                    <g transform="matrix(-0.0783363,0.996927,-0.996927,-0.0783363,285.847,70.9037)">
                        <text x="110.148px" y="167.585px" style="font-family:'AppleColorEmoji', 'Apple Color Emoji';font-size:5.556px;">🔥</text>
                    </g>
                    <g transform="matrix(0.184337,0.982863,-0.982863,0.184337,262.511,35.5136)">
                        <text x="109.859px" y="175.918px" style="font-family:'AppleColorEmoji', 'Apple Color Emoji';font-size:5.556px;">🔥</text>
                    </g>
                    <g transform="matrix(0.437729,0.899107,-0.899107,0.437729,228.314,2.99366)">
                        <text x="111.764px" y="184.041px" style="font-family:'AppleColorEmoji', 'Apple Color Emoji';font-size:5.556px;">🔥</text>
                    </g>
                    <g transform="matrix(0.657885,0.753119,-0.753119,0.657885,183.718,-21.6986)">
                        <text x="115.742px" y="191.365px" style="font-family:'AppleColorEmoji', 'Apple Color Emoji';font-size:5.556px;">🔥</text>
                    </g>
                    <g transform="matrix(0.83167,0.55527,-0.55527,0.83167,130.062,-34.2382)">
                        <text x="121.502px" y="197.399px" style="font-family:'AppleColorEmoji', 'Apple Color Emoji';font-size:5.556px;">🔥</text>
                    </g>
                    <g transform="matrix(0.948628,0.316394,-0.316394,0.948628,70.4317,-30.3388)">
                        <text x="128.642px" y="201.72px" style="font-family:'AppleColorEmoji', 'Apple Color Emoji';font-size:5.556px;">🔥</text>
                    </g>
                    <g transform="matrix(0.998484,0.0550443,-0.0550443,0.998484,11.4363,-7.21365)">
                        <text x="136.671px" y="204.001px" style="font-family:'AppleColorEmoji', 'Apple Color Emoji';font-size:5.556px;">🔥</text>
                    </g>
                    <g transform="matrix(0.978217,-0.207586,0.207586,0.978217,-39.2087,34.5477)">
                        <text x="145.009px" y="204.096px" style="font-family:'AppleColorEmoji', 'Apple Color Emoji';font-size:5.556px;">🔥</text>
                    </g>
                    <g transform="matrix(0.888546,-0.458788,0.458788,0.888546,-75.6133,92.7464)">
                        <text x="153.083px" y="202px" style="font-family:'AppleColorEmoji', 'Apple Color Emoji';font-size:5.556px;">🔥</text>
                    </g>
                    <g transform="matrix(0.737475,-0.675374,0.675374,0.737475,-91.5345,160.213)">
                        <text x="160.315px" y="197.848px" style="font-family:'AppleColorEmoji', 'Apple Color Emoji';font-size:5.556px;">🔥</text>
                    </g>
                    <g transform="matrix(0.535431,-0.844579,0.844579,0.535431,-84.8953,229.553)">
                        <text x="166.214px" y="191.946px" style="font-family:'AppleColorEmoji', 'Apple Color Emoji';font-size:5.556px;">🔥</text>
                    </g>
                    <g transform="matrix(0.29391,-0.955833,0.955833,0.29391,-56.2655,293.261)">
                        <text x="170.361px" y="184.714px" style="font-family:'AppleColorEmoji', 'Apple Color Emoji';font-size:5.556px;">🔥</text>
                    </g>
                    <g transform="matrix(0.0320965,-0.999485,0.999485,0.0320965,-9.63352,343.332)">
                        <text x="172.45px" y="176.64px" style="font-family:'AppleColorEmoji', 'Apple Color Emoji';font-size:5.556px;">🔥</text>
                    </g>
                    <g transform="matrix(-0.230473,-0.973079,0.973079,-0.230473,48.3086,374.801)">
                        <text x="172.354px" y="168.299px" style="font-family:'AppleColorEmoji', 'Apple Color Emoji';font-size:5.556px;">🔥</text>
                    </g>
                    <g transform="matrix(-0.479538,-0.877521,0.877521,-0.479538,110.978,386.366)">
                        <text x="170.067px" y="160.272px" style="font-family:'AppleColorEmoji', 'Apple Color Emoji';font-size:5.556px;">🔥</text>
                    </g>
                    <g transform="matrix(-0.69235,-0.721562,0.721562,-0.69235,170,378.762)">
                        <text x="165.746px" y="153.14px" style="font-family:'AppleColorEmoji', 'Apple Color Emoji';font-size:5.556px;">🔥</text>
                    </g>
                    <g transform="matrix(-0.856847,-0.515571,0.515571,-0.856847,220.572,356.006)">
                        <text x="159.71px" y="147.381px" style="font-family:'AppleColorEmoji', 'Apple Color Emoji';font-size:5.556px;">🔥</text>
                    </g>
                    <g transform="matrix(-0.962523,-0.271199,0.271199,-0.962523,260.158,322.758)">
                        <text x="152.38px" y="143.403px" style="font-family:'AppleColorEmoji', 'Apple Color Emoji';font-size:5.556px;">🔥</text>
                    </g>
                    <g transform="matrix(-0.99996,-0.00891893,0.00891893,-0.99996,287.247,284.291)">
                        <text x="144.257px" y="141.505px" style="font-family:'AppleColorEmoji', 'Apple Color Emoji';font-size:5.556px;">🔥</text>
                    </g>
                    <g transform="matrix(-0.967321,0.253554,-0.253554,-0.967321,303.349,244.496)">
                        <text x="135.919px" y="141.796px" style="font-family:'AppleColorEmoji', 'Apple Color Emoji';font-size:5.556px;">🔥</text>
                    </g>
                </g>
            </g>
        </g>
    </g>
</svg>
