<?xml version="1.0" encoding="UTF-8" standalone="no"?>
<!DOCTYPE svg PUBLIC "-//W3C//DTD SVG 1.1//EN" "http://www.w3.org/Graphics/SVG/1.1/DTD/svg11.dtd">
<svg width="100%" height="100%" viewBox="0 0 3150 3150" version="1.1" xmlns="http://www.w3.org/2000/svg" xmlns:xlink="http://www.w3.org/1999/xlink" xml:space="preserve" xmlns:serif="http://www.serif.com/" style="fill-rule:evenodd;clip-rule:evenodd;stroke-linejoin:round;stroke-miterlimit:2;">
    <rect id="Artboard1" x="0" y="0" width="3149.61" height="3149.61" style="fill:none;"/>
    <clipPath id="_clip1">
        <rect id="Artboard11" serif:id="Artboard1" x="0" y="0" width="3149.61" height="3149.61"/>
    </clipPath>
    <g clip-path="url(#_clip1)">
        <g transform="matrix(0.794039,0,0,0.817566,296.461,353.433)">
            <path d="M3593.2,-310.785C3593.2,-377.896 3537.19,-432.299 3468.09,-432.299C2874.39,-432.299 345.453,-432.299 -248.243,-432.299C-317.342,-432.299 -373.358,-377.896 -373.358,-310.785L-373.358,3298.61C-373.358,3365.72 -317.342,3420.12 -248.243,3420.12C345.453,3420.12 2874.39,3420.12 3468.09,3420.12C3537.19,3420.12 3593.2,3365.72 3593.2,3298.61L3593.2,-310.785Z" style="fill:rgb(25,99,253);"/>
        </g>
        <g transform="matrix(1.54576,0,0,1.34275,-21.5276,-1469.46)">
            <path d="M515.618,1484.88L515.618,1643.72L829.606,1643.72C838.6,1643.72 843.098,1648.04 843.098,1656.66L843.098,1822.57C843.098,1826.49 841.871,1829.63 839.418,1831.98C836.147,1835.12 832.877,1835.9 829.606,1834.33L518.071,1782.56L518.071,2073.19L552.413,2155.55C554.048,2159.47 553.64,2163.01 551.187,2166.14C548.734,2170.07 545.054,2172.03 540.148,2172.03L260.502,2172.03C255.596,2172.03 251.916,2170.07 249.463,2166.14C247.01,2163.01 246.602,2159.47 248.237,2155.55L282.579,2073.19L282.579,1449.58L248.237,1367.21C246.602,1363.29 247.01,1359.76 249.463,1356.62C251.916,1352.7 255.596,1350.74 260.502,1350.74L922.821,1350.74C931.816,1350.74 936.313,1355.06 936.313,1363.68L936.313,1523.7C936.313,1527.63 935.086,1530.76 932.633,1533.12C930.18,1535.47 926.91,1536.65 922.821,1536.65L515.618,1484.88Z" style="fill:rgb(39,242,235);fill-rule:nonzero;"/>
            <path d="M1068.78,1502.53L1027.08,1436.63C1024.62,1433.5 1024.21,1429.97 1025.85,1426.05C1026.67,1422.91 1029.12,1420.55 1033.21,1418.99L1076.14,1406.04L1284.64,1351.92C1287.91,1351.13 1291.59,1351.92 1295.68,1354.27C1298.95,1356.62 1300.59,1359.76 1300.59,1363.68L1300.59,1586.07L1458.81,1586.07C1467.8,1586.07 1472.3,1590.38 1472.3,1599.01L1472.3,1746.09C1472.3,1750.79 1470.26,1754.32 1466.17,1756.68C1462.9,1759.03 1459.22,1759.42 1455.13,1757.85L1301.82,1694.32L1301.82,1980.24C1301.82,2005.34 1306.52,2024.16 1315.92,2036.71C1325.32,2049.26 1337.38,2056.91 1352.1,2059.66C1366.82,2062.4 1382.97,2060.44 1400.55,2053.78C1418.13,2047.11 1435.1,2037.11 1451.45,2023.77C1455.54,2019.85 1460.04,2019.06 1464.94,2021.42C1469.85,2023.77 1472.3,2027.3 1472.3,2032.01L1472.3,2119.08C1472.3,2123 1470.67,2126.14 1467.39,2128.49C1434.69,2153.59 1401.57,2170.46 1368.05,2179.09C1334.52,2187.71 1295.68,2192.03 1251.53,2192.03C1192.65,2192.03 1147.68,2177.71 1116.61,2149.08C1085.54,2120.45 1070,2077.9 1070,2021.42L1068.78,1502.53Z" style="fill:rgb(39,242,235);fill-rule:nonzero;"/>
            <g transform="matrix(1,0,0,1.18807,-8.52651e-14,-413.364)">
                <path d="M1693.07,1957.88C1710.25,1957.88 1726.39,1961.02 1741.52,1967.29C1756.65,1973.57 1769.94,1982.2 1781.38,1993.18C1792.83,2004.16 1801.83,2016.91 1808.37,2031.42C1814.91,2045.93 1818.18,2061.42 1818.18,2077.9C1818.18,2094.37 1814.91,2109.86 1808.37,2124.37C1801.83,2138.88 1792.83,2151.63 1781.38,2162.61C1769.94,2173.6 1756.65,2182.22 1741.52,2188.5C1726.39,2194.77 1710.25,2197.91 1693.07,2197.91L1690.62,2197.91C1673.45,2197.91 1657.3,2194.77 1642.17,2188.5C1627.05,2182.22 1613.76,2173.6 1602.31,2162.61C1590.86,2151.63 1581.87,2138.88 1575.33,2124.37C1568.79,2109.86 1565.52,2094.37 1565.52,2077.9C1565.52,2061.42 1568.79,2045.93 1575.33,2031.42C1581.87,2016.91 1590.86,2004.16 1602.31,1993.18C1613.76,1982.2 1627.05,1973.57 1642.17,1967.29C1657.3,1961.02 1673.45,1957.88 1690.62,1957.88L1693.07,1957.88Z" style="fill:rgb(255,199,56);fill-rule:nonzero;"/>
            </g>
            <path d="M641.949,3070.67L675.065,3153.04C676.7,3156.96 676.291,3160.49 673.838,3163.63C671.385,3167.55 667.706,3169.51 662.8,3169.51L390.513,3169.51C385.607,3169.51 381.927,3167.55 379.474,3163.63C377.021,3160.49 376.612,3156.96 378.248,3153.04L411.364,3070.67L411.364,2528.25L331.64,2528.25C325.916,2528.25 321.828,2525.9 319.375,2521.19C316.922,2516.48 317.74,2512.17 321.828,2508.25L481.275,2351.76C483.728,2349.4 486.59,2348.22 489.861,2348.22L626.004,2344.7C630.093,2344.7 633.363,2345.87 635.816,2348.22C638.269,2350.58 639.496,2353.32 639.496,2356.46L639.496,3070.67L641.949,3070.67Z" style="fill:rgb(39,242,235);fill-rule:nonzero;"/>
            <path d="M1046.7,2710.63C1013.99,2693.37 985.782,2670.82 962.07,2642.97C938.357,2615.12 926.501,2582.37 926.501,2544.72C926.501,2512.56 935.7,2483.93 954.097,2458.83C972.495,2433.73 994.777,2412.55 1020.94,2395.29C1060.19,2370.19 1104.14,2352.93 1152.79,2343.52C1201.44,2334.11 1249.08,2329.4 1295.68,2329.4C1343.11,2329.4 1391.96,2334.11 1442.25,2343.52C1492.54,2352.93 1538.12,2370.19 1579.01,2395.29C1605.99,2412.55 1629.09,2433.73 1648.31,2458.83C1667.52,2483.93 1677.13,2512.95 1677.13,2545.9C1677.13,2582.77 1664.05,2616.1 1637.88,2645.91C1626.43,2659.25 1613.35,2671.21 1598.63,2681.8C1583.91,2692.39 1568.38,2702 1552.02,2710.63C1578.19,2720.04 1603.33,2731.61 1627.45,2745.34C1651.58,2759.06 1673.04,2775.73 1691.85,2795.34C1709.84,2813.39 1724.15,2833.78 1734.78,2856.53C1745.4,2879.28 1750.72,2903.2 1750.72,2928.3C1750.72,2966.74 1739.27,3000.86 1716.38,3030.67C1693.48,3060.48 1666.09,3085.58 1634.2,3105.97C1609.67,3120.88 1583.71,3133.43 1556.32,3143.62C1528.92,3153.82 1500.51,3161.86 1471.07,3167.74C1441.64,3173.63 1412,3177.75 1382.15,3180.1C1352.31,3182.45 1323.48,3183.63 1295.68,3183.63C1240.08,3183.63 1183.05,3177.94 1124.58,3166.57C1066.12,3155.2 1013.18,3134.6 965.749,3104.8C933.86,3084.4 906.877,3059.1 884.799,3028.9C862.722,2998.7 851.683,2964.78 851.683,2927.12C851.683,2902.02 856.794,2878.1 867.015,2855.35C877.236,2832.6 890.932,2812.21 908.103,2794.17C926.91,2774.56 947.965,2757.89 971.269,2744.16C994.572,2730.43 1019.31,2718.86 1045.47,2709.45L1046.7,2710.63ZM1354.56,2651.8C1387.26,2650.23 1412.2,2639.64 1429.37,2620.03C1446.54,2600.41 1448.18,2575.31 1434.28,2544.72C1425.28,2525.11 1411.79,2508.05 1393.8,2493.54C1375.82,2479.03 1356.6,2467.46 1336.16,2458.83C1307.54,2447.85 1278.92,2442.75 1250.3,2443.53C1217.59,2445.1 1192.65,2455.69 1175.48,2475.3C1158.31,2494.91 1156.68,2520.01 1170.58,2550.61C1179.57,2570.22 1193.06,2587.28 1211.05,2601.79C1229.04,2616.3 1248.26,2627.87 1268.7,2636.5C1297.32,2647.48 1325.94,2652.58 1354.56,2651.8ZM1121.52,2842.41C1113.34,2856.53 1109.87,2871.43 1111.09,2887.12C1112.32,2902.81 1116.2,2918.1 1122.74,2933.01C1139.1,2969.09 1163.83,2998.31 1196.95,3020.67C1230.06,3043.02 1266.25,3057.73 1305.5,3064.79C1322.67,3067.93 1340.25,3069.3 1358.24,3068.91C1376.22,3068.52 1393.39,3066.36 1409.75,3062.44C1423.65,3058.51 1436.73,3053.22 1449,3046.55C1461.26,3039.89 1471.48,3031.06 1479.66,3020.08C1490.29,3005.18 1494.79,2989.29 1493.15,2972.43C1491.52,2955.56 1487.43,2939.28 1480.89,2923.6C1468.62,2896.93 1450.22,2873.59 1425.69,2853.59C1401.16,2833.58 1375.41,2818.09 1348.42,2807.11C1330.43,2799.26 1311.63,2793.38 1292,2789.46C1272.38,2785.54 1252.75,2784.36 1233.13,2785.93C1211.87,2787.5 1190.82,2792.6 1169.96,2801.23C1149.11,2809.86 1133.37,2823.97 1122.74,2843.59L1121.52,2842.41Z" style="fill:rgb(39,242,235);fill-rule:nonzero;"/>
        </g>
    </g>
</svg>
