<?xml version="1.0" encoding="UTF-8" standalone="no"?>
<!DOCTYPE svg PUBLIC "-//W3C//DTD SVG 1.1//EN" "http://www.w3.org/Graphics/SVG/1.1/DTD/svg11.dtd">
<svg width="100%" height="100%" viewBox="0 0 730 730" version="1.1" xmlns="http://www.w3.org/2000/svg" xmlns:xlink="http://www.w3.org/1999/xlink" xml:space="preserve" xmlns:serif="http://www.serif.com/" style="fill-rule:evenodd;clip-rule:evenodd;stroke-linejoin:round;stroke-miterlimit:2;">
    <g id="Artboard2" transform="matrix(1,0,0,1,2471.41,805.603)">
        <rect x="-2471.41" y="-805.603" width="729.511" height="729.511" style="fill:none;"/>
        <clipPath id="_clip1">
            <rect x="-2471.41" y="-805.603" width="729.511" height="729.511"/>
        </clipPath>
        <g clip-path="url(#_clip1)">
            <g transform="matrix(1.08193,0,0,1.08193,-2500.17,-849.554)">
                <path d="M363.71,125.545C399.58,90.196 448.823,68.364 503.125,68.364C612.782,68.364 701.809,157.392 701.809,267.048C701.809,320.967 680.285,369.897 645.368,405.71L645.717,406.059C645.717,406.059 436.74,615.036 379.163,672.613C375.308,676.468 370.081,678.633 364.63,678.633C359.179,678.633 353.951,676.468 350.097,672.613C294.342,616.859 97.237,419.754 97.237,419.754C53.479,383.297 25.61,328.401 25.61,267.048C25.61,157.392 114.637,68.364 224.294,68.364C278.596,68.364 327.839,90.196 363.71,125.545Z" style="fill:url(#_Linear2);"/>
            </g>
        </g>
    </g>
    <defs>
        <linearGradient id="_Linear2" x1="0" y1="0" x2="1" y2="0" gradientUnits="userSpaceOnUse" gradientTransform="matrix(469.003,-349.631,349.631,469.003,179.989,481.835)"><stop offset="0" style="stop-color:#0062ff;stop-opacity:1"/><stop offset="1" style="stop-color:#0062ff;stop-opacity:1"/></linearGradient>
    </defs>
</svg>
