<svg clip-rule="evenodd" fill-rule="evenodd" stroke-linecap="round" stroke-linejoin="round" stroke-miterlimit="1.5" viewBox="0 0 1297 548" xmlns="http://www.w3.org/2000/svg" xmlns:xlink="http://www.w3.org/1999/xlink"><clipPath id="a"><path clip-rule="evenodd" d="m86.816 266.643h1296.03v547.209h-1296.03z"/></clipPath><clipPath id="b"><path clip-rule="evenodd" d="m690.926 324.818s35.902-39.025 26.111-64.708-27.39-2.41-34.482 6.813c0 0 26.009-52.894 12.789-60.497-13.22-7.604-22.017 14.216-22.912 21.322 0 0 23.161-63.965 13.072-66.897s-25.148 19.831-28.031 34.294c0 0 19.88-58.001 6.262-63.916s-20.526 22.268-20.378 27.286c0 0 3.927-37.425-5.168-39.413s-10.686 15.111-8.649 22.863c0 0-28.38-13.369-33.051 0-4.672 13.369 22.864 18.141 28.579 18.886 0 0-28.928-4.373-31.81 7.157s35.537 25.595 44.931 29.621c0 0-36.233-12.427-38.47 2.236-2.236 14.663 44.931 24.852 52.733 27.883 0 0-40.952-7.256-43.537 3.827-2.585 11.084 35.337 32.456 48.558 37.425 0 0-28.578-14.413-32.405 0-3.827 14.414 36 56.16 57.487 62.026z"/></clipPath><clipPath id="c"><path clip-rule="evenodd" d="m623.974 133.118c11.562 3.459 52.216 159.698 58.089 197.768.399 2.589 3.441 1.747 3.441 1.747-15.329-79.93-41.203-170.191-55.964-190.668l-5.566-8.847s5.497-58.217-23.906-45.128c-20.875 9.292 11.282 41.351 23.906 45.128z"/></clipPath><clipPath id="d"><path clip-rule="evenodd" d="m1223.82 318.293c7.81 3.708 14.84 5.432 23.6 5.244 6.42-.137 13.49-.423 19.49-2.999 23.4-10.05 24.1-47.87-4.35-51.27-3.64-.434-7.53-.282-11.05.749-4.46 1.302-8.53 3.987-11.93 7.09-4.65 4.237-8.22 9.624-10.57 15.447-3.57 8.86-4.25 16.354-5.19 25.739z"/></clipPath><clipPath id="e"><path clip-rule="evenodd" d="m1195.44 333.826c6.51-8.775 18.64-19.982 19.81-31.569 1.73-17.107-23.72-26.159-32.88-11.356-9.87 15.957 4.91 31.641 13.07 42.925z"/></clipPath><clipPath id="f"><path clip-rule="evenodd" d="m1165.4 352.551c5.64-11.722 11.66-24.763 10-38.091-1.13-8.999-8.39-18.506-18.06-19.219-16.1-1.188-29.91 18.216-21.37 32.483 7.74 12.95 21.42 11.745 29.43 24.827z"/></clipPath><clipPath id="g"><path clip-rule="evenodd" d="m1133.81 374.372c1.35-7.648 2.15-12.136 1.34-19.874-.63-6.083-1.72-12.293-4.07-17.969-1.54-3.711-3.49-7.398-6.53-10.096-12.82-11.363-33.56-.338-36.25 15.335-1.17 6.857 2.79 13.73 7.47 18.433 3.76 3.784 8.27 6.623 13.18 8.688 7.97 3.356 16.41 4.207 24.86 5.483z"/></clipPath><clipPath id="h"><path clip-rule="evenodd" d="m1089.3 412.743c5.26-20.708 12.04-60.34-18.18-64.876-18.7-2.806-35.39 19.556-25.11 36.303 6.27 10.195 18.52 16.287 29.26 20.661 5.39 2.196 9.6 3.853 14.03 7.912z"/></clipPath><clipPath id="i"><path clip-rule="evenodd" d="m1046.79 452.012c2.65-9.754 4.46-19.836 4.88-29.953.31-7.253-.02-14.926-1.55-22.041-3.44-15.899-21.8-22.807-35.92-16.021-20.681 9.946-26.954 43.662-7.49 57.877 12.26 8.956 26.02 7.016 39.54 10.766"/></clipPath><clipPath id="j"><path clip-rule="evenodd" d="m1197.6 333.913c14.04-7.835 31.83-12.323 47.92-9.7 7 1.143 15.55 4.408 18.74 11.336 7.62 16.558-14.68 28.919-28.51 24.997-16.88-4.784-20.43-23.171-38.15-26.633z"/></clipPath><clipPath id="k"><path clip-rule="evenodd" d="m1168.13 350.735c16.9-10.584 44.07-10.072 57.86-.611 14.11 9.681 11.02 30.283-7.89 31.009-13.49.519-25.5-9.997-34.78-18.641-3.52-3.281-9.58-11.339-15.19-11.757z"/></clipPath><clipPath id="l"><path clip-rule="evenodd" d="m1131.03 379.337c14.91-9.299 40.83-17.166 59.01-14.56 2.22.318 4.38.917 6.45 1.773 17.6 7.299 4.48 29.751-6.45 31.209-18.32 2.444-40.94-20.201-59.01-18.422z"/></clipPath><clipPath id="m"><path clip-rule="evenodd" d="m1096.3 407.06c19.98-15.277 54.22-23.782 73.51-16.843 21.89 7.875 14.64 34.844-4.66 41.597-15.5 5.422-33.15-3.704-45.38-12.832-5.87-4.386-14.89-14.704-23.47-11.922z"/></clipPath><clipPath id="n"><path clip-rule="evenodd" d="m1054.31 444.16c27.21-22.21 57.08-24.104 79.32-19.609 15.17 3.063 30.26 17.4 15.13 31.789-2.52 2.393-5.5 4.289-8.62 5.798-19.79 9.587-38.03 2.51-56-6.975-7.38-3.895-20.46-14.986-29.83-11.003z"/></clipPath><clipPath id="o"><path clip-rule="evenodd" d="m1020.93 480.08c25.44-24.306 54.55-27.645 85.1-22.68 18.01 2.927 32.45 23.385 18.42 38.945-2.35 2.617-5.22 4.694-8.34 6.31-18.93 9.802-39.94 5.649-57.23-5.265-12.86-8.112-21.49-24.975-37.95-17.31z"/></clipPath><clipPath id="p"><ellipse clip-rule="evenodd" cx="652.545" cy="366.131" rx="514.719" ry="319.095"/></clipPath><g transform="translate(-86.8165 -266.643)"><path d="m86.816 266.643h1296.03v547.209h-1296.03z" fill="none"/><g clip-path="url(#a)"><path d="m286.289 520.61s-186.5 39.095-217.148-14.666c-15.789-27.698 37.501-45.267 24.574-62.988-10.743-14.727-66.53-5.883-66.065-46.135.465-40.251-21.085-41.184-18.793-60.278 2.292-19.093 43.312-10.337 59.582-25.481 16.271-15.145 45.41 34.572 62.642 25.481s9.714-30.181 31.602-32.775c21.889-2.595 20.824 54.081 40.517 51.325 19.694-2.757 40.184-46.716 72.386-18.55s67.14 235.095 67.14 235.095z" fill="#3e544d" transform="translate(84.46839 246.0156)"/><path d="m286.289 520.61s-186.5 39.095-217.148-14.666c-15.789-27.698 37.501-45.267 24.574-62.988-10.743-14.727-94.197-60.598-80.221-86.776 17.478-32.735 80.257 22.896 97.489 13.805s-20.623-61.899 19.367-59.458c37.668 2.298 65.256 58.739 84.949 55.982 19.694-2.756 31.849-45.022 77.694-36.37 41.023 7.743 233.552 176.119 233.552 176.119z" fill="#23302b" transform="matrix(.402821 .421334 .512912 -.490375 -44.57461 840.2566)"/><g transform="matrix(1.19322 -.805694 .805694 1.19322 -692.964260628 930.247827309)"><path d="m690.926 324.818s35.902-39.025 26.111-64.708-27.39-2.41-34.482 6.813c0 0 26.009-52.894 12.789-60.497-13.22-7.604-22.017 14.216-22.912 21.322 0 0 23.161-63.965 13.072-66.897s-25.148 19.831-28.031 34.294c0 0 19.88-58.001 6.262-63.916s-20.526 22.268-20.378 27.286c0 0 3.927-37.425-5.168-39.413s-10.686 15.111-8.649 22.863c0 0-28.38-13.369-33.051 0-4.672 13.369 22.864 18.141 28.579 18.886 0 0-28.928-4.373-31.81 7.157s35.537 25.595 44.931 29.621c0 0-36.233-12.427-38.47 2.236-2.236 14.663 44.931 24.852 52.733 27.883 0 0-40.952-7.256-43.537 3.827-2.585 11.084 35.337 32.456 48.558 37.425 0 0-28.578-14.413-32.405 0-3.827 14.414 36 56.16 57.487 62.026z" fill="#949370"/><g clip-path="url(#b)"><path d="m631.361 122.578s11.567 5.226 11.996 35.937c0 0 20.993-31.843 21.962 6.476 0 0 19.539-3.011 14.693 39.951 0 0 12.003 35.768 5.492 56.636 0 0 33.133-.919 25.021 29.338l-4.898 47.604h-51.074l-11.196-36.277s-12.999-44.084 4.659-38.165c0 0-36.987-38.065-14.23-39.391 0 0-40.206-26.684-11.633-32.042 0 0-39.44-34.891-1.786-34.13 0 0-31.99-26.97 7.425-19.329z" fill="#6b6a51"/><path d="m622.153 138.259s24.949 156.077 47.399 192.098c22.451 36.021 15.952 2.407 15.952 2.407s-31.85-166.413-61.53-199.646-1.821 5.141-1.821 5.141z" fill="#52513e"/></g><path d="m690.926 324.818s35.902-39.025 26.111-64.708-27.39-2.41-34.482 6.813c0 0 26.009-52.894 12.789-60.497-13.22-7.604-22.017 14.216-22.912 21.322 0 0 23.161-63.965 13.072-66.897s-25.148 19.831-28.031 34.294c0 0 19.88-58.001 6.262-63.916s-20.526 22.268-20.378 27.286c0 0 3.927-37.425-5.168-39.413s-10.686 15.111-8.649 22.863c0 0-28.38-13.369-33.051 0-4.672 13.369 22.864 18.141 28.579 18.886 0 0-28.928-4.373-31.81 7.157s35.537 25.595 44.931 29.621c0 0-36.233-12.427-38.47 2.236-2.236 14.663 44.931 24.852 52.733 27.883 0 0-40.952-7.256-43.537 3.827-2.585 11.084 35.337 32.456 48.558 37.425 0 0-28.578-14.413-32.405 0-3.827 14.414 36 56.16 57.487 62.026z" fill="none" stroke="#310e14" stroke-width="2.08"/></g><g transform="matrix(1.19322 -.805694 .805694 1.19322 -692.964260628 930.247827309)"><path d="m623.974 133.118c11.562 3.459 52.216 159.698 58.089 197.768.399 2.589 3.441 1.747 3.441 1.747-15.329-79.93-41.203-170.191-55.964-190.668l-5.566-8.847s5.497-58.217-23.906-45.128c-20.875 9.292 11.282 41.351 23.906 45.128z" fill="#909071"/><g clip-path="url(#c)"><path d="m600.068 87.99s17.099 1.087 15.102 40.269c-1.998 39.181 24.18 5.33 24.18 5.33l5.508-47.516-44.79-15.628z" fill="#6b6a51"/></g><path d="m623.974 133.118c11.562 3.459 52.216 159.698 58.089 197.768.399 2.589 3.441 1.747 3.441 1.747-15.329-79.93-41.203-170.191-55.964-190.668l-5.566-8.847s5.497-58.217-23.906-45.128c-20.875 9.292 11.282 41.351 23.906 45.128z" fill="none" stroke="#310e14" stroke-width="2.08"/></g><path d="m59.082 209.955s184.137 19.902 238.21 263.285l21.218 94.642s14.226-313.084-259.428-357.927z" fill="#113c37" transform="translate(84.46839 246.0156)"/><path d="m123.977 139.133s177.024 86.24 176.139 428.586l18.329 3.919s9.287-329.081-194.468-432.505z" fill="#113c37" transform="translate(84.46839 246.0156)"/><path d="m286.289 520.61s-143.515 42.091-174.163-11.67c-15.789-27.698-5.484-48.263-18.411-65.984-10.743-14.727-56.569 2-44.766-36.485 12.534-40.87-42.187-43.736-33.126-69.873 10.043-28.971 53.052-3.523 69.464-33.8 10.593-19.542 28.562 42.836 45.794 33.745s9.714-30.181 31.602-32.775c21.889-2.595 20.824 54.081 40.517 51.325 19.694-2.757 40.184-46.716 72.386-18.55 5.924 5.181-.205-10.965 17.245-15.73 40.961-11.183 79.744 179.07 79.744 179.07z" fill="#3e544d" transform="matrix(-.268766 .963206 -.963206 -.268766 1637.374 589.3376)"/><path d="m433.042 548.188c-53.494-46.501-319.751 14.546-363.901-42.244-20.603-26.503 37.501-45.267 24.574-62.988-10.743-14.727-94.197-60.598-80.221-86.776 17.478-32.735 80.257 22.896 97.489 13.805s-20.623-61.899 19.367-59.458c37.668 2.298 65.256 58.739 84.949 55.982 19.694-2.756 28.085-58.132 60.287-29.966s158.617 158.687 158.617 158.687z" fill="#23302b" transform="matrix(-.54267 -.212828 -.259087 .660621 1481.21787 480.3746)"/><path d="m74.294 84.19s228.942 150.111 223.64 374.89c-.111 4.688-3.805 66.789-4.124 71.541l18.33 3.918s4.483-63.863 4.777-75.459c1.434-56.426-13.86-233.935-242.623-374.89z" fill="#23302b" transform="matrix(-1 0 0 1 1445.3079 291.2756)"/><path d="m59.082 209.955s189.729 63.013 150.84 362.612l18.329 3.919s53.77-304.304-169.169-366.531z" fill="#465c28" transform="matrix(-1 0 0 1 1391.5335 246.0156)"/><path d="m40.728 200.08s134.588 137.315 170.109 334.506l18.329 3.919s-29.073-196.247-188.438-338.425z" fill="#557031" transform="matrix(.832057 .55469 -.55469 .832057 1249.411 175.1726)"/><g transform="matrix(1.06747701789 -.10587714037 .10587714037 1.06747701789 -30.780180876 363.35589259)"><path d="m1223.82 318.293c7.81 3.708 14.84 5.432 23.6 5.244 6.42-.137 13.49-.423 19.49-2.999 23.4-10.05 24.1-47.87-4.35-51.27-3.64-.434-7.53-.282-11.05.749-4.46 1.302-8.53 3.987-11.93 7.09-4.65 4.237-8.22 9.624-10.57 15.447-3.57 8.86-4.25 16.354-5.19 25.739z" fill="#909071"/><g clip-path="url(#d)"><path d="m1285.72 277.677c-1.65 20.44-25.09 32.524-43.5 30.774-4.49-.427-8.86-1.613-13.11-3.079-2.34-.804-5.17-2.404-7.74-2.059-9.62 1.289-13.48 15.536-8.47 22.602 5.7 8.023 16.91 11.133 26.26 11.566 19.84.916 42.94-6.139 50.71-25.984.93-2.36 1.72-4.775 2.35-7.23 2-7.784 5.63-23.607-2.6-29.6" fill="#6b6a51"/></g><path d="m1223.82 318.293c7.81 3.708 14.84 5.432 23.6 5.244 6.42-.137 13.49-.423 19.49-2.999 23.4-10.05 24.1-47.87-4.35-51.27-3.64-.434-7.53-.282-11.05.749-4.46 1.302-8.53 3.987-11.93 7.09-4.65 4.237-8.22 9.624-10.57 15.447-3.57 8.86-4.25 16.354-5.19 25.739z" fill="none" stroke="#3d2120" stroke-width="2.8"/></g><g transform="matrix(1.06747701789 -.10587714037 .10587714037 1.06747701789 -30.780180876 363.35589259)"><path d="m1195.44 333.826c6.51-8.775 18.64-19.982 19.81-31.569 1.73-17.107-23.72-26.159-32.88-11.356-9.87 15.957 4.91 31.641 13.07 42.925z" fill="#909071"/><g clip-path="url(#e)"><path d="m1205.4 281.841c7.73 11.897 3.22 28.263-10.1 33.6-3.53 1.413-12.99.856-15.25 4.189-2.11 3.127-1.13 8.046.07 11.28 2.92 7.903 8.41 15.795 17.42 16.899 10.35 1.269 19.18-6.059 24.81-14.072 12.45-17.699 7.66-45.66-14.41-53.257" fill="#6b6a51"/></g><path d="m1195.44 333.826c6.51-8.775 18.64-19.982 19.81-31.569 1.73-17.107-23.72-26.159-32.88-11.356-9.87 15.957 4.91 31.641 13.07 42.925z" fill="none" stroke="#3d2120" stroke-width="2.8"/></g><g transform="matrix(1.06747701789 -.10587714037 .10587714037 1.06747701789 -30.780180876 363.35589259)"><path d="m1165.4 352.551c5.64-11.722 11.66-24.763 10-38.091-1.13-8.999-8.39-18.506-18.06-19.219-16.1-1.188-29.91 18.216-21.37 32.483 7.74 12.95 21.42 11.745 29.43 24.827z" fill="#909071"/><g clip-path="url(#f)"><path d="m1162.13 292.629c1.55 3.225 2.82 6.51 3.52 10.026.46 2.279.5 4.642.19 6.942-.81 6.078-3.92 10.93-9.37 13.861-7.12 3.824-15.94 4.511-19.54 12.988-1.98 4.67 1.89 10.158 4.79 13.454 7.63 8.657 19.11 14.977 30.95 13.674 23.25-2.558 28.71-35.549 18.53-52.647-5.15-8.642-18.22-13.734-27.79-15.297" fill="#6b6a51"/></g><path d="m1165.4 352.551c5.64-11.722 11.66-24.763 10-38.091-1.13-8.999-8.39-18.506-18.06-19.219-16.1-1.188-29.91 18.216-21.37 32.483 7.74 12.95 21.42 11.745 29.43 24.827z" fill="none" stroke="#3d2120" stroke-width="2.8"/></g><g transform="matrix(1.06747701789 -.10587714037 .10587714037 1.06747701789 -30.780180876 363.35589259)"><path d="m1133.81 374.372c1.35-7.648 2.15-12.136 1.34-19.874-.63-6.083-1.72-12.293-4.07-17.969-1.54-3.711-3.49-7.398-6.53-10.096-12.82-11.363-33.56-.338-36.25 15.335-1.17 6.857 2.79 13.73 7.47 18.433 3.76 3.784 8.27 6.623 13.18 8.688 7.97 3.356 16.41 4.207 24.86 5.483z" fill="#909071"/><g clip-path="url(#g)"><path d="m1119.97 318.597c2.82 9.914 4.31 19.921 4.07 30.247-.06 2.673.24 8.269-2.18 10.229-8.25 6.672-20.36-1.411-29.25-2.084-1.9-.144-1.98 5.081-1.87 5.859 1.28 8.973 10.99 16.256 18 20.932 14.53 9.702 34.98 16.249 47.68.387 1.88-2.345 3.5-4.884 4.61-7.689 1.76-4.479 2.66-9.544 2.82-14.354.21-6.398-2.24-12.57-5.23-18.119-4.93-9.167-11.72-14.405-19.27-21.085" fill="#6b6a51"/></g><path d="m1133.81 374.372c1.35-7.648 2.15-12.136 1.34-19.874-.63-6.083-1.72-12.293-4.07-17.969-1.54-3.711-3.49-7.398-6.53-10.096-12.82-11.363-33.56-.338-36.25 15.335-1.17 6.857 2.79 13.73 7.47 18.433 3.76 3.784 8.27 6.623 13.18 8.688 7.97 3.356 16.41 4.207 24.86 5.483z" fill="none" stroke="#3d2120" stroke-width="2.8"/></g><g transform="matrix(1.06747701789 -.10587714037 .10587714037 1.06747701789 -30.780180876 363.35589259)"><path d="m1089.3 412.743c5.26-20.708 12.04-60.34-18.18-64.876-18.7-2.806-35.39 19.556-25.11 36.303 6.27 10.195 18.52 16.287 29.26 20.661 5.39 2.196 9.6 3.853 14.03 7.912z" fill="#909071"/><g clip-path="url(#h)"><path d="m1089.34 346.334c1.08 4.137 1.98 8.731.91 12.963-2.47 9.755-14.85 20.399-25.11 19.694-5.18-.355-10.44-2-15.1-4.265-5.83-2.835-10.83-10.049-15.9-1.85-.73 1.185-1.24 2.468-1.51 3.836-.37 1.877-.4 3.816-.25 5.719.25 3.319 1.06 6.61 2.11 9.761 4.89 14.65 16 23.706 28.97 31.229 9.87 5.723 18.9 9.9 30.5 6.646 8.18-2.293 14.61-8.749 19.49-15.446 3.64-4.996 6.26-10.764 6.85-16.975.9-9.536-2.77-19.091-5.98-27.886" fill="#6b6a51"/></g><path d="m1089.3 412.743c5.26-20.708 12.04-60.34-18.18-64.876-18.7-2.806-35.39 19.556-25.11 36.303 6.27 10.195 18.52 16.287 29.26 20.661 5.39 2.196 9.6 3.853 14.03 7.912z" fill="none" stroke="#3d2120" stroke-width="2.8"/></g><g transform="matrix(1.06747701789 -.10587714037 .10587714037 1.06747701789 -30.780180876 363.35589259)"><path d="m1046.79 452.012c2.65-9.754 4.46-19.836 4.88-29.953.31-7.253-.02-14.926-1.55-22.041-3.44-15.899-21.8-22.807-35.92-16.021-20.681 9.946-26.954 43.662-7.49 57.877 12.26 8.956 26.02 7.016 39.54 10.766" fill="#909071"/><g clip-path="url(#i)"><path d="m1066.37 407.333c-7.45 13.377-26.96 14.593-38.16 5.108-5.09-4.316-9.02-10.134-12.51-15.763-4.08-6.581-6.08-14.832-15.52-12.065-1.678.49-3.303 1.165-4.872 1.927-2.087 1.015-4.128 2.214-5.801 3.84-2.69 2.615-4.673 6.025-6.216 9.414-2.464 5.414-3.814 11.307-5.375 17.024-2.152 7.879-3.3 16.323-1.213 24.345 2.427 9.331 8.87 15.761 16.466 21.287 10.331 7.514 24.051 12.267 36.951 11.393 6.37-.432 12.35-3.053 18.13-5.572 6.37-2.779 13.33-5.568 18.42-10.46 7.79-7.488 11.74-22.928 10.14-33.668" fill="#6b6a51"/></g><path d="m1046.79 452.012c2.65-9.754 4.46-19.836 4.88-29.953.31-7.253-.02-14.926-1.55-22.041-3.44-15.899-21.8-22.807-35.92-16.021-20.681 9.946-26.954 43.662-7.49 57.877 12.26 8.956 26.02 7.016 39.54 10.766" fill="none" stroke="#3d2120" stroke-width="2.8"/></g><g transform="matrix(1.06747701789 -.10587714037 .10587714037 1.06747701789 -30.780180876 363.35589259)"><path d="m1197.6 333.913c14.04-7.835 31.83-12.323 47.92-9.7 7 1.143 15.55 4.408 18.74 11.336 7.62 16.558-14.68 28.919-28.51 24.997-16.88-4.784-20.43-23.171-38.15-26.633z" fill="#909071"/><g clip-path="url(#j)"><path d="m1271.01 325.237c-1.52 8.142-8.98 11.388-16.45 12.75-15.02 2.74-28.62-3.028-43.1-5.791-5.46-1.043-11.61-3.229-17.01-.84-1.86.824-4.41 2.378-4.65 4.621-.43 3.866 2.79 7.106 5.47 9.376 5.78 4.871 12.34 8.417 18.63 12.527 13.74 8.975 30.7 14.191 47.01 9.778 4.54-1.227 8.9-2.244 12.51-5.425 4.89-4.3 7.38-9.927 9.57-15.909 1.57-4.261 2.98-8.606 3.03-13.19" fill="#6b6a51"/></g><path d="m1197.6 333.913c14.04-7.835 31.83-12.323 47.92-9.7 7 1.143 15.55 4.408 18.74 11.336 7.62 16.558-14.68 28.919-28.51 24.997-16.88-4.784-20.43-23.171-38.15-26.633z" fill="none" stroke="#3d2120" stroke-width="2.8"/></g><g transform="matrix(1.06747701789 -.10587714037 .10587714037 1.06747701789 -30.780180876 363.35589259)"><path d="m1168.13 350.735c16.9-10.584 44.07-10.072 57.86-.611 14.11 9.681 11.02 30.283-7.89 31.009-13.49.519-25.5-9.997-34.78-18.641-3.52-3.281-9.58-11.339-15.19-11.757z" fill="#909071"/><g clip-path="url(#k)"><path d="m1257.55 363.103c-3.48 2.26-6.92 3.811-10.89 4.996-5.68 1.695-11.49 3.339-17.46 2.325-12.91-2.189-23.15-13.921-35.62-17.984-8.25-2.69-17.17-3.11-25.69-1.567-3.36.609-6.98 1.036-9.37 3.75-2.71 3.066-.6 7.787 1.36 10.678 4.96 7.343 14.37 12.789 21.73 17.442 13.23 8.369 27.17 13.887 42.43 17.418 8.29 1.918 17.93 3.359 26.31 1.248 6-1.51 11-4.699 16.06-8.111" fill="#6b6a51"/></g><path d="m1168.13 350.735c16.9-10.584 44.07-10.072 57.86-.611 14.11 9.681 11.02 30.283-7.89 31.009-13.49.519-25.5-9.997-34.78-18.641-3.52-3.281-9.58-11.339-15.19-11.757z" fill="none" stroke="#3d2120" stroke-width="2.8"/></g><g transform="matrix(1.06747701789 -.10587714037 .10587714037 1.06747701789 -30.780180876 363.35589259)"><path d="m1131.03 379.337c14.91-9.299 40.83-17.166 59.01-14.56 2.22.318 4.38.917 6.45 1.773 17.6 7.299 4.48 29.751-6.45 31.209-18.32 2.444-40.94-20.201-59.01-18.422z" fill="#909071"/><g clip-path="url(#l)"><path d="m1209.39 361.769c5.55 21.541-22.53 25.896-37.61 22.075-3.84-.972-7.43-2.502-10.99-4.216-5.3-2.561-10.25-5.343-16.11-6.411-7.1-1.295-21.86.791-19.97 11.264 1.81 10.069 18.49 14.248 26.57 16.876 19.57 6.37 47.44 20.244 65.35 2.884 2.76-2.67 4.83-5.954 6.6-9.339 2.49-4.791 4.41-9.685 3.55-15.165" fill="#6b6a51"/></g><path d="m1131.03 379.337c14.91-9.299 40.83-17.166 59.01-14.56 2.22.318 4.38.917 6.45 1.773 17.6 7.299 4.48 29.751-6.45 31.209-18.32 2.444-40.94-20.201-59.01-18.422z" fill="none" stroke="#3d2120" stroke-width="2.8"/></g><g transform="matrix(1.06747701789 -.10587714037 .10587714037 1.06747701789 -30.780180876 363.35589259)"><path d="m1096.3 407.06c19.98-15.277 54.22-23.782 73.51-16.843 21.89 7.875 14.64 34.844-4.66 41.597-15.5 5.422-33.15-3.704-45.38-12.832-5.87-4.386-14.89-14.704-23.47-11.922z" fill="#909071"/><g clip-path="url(#m)"><path d="m1189.88 396.967c1.47 12.52-10.8 21.508-21.79 23.514-21.06 3.846-39.45-8.882-58-16.659-7-2.935-21.87-3.496-20.53 8.337.51 4.515 3.96 8.359 6.99 11.483 6.4 6.613 14.23 12.641 22.45 16.821 23.31 11.86 61.22 22.158 78.12-4.922 2.35-3.769 4.25-7.771 5.54-12.028 1.75-5.797 2.32-11.88 1.57-17.883" fill="#6b6a51"/></g><path d="m1096.3 407.06c19.98-15.277 54.22-23.782 73.51-16.843 21.89 7.875 14.64 34.844-4.66 41.597-15.5 5.422-33.15-3.704-45.38-12.832-5.87-4.386-14.89-14.704-23.47-11.922z" fill="none" stroke="#3d2120" stroke-width="2.8"/></g><g transform="matrix(1.06747701789 -.10587714037 .10587714037 1.06747701789 -30.780180876 363.35589259)"><path d="m1054.31 444.16c27.21-22.21 57.08-24.104 79.32-19.609 15.17 3.063 30.26 17.4 15.13 31.789-2.52 2.393-5.5 4.289-8.62 5.798-19.79 9.587-38.03 2.51-56-6.975-7.38-3.895-20.46-14.986-29.83-11.003z" fill="#909071"/><g clip-path="url(#n)"><path d="m1162.07 430.386c.24 12.185-12.54 17.913-22.61 20.334-15.95 3.842-32.85 1.765-48.27-3.673-7.21-2.543-13.86-6.56-21.11-8.919-7.98-2.6-23.93.245-20.43 12.51 2.56 8.964 16.15 14.531 23.8 18.308 17.41 8.6 34.6 10.912 53.82 11.512 11.87.371 24.31-.278 34.97-6.076 14.43-7.844 32.09-28.661 22.87-46.087" fill="#6b6a51"/></g><path d="m1054.31 444.16c27.21-22.21 57.08-24.104 79.32-19.609 15.17 3.063 30.26 17.4 15.13 31.789-2.52 2.393-5.5 4.289-8.62 5.798-19.79 9.587-38.03 2.51-56-6.975-7.38-3.895-20.46-14.986-29.83-11.003z" fill="none" stroke="#3d2120" stroke-width="2.8"/></g><g transform="matrix(1.06747701789 -.10587714037 .10587714037 1.06747701789 -30.780180876 363.35589259)"><path d="m1020.93 480.08c25.44-24.306 54.55-27.645 85.1-22.68 18.01 2.927 32.45 23.385 18.42 38.945-2.35 2.617-5.22 4.694-8.34 6.31-18.93 9.802-39.94 5.649-57.23-5.265-12.86-8.112-21.49-24.975-37.95-17.31z" fill="#909071"/><g clip-path="url(#o)"><path d="m1140.33 468.325c-.17 14.533-13.48 22.932-26.43 25.066-25.67 4.232-44.06-15.837-67.59-21.008-10-2.2-35.04-4.935-33.22 12.361.54 5.093 4.28 9.194 8.1 12.258 7.89 6.324 16.83 12.204 25.8 16.82 5.89 3.033 12.03 5.613 18.46 7.234 6.3 1.585 12.76 2.368 19.21 3.013 6.14.614 12.3 1.377 18.47 1.516 19.8.443 48.26-6.67 56.29-27.157 2.06-5.255 2.94-11.031 3.22-16.654" fill="#6b6a51"/></g><path d="m1020.93 480.08c25.44-24.306 54.55-27.645 85.1-22.68 18.01 2.927 32.45 23.385 18.42 38.945-2.35 2.617-5.22 4.694-8.34 6.31-18.93 9.802-39.94 5.649-57.23-5.265-12.86-8.112-21.49-24.975-37.95-17.31z" fill="none" stroke="#3d2120" stroke-width="2.8"/></g><g fill="none"><path d="m998.688 499.982c14.892-13.719 55.272-55.127 70.372-68.592 23.43-20.894 39.71-37.674 65.34-56.061 21.03-15.091 57.21-41.668 89.42-57.036" stroke="#3d2120" stroke-width="2.8" transform="matrix(1.06747701789 -.10587714037 .10587714037 1.06747701789 -30.780180876 363.35589259)"/><g opacity=".04" transform="matrix(1.214724222 0 0 .99999565912 -77.0888744 222.274700694)"><ellipse cx="652.545" cy="366.131" rx="514.719" ry="319.095"/><g clip-path="url(#p)" stroke="#fff" stroke-linecap="butt" stroke-miterlimit="2"><path d="m515.618 1484.88v158.84h313.988c8.994 0 13.492 4.32 13.492 12.94v165.91c0 3.92-1.227 7.06-3.68 9.41-3.271 3.14-6.541 3.92-9.812 2.35l-311.535-51.77v290.63l34.342 82.36c1.635 3.92 1.227 7.46-1.226 10.59-2.453 3.93-6.133 5.89-11.039 5.89h-279.646c-4.906 0-8.586-1.96-11.039-5.89-2.453-3.13-2.861-6.67-1.226-10.59l34.342-82.36v-623.61l-34.342-82.37c-1.635-3.92-1.227-7.45 1.226-10.59 2.453-3.92 6.133-5.88 11.039-5.88h662.319c8.995 0 13.492 4.32 13.492 12.94v160.02c0 3.93-1.227 7.06-3.68 9.42-2.453 2.35-5.723 3.53-9.812 3.53z" stroke-width="17.21" transform="matrix(.222249 -.0136973 -.0118984 -.19306 471.241 733.278)"/><path d="m1068.78 1502.53-41.7-65.9c-2.46-3.13-2.87-6.66-1.23-10.58.82-3.14 3.27-5.5 7.36-7.06l42.93-12.95 208.5-54.12c3.27-.79 6.95 0 11.04 2.35 3.27 2.35 4.91 5.49 4.91 9.41v222.39h158.22c8.99 0 13.49 4.31 13.49 12.94v147.08c0 4.7-2.04 8.23-6.13 10.59-3.27 2.35-6.95 2.74-11.04 1.17l-153.31-63.53v285.92c0 25.1 4.7 43.92 14.1 56.47s21.46 20.2 36.18 22.95c14.72 2.74 30.87.78 48.45-5.88 17.58-6.67 34.55-16.67 50.9-30.01 4.09-3.92 8.59-4.71 13.49-2.35 4.91 2.35 7.36 5.88 7.36 10.59v87.07c0 3.92-1.63 7.06-4.91 9.41-32.7 25.1-65.82 41.97-99.34 50.6-33.53 8.62-72.37 12.94-116.52 12.94-58.88 0-103.85-14.32-134.92-42.95s-46.61-71.18-46.61-127.66z" stroke-width="17.21" transform="matrix(.222249 -.0136973 -.0118984 -.19306 471.241 733.278)"/><path d="m1693.07 1957.88c17.18 0 33.32 3.14 48.45 9.41 15.13 6.28 28.42 14.91 39.86 25.89 11.45 10.98 20.45 23.73 26.99 38.24s9.81 30 9.81 46.48c0 16.47-3.27 31.96-9.81 46.47s-15.54 27.26-26.99 38.24c-11.44 10.99-24.73 19.61-39.86 25.89-15.13 6.27-31.27 9.41-48.45 9.41h-2.45c-17.17 0-33.32-3.14-48.45-9.41-15.12-6.28-28.41-14.9-39.86-25.89-11.45-10.98-20.44-23.73-26.98-38.24s-9.81-30-9.81-46.47c0-16.48 3.27-31.97 9.81-46.48s15.53-27.26 26.98-38.24 24.74-19.61 39.86-25.89c15.13-6.27 31.28-9.41 48.45-9.41z" stroke-width="16.13" transform="matrix(.222249 -.0136973 -.0141361 -.229369 476.16 813.082)"/><g stroke-width="17.21"><path d="m641.949 3070.67 33.116 82.37c1.635 3.92 1.226 7.45-1.227 10.59-2.453 3.92-6.132 5.88-11.038 5.88h-272.287c-4.906 0-8.586-1.96-11.039-5.88-2.453-3.14-2.862-6.67-1.226-10.59l33.116-82.37v-542.42h-79.724c-5.724 0-9.812-2.35-12.265-7.06s-1.635-9.02 2.453-12.94l159.447-156.49c2.453-2.36 5.315-3.54 8.586-3.54l136.143-3.52c4.089 0 7.359 1.17 9.812 3.52 2.453 2.36 3.68 5.1 3.68 8.24v714.21z" transform="matrix(.222249 -.0136973 -.0118984 -.19306 471.241 733.278)"/><path d="m1046.7 2710.63c-32.71-17.26-60.918-39.81-84.63-67.66-23.713-27.85-35.569-60.6-35.569-98.25 0-32.16 9.199-60.79 27.596-85.89 18.398-25.1 40.68-46.28 66.843-63.54 39.25-25.1 83.2-42.36 131.85-51.77s96.29-14.12 142.89-14.12c47.43 0 96.28 4.71 146.57 14.12s95.87 26.67 136.76 51.77c26.98 17.26 50.08 38.44 69.3 63.54 19.21 25.1 28.82 54.12 28.82 87.07 0 36.87-13.08 70.2-39.25 100.01-11.45 13.34-24.53 25.3-39.25 35.89s-30.25 20.2-46.61 28.83c26.17 9.41 51.31 20.98 75.43 34.71 24.13 13.72 45.59 30.39 64.4 50 17.99 18.05 32.3 38.44 42.93 61.19 10.62 22.75 15.94 46.67 15.94 71.77 0 38.44-11.45 72.56-34.34 102.37-22.9 29.81-50.29 54.91-82.18 75.3-24.53 14.91-50.49 27.46-77.88 37.65-27.4 10.2-55.81 18.24-85.25 24.12-29.43 5.89-59.07 10.01-88.92 12.36-29.84 2.35-58.67 3.53-86.47 3.53-55.6 0-112.63-5.69-171.1-17.06-58.46-11.37-111.4-31.97-158.831-61.77-31.889-20.4-58.872-45.7-80.95-75.9-22.077-30.2-33.116-64.12-33.116-101.78 0-25.1 5.111-49.02 15.332-71.77s23.917-43.14 41.088-61.18c18.807-19.61 39.862-36.28 63.166-50.01 23.303-13.73 48.041-25.3 74.201-34.71zm307.86-58.83c32.7-1.57 57.64-12.16 74.81-31.77 17.17-19.62 18.81-44.72 4.91-75.31-9-19.61-22.49-36.67-40.48-51.18-17.98-14.51-37.2-26.08-57.64-34.71-28.62-10.98-57.24-16.08-85.86-15.3-32.71 1.57-57.65 12.16-74.82 31.77s-18.8 44.71-4.9 75.31c8.99 19.61 22.48 36.67 40.47 51.18s37.21 26.08 57.65 34.71c28.62 10.98 57.24 16.08 85.86 15.3zm-233.04 190.61c-8.18 14.12-11.65 29.02-10.43 44.71 1.23 15.69 5.11 30.98 11.65 45.89 16.36 36.08 41.09 65.3 74.21 87.66 33.11 22.35 69.3 37.06 108.55 44.12 17.17 3.14 34.75 4.51 52.74 4.12 17.98-.39 35.15-2.55 51.51-6.47 13.9-3.93 26.98-9.22 39.25-15.89 12.26-6.66 22.48-15.49 30.66-26.47 10.63-14.9 15.13-30.79 13.49-47.65-1.63-16.87-5.72-33.15-12.26-48.83-12.27-26.67-30.67-50.01-55.2-70.01-24.53-20.01-50.28-35.5-77.27-46.48-17.99-7.85-36.79-13.73-56.42-17.65-19.62-3.92-39.25-5.1-58.87-3.53-21.26 1.57-42.31 6.67-63.17 15.3-20.85 8.63-36.59 22.74-47.22 42.36z" transform="matrix(.222249 -.0136973 -.0118984 -.19306 471.241 733.278)"/><path d="m515.618 1484.88v158.84h313.988c8.994 0 13.492 4.32 13.492 12.94v165.91c0 3.92-1.227 7.06-3.68 9.41-3.271 3.14-6.541 3.92-9.812 2.35l-311.535-51.77v290.63l34.342 82.36c1.635 3.92 1.227 7.46-1.226 10.59-2.453 3.93-6.133 5.89-11.039 5.89h-279.646c-4.906 0-8.586-1.96-11.039-5.89-2.453-3.13-2.861-6.67-1.226-10.59l34.342-82.36v-623.61l-34.342-82.37c-1.635-3.92-1.227-7.45 1.226-10.59 2.453-3.92 6.133-5.88 11.039-5.88h662.319c8.995 0 13.492 4.32 13.492 12.94v160.02c0 3.93-1.227 7.06-3.68 9.42-2.453 2.35-5.723 3.53-9.812 3.53z" transform="matrix(.222249 -.0136973 -.0118984 -.19306 610.912 782.935)"/><path d="m1068.78 1502.53-41.7-65.9c-2.46-3.13-2.87-6.66-1.23-10.58.82-3.14 3.27-5.5 7.36-7.06l42.93-12.95 208.5-54.12c3.27-.79 6.95 0 11.04 2.35 3.27 2.35 4.91 5.49 4.91 9.41v222.39h158.22c8.99 0 13.49 4.31 13.49 12.94v147.08c0 4.7-2.04 8.23-6.13 10.59-3.27 2.35-6.95 2.74-11.04 1.17l-153.31-63.53v285.92c0 25.1 4.7 43.92 14.1 56.47s21.46 20.2 36.18 22.95c14.72 2.74 30.87.78 48.45-5.88 17.58-6.67 34.55-16.67 50.9-30.01 4.09-3.92 8.59-4.71 13.49-2.35 4.91 2.35 7.36 5.88 7.36 10.59v87.07c0 3.92-1.63 7.06-4.91 9.41-32.7 25.1-65.82 41.97-99.34 50.6-33.53 8.62-72.37 12.94-116.52 12.94-58.88 0-103.85-14.32-134.92-42.95s-46.61-71.18-46.61-127.66z" transform="matrix(.222249 -.0136973 -.0118984 -.19306 610.912 782.935)"/></g><path d="m1693.07 1957.88c17.18 0 33.32 3.14 48.45 9.41 15.13 6.28 28.42 14.91 39.86 25.89 11.45 10.98 20.45 23.73 26.99 38.24s9.81 30 9.81 46.48c0 16.47-3.27 31.96-9.81 46.47s-15.54 27.26-26.99 38.24c-11.44 10.99-24.73 19.61-39.86 25.89-15.13 6.27-31.27 9.41-48.45 9.41h-2.45c-17.17 0-33.32-3.14-48.45-9.41-15.12-6.28-28.41-14.9-39.86-25.89-11.45-10.98-20.44-23.73-26.98-38.24s-9.81-30-9.81-46.47c0-16.48 3.27-31.97 9.81-46.48s15.53-27.26 26.98-38.24 24.74-19.61 39.86-25.89c15.13-6.27 31.28-9.41 48.45-9.41z" stroke-width="16.13" transform="matrix(.222249 -.0136973 -.0141361 -.229369 443.246 599.566)"/><path d="m641.949 3070.67 33.116 82.37c1.635 3.92 1.226 7.45-1.227 10.59-2.453 3.92-6.132 5.88-11.038 5.88h-272.287c-4.906 0-8.586-1.96-11.039-5.88-2.453-3.14-2.862-6.67-1.226-10.59l33.116-82.37v-542.42h-79.724c-5.724 0-9.812-2.35-12.265-7.06s-1.635-9.02 2.453-12.94l159.447-156.49c2.453-2.36 5.315-3.54 8.586-3.54l136.143-3.52c4.089 0 7.359 1.17 9.812 3.52 2.453 2.36 3.68 5.1 3.68 8.24v714.21z" stroke-width="17.21" transform="matrix(.222249 -.0136973 -.0118984 -.19306 610.912 782.935)"/><path d="m1046.7 2710.63c-32.71-17.26-60.918-39.81-84.63-67.66-23.713-27.85-35.569-60.6-35.569-98.25 0-32.16 9.199-60.79 27.596-85.89 18.398-25.1 40.68-46.28 66.843-63.54 39.25-25.1 83.2-42.36 131.85-51.77s96.29-14.12 142.89-14.12c47.43 0 96.28 4.71 146.57 14.12s95.87 26.67 136.76 51.77c26.98 17.26 50.08 38.44 69.3 63.54 19.21 25.1 28.82 54.12 28.82 87.07 0 36.87-13.08 70.2-39.25 100.01-11.45 13.34-24.53 25.3-39.25 35.89s-30.25 20.2-46.61 28.83c26.17 9.41 51.31 20.98 75.43 34.71 24.13 13.72 45.59 30.39 64.4 50 17.99 18.05 32.3 38.44 42.93 61.19 10.62 22.75 15.94 46.67 15.94 71.77 0 38.44-11.45 72.56-34.34 102.37-22.9 29.81-50.29 54.91-82.18 75.3-24.53 14.91-50.49 27.46-77.88 37.65-27.4 10.2-55.81 18.24-85.25 24.12-29.43 5.89-59.07 10.01-88.92 12.36-29.84 2.35-58.67 3.53-86.47 3.53-55.6 0-112.63-5.69-171.1-17.06-58.46-11.37-111.4-31.97-158.831-61.77-31.889-20.4-58.872-45.7-80.95-75.9-22.077-30.2-33.116-64.12-33.116-101.78 0-25.1 5.111-49.02 15.332-71.77s23.917-43.14 41.088-61.18c18.807-19.61 39.862-36.28 63.166-50.01 23.303-13.73 48.041-25.3 74.201-34.71zm307.86-58.83c32.7-1.57 57.64-12.16 74.81-31.77 17.17-19.62 18.81-44.72 4.91-75.31-9-19.61-22.49-36.67-40.48-51.18-17.98-14.51-37.2-26.08-57.64-34.71-28.62-10.98-57.24-16.08-85.86-15.3-32.71 1.57-57.65 12.16-74.82 31.77s-18.8 44.71-4.9 75.31c8.99 19.61 22.48 36.67 40.47 51.18s37.21 26.08 57.65 34.71c28.62 10.98 57.24 16.08 85.86 15.3zm-233.04 190.61c-8.18 14.12-11.65 29.02-10.43 44.71 1.23 15.69 5.11 30.98 11.65 45.89 16.36 36.08 41.09 65.3 74.21 87.66 33.11 22.35 69.3 37.06 108.55 44.12 17.17 3.14 34.75 4.51 52.74 4.12 17.98-.39 35.15-2.55 51.51-6.47 13.9-3.93 26.98-9.22 39.25-15.89 12.26-6.66 22.48-15.49 30.66-26.47 10.63-14.9 15.13-30.79 13.49-47.65-1.63-16.87-5.72-33.15-12.26-48.83-12.27-26.67-30.67-50.01-55.2-70.01-24.53-20.01-50.28-35.5-77.27-46.48-17.99-7.85-36.79-13.73-56.42-17.65-19.62-3.92-39.25-5.1-58.87-3.53-21.26 1.57-42.31 6.67-63.17 15.3-20.85 8.63-36.59 22.74-47.22 42.36z" stroke-width="17.21" transform="matrix(.222249 -.0136973 -.0118984 -.19306 610.912 782.935)"/><path d="m515.618 1484.88v158.84h313.988c8.994 0 13.492 4.32 13.492 12.94v165.91c0 3.92-1.227 7.06-3.68 9.41-3.271 3.14-6.541 3.92-9.812 2.35l-311.535-51.77v290.63l34.342 82.36c1.635 3.92 1.227 7.46-1.226 10.59-2.453 3.93-6.133 5.89-11.039 5.89h-279.646c-4.906 0-8.586-1.96-11.039-5.89-2.453-3.13-2.861-6.67-1.226-10.59l34.342-82.36v-623.61l-34.342-82.37c-1.635-3.92-1.227-7.45 1.226-10.59 2.453-3.92 6.133-5.88 11.039-5.88h662.319c8.995 0 13.492 4.32 13.492 12.94v160.02c0 3.93-1.227 7.06-3.68 9.42-2.453 2.35-5.723 3.53-9.812 3.53z" stroke-width="17.21" transform="matrix(.222249 -.0136973 -.0118984 -.19306 379.469 666.622)"/><path d="m1068.78 1502.53-41.7-65.9c-2.46-3.13-2.87-6.66-1.23-10.58.82-3.14 3.27-5.5 7.36-7.06l42.93-12.95 208.5-54.12c3.27-.79 6.95 0 11.04 2.35 3.27 2.35 4.91 5.49 4.91 9.41v222.39h158.22c8.99 0 13.49 4.31 13.49 12.94v147.08c0 4.7-2.04 8.23-6.13 10.59-3.27 2.35-6.95 2.74-11.04 1.17l-153.31-63.53v285.92c0 25.1 4.7 43.92 14.1 56.47s21.46 20.2 36.18 22.95c14.72 2.74 30.87.78 48.45-5.88 17.58-6.67 34.55-16.67 50.9-30.01 4.09-3.92 8.59-4.71 13.49-2.35 4.91 2.35 7.36 5.88 7.36 10.59v87.07c0 3.92-1.63 7.06-4.91 9.41-32.7 25.1-65.82 41.97-99.34 50.6-33.53 8.62-72.37 12.94-116.52 12.94-58.88 0-103.85-14.32-134.92-42.95s-46.61-71.18-46.61-127.66z" stroke-width="17.21" transform="matrix(.222249 -.0136973 -.0118984 -.19306 379.469 666.622)"/><path d="m1693.07 1957.88c17.18 0 33.32 3.14 48.45 9.41 15.13 6.28 28.42 14.91 39.86 25.89 11.45 10.98 20.45 23.73 26.99 38.24s9.81 30 9.81 46.48c0 16.47-3.27 31.96-9.81 46.47s-15.54 27.26-26.99 38.24c-11.44 10.99-24.73 19.61-39.86 25.89-15.13 6.27-31.27 9.41-48.45 9.41h-2.45c-17.17 0-33.32-3.14-48.45-9.41-15.12-6.28-28.41-14.9-39.86-25.89-11.45-10.98-20.44-23.73-26.98-38.24s-9.81-30-9.81-46.47c0-16.48 3.27-31.97 9.81-46.48s15.53-27.26 26.98-38.24 24.74-19.61 39.86-25.89c15.13-6.27 31.28-9.41 48.45-9.41z" stroke-width="16.13" transform="matrix(.222249 -.0136973 -.0141361 -.229369 384.387 746.426)"/><path d="m641.949 3070.67 33.116 82.37c1.635 3.92 1.226 7.45-1.227 10.59-2.453 3.92-6.132 5.88-11.038 5.88h-272.287c-4.906 0-8.586-1.96-11.039-5.88-2.453-3.14-2.862-6.67-1.226-10.59l33.116-82.37v-542.42h-79.724c-5.724 0-9.812-2.35-12.265-7.06s-1.635-9.02 2.453-12.94l159.447-156.49c2.453-2.36 5.315-3.54 8.586-3.54l136.143-3.52c4.089 0 7.359 1.17 9.812 3.52 2.453 2.36 3.68 5.1 3.68 8.24v714.21z" stroke-width="17.21" transform="matrix(.222249 -.0136973 -.0118984 -.19306 379.469 666.622)"/><path d="m1046.7 2710.63c-32.71-17.26-60.918-39.81-84.63-67.66-23.713-27.85-35.569-60.6-35.569-98.25 0-32.16 9.199-60.79 27.596-85.89 18.398-25.1 40.68-46.28 66.843-63.54 39.25-25.1 83.2-42.36 131.85-51.77s96.29-14.12 142.89-14.12c47.43 0 96.28 4.71 146.57 14.12s95.87 26.67 136.76 51.77c26.98 17.26 50.08 38.44 69.3 63.54 19.21 25.1 28.82 54.12 28.82 87.07 0 36.87-13.08 70.2-39.25 100.01-11.45 13.34-24.53 25.3-39.25 35.89s-30.25 20.2-46.61 28.83c26.17 9.41 51.31 20.98 75.43 34.71 24.13 13.72 45.59 30.39 64.4 50 17.99 18.05 32.3 38.44 42.93 61.19 10.62 22.75 15.94 46.67 15.94 71.77 0 38.44-11.45 72.56-34.34 102.37-22.9 29.81-50.29 54.91-82.18 75.3-24.53 14.91-50.49 27.46-77.88 37.65-27.4 10.2-55.81 18.24-85.25 24.12-29.43 5.89-59.07 10.01-88.92 12.36-29.84 2.35-58.67 3.53-86.47 3.53-55.6 0-112.63-5.69-171.1-17.06-58.46-11.37-111.4-31.97-158.831-61.77-31.889-20.4-58.872-45.7-80.95-75.9-22.077-30.2-33.116-64.12-33.116-101.78 0-25.1 5.111-49.02 15.332-71.77s23.917-43.14 41.088-61.18c18.807-19.61 39.862-36.28 63.166-50.01 23.303-13.73 48.041-25.3 74.201-34.71zm307.86-58.83c32.7-1.57 57.64-12.16 74.81-31.77 17.17-19.62 18.81-44.72 4.91-75.31-9-19.61-22.49-36.67-40.48-51.18-17.98-14.51-37.2-26.08-57.64-34.71-28.62-10.98-57.24-16.08-85.86-15.3-32.71 1.57-57.65 12.16-74.82 31.77s-18.8 44.71-4.9 75.31c8.99 19.61 22.48 36.67 40.47 51.18s37.21 26.08 57.65 34.71c28.62 10.98 57.24 16.08 85.86 15.3zm-233.04 190.61c-8.18 14.12-11.65 29.02-10.43 44.71 1.23 15.69 5.11 30.98 11.65 45.89 16.36 36.08 41.09 65.3 74.21 87.66 33.11 22.35 69.3 37.06 108.55 44.12 17.17 3.14 34.75 4.51 52.74 4.12 17.98-.39 35.15-2.55 51.51-6.47 13.9-3.93 26.98-9.22 39.25-15.89 12.26-6.66 22.48-15.49 30.66-26.47 10.63-14.9 15.13-30.79 13.49-47.65-1.63-16.87-5.72-33.15-12.26-48.83-12.27-26.67-30.67-50.01-55.2-70.01-24.53-20.01-50.28-35.5-77.27-46.48-17.99-7.85-36.79-13.73-56.42-17.65-19.62-3.92-39.25-5.1-58.87-3.53-21.26 1.57-42.31 6.67-63.17 15.3-20.85 8.63-36.59 22.74-47.22 42.36z" stroke-width="17.21" transform="matrix(.222249 -.0136973 -.0118984 -.19306 379.469 666.622)"/><path d="m515.618 1484.88v158.84h313.988c8.994 0 13.492 4.32 13.492 12.94v165.91c0 3.92-1.227 7.06-3.68 9.41-3.271 3.14-6.541 3.92-9.812 2.35l-311.535-51.77v290.63l34.342 82.36c1.635 3.92 1.227 7.46-1.226 10.59-2.453 3.93-6.133 5.89-11.039 5.89h-279.646c-4.906 0-8.586-1.96-11.039-5.89-2.453-3.13-2.861-6.67-1.226-10.59l34.342-82.36v-623.61l-34.342-82.37c-1.635-3.92-1.227-7.45 1.226-10.59 2.453-3.92 6.133-5.88 11.039-5.88h662.319c8.995 0 13.492 4.32 13.492 12.94v160.02c0 3.93-1.227 7.06-3.68 9.42-2.453 2.35-5.723 3.53-9.812 3.53z" stroke-width="17.21" transform="matrix(.222249 -.0136973 -.0118984 -.19306 625.495 656.659)"/><path d="m1068.78 1502.53-41.7-65.9c-2.46-3.13-2.87-6.66-1.23-10.58.82-3.14 3.27-5.5 7.36-7.06l42.93-12.95 208.5-54.12c3.27-.79 6.95 0 11.04 2.35 3.27 2.35 4.91 5.49 4.91 9.41v222.39h158.22c8.99 0 13.49 4.31 13.49 12.94v147.08c0 4.7-2.04 8.23-6.13 10.59-3.27 2.35-6.95 2.74-11.04 1.17l-153.31-63.53v285.92c0 25.1 4.7 43.92 14.1 56.47s21.46 20.2 36.18 22.95c14.72 2.74 30.87.78 48.45-5.88 17.58-6.67 34.55-16.67 50.9-30.01 4.09-3.92 8.59-4.71 13.49-2.35 4.91 2.35 7.36 5.88 7.36 10.59v87.07c0 3.92-1.63 7.06-4.91 9.41-32.7 25.1-65.82 41.97-99.34 50.6-33.53 8.62-72.37 12.94-116.52 12.94-58.88 0-103.85-14.32-134.92-42.95s-46.61-71.18-46.61-127.66z" stroke-width="17.21" transform="matrix(.222249 -.0136973 -.0118984 -.19306 625.495 656.659)"/><path d="m1693.07 1957.88c17.18 0 33.32 3.14 48.45 9.41 15.13 6.28 28.42 14.91 39.86 25.89 11.45 10.98 20.45 23.73 26.99 38.24s9.81 30 9.81 46.48c0 16.47-3.27 31.96-9.81 46.47s-15.54 27.26-26.99 38.24c-11.44 10.99-24.73 19.61-39.86 25.89-15.13 6.27-31.27 9.41-48.45 9.41h-2.45c-17.17 0-33.32-3.14-48.45-9.41-15.12-6.28-28.41-14.9-39.86-25.89-11.45-10.98-20.44-23.73-26.98-38.24s-9.81-30-9.81-46.47c0-16.48 3.27-31.97 9.81-46.48s15.53-27.26 26.98-38.24 24.74-19.61 39.86-25.89c15.13-6.27 31.28-9.41 48.45-9.41z" stroke-width="16.13" transform="matrix(.222249 -.0136973 -.0141361 -.229369 630.414 736.463)"/><path d="m641.949 3070.67 33.116 82.37c1.635 3.92 1.226 7.45-1.227 10.59-2.453 3.92-6.132 5.88-11.038 5.88h-272.287c-4.906 0-8.586-1.96-11.039-5.88-2.453-3.14-2.862-6.67-1.226-10.59l33.116-82.37v-542.42h-79.724c-5.724 0-9.812-2.35-12.265-7.06s-1.635-9.02 2.453-12.94l159.447-156.49c2.453-2.36 5.315-3.54 8.586-3.54l136.143-3.52c4.089 0 7.359 1.17 9.812 3.52 2.453 2.36 3.68 5.1 3.68 8.24v714.21z" stroke-width="17.21" transform="matrix(.222249 -.0136973 -.0118984 -.19306 625.495 656.659)"/><path d="m1046.7 2710.63c-32.71-17.26-60.918-39.81-84.63-67.66-23.713-27.85-35.569-60.6-35.569-98.25 0-32.16 9.199-60.79 27.596-85.89 18.398-25.1 40.68-46.28 66.843-63.54 39.25-25.1 83.2-42.36 131.85-51.77s96.29-14.12 142.89-14.12c47.43 0 96.28 4.71 146.57 14.12s95.87 26.67 136.76 51.77c26.98 17.26 50.08 38.44 69.3 63.54 19.21 25.1 28.82 54.12 28.82 87.07 0 36.87-13.08 70.2-39.25 100.01-11.45 13.34-24.53 25.3-39.25 35.89s-30.25 20.2-46.61 28.83c26.17 9.41 51.31 20.98 75.43 34.71 24.13 13.72 45.59 30.39 64.4 50 17.99 18.05 32.3 38.44 42.93 61.19 10.62 22.75 15.94 46.67 15.94 71.77 0 38.44-11.45 72.56-34.34 102.37-22.9 29.81-50.29 54.91-82.18 75.3-24.53 14.91-50.49 27.46-77.88 37.65-27.4 10.2-55.81 18.24-85.25 24.12-29.43 5.89-59.07 10.01-88.92 12.36-29.84 2.35-58.67 3.53-86.47 3.53-55.6 0-112.63-5.69-171.1-17.06-58.46-11.37-111.4-31.97-158.831-61.77-31.889-20.4-58.872-45.7-80.95-75.9-22.077-30.2-33.116-64.12-33.116-101.78 0-25.1 5.111-49.02 15.332-71.77s23.917-43.14 41.088-61.18c18.807-19.61 39.862-36.28 63.166-50.01 23.303-13.73 48.041-25.3 74.201-34.71zm307.86-58.83c32.7-1.57 57.64-12.16 74.81-31.77 17.17-19.62 18.81-44.72 4.91-75.31-9-19.61-22.49-36.67-40.48-51.18-17.98-14.51-37.2-26.08-57.64-34.71-28.62-10.98-57.24-16.08-85.86-15.3-32.71 1.57-57.65 12.16-74.82 31.77s-18.8 44.71-4.9 75.31c8.99 19.61 22.48 36.67 40.47 51.18s37.21 26.08 57.65 34.71c28.62 10.98 57.24 16.08 85.86 15.3zm-233.04 190.61c-8.18 14.12-11.65 29.02-10.43 44.71 1.23 15.69 5.11 30.98 11.65 45.89 16.36 36.08 41.09 65.3 74.21 87.66 33.11 22.35 69.3 37.06 108.55 44.12 17.17 3.14 34.75 4.51 52.74 4.12 17.98-.39 35.15-2.55 51.51-6.47 13.9-3.93 26.98-9.22 39.25-15.89 12.26-6.66 22.48-15.49 30.66-26.47 10.63-14.9 15.13-30.79 13.49-47.65-1.63-16.87-5.72-33.15-12.26-48.83-12.27-26.67-30.67-50.01-55.2-70.01-24.53-20.01-50.28-35.5-77.27-46.48-17.99-7.85-36.79-13.73-56.42-17.65-19.62-3.92-39.25-5.1-58.87-3.53-21.26 1.57-42.31 6.67-63.17 15.3-20.85 8.63-36.59 22.74-47.22 42.36z" stroke-width="17.21" transform="matrix(.222249 -.0136973 -.0118984 -.19306 625.495 656.659)"/><path d="m515.618 1484.88v158.84h313.988c8.994 0 13.492 4.32 13.492 12.94v165.91c0 3.92-1.227 7.06-3.68 9.41-3.271 3.14-6.541 3.92-9.812 2.35l-311.535-51.77v290.63l34.342 82.36c1.635 3.92 1.227 7.46-1.226 10.59-2.453 3.93-6.133 5.89-11.039 5.89h-279.646c-4.906 0-8.586-1.96-11.039-5.89-2.453-3.13-2.861-6.67-1.226-10.59l34.342-82.36v-623.61l-34.342-82.37c-1.635-3.92-1.227-7.45 1.226-10.59 2.453-3.92 6.133-5.88 11.039-5.88h662.319c8.995 0 13.492 4.32 13.492 12.94v160.02c0 3.93-1.227 7.06-3.68 9.42-2.453 2.35-5.723 3.53-9.812 3.53z" stroke-width="17.21" transform="matrix(.222249 -.0136973 -.0118984 -.19306 340.721 822.676)"/><path d="m1068.78 1502.53-41.7-65.9c-2.46-3.13-2.87-6.66-1.23-10.58.82-3.14 3.27-5.5 7.36-7.06l42.93-12.95 208.5-54.12c3.27-.79 6.95 0 11.04 2.35 3.27 2.35 4.91 5.49 4.91 9.41v222.39h158.22c8.99 0 13.49 4.31 13.49 12.94v147.08c0 4.7-2.04 8.23-6.13 10.59-3.27 2.35-6.95 2.74-11.04 1.17l-153.31-63.53v285.92c0 25.1 4.7 43.92 14.1 56.47s21.46 20.2 36.18 22.95c14.72 2.74 30.87.78 48.45-5.88 17.58-6.67 34.55-16.67 50.9-30.01 4.09-3.92 8.59-4.71 13.49-2.35 4.91 2.35 7.36 5.88 7.36 10.59v87.07c0 3.92-1.63 7.06-4.91 9.41-32.7 25.1-65.82 41.97-99.34 50.6-33.53 8.62-72.37 12.94-116.52 12.94-58.88 0-103.85-14.32-134.92-42.95s-46.61-71.18-46.61-127.66z" stroke-width="17.21" transform="matrix(.222249 -.0136973 -.0118984 -.19306 625.556 467.168)"/><path d="m1693.07 1957.88c17.18 0 33.32 3.14 48.45 9.41 15.13 6.28 28.42 14.91 39.86 25.89 11.45 10.98 20.45 23.73 26.99 38.24s9.81 30 9.81 46.48c0 16.47-3.27 31.96-9.81 46.47s-15.54 27.26-26.99 38.24c-11.44 10.99-24.73 19.61-39.86 25.89-15.13 6.27-31.27 9.41-48.45 9.41h-2.45c-17.17 0-33.32-3.14-48.45-9.41-15.12-6.28-28.41-14.9-39.86-25.89-11.45-10.98-20.44-23.73-26.98-38.24s-9.81-30-9.81-46.47c0-16.48 3.27-31.97 9.81-46.48s15.53-27.26 26.98-38.24 24.74-19.61 39.86-25.89c15.13-6.27 31.28-9.41 48.45-9.41z" stroke-width="16.13" transform="matrix(.222249 -.0136973 -.0141361 -.229369 345.639 902.48)"/><path d="m641.949 3070.67 33.116 82.37c1.635 3.92 1.226 7.45-1.227 10.59-2.453 3.92-6.132 5.88-11.038 5.88h-272.287c-4.906 0-8.586-1.96-11.039-5.88-2.453-3.14-2.862-6.67-1.226-10.59l33.116-82.37v-542.42h-79.724c-5.724 0-9.812-2.35-12.265-7.06s-1.635-9.02 2.453-12.94l159.447-156.49c2.453-2.36 5.315-3.54 8.586-3.54l136.143-3.52c4.089 0 7.359 1.17 9.812 3.52 2.453 2.36 3.68 5.1 3.68 8.24v714.21z" stroke-width="17.21" transform="matrix(.222249 -.0136973 -.0118984 -.19306 340.721 822.676)"/><path d="m1046.7 2710.63c-32.71-17.26-60.918-39.81-84.63-67.66-23.713-27.85-35.569-60.6-35.569-98.25 0-32.16 9.199-60.79 27.596-85.89 18.398-25.1 40.68-46.28 66.843-63.54 39.25-25.1 83.2-42.36 131.85-51.77s96.29-14.12 142.89-14.12c47.43 0 96.28 4.71 146.57 14.12s95.87 26.67 136.76 51.77c26.98 17.26 50.08 38.44 69.3 63.54 19.21 25.1 28.82 54.12 28.82 87.07 0 36.87-13.08 70.2-39.25 100.01-11.45 13.34-24.53 25.3-39.25 35.89s-30.25 20.2-46.61 28.83c26.17 9.41 51.31 20.98 75.43 34.71 24.13 13.72 45.59 30.39 64.4 50 17.99 18.05 32.3 38.44 42.93 61.19 10.62 22.75 15.94 46.67 15.94 71.77 0 38.44-11.45 72.56-34.34 102.37-22.9 29.81-50.29 54.91-82.18 75.3-24.53 14.91-50.49 27.46-77.88 37.65-27.4 10.2-55.81 18.24-85.25 24.12-29.43 5.89-59.07 10.01-88.92 12.36-29.84 2.35-58.67 3.53-86.47 3.53-55.6 0-112.63-5.69-171.1-17.06-58.46-11.37-111.4-31.97-158.831-61.77-31.889-20.4-58.872-45.7-80.95-75.9-22.077-30.2-33.116-64.12-33.116-101.78 0-25.1 5.111-49.02 15.332-71.77s23.917-43.14 41.088-61.18c18.807-19.61 39.862-36.28 63.166-50.01 23.303-13.73 48.041-25.3 74.201-34.71zm307.86-58.83c32.7-1.57 57.64-12.16 74.81-31.77 17.17-19.62 18.81-44.72 4.91-75.31-9-19.61-22.49-36.67-40.48-51.18-17.98-14.51-37.2-26.08-57.64-34.71-28.62-10.98-57.24-16.08-85.86-15.3-32.71 1.57-57.65 12.16-74.82 31.77s-18.8 44.71-4.9 75.31c8.99 19.61 22.48 36.67 40.47 51.18s37.21 26.08 57.65 34.71c28.62 10.98 57.24 16.08 85.86 15.3zm-233.04 190.61c-8.18 14.12-11.65 29.02-10.43 44.71 1.23 15.69 5.11 30.98 11.65 45.89 16.36 36.08 41.09 65.3 74.21 87.66 33.11 22.35 69.3 37.06 108.55 44.12 17.17 3.14 34.75 4.51 52.74 4.12 17.98-.39 35.15-2.55 51.51-6.47 13.9-3.93 26.98-9.22 39.25-15.89 12.26-6.66 22.48-15.49 30.66-26.47 10.63-14.9 15.13-30.79 13.49-47.65-1.63-16.87-5.72-33.15-12.26-48.83-12.27-26.67-30.67-50.01-55.2-70.01-24.53-20.01-50.28-35.5-77.27-46.48-17.99-7.85-36.79-13.73-56.42-17.65-19.62-3.92-39.25-5.1-58.87-3.53-21.26 1.57-42.31 6.67-63.17 15.3-20.85 8.63-36.59 22.74-47.22 42.36z" stroke-width="17.21" transform="matrix(.222249 -.0136973 -.0118984 -.19306 340.721 822.676)"/></g></g></g></g></g></svg>