<svg clip-rule="evenodd" fill-rule="evenodd" stroke-linejoin="round" stroke-miterlimit="2" viewBox="0 0 1297 548" xmlns="http://www.w3.org/2000/svg" xmlns:xlink="http://www.w3.org/1999/xlink"><clipPath id="a"><path clip-rule="evenodd" d="m-.001 0h1296.03v547.209h-1296.03z"/></clipPath><clipPath id="b"><path clip-rule="evenodd" d="m422.231 512.429s3.202-99.535-42.221-124.056-41.912 30.163-40.688 51.979c0 0-27.877-107.128-56.004-101.729-28.128 5.398-13.88 47.221-6.438 58.426 0 0-45.505-119.381-63.451-111.178-17.945 8.203-11.446 59.047 2.191 83.153 0 0-42.858-106.875-69.481-98.587-26.623 8.289-1.884 56.845 4.481 63.801 0 0-40.313-58.046-55.687-49.719s3.334 34.598 15.738 43.125c0 0-56.76 15.791-47.008 40.534 9.751 24.744 54.767-2.239 63.809-8.188 0 0-46.507 29.258-36.465 49.191 10.041 19.933 81.933-7.179 100.232-12.974 0 0-66.774 26.761-51.973 50.36 14.802 23.597 94.383-19.757 109.197-25.015 0 0-67.144 39.904-57.228 58.837 9.916 18.935 90.063 2.824 114.961-6.323 0 0-58.322 14.549-46.089 39.742 12.234 25.194 120.077 35.725 157.832 17.716z"/></clipPath><clipPath id="c"><path clip-rule="evenodd" d="m91.904 321.887c20.687-9.26 270.121 163.098 325.163 210.042 3.743 3.193 7.037-1.736 7.037-1.736-119.829-94.883-267.326-191.528-313.433-202.549l-18.767-5.757s-63.579-89.542-89.346-34.866c-18.294 38.817 66.759 44.976 89.346 34.866z"/></clipPath><clipPath id="d"><path clip-rule="evenodd" d="m1202.31 304.922c10.041 7.306 19.508 11.605 31.924 13.664 9.099 1.51 19.155 2.982 28.308.938 35.699-7.979 46.722-61.181 7.463-73.529-5.023-1.579-10.555-2.396-15.797-1.875-6.642.655-13.1 3.365-18.722 6.843-7.689 4.748-14.158 11.405-19.02 19.001-7.39 11.56-10.339 21.959-14.156 34.958z"/></clipPath><clipPath id="e"><path clip-rule="evenodd" d="m1154.05 327.071c11.518-10.66 31.615-23.262 36.341-39.308 6.981-23.69-26.543-43.22-43.402-24.754-18.166 19.906-1.464 45.968 7.061 64.062z"/></clipPath><clipPath id="f"><path clip-rule="evenodd" d="m1110.14 351.785c11.072-15.051 23.03-31.863 24.223-51.118.792-13.003-6.934-28.35-20.395-31.922-22.412-5.949-47.055 17.778-38.786 40.184 7.491 20.335 27.121 22.263 34.958 42.856z"/></clipPath><clipPath id="g"><path clip-rule="evenodd" d="m1065.89 381.178c3.934-10.438 6.255-16.561 7.164-27.699.725-8.754.834-17.81-.977-26.446-1.19-5.647-2.964-11.369-6.54-15.984-15.082-19.442-47.285-9.382-55.24 12.029-3.471 9.369.295 20.122 5.654 28.003 4.303 6.339 9.917 11.543 16.3 15.761 10.36 6.852 22.049 10.293 33.639 14.336z"/></clipPath><clipPath id="h"><path clip-rule="evenodd" d="m997.99 439.06c12.92-27.837 33.006-81.984-8.45-96.405-25.653-8.923-55.146 18.216-45.078 44.584 6.146 16.055 21.822 27.905 35.822 36.93 7.026 4.53 12.53 7.986 17.706 14.891z"/></clipPath><clipPath id="i"><path clip-rule="evenodd" d="m927.957 487.122c6.329-13.066 11.559-26.818 14.836-40.988 2.362-10.157 3.932-21.076 3.66-31.526-.638-23.356-24.722-37.979-46.455-32.146-31.833 8.553-49.634 54.483-25.93 79.714 14.931 15.896 34.869 16.808 52.96 25.689"/></clipPath><clipPath id="j"><path clip-rule="evenodd" d="m1158.2 324.319c21.898-7.335 48.202-8.95 70.219-.978 9.578 3.471 20.782 10.348 23.446 20.975 6.364 25.395-28.395 36.928-46.878 27.722-22.559-11.232-22.692-38.13-46.787-47.719z"/></clipPath><clipPath id="k"><path clip-rule="evenodd" d="m1119.84 349.257c26.665-10.457 64.883-2.525 81.839 14.49 17.35 17.41 7.522 45.672-19.365 41.68-19.181-2.847-33.344-20.878-44.151-35.543-4.098-5.565-10.515-18.548-18.323-20.627z"/></clipPath><clipPath id="l"><path clip-rule="evenodd" d="m1073.54 378.414c23.515-9.171 62.192-13.399 87.164-4.896 3.05 1.038 5.94 2.456 8.635 4.214 22.908 14.973-1.57 43.186-17.386 42.344-26.51-1.41-52.432-39.379-78.413-41.662z"/></clipPath><clipPath id="m"><path clip-rule="evenodd" d="m1029.31 413.382c32.258-16.264 82.849-19.185 108.239-4.271 28.811 16.924 11.421 53.071-17.615 57.483-23.319 3.541-45.813-14.024-60.656-30.155-7.122-7.749-17.118-24.707-29.968-23.057z"/></clipPath><clipPath id="n"><path clip-rule="evenodd" d="m977.291 457.02c44.304-24.133 86.972-18.881 117.174-6.635 20.602 8.349 38.099 32.591 12.923 48.889-4.192 2.709-8.902 4.595-13.706 5.898-30.48 8.282-54.351-6.548-77.201-24.705-9.385-7.457-24.906-26.584-39.19-23.447z"/></clipPath><clipPath id="o"><path clip-rule="evenodd" d="m927.332 487.867c42.361-27.561 84.34-24.551 126.148-9.436 24.647 8.91 39.603 41.621 15.669 59.864-4.012 3.07-8.614 5.241-13.447 6.694-29.323 8.814-57.88-2.623-79.391-22.617-16.002-14.863-23.71-40.957-48.979-34.505z"/></clipPath><clipPath id="p"><ellipse clip-rule="evenodd" cx="628.757" cy="321.761" rx="625.242" ry="319.094"/></clipPath><clipPath id="q"><path clip-rule="evenodd" d="m602.205 129.431 6.747 27.012-278.453 165.318-13.828 12.333-25.352-37.625-39.959-88.509-29.091-31.879 223.853-173.414 333.215-46.472 233.421 173.236 69.669 119.149-25.041 25.42-48.529 17.752-32.372 30.009-42.973 16.493-219.766-162.173 15.359-42.53z"/></clipPath><path d="m-.001 0h1296.03v547.209h-1296.03z" fill="none"/><g clip-path="url(#a)"><path d="m119.328 330.999c-12.125-6.097-23.763-5.229-36.46-8.483-17.362-4.45-27.17-10.973-46.39-10.846-8.809.058-28.157 2.957-28.654 14.95-.822 19.834 34.454 17.983 33.39 38.629-.917 17.786-37.901 21.969-27.538 44.169 9.558 20.477 43.319 3.699 53.64 23.445 9.623 18.41-7.707 24.257-17.034 36.239-7.066 9.077-7.431 20.212 2.707 27.371 16.433 11.603 38.403 7.503 56.563 3.422 7.788-1.751 20.091-6.177 27.972-3.067 19.175 7.568-10.353 31.463 7.048 40.246 21.17 10.685 45.247-8.79 66.196-11.11 17.404-1.927 31.374 10.374 48.111 12.892 12.1 1.821 26.72 4.436 38.826 2.069 12.71-2.484 23.241-9.998 35.278-14.082 22.307-7.568 46.185 3.11 68.288 6.026.55.072 1.04.132 1.592.193 3.629.395 19.338 1.543 19.123-1.81-.456-7.119-10.298-12.125-15.345-15.877-18.593-13.823-37.537-27.906-56.595-40.968-12.534-8.59-23.966-18.658-36.397-27.26-12.873-8.908-26.791-16.335-39.837-25.012-7.428-4.942-13.684-11.564-21.444-15.969-9.871-5.604-20.567-9.455-30.537-14.812-14.714-7.905-28.645-17.472-43.122-25.829-21.279-12.283-35.931-18.509-56.396-33.912" fill="#121212"/><g fill="#113c37"><path d="m123.695 474.909c12.483-1.121 12.04 24.568 35.268 20.335-14.999 11.008-27.579 8.667-35.268 6.052-5.747-1.955-10.805-5.815-10.805-13.131s4.857-12.722 10.805-13.256z"/><circle cx="29.014" cy="429.466" r="19.374"/><path d="m8.018 146.193s184.137 19.902 238.21 263.285l21.218 94.642s14.226-313.084-259.428-357.927z"/><path d="m55.072 74.652s187.899 58.897 238.04 397.552l18.708 1.144s-39.856-326.79-256.748-398.696z"/></g><path d="m422.231 512.429s3.202-99.535-42.221-124.056-41.912 30.163-40.688 51.979c0 0-27.877-107.128-56.004-101.729-28.128 5.398-13.88 47.221-6.438 58.426 0 0-45.505-119.381-63.451-111.178-17.945 8.203-11.446 59.047 2.191 83.153 0 0-42.858-106.875-69.481-98.587-26.623 8.289-1.884 56.845 4.481 63.801 0 0-40.313-58.046-55.687-49.719s3.334 34.598 15.738 43.125c0 0-56.76 15.791-47.008 40.534 9.751 24.744 54.767-2.239 63.809-8.188 0 0-46.507 29.258-36.465 49.191 10.041 19.933 81.933-7.179 100.232-12.974 0 0-66.774 26.761-51.973 50.36 14.802 23.597 94.383-19.757 109.197-25.015 0 0-67.144 39.904-57.228 58.837 9.916 18.935 90.063 2.824 114.961-6.323 0 0-58.322 14.549-46.089 39.742 12.234 25.194 120.077 35.725 157.832 17.716z" fill="#949370" stroke="#113c37"/><g clip-path="url(#b)" stroke="#113c37"><path d="m89.485 297.837s22.86-6.753 61.135 36.401c0 0-9.195-71.036 39.178-17.724 0 0 24.097-28.245 69.894 38.802 0 0 60.937 36.152 77.27 73.817 0 0 45.997-41.942 71.567 11.041l51.415 73.713-72.641 62.638-60.415-37.866s-72.553-46.757-40.179-59.995c0 0-99.289-8.778-68.548-38.573 0 0-89.91 11.356-55.842-31.306 0 0-98.886-1.256-44.398-46.352 0 0-78.575.873-13.144-36.598z" fill="#6b6a51"/><path d="m95.619 331.432s226.899 191.388 303.005 215.088c76.108 23.698 25.641-16.14 25.641-16.14s-249.39-197.626-332.361-208.493c-82.97-10.867 3.715 9.545 3.715 9.545z" fill="#52513e"/></g><path d="m422.231 512.429s3.202-99.535-42.221-124.056-41.912 30.163-40.688 51.979c0 0-27.877-107.128-56.004-101.729-28.128 5.398-13.88 47.221-6.438 58.426 0 0-45.505-119.381-63.451-111.178-17.945 8.203-11.446 59.047 2.191 83.153 0 0-42.858-106.875-69.481-98.587-26.623 8.289-1.884 56.845 4.481 63.801 0 0-40.313-58.046-55.687-49.719s3.334 34.598 15.738 43.125c0 0-56.76 15.791-47.008 40.534 9.751 24.744 54.767-2.239 63.809-8.188 0 0-46.507 29.258-36.465 49.191 10.041 19.933 81.933-7.179 100.232-12.974 0 0-66.774 26.761-51.973 50.36 14.802 23.597 94.383-19.757 109.197-25.015 0 0-67.144 39.904-57.228 58.837 9.916 18.935 90.063 2.824 114.961-6.323 0 0-58.322 14.549-46.089 39.742 12.234 25.194 120.077 35.725 157.832 17.716z" fill="none" stroke="#113c37" stroke-linecap="round" stroke-miterlimit="1.5" stroke-width="3.91"/><path d="m91.904 321.887c20.687-9.26 270.121 163.098 325.163 210.042 3.743 3.193 7.037-1.736 7.037-1.736-119.829-94.883-267.326-191.528-313.433-202.549l-18.767-5.757s-63.579-89.542-89.346-34.866c-18.294 38.817 66.759 44.976 89.346 34.866z" fill="#909071" stroke="#113c37"/><g clip-path="url(#c)"><path d="m2.558 287.021s25.653-19.424 70.866 38.753c45.21 58.176 40.927-22.074 40.927-22.074l-50.44-74.336-82.87 32.703 21.517 24.954z" fill="#6b6a51" stroke="#113c37"/></g><path d="m91.904 321.887c20.687-9.26 270.121 163.098 325.163 210.042 3.743 3.193 7.037-1.736 7.037-1.736-119.829-94.883-267.326-191.528-313.433-202.549l-18.767-5.757s-63.579-89.542-89.346-34.866c-18.294 38.817 66.759 44.976 89.346 34.866z" fill="none" stroke="#113c37" stroke-linecap="round" stroke-miterlimit="1.5" stroke-width="3.91"/><path d="m948.792 480.931c.783-.212 1.409-.366 1.732-.443 9.528-2.281 19.505-1.885 29.227-2.206 12.765-.422 29.838-3.123 41.259-9.216 7.264-3.874 10.386-10.884 18.973-13.084 15.028-3.851 29.888 3.499 43.322-7.151 7.311-5.796 10.195-15.176 17.139-21.22 6.209-5.403 15.325-6.887 20.734-13.198 5.165-6.025 5.344-15.994 11.786-20.858 7.149-5.398 16.709-3.606 24.329-7.639 8.474-4.484 9.659-14.833 16.626-20.433 9.638-7.747 23.062-9.183 31.671-18.805 6.528-7.295 10.137-17.785 15.323-26.015 10.478-16.626 32.216-36.862 52.903-38.22l-9.871 16.604c4.357 1.321 8.875 2.76 12.413 5.739 17.829 15.013 6.37 34.849-5.722 48.348-5.241 5.851-13.499 15.775-9.929 24.402 4.824 11.656 20.183 15.289 22.679 29.119 5.56 30.796-49.939 29.471-58.424 49.977-8.904 21.519 32.818 27.399 20.672 51.475-5.921 11.737-22.837 13.904-34.544 13.059-15.038-1.085-30.02-9.462-45.3-5.781-11.258 2.712-19.738 13.328-29.941 18.492-15.844 8.02-36.095 9.184-53.592 8.357-19.711-.932-42.104-12.961-59.465-21.61-2.603-1.297-5.173-2.682-7.72-4.12l6.209 19.056c-18.368-7.83-28.678 4.256-46.468 5.318-13.802.823-25.278-8.584-38.673-8.199-11.507.33-21.846 7.857-33.108 9.905-12.81 2.33-22.483-1.271-34.624-3.989-10.542-2.359-19.263 3.804-29.388 5.548-1.002.173-9.289 1.844-9.985-.016-1.875-5.011 8.714-8.191 11.508-9.447 4.711-2.117 8.878-5.347 13.64-7.306 4.468-1.839 9.652-2.201 13.895-4.548 5.235-2.895 9.04-7.333 14.461-10.111 8.945-4.586 18.893-6.927 27.524-11.806 12.957-7.324 23.764-17.619 38.729-19.978" fill="#121212"/><circle cx="1174.42" cy="489.176" fill="#113c37" r="10.424"/><path d="m1267.83 47.641s-10.195 226.182-258.942 390.757l22.631-36.575c63.722-59.146 220.691-219.552 236.311-354.182z" fill="#113c37" stroke="#113c37"/><path d="m1118.32 55.712s59.732 278.662-193.604 430.855h22.761s232.739-105.746 170.843-430.855z" fill="#113c37" stroke="#113c37"/><path d="m1202.31 304.922c10.041 7.306 19.508 11.605 31.924 13.664 9.099 1.51 19.155 2.982 28.308.938 35.699-7.979 46.722-61.181 7.463-73.529-5.023-1.579-10.555-2.396-15.797-1.875-6.642.655-13.1 3.365-18.722 6.843-7.689 4.748-14.158 11.405-19.02 19.001-7.39 11.56-10.339 21.959-14.156 34.958z" fill="#909071" stroke="#113c37"/><g clip-path="url(#d)"><path d="m1300.47 264.01c-7.752 28.416-44.047 39.255-69.571 31.9-6.225-1.794-12.079-4.628-17.69-7.825-3.09-1.755-6.66-4.765-10.38-4.96-13.922-.733-23.151 18.355-17.953 29.659 5.917 12.838 20.917 20.202 34.001 23.294 27.764 6.557 62.244 2.727 78.478-23.225 1.939-3.085 3.695-6.284 5.236-9.583 4.888-10.457 14.211-31.83 4.183-42.474" fill="#6b6a51" stroke="#113c37"/></g><path d="m1202.31 304.922c10.041 7.306 19.508 11.605 31.924 13.664 9.099 1.51 19.155 2.982 28.308.938 35.699-7.979 46.722-61.181 7.463-73.529-5.023-1.579-10.555-2.396-15.797-1.875-6.642.655-13.1 3.365-18.722 6.843-7.689 4.748-14.158 11.405-19.02 19.001-7.39 11.56-10.339 21.959-14.156 34.958z" fill="none" stroke="#113c37" stroke-linecap="round" stroke-miterlimit="1.5" stroke-width="4.02"/><path d="m1154.05 327.071c11.518-10.66 31.615-23.262 36.341-39.308 6.981-23.69-26.543-43.22-43.402-24.754-18.166 19.906-1.464 45.968 7.061 64.062z" fill="#909071" stroke="#113c37"/><g clip-path="url(#e)"><path d="m1181.9 256.33c7.756 18.845-2.953 40.751-23.172 44.751-5.358 1.058-18.565-2.238-22.639 1.867-3.808 3.854-3.73 11.058-2.894 15.942 2.025 11.931 7.681 24.528 20.107 28.477 14.273 4.538 28.682-3.464 38.756-13.281 22.271-21.682 22.928-62.424-6.211-79.004" fill="#6b6a51" stroke="#113c37"/></g><path d="m1154.05 327.071c11.518-10.66 31.615-23.262 36.341-39.308 6.981-23.69-26.543-43.22-43.402-24.754-18.166 19.906-1.464 45.968 7.061 64.062z" fill="none" stroke="#113c37" stroke-linecap="round" stroke-miterlimit="1.5" stroke-width="4.02"/><path d="m1110.14 351.785c11.072-15.051 23.03-31.863 24.223-51.118.792-13.003-6.934-28.35-20.395-31.922-22.412-5.949-47.055 17.778-38.786 40.184 7.491 20.335 27.121 22.263 34.958 42.856z" fill="#909071" stroke="#113c37"/><g clip-path="url(#f)"><path d="m1121.42 266.329c1.332 4.964 2.253 9.938 2.308 15.087.045 3.339-.525 6.685-1.573 9.85-2.756 8.365-8.434 14.389-16.905 17.08-11.066 3.509-23.698 2.139-31.03 13.15-4.034 6.067-.027 14.841 3.192 20.263 8.474 14.245 23.003 26.213 40.063 27.515 33.499 2.558 49.96-42.565 40.126-69.402-4.977-13.566-22.076-24.222-35.171-28.967" fill="#6b6a51" stroke="#113c37"/></g><path d="m1110.14 351.785c11.072-15.051 23.03-31.863 24.223-51.118.792-13.003-6.934-28.35-20.395-31.922-22.412-5.949-47.055 17.778-38.786 40.184 7.491 20.335 27.121 22.263 34.958 42.856z" fill="none" stroke="#113c37" stroke-linecap="round" stroke-miterlimit="1.5" stroke-width="4.02"/><path d="m1065.89 381.178c3.934-10.438 6.255-16.561 7.164-27.699.725-8.754.834-17.81-.977-26.446-1.19-5.647-2.964-11.369-6.54-15.984-15.082-19.442-47.285-9.382-55.24 12.029-3.471 9.369.295 20.122 5.654 28.003 4.303 6.339 9.917 11.543 16.3 15.761 10.36 6.852 22.049 10.293 33.639 14.336z" fill="#909071" stroke="#113c37"/><g clip-path="url(#g)"><path d="m1061.15 298.772c1.351 14.743.799 29.265-2.28 43.778-.794 3.757-1.855 11.736-5.791 13.861-13.417 7.229-28.367-7.394-40.738-10.703-2.644-.707-4.143 6.647-4.194 7.775-.574 13.006 11.201 25.863 19.855 34.324 17.937 17.551 45.068 32.219 67.205 13.197 3.276-2.811 6.236-5.965 8.548-9.631 3.672-5.855 6.287-12.766 7.789-19.514 1.994-8.976.173-18.339-2.575-26.965-4.528-14.249-12.723-23.444-21.608-34.877" fill="#6b6a51" stroke="#113c37"/></g><path d="m1065.89 381.178c3.934-10.438 6.255-16.561 7.164-27.699.725-8.754.834-17.81-.977-26.446-1.19-5.647-2.964-11.369-6.54-15.984-15.082-19.442-47.285-9.382-55.24 12.029-3.471 9.369.295 20.122 5.654 28.003 4.303 6.339 9.917 11.543 16.3 15.761 10.36 6.852 22.049 10.293 33.639 14.336z" fill="none" stroke="#113c37" stroke-linecap="round" stroke-miterlimit="1.5" stroke-width="4.02"/><path d="m997.99 439.06c12.92-27.837 33.006-81.984-8.45-96.405-25.653-8.923-55.146 18.216-45.078 44.584 6.146 16.055 21.822 27.905 35.822 36.93 7.026 4.53 12.53 7.986 17.706 14.891z" fill="#909071" stroke="#113c37"/><g clip-path="url(#h)"><path d="m1015.67 345.325c.427 6.127.478 12.85-2.155 18.541-6.075 13.115-26.375 24.856-40.672 21.138-7.218-1.876-14.206-5.593-20.184-10.027-7.477-5.549-12.621-17.059-21.954-6.83-1.345 1.479-2.405 3.155-3.149 5.014-1.021 2.552-1.577 5.281-1.871 8.007-.527 4.751-.257 9.612.389 14.339 3.016 21.978 16.296 37.709 32.609 51.77 12.415 10.698 24.054 18.99 41.292 17.475 12.156-1.067 22.945-8.474 31.611-16.633 6.464-6.087 11.693-13.534 14.174-22.145 3.8-13.223 1.155-27.685-1.043-40.952" fill="#6b6a51" stroke="#113c37"/></g><path d="m997.99 439.06c12.92-27.837 33.006-81.984-8.45-96.405-25.653-8.923-55.146 18.216-45.078 44.584 6.146 16.055 21.822 27.905 35.822 36.93 7.026 4.53 12.53 7.986 17.706 14.891z" fill="none" stroke="#113c37" stroke-linecap="round" stroke-miterlimit="1.5" stroke-width="4.02"/><path d="m927.957 487.122c6.329-13.066 11.559-26.818 14.836-40.988 2.362-10.157 3.932-21.076 3.66-31.526-.638-23.356-24.722-37.979-46.455-32.146-31.833 8.553-49.634 54.483-25.93 79.714 14.931 15.896 34.869 16.808 52.96 25.689" fill="#909071" stroke="#113c37"/><g clip-path="url(#i)"><path d="m967.451 429.246c-14.066 16.907-41.929 13.447-55.223-2.914-6.04-7.443-10.044-16.699-13.477-25.571-4.014-10.373-4.648-22.551-18.708-21.149-2.499.246-4.972.768-7.389 1.427-3.215.879-6.414 2.03-9.207 3.882-4.492 2.977-8.196 7.265-11.273 11.64-4.915 6.988-8.384 14.949-12.104 22.605-5.129 10.551-8.99 22.167-8.172 34.045.95 13.816 8.339 24.602 17.596 34.418 12.59 13.348 30.696 23.698 49.138 25.887 9.107 1.08 18.244-1.033 27.072-3.055 9.729-2.233 20.294-4.323 28.777-9.878 12.984-8.504 22.657-29.252 23.248-44.837" fill="#6b6a51" stroke="#113c37"/></g><path d="m927.957 487.122c6.329-13.066 11.559-26.818 14.836-40.988 2.362-10.157 3.932-21.076 3.66-31.526-.638-23.356-24.722-37.979-46.455-32.146-31.833 8.553-49.634 54.483-25.93 79.714 14.931 15.896 34.869 16.808 52.96 25.689" fill="none" stroke="#113c37" stroke-linecap="round" stroke-miterlimit="1.5" stroke-width="4.02"/><path d="m1158.2 324.319c21.898-7.335 48.202-8.95 70.219-.978 9.578 3.471 20.782 10.348 23.446 20.975 6.364 25.395-28.395 36.928-46.878 27.722-22.559-11.232-22.692-38.13-46.787-47.719z" fill="#909071" stroke="#113c37"/><g clip-path="url(#j)"><path d="m1264.13 331.55c-4.306 11.09-15.698 13.693-26.604 13.633-21.93-.117-39.598-11.868-59.305-19.61-7.431-2.921-15.533-7.639-23.79-5.699-2.844.67-6.856 2.187-7.79 5.289-1.633 5.344 2.053 10.772 5.234 14.687 6.867 8.41 15.187 15.156 22.975 22.627 17.015 16.315 39.572 28.178 63.767 26.276 6.734-.527 13.159-.806 19.099-4.339 8.044-4.772 13.052-12.055 17.731-19.918 3.346-5.599 6.49-11.358 7.776-17.816" fill="#6b6a51" stroke="#113c37"/></g><path d="m1158.2 324.319c21.898-7.335 48.202-8.95 70.219-.978 9.578 3.471 20.782 10.348 23.446 20.975 6.364 25.395-28.395 36.928-46.878 27.722-22.559-11.232-22.692-38.13-46.787-47.719z" fill="none" stroke="#113c37" stroke-linecap="round" stroke-miterlimit="1.5" stroke-width="4.02"/><path d="m1119.84 349.257c26.665-10.457 64.883-2.525 81.839 14.49 17.35 17.41 7.522 45.672-19.365 41.68-19.181-2.847-33.344-20.878-44.151-35.543-4.098-5.565-10.515-18.548-18.323-20.627z" fill="#909071" stroke="#113c37"/><g clip-path="url(#k)"><path d="m1242.79 390.442c-5.512 2.267-10.78 3.544-16.698 4.163-8.468.886-17.106 1.665-25.265-1.35-17.643-6.516-28.985-25.794-45.51-34.838-10.933-5.987-23.413-8.946-35.85-9.029-4.904-.031-10.128-.389-14.222 2.808-4.639 3.609-2.913 10.833-.913 15.434 5.053 11.682 16.892 21.866 26.047 30.388 16.455 15.324 34.67 26.812 55.274 35.845 11.194 4.908 24.42 9.499 36.809 8.743 8.871-.54 16.775-3.715 24.823-7.189" fill="#6b6a51" stroke="#113c37"/></g><path d="m1119.84 349.257c26.665-10.457 64.883-2.525 81.839 14.49 17.35 17.41 7.522 45.672-19.365 41.68-19.181-2.847-33.344-20.878-44.151-35.543-4.098-5.565-10.515-18.548-18.323-20.627z" fill="none" stroke="#113c37" stroke-linecap="round" stroke-miterlimit="1.5" stroke-width="4.02"/><path d="m1073.54 378.414c23.515-9.171 62.192-13.399 87.164-4.896 3.05 1.038 5.94 2.456 8.635 4.214 22.908 14.973-1.57 43.186-17.386 42.344-26.51-1.41-52.432-39.379-78.413-41.662z" fill="#909071" stroke="#113c37"/><g clip-path="url(#l)"><path d="m1188.82 374.406c2.119 31.88-38.676 30.577-58.949 21.182-5.163-2.391-9.825-5.503-14.396-8.867-6.802-5.021-13.051-10.262-21.04-13.324-9.679-3.712-31.068-4.684-31.179 10.602-.117 14.694 22.321 25.019 33.029 30.872 25.936 14.185 61.597 41.165 91.486 21.411 4.604-3.037 8.398-7.124 11.794-11.432 4.787-6.103 8.795-12.502 9.035-20.466" fill="#6b6a51" stroke="#113c37"/></g><path d="m1073.54 378.414c23.515-9.171 62.192-13.399 87.164-4.896 3.05 1.038 5.94 2.456 8.635 4.214 22.908 14.973-1.57 43.186-17.386 42.344-26.51-1.41-52.432-39.379-78.413-41.662z" fill="none" stroke="#113c37" stroke-linecap="round" stroke-miterlimit="1.5" stroke-width="4.02"/><path d="m1029.31 413.382c32.258-16.264 82.849-19.185 108.239-4.271 28.811 16.924 11.421 53.071-17.615 57.483-23.319 3.541-45.813-14.024-60.656-30.155-7.122-7.749-17.118-24.707-29.968-23.057z" fill="#909071" stroke="#113c37"/><g clip-path="url(#m)"><path d="m1164.09 423.964c-1.246 18.064-20.952 27.496-36.998 27.412-30.75-.159-53.333-23.005-77.455-38.906-9.103-6-29.945-10.737-31.193 6.322-.478 6.509 3.372 12.851 6.82 18.065 7.28 11.033 16.734 21.62 27.229 29.701 29.758 22.927 80.541 47.523 111.583 13.78 4.317-4.697 8.061-9.842 11.012-15.509 4.008-7.719 6.427-16.155 6.961-24.828" fill="#6b6a51" stroke="#113c37"/></g><path d="m1029.31 413.382c32.258-16.264 82.849-19.185 108.239-4.271 28.811 16.924 11.421 53.071-17.615 57.483-23.319 3.541-45.813-14.024-60.656-30.155-7.122-7.749-17.118-24.707-29.968-23.057z" fill="none" stroke="#113c37" stroke-linecap="round" stroke-miterlimit="1.5" stroke-width="4.02"/><path d="m977.291 457.02c44.304-24.133 86.972-18.881 117.174-6.635 20.602 8.349 38.099 32.591 12.923 48.889-4.192 2.709-8.902 4.595-13.706 5.898-30.48 8.282-54.351-6.548-77.201-24.705-9.385-7.457-24.906-26.584-39.19-23.447z" fill="#909071" stroke="#113c37"/><g clip-path="url(#n)"><path d="m1133.06 466.168c-2.895 17.264-22.455 21.959-37.313 22.705-23.535 1.192-46.84-6.225-67.165-17.992-9.503-5.503-17.825-12.938-27.433-18.192-10.575-5.787-33.846-6.003-32.159 12.239 1.235 13.333 18.942 24.798 28.739 32.159 22.295 16.76 45.948 24.584 72.92 30.531 16.658 3.673 34.391 6.058 50.977.701 22.451-7.244 52.904-31.944 44.513-58.99" fill="#6b6a51" stroke="#113c37"/></g><path d="m977.291 457.02c44.304-24.133 86.972-18.881 117.174-6.635 20.602 8.349 38.099 32.591 12.923 48.889-4.192 2.709-8.902 4.595-13.706 5.898-30.48 8.282-54.351-6.548-77.201-24.705-9.385-7.457-24.906-26.584-39.19-23.447z" fill="none" stroke="#113c37" stroke-linecap="round" stroke-miterlimit="1.5" stroke-width="4.02"/><path d="m927.332 487.867c42.361-27.561 84.34-24.551 126.148-9.436 24.647 8.91 39.603 41.621 15.669 59.864-4.012 3.07-8.614 5.241-13.447 6.694-29.323 8.814-57.88-2.623-79.391-22.617-16.002-14.863-23.71-40.957-48.979-34.505z" fill="#909071" stroke="#113c37"/><g clip-path="url(#o)"><path d="m1099 502.954c-4.096 20.47-25.114 28.795-43.961 28.371-37.359-.837-57.995-34.046-89.838-47.589-13.533-5.759-48.155-16.263-50.175 8.635-.589 7.333 3.603 14.114 8.182 19.453 9.46 11.021 20.52 21.693 31.958 30.589 7.509 5.845 15.492 11.116 24.139 15.11 8.473 3.909 17.384 6.729 26.318 9.35 8.505 2.496 16.998 5.208 25.671 7.041 27.833 5.879 69.895 3.389 86.667-23.4 4.302-6.872 7.077-14.792 8.964-22.655" fill="#6b6a51" stroke="#113c37"/></g><path d="m927.332 487.867c42.361-27.561 84.34-24.551 126.148-9.436 24.647 8.91 39.603 41.621 15.669 59.864-4.012 3.07-8.614 5.241-13.447 6.694-29.323 8.814-57.88-2.623-79.391-22.617-16.002-14.863-23.71-40.957-48.979-34.505z" fill="none" stroke="#113c37" stroke-linecap="round" stroke-miterlimit="1.5" stroke-width="4.02"/><path d="m830.893 538.409c184.432-77.447 208.39-166.714 371.418-233.487" fill="none" stroke="#113c37" stroke-linecap="round" stroke-miterlimit="1.5" stroke-width="4.02"/><g opacity=".1"><ellipse cx="628.757" cy="321.761" fill="none" rx="625.242" ry="319.094"/><g clip-path="url(#p)"><g fill="#fff"><path d="m562.02 506.961h-79.475v-261.648l79.475-62.445zm-5.5-5.5h-68.475v-253.475s68.475-53.802 68.475-53.802zm-184.156-212.282c0-22.191 18.063-40.254 40.254-40.254 22.449 0 40.511 18.063 40.511 40.254 0 22.449-18.062 40.511-40.511 40.511-22.191 0-40.254-18.062-40.254-40.511zm5.5 0c0-19.159 15.595-34.754 34.754-34.754 19.391 0 35.011 15.585 35.011 34.754 0 19.401-15.61 35.011-35.011 35.011-19.169 0-34.754-15.62-34.754-35.011z"/><path d="m761.482 426.196c0 40.511-17.546 74.314-35.609 81.023 52.897 0 112.762-31.997 112.762-81.023 0-49.027-59.865-81.024-112.762-81.024 20.901 6.967 35.609 40.512 35.609 81.024zm-46.188 81.023c-18.063-6.709-35.609-40.512-35.609-81.023 0-40.512 14.45-74.057 35.609-81.024-53.156 0-112.762 31.997-112.762 81.024 0 49.026 59.606 81.023 112.762 81.023zm-17.748-6.69c-24.989-3.31-49.73-13.406-66.976-28.743-13.639-12.13-22.538-27.574-22.538-45.59s8.899-33.461 22.538-45.59c16.922-15.049 41.06-25.053 65.569-28.55-2.624 2.976-5.06 6.396-7.278 10.22-9.129 15.74-14.676 38.506-14.676 63.92 0 25.428 6.675 48.312 16.043 64.081 2.286 3.848 4.746 7.279 7.317 10.252zm69.436-74.333c0-25.415-5.641-48.184-14.79-63.925-2.224-3.825-4.662-7.246-7.28-10.221 24.459 3.492 48.644 13.501 65.615 28.56 13.668 12.129 22.608 27.571 22.608 45.586s-8.94 33.457-22.608 45.586c-17.268 15.322-42.003 25.416-66.898 28.737 2.57-2.971 5.027-6.399 7.31-10.242 9.368-15.769 16.043-38.653 16.043-64.081zm-5.5-162.047c0 40.512-17.546 74.315-35.609 81.023 52.897 0 112.762-31.996 112.762-81.023s-59.865-81.023-112.762-81.023c20.901 6.967 35.609 40.512 35.609 81.023zm-46.188 81.023c-18.063-6.708-35.609-40.511-35.609-81.023 0-40.511 14.45-74.056 35.609-81.023-53.156 0-112.762 31.996-112.762 81.023s59.606 81.023 112.762 81.023zm-17.748-6.689c-24.989-3.31-49.73-13.407-66.976-28.744-13.639-12.129-22.538-27.574-22.538-45.59s8.899-33.46 22.538-45.59c16.922-15.049 41.06-25.052 65.569-28.55-2.624 2.976-5.06 6.396-7.278 10.22-9.129 15.74-14.676 38.507-14.676 63.92 0 25.428 6.675 48.313 16.043 64.082 2.286 3.847 4.746 7.278 7.317 10.251zm69.436-74.334c0-25.415-5.641-48.183-14.79-63.924-2.224-3.825-4.662-7.246-7.28-10.222 24.459 3.492 48.644 13.501 65.615 28.56 13.668 12.129 22.608 27.571 22.608 45.586s-8.94 33.457-22.608 45.586c-17.268 15.322-42.003 25.416-66.898 28.738 2.57-2.971 5.027-6.399 7.31-10.242 9.368-15.769 16.043-38.654 16.043-64.082z"/><path d="m.622-1.263c-.071 0-.128.057-.128.128s.057.128.128.128c.07 0 .128-.057.128-.128s-.058-.128-.128-.128zm-.228.679v-.665c-.026-.009-.053-.014-.08-.014-.127 0-.23.103-.23.23v1.034h.31v-.481h.21v-.104z" fill-rule="nonzero" transform="matrix(47.930688 -53.727552 53.727552 47.930688 310.373593032 280.03139292)"/><path d="m.4-.165v-1.09h-.308v1.027c0 .127.103.229.229.229.052 0 .101-.017.142-.049l.149-.117h-.212z" fill-rule="nonzero" transform="matrix(54.153864 -47.448432 47.448432 54.153864 346.889181733 239.054364316)"/><path d="m.276-.688c.086 0 .156-.07.156-.156s-.07-.155-.156-.155-.156.069-.156.155.07.156.156.156zm.241.154c-.047-.02-.1-.031-.157-.031-.188 0-.34.126-.34.282s.152.282.34.282c.057 0 .11-.011.157-.031-.109-.047-.184-.142-.184-.251s.075-.203.184-.251zm.354.366v-.604c0-.126-.102-.229-.228-.229-.027 0-.054.005-.079.015v.754c0 .126.102.228.228.228.051 0 .101-.017.141-.048l.147-.116z" fill-rule="nonzero" transform="matrix(60.576696 -38.916144 38.916144 60.576696 380.872953774 207.440843059)"/><path d="m.598-.897v-.103h-.21v-.255l-.308.243v.784c0 .127.103.229.229.229.052 0 .101-.017.142-.049l.147-.116h-.21v-.733z" fill-rule="nonzero" transform="matrix(65.756376 -29.3274 29.3274 65.756376 445.757541409 166.877839581)"/><path d="m.403-.476.234-.182c.039-.181-.123-.339-.123-.339.221 0 .484.187.355.521zm-.106-.104c.04.275.295.466.57.426.003-.001.006-.002.01-.002-.076.08-.177.137-.295.154-.275.04-.53-.151-.57-.426-.039-.271.146-.524.416-.568-.101.108-.154.259-.131.416z" fill-rule="nonzero" transform="matrix(70.574544 -14.255856 14.255856 70.574544 520.119599444 136.509198696)"/><path d="m.399-.167v-.663h-.309v.6c0 .127.103.23.229.23.052 0 .102-.018.142-.05l.149-.117zm-.154-.778c.086 0 .155-.069.155-.155s-.069-.155-.155-.155-.155.069-.155.155.069.155.155.155z" fill-rule="nonzero" transform="matrix(71.9226 -3.3368328 3.3368328 71.9226 588.52744548667 123.6142369468)"/><path d="m.94.129c-.004-.012-.008-.023-.014-.034-.032-.058-.093-.097-.164-.097h-.557v-.171l-.094.12c-.026.033-.04.074-.04.115 0 .103.083.187.186.187h.557v.17l.094-.12c.019-.024.032-.052.037-.081v-.001c.001-.005.002-.01.002-.014 0-.001 0-.002.001-.003v-.016c0-.013-.001-.025-.004-.037-.001-.006-.002-.012-.004-.018zm-.452-.302c-.067-.034-.132-.206-.132-.413 0-.206.054-.378.132-.413-.197 0-.42.163-.42.413s.223.413.42.413zm.04-.826c.079.035.133.207.133.413 0 .207-.066.379-.133.413.198 0 .42-.163.42-.413s-.222-.413-.42-.413zm.189-.253v.254l.305-.254zm-.015 1.671h-.465v-.17l-.095.12c-.025.032-.039.073-.039.115 0 .103.083.186.186.186h.239c.103 0 .186-.083.186-.186 0-.022-.004-.044-.012-.065z" fill-rule="nonzero" transform="matrix(71.696448 6.604416 -6.604416 71.696448 631.2486340256 120.1277501232)"/><path d="m.392-1.253h-.308v1.252h.308zm.21.305-.154.121h.217v.826h.307v-.768c0-.126-.102-.228-.228-.228-.051 0-.101.017-.142.049z" fill-rule="nonzero" transform="matrix(69.392016 19.202832 -19.202832 69.392016 704.2756683166 126.4883130442)"/><path d="m.598-.897v-.103h-.21v-.255l-.308.243v.784c0 .127.103.229.229.229.052 0 .101-.017.142-.049l.147-.116h-.21v-.733z" fill-rule="nonzero" transform="matrix(65.473488 29.953656 -29.953656 65.473488 778.775048304 148.366585773)"/><path d="m.403-.476.234-.182c.039-.181-.123-.339-.123-.339.221 0 .484.187.355.521zm-.106-.104c.04.275.295.466.57.426.003-.001.006-.002.01-.002-.076.08-.177.137-.295.154-.275.04-.53-.151-.57-.426-.039-.271.146-.524.416-.568-.101.108-.154.259-.131.416z" fill-rule="nonzero" transform="matrix(61.040664 38.184264 -38.184264 61.040664 819.42844743 166.049211926)"/><path d="m.403-.476.234-.182c.039-.181-.123-.339-.123-.339.221 0 .484.187.355.521zm-.106-.104c.04.275.295.466.57.426.003-.001.006-.002.01-.002-.076.08-.177.137-.295.154-.275.04-.53-.151-.57-.426-.039-.271.146-.524.416-.568-.101.108-.154.259-.131.416z" fill-rule="nonzero" transform="matrix(53.656056 48.01068 -48.01068 53.656056 878.336396471 203.330256785)"/><path d="m.076.003h.308v-1l-.308.243v.757zm.661-1c-.052 0-.102.017-.142.049l-.154.122.216-.002v.831h.309v-.771c0-.127-.103-.229-.229-.229z" fill-rule="nonzero" transform="matrix(44.091576 56.920464 -56.920464 44.091576 930.262348461 249.711636719)"/></g><path d="m602.205 129.431 6.747 27.012-278.453 165.318-13.828 12.333-25.352-37.625-39.959-88.509-29.091-31.879 223.853-173.414 333.215-46.472 233.421 173.236 69.669 119.149-25.041 25.42-48.529 17.752-32.372 30.009-42.973 16.493-219.766-162.173 15.359-42.53z" fill="none"/><g style="clip-path:url(#q);fill:none;stroke:#fff;stroke-width:7.5;stroke-linecap:round;stroke-miterlimit:1.5"><circle cx="628.757" cy="527.165" r="513.158"/><circle cx="628.757" cy="527.165" r="384.001"/></g></g></g></g><path d="m1260.18 471.521c3.929-1.224 8.189.347 10.383 3.828 1.765 2.802 3.859 6.124 5.576 8.848 2.02 3.207 1.837 7.332-.461 10.346-2.131 2.796-4.785 6.277-6.955 9.123-2.417 3.172-6.621 4.394-10.363 3.015-2.902-1.07-6.338-2.337-9.239-3.408-3.742-1.379-6.146-5.039-5.925-9.021.197-3.573.439-7.943.633-11.453.209-3.785 2.747-7.041 6.367-8.169 3.074-.957 6.823-2.125 9.984-3.109z" fill="#113c37"/></svg>