<?xml version="1.0" encoding="UTF-8" standalone="no"?><!DOCTYPE svg PUBLIC "-//W3C//DTD SVG 1.1//EN" "http://www.w3.org/Graphics/SVG/1.1/DTD/svg11.dtd"><svg width="100%" height="100%" viewBox="0 0 57 57" version="1.1" xmlns="http://www.w3.org/2000/svg" xmlns:xlink="http://www.w3.org/1999/xlink" xml:space="preserve" xmlns:serif="http://www.serif.com/" style="fill-rule:evenodd;clip-rule:evenodd;stroke-linejoin:round;stroke-miterlimit:2;"><g><path d="M56.693,0l-56.693,0l-0,56.693l56.693,-0l-0,-56.693Zm-0.5,0.5l-0,55.693c-0,-0 -55.693,-0 -55.693,-0c-0,-0 -0,-55.693 -0,-55.693c-0,0 55.693,0 55.693,0l-0,0Z"/><path d="M53.61,0.46l-53.15,2.623l2.623,53.15l53.15,-2.623l-2.623,-53.15Zm-0.475,0.524l2.574,52.151c-5.067,0.25 -47.084,2.324 -52.151,2.574c-0.25,-5.067 -2.324,-47.084 -2.574,-52.151l52.151,-2.574Z"/><path d="M50.74,1.034l-49.706,4.919l4.919,49.706l49.706,-4.919l-4.919,-49.706Zm-0.448,0.547l4.82,48.711c-0,0 -48.711,4.82 -48.711,4.82c-0,-0 -4.309,-43.551 -4.82,-48.711c0,-0 48.711,-4.82 48.711,-4.82l0,0Z"/><path d="M48.077,1.705l-46.372,6.911l6.911,46.372l46.372,-6.911l-6.911,-46.372Zm-0.421,0.568l6.763,45.383c0,0 -40.433,6.026 -45.382,6.763c-0,0 -6.764,-45.382 -6.764,-45.382l45.383,-6.764Z"/><path d="M45.611,2.457l-43.154,8.625l8.625,43.153l43.153,-8.624l-8.624,-43.154Zm-0.392,0.589c0.888,4.446 7.54,37.727 8.428,42.173c0,-0 -42.173,8.428 -42.173,8.428c0,0 -8.428,-42.173 -8.428,-42.173c4.735,-0.946 42.173,-8.428 42.173,-8.428l-0,-0Z"/><path d="M43.334,3.277l-40.057,10.082l10.082,40.057l40.057,-10.082l-10.082,-40.057Zm-0.363,0.607l9.838,39.087c0,0 -39.088,9.838 -39.088,9.838c0,0 -8.7,-34.569 -9.837,-39.088l39.087,-9.837Z"/><path d="M41.238,4.15l-37.088,11.305l11.305,37.088l37.088,-11.305l-11.305,-37.088Zm-0.333,0.624l11.014,36.131c-0,0 -31.832,9.703 -36.131,11.014c-0,-0 -11.014,-36.131 -11.014,-36.131l36.131,-11.014Z"/><path d="M39.312,5.066l-34.246,12.315l12.315,34.246l34.246,-12.315l-12.315,-34.246Zm-0.301,0.64l11.976,33.305c0,0 -33.305,11.976 -33.305,11.976c-0,0 -10.509,-29.226 -11.976,-33.305c-0,-0 33.305,-11.976 33.305,-11.976Z"/><path d="M37.55,6.014l-31.536,13.129l13.129,31.536l31.536,-13.129l-13.129,-31.536Zm-0.27,0.654l12.745,30.612c0,0 -30.612,12.745 -30.612,12.745c-0,0 -12.745,-30.612 -12.745,-30.612l30.612,-12.745Z"/><path d="M35.941,6.984l-28.957,13.768l13.768,28.957l28.957,-13.768l-13.768,-28.957Zm-0.237,0.666c0,0 11.608,24.415 13.339,28.054c-0,0 -24.415,11.608 -28.055,13.339c-1.606,-3.379 -11.731,-24.675 -13.338,-28.055l28.054,-13.338Z"/><path d="M34.478,7.968l-26.51,14.247l14.247,26.51l26.51,-14.247l-14.247,-26.51Zm-0.204,0.677l13.774,25.629c0,0 -25.63,13.774 -25.63,13.774c0,0 -13.773,-25.63 -13.773,-25.63l25.629,-13.773Z"/><path d="M33.152,8.958l-24.194,14.583l14.583,24.194l24.194,-14.583l-14.583,-24.194Zm-0.17,0.686l14.067,23.338c-0,-0 -23.338,14.067 -23.338,14.067c-0,-0 -14.067,-23.338 -14.067,-23.338l23.338,-14.067Z"/><path d="M31.955,9.947l-22.008,14.791l14.791,22.008l22.008,-14.791l-14.791,-22.008Zm-0.136,0.694l14.233,21.178c-0,-0 -21.178,14.233 -21.178,14.233c0,-0 -14.233,-21.178 -14.233,-21.178l21.178,-14.233Z"/><path d="M30.878,10.93l-19.948,14.885l14.885,19.948l19.948,-14.885l-14.885,-19.948Zm-0.102,0.7l14.287,19.146c-0,0 -19.146,14.287 -19.146,14.287c-0,-0 -14.287,-19.146 -14.287,-19.146l19.146,-14.287Z"/><path d="M29.914,11.902l-18.012,14.877l14.877,18.012l18.012,-14.877l-14.877,-18.012Zm-0.067,0.704l14.24,17.241c0,-0 -17.241,14.24 -17.241,14.24c0,0 -14.24,-17.241 -14.24,-17.241c-0,0 17.241,-14.24 17.241,-14.24l-0,-0Z"/><path d="M29.055,12.857l-16.198,14.781l14.781,16.198l16.198,-14.781l-14.781,-16.198Zm-0.032,0.706l14.107,15.46c-0,-0 -15.46,14.107 -15.46,14.107c0,-0 -14.107,-15.46 -14.107,-15.46l15.46,-14.107Z"/><path d="M28.294,13.792l-14.502,14.607l14.607,14.502l14.502,-14.607l-14.607,-14.502Zm0.003,0.707l13.896,13.798c0,-0 -13.797,13.896 -13.797,13.896c0,0 -13.897,-13.797 -13.897,-13.797l13.798,-13.897Z"/><path d="M27.624,14.704l-12.92,14.365l14.365,12.919l12.919,-14.364l-14.364,-12.92Zm0.037,0.707l13.621,12.25c0,0 -12.25,13.621 -12.25,13.621c-0,0 -13.621,-12.25 -13.621,-12.25l12.25,-13.621Z"/><path d="M27.038,15.591l-11.447,14.064l14.064,11.447l11.447,-14.064l-14.064,-11.447Zm0.072,0.703l13.289,10.816c-0,0 -10.816,13.289 -10.816,13.289c-0,-0 -13.289,-10.816 -13.289,-10.816l10.816,-13.289Z"/><path d="M26.529,16.448l-10.081,13.715l13.715,10.082l10.082,-13.716l-13.716,-10.081Zm0.107,0.699l12.91,9.489c-0,0 -9.489,12.91 -9.489,12.91c-0,-0 -12.91,-9.489 -12.91,-9.489l9.489,-12.91Z"/><path d="M26.093,17.276l-8.817,13.324l13.324,8.817l8.817,-13.324l-13.324,-8.817Zm0.141,0.693l12.49,8.265c-0,-0 -8.265,12.49 -8.265,12.49c0,-0 -12.49,-8.265 -12.49,-8.265l8.265,-12.49Z"/><path d="M25.721,18.072l-7.649,12.9l12.9,7.649l7.649,-12.9l-12.9,-7.649Zm0.175,0.685l12.039,7.139c0.001,0 -7.138,12.039 -7.138,12.039c-0,0.001 -12.04,-7.138 -12.04,-7.138l7.139,-12.04Z"/><path d="M25.41,18.836l-6.574,12.447l12.447,6.574l6.574,-12.447l-12.447,-6.574Zm0.209,0.676l11.562,6.107c0,-0 -6.107,11.562 -6.107,11.562c0,0 -11.562,-6.107 -11.562,-6.107l6.107,-11.562Z"/><path d="M25.153,19.566l-5.587,11.973l11.973,5.588l5.588,-11.974l-11.974,-5.587Zm0.242,0.665l11.067,5.164c0,0 -5.164,11.067 -5.164,11.067c-0,0 -11.067,-5.164 -11.067,-5.164c-0,-0 5.164,-11.067 5.164,-11.067Z"/><path d="M24.947,20.263l-4.684,11.483l11.483,4.684l4.684,-11.483l-11.483,-4.684Zm0.274,0.652l10.557,4.306c0,-0 -4.306,10.557 -4.306,10.557c0,0 -10.557,-4.306 -10.557,-4.306l4.306,-10.557Z"/><path d="M24.785,20.925l-3.86,10.983l10.983,3.86l3.86,-10.983l-10.983,-3.86Zm0.306,0.638l10.039,3.528c0,0 -3.528,10.039 -3.528,10.039c-0,0 -10.039,-3.528 -10.039,-3.528l3.528,-10.039Z"/><path d="M24.664,21.554l-3.11,10.474l10.474,3.111l3.111,-10.475l-10.475,-3.11Zm0.337,0.622l9.516,2.825c0,0 -2.826,9.516 -2.826,9.516c0,0 -9.515,-2.826 -9.515,-2.826l2.825,-9.515Z"/><path d="M24.58,22.149l-2.431,9.964l9.964,2.431l2.431,-9.964l-9.964,-2.431Zm0.368,0.604l8.992,2.195c-0,-0 -2.195,8.992 -2.195,8.992c0,-0 -8.992,-2.195 -8.992,-2.195l2.195,-8.992Z"/><path d="M24.529,22.71l-1.819,9.454l9.454,1.818l1.818,-9.453l-9.453,-1.819Zm0.397,0.586l8.471,1.63c0,-0 -1.63,8.471 -1.63,8.471c0,0 -8.471,-1.63 -8.471,-1.63l1.63,-8.471Z"/><path d="M24.507,23.239l-1.268,8.947l8.947,1.268l1.268,-8.947l-8.947,-1.268Zm0.425,0.566l7.956,1.127c0,-0 -1.127,7.956 -1.127,7.956c0,0 -7.956,-1.127 -7.956,-1.127l1.127,-7.956Z"/><path d="M24.51,23.736l-0.774,8.446l8.446,0.775l0.775,-8.447l-8.447,-0.774Zm0.453,0.544l7.45,0.683c0,-0 -0.683,7.45 -0.683,7.45c0,0 -7.45,-0.683 -7.45,-0.683l0.683,-7.45Z"/><path d="M24.537,24.202l-0.335,7.954l7.954,0.335l0.335,-7.954l-7.954,-0.335Zm0.478,0.52l6.955,0.293c0,0 -0.293,6.955 -0.293,6.955c0,0 -6.955,-0.293 -6.955,-0.293l0.293,-6.955Z"/><path d="M24.583,24.637l0.054,7.473l7.473,-0.054l-0.054,-7.473l-7.473,0.054Zm0.504,0.497l6.472,-0.047c0,-0 0.047,6.472 0.047,6.472c0,0 -6.472,0.047 -6.472,0.047l-0.047,-6.472Z"/><path d="M24.647,25.043l0.396,7.003l7.003,-0.396l-0.396,-7.003l-7.003,0.396Zm0.527,0.471l6.005,-0.34c-0,0 0.34,6.005 0.34,6.005c-0,-0 -6.005,0.34 -6.005,0.34l-0.34,-6.005Z"/><path d="M24.725,25.421l0.696,6.547l6.547,-0.696l-0.696,-6.547l-6.547,0.696Zm0.55,0.444l5.553,-0.59c-0,0 0.59,5.553 0.59,5.553c-0,-0 -5.553,0.59 -5.553,0.59l-0.59,-5.553Z"/><path d="M24.816,25.771l0.955,6.106l6.106,-0.955l-0.955,-6.106l-6.106,0.955Zm0.571,0.417l5.118,-0.801c0,0 0.8,5.118 0.8,5.118c0,0 -5.117,0.8 -5.117,0.8l-0.801,-5.117Z"/><path d="M24.918,26.095l1.177,5.68l5.68,-1.178l-1.178,-5.679l-5.679,1.177Zm0.591,0.389l4.7,-0.975c0,-0 0.975,4.7 0.975,4.7c0,0 -4.7,0.975 -4.7,0.975l-0.975,-4.7Z"/></g></svg>