<?xml version="1.0" encoding="UTF-8" standalone="no"?><!DOCTYPE svg PUBLIC "-//W3C//DTD SVG 1.1//EN" "http://www.w3.org/Graphics/SVG/1.1/DTD/svg11.dtd"><svg width="100%" height="100%" viewBox="0 0 29 29" version="1.1" xmlns="http://www.w3.org/2000/svg" xmlns:xlink="http://www.w3.org/1999/xlink" xml:space="preserve" xmlns:serif="http://www.serif.com/" style="fill-rule:evenodd;clip-rule:evenodd;stroke-linecap:round;stroke-linejoin:round;stroke-miterlimit:1.5;"><rect id="Artboard3" x="-0" y="0" width="28.346" height="28.328" style="fill:none;"/><g><path d="M10.702,0.315l-0,0.019l-0.007,-0.001c-1.852,0 -3.367,1.459 -3.456,3.289l0,0.171c0,-0.04 -0,-0.081 -0.002,-0.121c-0.001,0.04 -0.002,0.081 -0.002,0.121l0,-0.171c-0.089,-1.83 -1.603,-3.289 -3.455,-3.289l-0.007,0.001l-0,-0.019l6.929,0Z" style="fill:none;stroke:#1967f9;stroke-width:0.2px;"/><path d="M7.239,10.857c0.089,1.83 1.604,3.289 3.456,3.289l0.007,-0l-0,0.018l0.023,-0l0,0.018l-0.007,0c-1.852,0 -3.367,1.459 -3.456,3.289l0,0.171c0,-0.041 -0,-0.081 -0.002,-0.121c-0.001,0.04 -0.002,0.08 -0.002,0.121l0,-0.171c-0.089,-1.83 -1.603,-3.289 -3.455,-3.289l-0.007,0l-0,-0.018l-0.023,-0l-0,-0.018l0.007,-0c1.852,-0 3.366,-1.459 3.455,-3.289l0,-0.171c0,0.041 0.001,0.081 0.002,0.121c0.002,-0.04 0.002,-0.08 0.002,-0.121l0,0.171Z" style="fill:none;stroke:#1967f9;stroke-width:0.2px;"/><path d="M3.819,28.013l6.929,-0l0,-0.019l-0.007,0.001c-1.852,-0 -3.367,-1.459 -3.455,-3.289l-0,-0.171c-0,0.04 -0.001,0.081 -0.003,0.12c-0.001,-0.039 -0.002,-0.08 -0.002,-0.12l0,0.171c-0.088,1.83 -1.603,3.289 -3.455,3.289l-0.007,-0.001l-0,0.019Z" style="fill:none;stroke:#1967f9;stroke-width:0.2px;"/><path d="M3.773,3.954c0.082,1.689 1.377,3.061 3.031,3.264l0.431,-0l0,0.018l-0.007,-0c-0.055,-0 -0.11,0.001 -0.164,0.004c0.054,0.002 0.109,0.003 0.164,0.003l0.007,0l0,0.019l-0.431,-0c-1.654,0.202 -2.949,1.574 -3.031,3.263l-0,0.17c-0,-0.04 -0.001,-0.08 -0.002,-0.12c-0.002,0.04 -0.003,0.08 -0.003,0.12l0,-0.17c-0.082,-1.689 -1.377,-3.061 -3.031,-3.263l-0.431,-0l-0,-0.019l0.007,0c0.055,0 0.11,-0.001 0.165,-0.003c-0.055,-0.003 -0.11,-0.004 -0.165,-0.004l-0.007,0l-0,-0.018l0.431,-0c1.654,-0.203 2.949,-1.575 3.031,-3.264l0,-0.17c0,0.04 0.001,0.08 0.003,0.12c0.001,-0.04 0.002,-0.08 0.002,-0.12l-0,0.17Z" style="fill:none;stroke:#1967f9;stroke-width:0.2px;"/><path d="M3.796,17.803c0.082,1.689 1.377,3.061 3.031,3.263l0.454,0l0,0.019l-0.007,-0c-0.059,-0 -0.117,0.001 -0.176,0.004c0.051,0.002 0.102,0.003 0.153,0.003l0.007,-0l0,0.018l-0.408,0c-1.654,0.203 -2.949,1.575 -3.031,3.264l-0,0.17c-0,-0.04 -0.001,-0.08 -0.002,-0.12c-0.002,0.04 -0.002,0.08 -0.002,0.12l-0,-0.17c-0.082,-1.689 -1.377,-3.061 -3.032,-3.264l-0.454,0l-0,-0.018l0.007,0c0.059,0 0.118,-0.001 0.176,-0.004c-0.051,-0.002 -0.102,-0.003 -0.153,-0.003l-0.007,-0l0,-0.019l0.408,0c1.655,-0.202 2.949,-1.574 3.032,-3.263l-0,-0.17c-0,0.04 0,0.08 0.002,0.12c0.001,-0.04 0.002,-0.08 0.002,-0.12l-0,0.17Z" style="fill:none;stroke:#1967f9;stroke-width:0.2px;"/><path d="M24.548,0.315l0,0.019l-0.007,-0.001c-1.842,0 -3.35,1.443 -3.454,3.259l0,0.201c0,-0.048 -0.001,-0.095 -0.003,-0.142c-0.002,0.047 -0.003,0.094 -0.003,0.142l0,-0.201c-0.103,-1.816 -1.611,-3.259 -3.454,-3.259l-0.007,0.001l0,-0.019l6.928,0Z" style="fill:none;stroke:#1967f9;stroke-width:0.2px;"/><path d="M21.087,10.887c0.104,1.816 1.612,3.259 3.454,3.259l0.007,-0l0,0.018l0.023,-0l0,0.018l-0.007,0c-1.842,0 -3.35,1.443 -3.454,3.259l0,0.201c0,-0.048 -0.001,-0.095 -0.003,-0.142c-0.002,0.047 -0.003,0.094 -0.003,0.142l0,-0.201c-0.103,-1.816 -1.611,-3.259 -3.453,-3.259l-0.008,0l0,-0.018l-0.023,-0l0,-0.018l0.007,-0c1.843,-0 3.351,-1.443 3.454,-3.259l0,-0.201c0,0.048 0.001,0.095 0.003,0.142c0.002,-0.047 0.003,-0.094 0.003,-0.142l0,0.201Z" style="fill:none;stroke:#1967f9;stroke-width:0.2px;"/><path d="M17.667,28.013l6.927,-0l0,-0.019l-0.007,0.001c-1.842,-0 -3.35,-1.443 -3.454,-3.259l0,-0.201c0,0.047 -0.001,0.095 -0.003,0.142c-0.001,-0.047 -0.002,-0.095 -0.002,-0.142l-0,0.201c-0.104,1.816 -1.612,3.259 -3.454,3.259l-0.007,-0.001l-0,0.019Z" style="fill:none;stroke:#1967f9;stroke-width:0.2px;"/><path d="M17.626,3.984c0.096,1.675 1.385,3.032 3.03,3.234l0.431,-0l0,0.018l-0.007,-0c-0.055,-0 -0.11,0.001 -0.165,0.004c0.055,0.002 0.11,0.003 0.165,0.003l0.007,0l0,0.019l-0.431,-0c-1.645,0.201 -2.934,1.558 -3.03,3.233l0,0.2c0,-0.047 -0.001,-0.094 -0.003,-0.141c-0.002,0.047 -0.003,0.094 -0.003,0.141l0,-0.2c-0.095,-1.675 -1.385,-3.032 -3.029,-3.233l-0.432,-0l0,-0.019l0.007,0c0.056,0 0.111,-0.001 0.165,-0.003c-0.054,-0.003 -0.109,-0.004 -0.165,-0.004l-0.007,0l0,-0.018l0.432,-0c1.644,-0.202 2.934,-1.559 3.029,-3.234l0,-0.2c0,0.047 0.001,0.094 0.003,0.141c0.002,-0.047 0.003,-0.094 0.003,-0.141l0,0.2Z" style="fill:none;stroke:#1967f9;stroke-width:0.2px;"/><path d="M17.649,17.833c0.096,1.675 1.385,3.032 3.03,3.233l0.454,0l0,0.019l-0.007,-0c-0.059,-0 -0.117,0.001 -0.176,0.004c0.051,0.002 0.102,0.003 0.153,0.003l0.007,-0l0,0.018l-0.408,0c-1.645,0.202 -2.934,1.559 -3.03,3.234l0,0.2c0,-0.047 -0.001,-0.094 -0.003,-0.141c-0.002,0.047 -0.002,0.094 -0.002,0.141l-0,-0.2c-0.096,-1.675 -1.385,-3.032 -3.03,-3.234l-0.455,0l0,-0.018l0.008,0c0.059,0 0.117,-0.001 0.175,-0.004c-0.05,-0.002 -0.101,-0.003 -0.152,-0.003l-0.007,-0l-0,-0.019l0.408,0c1.644,-0.201 2.934,-1.558 3.029,-3.233l0,-0.2c0,0.047 0.001,0.094 0.003,0.141c0.002,-0.047 0.003,-0.094 0.003,-0.141l0,0.2Z" style="fill:none;stroke:#1967f9;stroke-width:0.2px;"/><path d="M10.698,3.784c0,1.766 1.326,3.224 3.036,3.434l0.431,-0l0,0.018l-0.007,-0c-0.055,-0 -0.11,0.001 -0.165,0.004c0.055,0.002 0.11,0.003 0.165,0.003l0.007,0l0,0.019l-0.431,-0c-1.71,0.209 -3.036,1.667 -3.036,3.433l-0.002,0c-0,-1.766 -1.326,-3.224 -3.036,-3.433l-0.431,-0l-0,-0.019l0.007,0c0.055,0 0.11,-0.001 0.165,-0.003c-0.055,-0.003 -0.11,-0.004 -0.165,-0.004l-0.007,0l-0,-0.018l0.431,-0c1.71,-0.21 3.036,-1.668 3.036,-3.434l0.002,-0Z" style="fill:none;stroke:#1967f9;stroke-width:0.2px;"/><path d="M10.719,17.633l0.002,-0c0,1.765 1.326,3.224 3.036,3.433l0.454,0l0,0.019l-0.007,-0c-0.059,-0 -0.118,0.001 -0.176,0.004c0.051,0.002 0.102,0.003 0.153,0.003l0.007,-0l0,0.018l-0.408,0c-1.71,0.21 -3.035,1.668 -3.035,3.434l-0.003,0c-0,-1.766 -1.326,-3.224 -3.036,-3.434l-0.454,0l0,-0.018l0.007,0c0.059,0 0.118,-0.001 0.176,-0.004c-0.051,-0.002 -0.102,-0.003 -0.153,-0.003l-0.007,-0l0,-0.019l0.408,0c1.71,-0.209 3.036,-1.668 3.036,-3.433Z" style="fill:none;stroke:#1967f9;stroke-width:0.2px;"/><path d="M24.548,4c0.103,1.667 1.389,3.017 3.029,3.218l0.431,-0l0,0.018l-0.007,-0c-0.055,-0 -0.11,0.001 -0.164,0.004c0.054,0.002 0.109,0.003 0.164,0.003l0.007,0l0,0.019l-0.431,-0c-1.639,0.2 -2.926,1.55 -3.029,3.217l0,0.216c0,-0.051 -0.001,-0.102 -0.003,-0.153c-0.002,0.051 -0.004,0.102 -0.004,0.153l0,-0.216c-0.102,-1.667 -1.389,-3.017 -3.028,-3.217l-0.432,-0l0,-0.019l0.008,0c0.055,0 0.11,-0.001 0.164,-0.003c-0.054,-0.003 -0.109,-0.004 -0.164,-0.004l-0.008,0l0,-0.018l0.432,-0c1.639,-0.201 2.925,-1.551 3.028,-3.218l0,-0.216c0,0.051 0.002,0.102 0.004,0.153c0.002,-0.051 0.003,-0.102 0.003,-0.153l0,0.216Z" style="fill:none;stroke:#1967f9;stroke-width:0.2px;"/><path d="M24.571,17.849c0.103,1.667 1.39,3.017 3.029,3.217l0.454,0l0,0.019l-0.007,-0c-0.059,-0 -0.117,0.001 -0.176,0.004c0.051,0.002 0.102,0.003 0.153,0.003l0.007,-0l0,0.018l-0.408,0c-1.639,0.201 -2.926,1.551 -3.029,3.218l0,0.216c0,-0.051 -0.001,-0.102 -0.003,-0.153c-0.002,0.051 -0.003,0.102 -0.003,0.153l-0,-0.216c-0.103,-1.667 -1.39,-3.017 -3.029,-3.218l-0.455,0l0,-0.018l0.008,0c0.059,0 0.117,-0.001 0.175,-0.004c-0.05,-0.002 -0.101,-0.003 -0.152,-0.003l-0.007,-0l-0,-0.019l0.408,0c1.639,-0.2 2.926,-1.55 3.029,-3.217l-0,-0.216c-0,0.051 0.001,0.102 0.003,0.153c0.002,-0.051 0.003,-0.102 0.003,-0.153l0,0.216Z" style="fill:none;stroke:#1967f9;stroke-width:0.2px;"/></g><g><path d="M3.777,0.334l-0.007,-0.001c-1.91,0 -3.46,1.55 -3.46,3.46l3.467,-0l-0,-3.459Z" style="fill:none;stroke:#1967f9;stroke-width:0.2px;"/><path d="M3.777,14.146l-0.007,-0c-1.91,-0 -3.46,-1.55 -3.46,-3.46l3.467,0l-0,3.46Z" style="fill:none;stroke:#1967f9;stroke-width:0.2px;"/><path d="M3.8,14.182l-0.007,0c-1.91,0 -3.46,1.55 -3.46,3.46l3.467,-0l-0,-3.46Z" style="fill:none;stroke:#1967f9;stroke-width:0.2px;"/><path d="M3.823,27.994l-0.007,0.001c-1.91,-0 -3.46,-1.55 -3.46,-3.46l3.467,0l-0,3.459Z" style="fill:none;stroke:#1967f9;stroke-width:0.2px;"/><path d="M10.696,0.334l0.007,-0.001c1.909,0 3.459,1.55 3.459,3.46l-3.466,-0l-0,-3.459Z" style="fill:none;stroke:#1967f9;stroke-width:0.2px;"/><path d="M10.696,14.146l0.007,-0c1.909,-0 3.459,-1.55 3.459,-3.46l-3.466,0l-0,3.46Z" style="fill:none;stroke:#1967f9;stroke-width:0.2px;"/><path d="M10.719,14.182l0.007,0c1.909,0 3.459,1.55 3.459,3.46l-3.466,-0l-0,-3.46Z" style="fill:none;stroke:#1967f9;stroke-width:0.2px;"/><path d="M10.742,27.994l0.007,0.001c1.909,-0 3.46,-1.55 3.46,-3.46l-3.467,0l-0,3.459Z" style="fill:none;stroke:#1967f9;stroke-width:0.2px;"/><path d="M3.768,10.695c0,-1.909 1.551,-3.459 3.46,-3.459l0.004,-0l0.004,-0c1.909,-0 3.46,1.55 3.46,3.459" style="fill:none;stroke:#1967f9;stroke-width:0.2px;"/><path d="M10.742,24.544l-6.927,0c-0,-1.909 1.55,-3.459 3.459,-3.459l0.004,-0l0.004,-0c1.91,-0 3.46,1.55 3.46,3.459Z" style="fill:none;stroke:#1967f9;stroke-width:0.2px;"/><path d="M17.632,0.334l-0.007,-0.001c-1.91,0 -3.46,1.55 -3.46,3.46l3.467,-0l-0,-3.459Z" style="fill:none;stroke:#1967f9;stroke-width:0.2px;"/><path d="M17.632,14.146l-0.007,-0c-1.91,-0 -3.46,-1.55 -3.46,-3.46l3.467,0l-0,3.46Z" style="fill:none;stroke:#1967f9;stroke-width:0.2px;"/><path d="M17.655,14.182l-0.007,0c-1.91,0 -3.46,1.55 -3.46,3.46l3.467,-0l-0,-3.46Z" style="fill:none;stroke:#1967f9;stroke-width:0.2px;"/><path d="M17.678,27.994l-0.007,0.001c-1.91,-0 -3.46,-1.55 -3.46,-3.46l3.467,0l-0,3.459Z" style="fill:none;stroke:#1967f9;stroke-width:0.2px;"/><path d="M24.541,0.334l0.008,-0.001c1.909,0 3.459,1.55 3.459,3.46l-3.467,-0l0,-3.459Z" style="fill:none;stroke:#1967f9;stroke-width:0.2px;"/><path d="M24.541,14.146l0.008,-0c1.909,-0 3.459,-1.55 3.459,-3.46l-3.467,0l0,3.46Z" style="fill:none;stroke:#1967f9;stroke-width:0.2px;"/><path d="M24.565,14.182l0.007,0c1.909,0 3.459,1.55 3.459,3.46l-3.466,-0l-0,-3.46Z" style="fill:none;stroke:#1967f9;stroke-width:0.2px;"/><path d="M24.588,27.994l0.007,0.001c1.909,-0 3.459,-1.55 3.459,-3.46l-3.466,0l-0,3.459Z" style="fill:none;stroke:#1967f9;stroke-width:0.2px;"/><path d="M17.62,10.695c0,-1.909 1.551,-3.459 3.46,-3.459l0.004,-0l0.005,-0c1.909,-0 3.459,1.55 3.459,3.459" style="fill:none;stroke:#1967f9;stroke-width:0.2px;"/><path d="M24.594,24.544l-6.927,0c-0,-1.909 1.55,-3.459 3.459,-3.459l0.004,-0l0.005,-0c1.909,-0 3.459,1.55 3.459,3.459Z" style="fill:none;stroke:#1967f9;stroke-width:0.2px;"/></g><g><path d="M3.773,10.686l-0,3.46l0.007,-0c1.909,-0 3.459,-1.55 3.459,-3.46" style="fill:none;stroke:#1967f9;stroke-width:0.2px;"/><path d="M3.819,27.994l0.007,0.001c1.909,-0 3.46,-1.55 3.46,-3.46l-3.467,0l-0,3.459Z" style="fill:none;stroke:#1967f9;stroke-width:0.2px;"/><path d="M0.306,7.243l0.007,0c1.909,0 3.46,-1.55 3.46,-3.459l-3.467,-0l-0,3.459Z" style="fill:none;stroke:#1967f9;stroke-width:0.2px;"/><path d="M0.306,7.236l0.007,-0c1.909,-0 3.46,1.55 3.46,3.459l-3.467,0l-0,-3.459Z" style="fill:none;stroke:#1967f9;stroke-width:0.2px;"/><path d="M0.329,21.092l0.007,0c1.91,0 3.46,-1.55 3.46,-3.459l-3.467,-0l-0,3.459Z" style="fill:none;stroke:#1967f9;stroke-width:0.2px;"/><path d="M0.352,21.085l0.007,-0c1.91,-0 3.46,1.55 3.46,3.459l-3.467,0l0,-3.459Z" style="fill:none;stroke:#1967f9;stroke-width:0.2px;"/><path d="M10.702,10.686l-0,3.46l-0.007,-0c-1.91,-0 -3.46,-1.55 -3.46,-3.46" style="fill:none;stroke:#1967f9;stroke-width:0.2px;"/><path d="M10.748,27.994l-0.007,0.001c-1.909,-0 -3.46,-1.55 -3.46,-3.46l3.467,0l0,3.459Z" style="fill:none;stroke:#1967f9;stroke-width:0.2px;"/><path d="M17.62,10.686l0,3.46l0.007,-0c1.91,-0 3.46,-1.55 3.46,-3.46" style="fill:none;stroke:#1967f9;stroke-width:0.2px;"/><path d="M17.667,27.994l0.007,0.001c1.909,-0 3.459,-1.55 3.459,-3.46l-3.466,0l-0,3.459Z" style="fill:none;stroke:#1967f9;stroke-width:0.2px;"/><path d="M24.548,10.686l0,3.46l-0.007,-0c-1.909,-0 -3.46,-1.55 -3.46,-3.46" style="fill:none;stroke:#1967f9;stroke-width:0.2px;"/><path d="M24.594,27.994l-0.007,0.001c-1.909,-0 -3.459,-1.55 -3.459,-3.46l3.466,0l0,3.459Z" style="fill:none;stroke:#1967f9;stroke-width:0.2px;"/><path d="M3.777,0.334l-0.007,-0.001c-1.91,0 -3.46,1.55 -3.46,3.46l0,-3.478l3.467,0l-0,0.019Z" style="fill:none;stroke:#1967f9;stroke-width:0.2px;"/><path d="M0.31,14.164l0,-3.478c0,1.91 1.55,3.46 3.46,3.46l0.007,-0l-0,0.018l0.023,-0l-0,0.018l-0.007,0c-1.91,0 -3.46,1.55 -3.46,3.46l0,-3.478l-0.023,-0Z" style="fill:none;stroke:#1967f9;stroke-width:0.2px;"/><path d="M3.823,27.994l-0.007,0.001c-1.91,-0 -3.46,-1.55 -3.46,-3.46l0,3.478l3.467,-0l-0,-0.019Z" style="fill:none;stroke:#1967f9;stroke-width:0.2px;"/><path d="M7.237,3.672c0.064,-1.853 1.589,-3.339 3.458,-3.339l0.007,0.001l-0,3.459l-0.006,-0c-0.005,1.905 -1.554,3.45 -3.46,3.45l-0.004,0l-0.004,0c-1.909,0 -3.46,-1.55 -3.46,-3.459l0.005,-0l-0,-3.45l0.007,-0.001c1.869,0 3.394,1.486 3.457,3.339Z" style="fill:none;stroke:#1967f9;stroke-width:0.2px;"/><path d="M14.162,3.793c0,-1.91 -1.55,-3.46 -3.459,-3.46l-0.007,0.001l-0,-0.019l6.936,0l-0,0.019l-0.007,-0.001c-1.91,0 -3.46,1.55 -3.46,3.46" style="fill:none;stroke:#1967f9;stroke-width:0.2px;"/><path d="M10.696,14.164l-0,-0.018l0.007,-0c1.909,-0 3.459,-1.55 3.459,-3.46l0.003,0c0,1.91 1.55,3.46 3.46,3.46l0.007,-0l-0,0.018l0.023,-0l-0,0.018l-0.007,0c-1.91,0 -3.46,1.55 -3.46,3.46l-0.003,-0c0,-1.91 -1.55,-3.46 -3.459,-3.46l-0.007,0l-0,-0.018l-0.023,-0Z" style="fill:none;stroke:#1967f9;stroke-width:0.2px;"/><path d="M14.209,24.535c-0,1.91 -1.551,3.46 -3.46,3.46l-0.007,-0.001l-0,0.019l6.936,-0l-0,-0.019l-0.007,0.001c-1.91,-0 -3.46,-1.55 -3.46,-3.46l-0.002,0Z" style="fill:none;stroke:#1967f9;stroke-width:0.2px;"/><path d="M10.698,3.784l6.928,-0c0,1.909 -1.55,3.459 -3.46,3.459l-0.004,0l-0.004,0c-1.909,0 -3.46,-1.55 -3.46,-3.459Z" style="fill:none;stroke:#1967f9;stroke-width:0.2px;"/><path d="M17.626,10.695l-6.928,0c0,-1.909 1.551,-3.459 3.46,-3.459l0.004,-0l0.004,-0c1.91,-0 3.46,1.55 3.46,3.459Z" style="fill:none;stroke:#1967f9;stroke-width:0.2px;"/><path d="M17.672,24.544l-6.927,0c-0,-1.909 1.55,-3.459 3.459,-3.459l0.004,-0l0.005,-0c1.909,-0 3.459,1.55 3.459,3.459Z" style="fill:none;stroke:#1967f9;stroke-width:0.2px;"/><path d="M24.541,0.334l0,-0.019l3.467,0l0,3.478c0,-1.91 -1.55,-3.46 -3.459,-3.46l-0.008,0.001Z" style="fill:none;stroke:#1967f9;stroke-width:0.2px;"/><path d="M24.541,14.164l0,-0.018l0.008,-0c1.909,-0 3.459,-1.55 3.459,-3.46l0.023,6.956c0,-1.91 -1.55,-3.46 -3.459,-3.46l-0.007,0l-0,-0.018l-0.024,-0Z" style="fill:none;stroke:#1967f9;stroke-width:0.2px;"/><path d="M24.588,27.994l-0,0.019l3.466,-0l0,-3.478c0,1.91 -1.55,3.46 -3.459,3.46l-0.007,-0.001Z" style="fill:none;stroke:#1967f9;stroke-width:0.2px;"/><path d="M21.084,3.651c0.075,-1.844 1.595,-3.318 3.457,-3.318l0.007,0.001l0,3.459l0,-0c-0.005,1.905 -1.553,3.45 -3.459,3.45l-0.005,0l-0.004,0c-1.906,0 -3.455,-1.545 -3.46,-3.45l0,-0l0,-3.459l0.007,-0.001c1.863,0 3.383,1.474 3.457,3.318Z" style="fill:none;stroke:#1967f9;stroke-width:0.2px;"/><path d="M17.643,17.633l0,-3.451l0.008,0c1.862,0 3.382,1.474 3.456,3.318c0.075,-1.844 1.595,-3.318 3.457,-3.318l0.007,0l0,3.46l0,-0c-0.005,1.905 -1.553,3.45 -3.459,3.45l-0.005,0l-0.004,0c-1.862,0 -3.383,-1.474 -3.457,-3.318c-0.074,1.844 -1.594,3.318 -3.456,3.318l-0.005,0l-0.004,0c-1.906,0 -3.455,-1.545 -3.46,-3.45l-0.002,-0c-0.005,1.905 -1.553,3.45 -3.46,3.45l-0.004,0l-0.004,0c-1.909,0 -3.459,-1.55 -3.459,-3.459l0.004,-0l-0,-3.451l0.007,0c1.869,0 3.394,1.486 3.457,3.339c0.064,-1.853 1.589,-3.339 3.458,-3.339l0.007,0l0,3.451l6.918,-0Z" style="fill:none;stroke:#1967f9;stroke-width:0.2px;"/><path d="M28.008,7.243l-0.007,0c-1.909,0 -3.46,-1.55 -3.46,-3.459l3.467,-0l0,3.459Z" style="fill:none;stroke:#1967f9;stroke-width:0.2px;"/><path d="M28.008,7.236l-0.007,-0c-1.909,-0 -3.46,1.55 -3.46,3.459l3.467,0l0,-3.459Z" style="fill:none;stroke:#1967f9;stroke-width:0.2px;"/><path d="M28.031,21.092l-0.007,0c-1.909,0 -3.459,-1.55 -3.459,-3.459l3.466,-0l0,3.459Z" style="fill:none;stroke:#1967f9;stroke-width:0.2px;"/><path d="M28.054,21.085l-0.007,-0c-1.909,-0 -3.459,1.55 -3.459,3.459l3.466,0l0,-3.459Z" style="fill:none;stroke:#1967f9;stroke-width:0.2px;"/></g><g id="Layer1"><path d="M14.162,3.793l0.046,20.778" style="fill:none;stroke:#1967f9;stroke-width:0.2px;"/><path d="M21.087,3.793l0,20.778" style="fill:none;stroke:#1967f9;stroke-width:0.2px;"/><path d="M7.253,3.788l-0.018,20.783" style="fill:none;stroke:#1967f9;stroke-width:0.2px;"/><path d="M24.541,3.793c0,-0 -2.998,3.913 -6.921,-0.009" style="fill:none;stroke:#1967f9;stroke-width:0.2px;"/><path d="M24.541,17.6c0,0 -2.998,3.913 -6.921,-0.009" style="fill:none;stroke:#1967f9;stroke-width:0.2px;"/><path d="M24.541,10.676c0,-0 -2.998,-3.913 -6.921,0.009" style="fill:none;stroke:#1967f9;stroke-width:0.2px;"/><path d="M24.541,24.562c0,0 -2.998,-3.913 -6.921,0.009" style="fill:none;stroke:#1967f9;stroke-width:0.2px;"/><path d="M10.714,3.793c-0,-0 -2.999,3.913 -6.921,-0.009" style="fill:none;stroke:#1967f9;stroke-width:0.2px;"/><path d="M10.714,17.6c-0,0 -2.999,3.913 -6.921,-0.009" style="fill:none;stroke:#1967f9;stroke-width:0.2px;"/><path d="M10.714,10.676c-0,-0 -2.999,-3.913 -6.921,0.009" style="fill:none;stroke:#1967f9;stroke-width:0.2px;"/><path d="M24.571,3.793l-20.779,-0.009" style="fill:none;stroke:#1967f9;stroke-width:0.2px;"/><path d="M10.714,24.562c-0,0 -2.999,-3.913 -6.921,0.009" style="fill:none;stroke:#1967f9;stroke-width:0.2px;"/></g></svg>