<?xml version="1.0" encoding="UTF-8" standalone="no"?>
<!DOCTYPE svg PUBLIC "-//W3C//DTD SVG 1.1//EN" "http://www.w3.org/Graphics/SVG/1.1/DTD/svg11.dtd">
<svg width="100%" height="100%" viewBox="0 0 1297 548" version="1.1" xmlns="http://www.w3.org/2000/svg" xmlns:xlink="http://www.w3.org/1999/xlink" xml:space="preserve" xmlns:serif="http://www.serif.com/" style="fill-rule:evenodd;clip-rule:evenodd;stroke-linecap:round;stroke-linejoin:round;stroke-miterlimit:1.5;">
    <g transform="matrix(1,0,0,1,0,-1475.9)">
        <g id="Artboard1" transform="matrix(1,0,0,1,-86.8165,1209.25)">
            <rect x="86.816" y="266.643" width="1296.03" height="547.209" style="fill:none;"/>
            <g transform="matrix(1,0,0,1,86.8165,-1209.25)">
                <path d="M1182.47,1528.38C1176.17,1516.52 1170.74,1502.68 1158.55,1495.41C1140.9,1484.87 1118.13,1505.58 1118.81,1523.77C1119.56,1544.25 1130.7,1558.79 1138.39,1577.33C1150.81,1607.27 1151.81,1642.84 1174.78,1667.62C1195.7,1690.21 1229.57,1687 1249.88,1664.59C1261.94,1651.3 1267.73,1633.53 1265.2,1615.68C1261.75,1591.33 1243.59,1571.71 1223.55,1559.19C1211.21,1551.47 1198.31,1546.97 1188.3,1536.12L1182.47,1528.38ZM1068.17,1568.49C1041.17,1573.99 1024.91,1598.7 1038.31,1621.4C1049.41,1640.2 1071.78,1644.75 1092.17,1641.21C1111.3,1637.89 1126.33,1618.13 1124.08,1598.69C1123.42,1592.99 1120.42,1587.08 1117.18,1582.39C1107.92,1569.02 1090.59,1564.72 1070.46,1568.04L1068.17,1568.49Z" style="fill:none;"/>
                <clipPath id="_clip1">
                    <path d="M1182.47,1528.38C1176.17,1516.52 1170.74,1502.68 1158.55,1495.41C1140.9,1484.87 1118.13,1505.58 1118.81,1523.77C1119.56,1544.25 1130.7,1558.79 1138.39,1577.33C1150.81,1607.27 1151.81,1642.84 1174.78,1667.62C1195.7,1690.21 1229.57,1687 1249.88,1664.59C1261.94,1651.3 1267.73,1633.53 1265.2,1615.68C1261.75,1591.33 1243.59,1571.71 1223.55,1559.19C1211.21,1551.47 1198.31,1546.97 1188.3,1536.12L1182.47,1528.38ZM1068.17,1568.49C1041.17,1573.99 1024.91,1598.7 1038.31,1621.4C1049.41,1640.2 1071.78,1644.75 1092.17,1641.21C1111.3,1637.89 1126.33,1618.13 1124.08,1598.69C1123.42,1592.99 1120.42,1587.08 1117.18,1582.39C1107.92,1569.02 1090.59,1564.72 1070.46,1568.04L1068.17,1568.49Z"/>
                </clipPath>
                <g clip-path="url(#_clip1)">
                    <g transform="matrix(1,0,0,1,23.0037,8.12297)">
                        <path d="M1238.44,1541.51C1223.6,1535.82 1214.09,1550.15 1206.08,1560.06C1195.86,1572.71 1180.68,1583.55 1163.49,1581.69C1159.42,1581.26 1154.99,1580.02 1151.96,1577.12C1147.08,1572.47 1146.96,1565.17 1152.91,1561.46C1157.93,1558.32 1164.63,1558.96 1170.29,1559.04C1180.22,1559.18 1191.75,1558.51 1199.02,1550.79C1201.69,1547.95 1203.82,1544.22 1203.81,1540.23C1203.8,1533.38 1195.89,1528.67 1189.83,1531.47C1183.94,1534.19 1182.46,1541.97 1176.91,1545.37C1173.68,1547.36 1169,1547.28 1166.67,1543.89C1162.98,1538.52 1167.99,1532.39 1172.77,1529.94C1180.82,1525.82 1191.11,1532.08 1196.61,1522.41C1197.37,1521.08 1197.84,1519.62 1198.08,1518.1C1200.34,1503.82 1185.76,1500.18 1177.2,1493.09C1174.53,1490.88 1172.55,1487.23 1170.53,1484.43" style="fill:rgb(0,254,196);stroke:rgb(0,120,246);stroke-width:3.5px;"/>
                    </g>
                    <path d="M1170.08,1484.91C1166.94,1481.24 1163.08,1478.03 1158.5,1476.35C1156.79,1475.72 1154.32,1474.9 1152.84,1476.4C1149.97,1479.29 1152.55,1485.4 1153.86,1488.37C1154.34,1489.47 1154.88,1490.55 1155.44,1491.61C1155.71,1492.12 1156.8,1493.33 1156.26,1493.13C1150.02,1490.87 1145.21,1484.87 1138.52,1483.56C1133.68,1482.62 1128.65,1484.2 1124.27,1486.15C1114.37,1490.57 1102.93,1498.36 1102.42,1510.31C1102.29,1513.34 1103.08,1516.26 1104.71,1518.82C1110.81,1528.45 1120.42,1527.52 1129.61,1523.8C1135.24,1521.52 1142.96,1517 1146.56,1524.91C1148.96,1530.19 1145.87,1536.33 1141.5,1539.54C1134.85,1544.41 1123.26,1546.26 1115.01,1546.05C1103.42,1545.77 1096.38,1534 1092.33,1524.54C1089.61,1518.21 1087.57,1511.17 1087.73,1504.22C1088.08,1488.47 1099.39,1476.98 1113.18,1471.24" style="fill:rgb(0,254,196);stroke:rgb(0,120,246);stroke-width:3.5px;"/>
                    <path d="M1120.42,1562.69C1110.17,1568.88 1108.83,1580.98 1099.95,1588.28C1093.62,1593.48 1084.91,1593.49 1077.27,1592.08C1073.24,1591.34 1066.54,1588.54 1062.91,1591.69C1061.54,1592.88 1063.13,1596.98 1063.65,1598.14C1066.3,1604.06 1072.31,1607.58 1078.61,1608.33C1091.91,1609.92 1100.63,1600.6 1112.56,1597.23C1121.1,1594.82 1127.74,1598.33 1136.18,1598.47" style="fill:rgb(0,254,196);stroke:rgb(0,120,246);stroke-width:3.5px;"/>
                    <path d="M1077.13,1559.87C1072.5,1563.38 1071.33,1568.82 1068.88,1573.72C1066.15,1579.17 1060.07,1584.5 1053.92,1585.3C1042.97,1586.74 1035.47,1573.23 1037.53,1563.8C1039,1557.11 1044.82,1552.46 1050.42,1549.15" style="fill:rgb(0,254,196);stroke:rgb(0,120,246);stroke-width:3.5px;"/>
                    <path d="M1238.98,1551.75C1240.37,1557.09 1240.64,1562.18 1239.46,1567.58C1237.56,1576.32 1232.72,1585.69 1225.79,1591.52C1211.43,1603.59 1187.55,1604.32 1170.21,1599.47C1163.44,1597.58 1156.7,1595.21 1150.34,1592.25C1146.24,1590.34 1140.81,1586.62 1135.98,1587.94C1131.41,1589.2 1130.19,1594.43 1128.3,1598.15C1126.77,1601.14 1124.47,1603.82 1122.08,1606.15C1112.83,1615.22 1096.54,1617.87 1084.09,1617.21C1072.19,1616.58 1059.83,1611.98 1049.38,1606.48C1041.61,1602.38 1032.8,1596.37 1023.96,1594.97C1012.31,1593.12 1004.97,1607.88 1008.01,1617.88C1010.31,1625.47 1015.82,1631.5 1021.62,1636.66C1031.82,1645.76 1043.03,1652.99 1056.81,1654.74C1068.93,1656.28 1082,1653.75 1093.81,1657.11C1108.32,1661.24 1119.76,1672.6 1132.46,1680.29C1139.46,1684.53 1146.88,1688.01 1154.36,1691.33C1165.64,1696.34 1177.11,1698.71 1189.22,1700.82C1210.07,1704.44 1233.31,1711.26 1252.35,1698.15C1259.92,1692.94 1267.47,1687.13 1272.92,1679.65C1282.14,1666.98 1286.29,1653.06 1289,1637.78C1291.37,1624.42 1292.77,1610.57 1289.31,1597.25C1286.27,1585.59 1278.87,1574.88 1270.18,1566.71C1265.04,1561.88 1259.25,1557.56 1252.6,1555.09" style="fill:rgb(0,254,196);stroke:rgb(0,120,246);stroke-width:5.5px;"/>
                </g>
                <path d="M1182.47,1528.38C1176.17,1516.52 1170.74,1502.68 1158.55,1495.41C1140.9,1484.87 1118.13,1505.58 1118.81,1523.77C1119.56,1544.25 1130.7,1558.79 1138.39,1577.33C1150.81,1607.27 1151.81,1642.84 1174.78,1667.62C1195.7,1690.21 1229.57,1687 1249.88,1664.59C1261.94,1651.3 1267.73,1633.53 1265.2,1615.68C1261.75,1591.33 1243.59,1571.71 1223.55,1559.19C1211.21,1551.47 1198.31,1546.97 1188.3,1536.12L1182.47,1528.38ZM1068.17,1568.49C1041.17,1573.99 1024.91,1598.7 1038.31,1621.4C1049.41,1640.2 1071.78,1644.75 1092.17,1641.21C1111.3,1637.89 1126.33,1618.13 1124.08,1598.69C1123.42,1592.99 1120.42,1587.08 1117.18,1582.39C1107.92,1569.02 1090.59,1564.72 1070.46,1568.04L1068.17,1568.49Z" style="fill:none;stroke:rgb(0,120,246);stroke-width:5.5px;"/>
            </g>
            <g transform="matrix(0.565777,0,0,0.538371,98.588,-284.188)">
                <path d="M87.169,1722.19C26.868,1738.65 22.43,1812.16 29.779,1847.08C40.009,1895.69 62.274,1946.4 104.719,1974.13C122.144,1985.52 131.633,1989.64 151.378,1996.11C175.713,2004.08 204.603,2008.2 228.809,1997.3C277.833,1975.21 285.353,1902.08 243.562,1869.52C221.942,1852.67 193.071,1850.28 175.765,1827.66C160.915,1808.26 166.637,1779.11 157.158,1757.27C143.556,1725.93 115.902,1714.35 87.169,1722.19Z" style="fill:rgb(0,254,196);stroke:rgb(0,120,246);stroke-width:6.34px;"/>
            </g>
            <g transform="matrix(1,0,0,1,86.8165,-1209.25)">
                <path d="M66.46,1808.54C66.314,1807.94 66.164,1807.23 66.075,1806.59C65.246,1800.58 65.036,1790.65 63.82,1784.14C63.404,1781.91 62.859,1780.04 62.186,1778.73C61.484,1777.37 60.589,1776.49 59.649,1776.04C58.123,1775.3 56.134,1775.05 53.872,1775.22C48.225,1775.64 40.457,1778.85 36.17,1778.92C33.316,1778.97 30.882,1778.12 28.661,1776.83C24.899,1774.63 21.7,1771.26 18.25,1768.38C17.262,1767.54 15.783,1767.67 14.949,1768.65C14.116,1769.64 14.241,1771.12 15.229,1771.95C18.859,1775.04 22.258,1778.6 26.22,1780.96C29.168,1782.72 32.414,1783.86 36.226,1783.84C40.082,1783.81 46.707,1781.41 52.198,1780.54C54.208,1780.22 56.024,1780.04 57.3,1780.61C57.358,1780.7 57.59,1781.06 57.709,1781.33C58.066,1782.14 58.341,1783.21 58.581,1784.43C60.01,1791.68 59.951,1803.89 61.073,1809.56C61.418,1811.3 61.943,1812.57 62.481,1813.29C63.09,1814.11 63.824,1814.53 64.557,1814.71C66.118,1815.1 68.216,1814.45 70.23,1812.54C73.763,1809.19 77.879,1801.68 78.825,1800.22C81.188,1796.55 93.078,1779.32 104.699,1770.37C107.28,1768.39 109.832,1766.82 112.256,1766C113.892,1765.45 115.444,1765.24 116.858,1765.64C118.967,1766.25 120.577,1768.2 121.891,1771.58C123.068,1774.6 122.444,1778.35 121.269,1782.15C119.307,1788.5 115.594,1794.93 113.393,1799.03C102.511,1819.32 87.1,1836.58 74.56,1855.86C71.371,1860.77 68.37,1865.8 65.658,1871.04C63.298,1875.6 56.808,1891.24 56.342,1902.75C56.054,1909.86 58.187,1915.44 63.265,1917.62C68.244,1919.75 73.394,1917.79 78.049,1913.32C85.482,1906.18 91.843,1892.46 94.498,1887.9C103.466,1872.51 112.412,1856.45 123.555,1842.33C130.863,1833.07 139.119,1824.65 148.986,1817.84C155.144,1813.59 163.569,1809.74 171.722,1809.33C176.838,1809.07 181.849,1810.19 185.987,1813.64C191.487,1818.21 191.713,1824.98 189.851,1831.94C186.87,1843.07 178.508,1854.76 173.407,1861C157.699,1880.24 120.621,1901.4 99.15,1926.02C88.323,1938.44 81.408,1951.75 82.424,1966.01C82.99,1973.96 86.664,1977.57 91.193,1978.51C95.313,1979.36 100.562,1977.78 105.44,1974.48C111.511,1970.37 116.863,1965.31 121.776,1959.77C128.954,1951.69 135.197,1942.6 141.459,1934.15C147.793,1925.6 155.101,1917.62 163.314,1910.77C171.487,1903.94 180.556,1898.23 190.456,1894.19C191.654,1893.7 192.231,1892.34 191.745,1891.14C191.259,1889.94 189.892,1889.36 188.694,1889.85C178.324,1894.04 168.812,1899.96 160.237,1907.06C151.698,1914.13 144.091,1922.37 137.493,1931.2C131.283,1939.5 125.101,1948.45 117.99,1956.4C113.341,1961.59 108.293,1966.36 102.559,1970.2C98.995,1972.59 95.257,1974.04 92.257,1973.4C89.584,1972.84 87.986,1970.34 87.668,1965.64C86.795,1952.72 93.372,1940.8 103.222,1929.59C124.835,1904.99 162.057,1883.89 177.873,1864.66C183.368,1857.98 192.294,1845.41 195.53,1833.47C198.053,1824.15 197.151,1815.22 189.801,1809.07C184.468,1804.6 178.037,1803.02 171.428,1803.33C162.166,1803.77 152.549,1808.02 145.54,1812.83C135.142,1819.96 126.415,1828.78 118.704,1838.49C107.34,1852.81 98.191,1869.09 89.039,1884.71C86.845,1888.46 82.073,1898.79 76.227,1905.89C74.514,1907.97 72.722,1909.76 70.857,1910.92C69.194,1911.95 67.497,1912.46 65.788,1911.73C64.393,1911.13 63.65,1909.88 63.219,1908.33C62.489,1905.72 62.636,1902.39 63.18,1898.84C64.696,1888.98 69.491,1877.65 71.383,1874.01C73.998,1868.96 76.903,1864.11 79.971,1859.38C92.583,1839.93 108.004,1822.45 118.912,1801.98C121.234,1797.61 125.118,1790.73 127.17,1783.96C128.762,1778.71 129.21,1773.51 127.56,1769.35C125.493,1764.13 122.587,1761.34 119.387,1760.14C115.78,1758.79 111.579,1759.43 107.196,1761.69C93.392,1768.81 76.96,1792.66 74.091,1797.2C73.502,1798.13 71.622,1801.62 69.452,1804.79C68.478,1806.22 67.452,1807.58 66.46,1808.54Z" style="fill:rgb(0,120,246);"/>
            </g>
            <g transform="matrix(1,0,0,1,86.8165,-1209.25)">
                <path d="M75.417,1530.04C79.908,1535.76 84.104,1541.54 88.335,1547.3C90.036,1549.62 91.732,1551.93 93.453,1554.22C94.601,1555.75 95.752,1557.28 96.938,1558.78C99.166,1561.59 101.446,1564.35 103.731,1567.13C109.055,1573.59 114.445,1579.97 119.769,1586.58C120.309,1587.33 121.361,1587.51 122.117,1586.97C122.874,1586.43 123.05,1585.38 122.51,1584.62C117.973,1577.4 113.541,1570.27 108.79,1563.32C106.742,1560.33 104.654,1557.37 102.459,1554.49C101.288,1552.95 100.068,1551.45 98.829,1549.97C96.97,1547.74 95.062,1545.56 93.105,1543.4C88.247,1538.06 83.165,1532.93 77.925,1527.8C77.305,1527.1 76.24,1527.05 75.548,1527.66C74.856,1528.29 74.797,1529.35 75.417,1530.04Z" style="fill:rgb(0,120,246);"/>
            </g>
            <g transform="matrix(1,0,0,1,86.8165,-1209.25)">
                <path d="M92.202,1509.29C95.98,1513.05 99.598,1516.97 103.181,1520.99C106.023,1524.17 108.761,1527.44 111.555,1530.69C114.333,1533.93 117.087,1537.19 119.894,1540.41C123.272,1544.29 126.726,1548.09 130.101,1551.96C135.224,1557.84 140.297,1563.68 145.21,1569.59C145.764,1570.34 146.82,1570.49 147.565,1569.94C148.311,1569.38 148.466,1568.33 147.912,1567.58C142.705,1559.75 137.431,1551.87 131.709,1544.23C129.267,1540.98 126.762,1537.76 124.132,1534.65C122.727,1532.99 121.269,1531.38 119.787,1529.79C117.556,1527.4 115.267,1525.07 112.92,1522.81C107.007,1517.1 100.817,1511.79 94.434,1506.76C93.738,1506.15 92.673,1506.21 92.057,1506.91C91.442,1507.6 91.507,1508.67 92.202,1509.29Z" style="fill:rgb(0,120,246);"/>
            </g>
            <g transform="matrix(1,0,0,1,86.8165,-1209.25)">
                <path d="M135.719,1506.84C127.112,1510.36 119.225,1514.37 112.019,1519.13C108.994,1521.12 106.106,1523.26 103.347,1525.53C101.49,1527.05 99.692,1528.64 97.978,1530.32C94.771,1533.46 91.8,1536.83 89.021,1540.39C82.807,1548.35 77.598,1557.25 73,1567.08C72.566,1567.9 72.88,1568.92 73.702,1569.35C74.523,1569.79 75.542,1569.47 75.976,1568.65C81.316,1559.63 87.311,1551.69 93.864,1544.46C96.74,1541.29 99.738,1538.28 102.826,1535.35C104.47,1533.8 106.122,1532.25 107.815,1530.73C110.341,1528.46 112.932,1526.26 115.631,1524.12C122.176,1518.94 129.246,1514.15 137.158,1509.88C137.998,1509.48 138.357,1508.48 137.96,1507.64C137.563,1506.8 136.559,1506.44 135.719,1506.84Z" style="fill:rgb(0,120,246);"/>
            </g>
            <g transform="matrix(1,0,0,1,86.8165,-1209.25)">
                <path d="M143.603,1528.22C135.76,1533.36 128.005,1538.54 120.732,1544.23C117.761,1546.56 114.883,1548.97 112.122,1551.49C110.259,1553.19 108.449,1554.94 106.725,1556.76C103.46,1560.21 100.44,1563.86 97.67,1567.69C91.299,1576.5 86.282,1586.24 82.92,1597.17C82.607,1598.05 83.062,1599.01 83.937,1599.33C84.811,1599.64 85.776,1599.18 86.089,1598.31C90.819,1586.74 97.696,1577.04 105.608,1568.17C108.002,1565.49 110.49,1562.89 113.023,1560.31C115.55,1557.73 118.121,1555.18 120.749,1552.67C128.611,1545.13 136.943,1537.91 145.588,1530.94C146.338,1530.4 146.503,1529.34 145.955,1528.59C145.408,1527.84 144.354,1527.68 143.603,1528.22Z" style="fill:rgb(0,120,246);"/>
            </g>
        </g>
    </g>
</svg>
