<?xml version="1.0" encoding="UTF-8" standalone="no"?><!DOCTYPE svg PUBLIC "-//W3C//DTD SVG 1.1//EN" "http://www.w3.org/Graphics/SVG/1.1/DTD/svg11.dtd"><svg width="100%" height="100%" viewBox="0 0 28 28" version="1.1" xmlns="http://www.w3.org/2000/svg" xmlns:xlink="http://www.w3.org/1999/xlink" xml:space="preserve" xmlns:serif="http://www.serif.com/" style="fill-rule:evenodd;clip-rule:evenodd;stroke-linejoin:round;stroke-miterlimit:2;"><path d="M27.199,6.8l0,13.6c0,3.752 -3.047,6.799 -6.799,6.799l-13.6,0c-3.753,0 -6.8,-3.047 -6.8,-6.799l-0,-13.6c-0,-3.753 3.047,-6.8 6.8,-6.8l13.6,0c3.752,0 6.799,3.047 6.799,6.8Z" style="fill:#24cff0;fill-opacity:0.1;"/><clipPath id="_clip1"><path d="M27.199,6.8l0,13.6c0,3.752 -3.047,6.799 -6.799,6.799l-13.6,0c-3.753,0 -6.8,-3.047 -6.8,-6.799l-0,-13.6c-0,-3.753 3.047,-6.8 6.8,-6.8l13.6,0c3.752,0 6.799,3.047 6.799,6.8Z"/></clipPath><g clip-path="url(#_clip1)"><g><path d="M22.167,27.343c-1.145,0 -2.27,-0.147 -3.374,-0.441c-1.103,-0.294 -2.082,-0.771 -2.936,-1.433c-0.854,-0.661 -1.546,-1.513 -2.077,-2.554c-0.532,-1.041 -0.797,-2.296 -0.797,-3.766c-0,-1.421 0.338,-2.646 1.015,-3.675c0.677,-1.029 1.567,-1.813 2.671,-2.352l0,-0.11c-0.916,-0.417 -1.697,-1.097 -2.343,-2.04c-0.645,-0.943 -0.968,-2.088 -0.968,-3.436c-0,-1.347 0.25,-2.511 0.75,-3.491c0.499,-0.98 1.161,-1.776 1.983,-2.388c0.823,-0.613 1.765,-1.066 2.827,-1.36c1.062,-0.294 2.145,-0.441 3.249,-0.441c1.083,-0 2.156,0.147 3.218,0.441c0.164,0.045 4.041,-0.053 4.199,-0l0,26.587c-0.112,0.036 -3.943,-0.032 -4.059,0c-1.093,0.306 -2.212,0.459 -3.358,0.459Z" style="fill:#24cff0;"/></g></g></svg>