<?xml version="1.0" encoding="UTF-8" standalone="no"?><!DOCTYPE svg PUBLIC "-//W3C//DTD SVG 1.1//EN" "http://www.w3.org/Graphics/SVG/1.1/DTD/svg11.dtd"><svg width="100%" height="100%" viewBox="0 0 579 217" version="1.1" xmlns="http://www.w3.org/2000/svg" xmlns:xlink="http://www.w3.org/1999/xlink" xml:space="preserve" xmlns:serif="http://www.serif.com/" style="fill-rule:evenodd;clip-rule:evenodd;stroke-linecap:round;stroke-linejoin:round;stroke-miterlimit:1.5;"><rect id="Artboard1" x="0" y="0" width="578.011" height="216.754" style="fill:none;"/><clipPath id="_clip1"><rect x="0" y="0" width="578.011" height="216.754"/></clipPath><g clip-path="url(#_clip1)"><path d="M7.571,-2.932c0.062,-0.03 0.137,-0.004 0.168,0.058c0.03,0.062 0.004,0.137 -0.058,0.167l-9.991,4.885c-0.062,0.03 -0.137,0.004 -0.168,-0.058c-0.03,-0.062 -0.004,-0.137 0.058,-0.167l9.991,-4.885Zm16.236,0.002c0.061,-0.032 0.137,-0.008 0.168,0.053c0.032,0.061 0.008,0.137 -0.053,0.169l-26.23,13.607c-0.061,0.032 -0.136,0.008 -0.168,-0.053c-0.032,-0.061 -0.008,-0.137 0.053,-0.169l26.23,-13.607Zm-5.412,-0.001c0.062,-0.031 0.137,-0.007 0.168,0.055c0.031,0.061 0.007,0.137 -0.055,0.168l-20.817,10.584c-0.061,0.031 -0.136,0.007 -0.168,-0.055c-0.031,-0.061 -0.006,-0.137 0.055,-0.168l20.817,-10.584Zm21.647,0.002c0.06,-0.033 0.136,-0.011 0.17,0.049c0.033,0.061 0.011,0.137 -0.049,0.17l-42.468,23.468c-0.06,0.034 -0.136,0.012 -0.17,-0.049c-0.033,-0.06 -0.011,-0.136 0.049,-0.169l42.468,-23.469Zm-5.412,-0c0.061,-0.033 0.137,-0.011 0.17,0.05c0.032,0.061 0.01,0.137 -0.051,0.17l-37.055,20.041c-0.06,0.033 -0.136,0.01 -0.169,-0.05c-0.033,-0.061 -0.01,-0.137 0.05,-0.17l37.055,-20.041Zm21.647,0.002c0.059,-0.035 0.136,-0.015 0.171,0.044c0.035,0.059 0.015,0.136 -0.044,0.171l-58.706,34.705c-0.059,0.035 -0.136,0.015 -0.171,-0.044c-0.035,-0.06 -0.015,-0.137 0.044,-0.172l58.706,-34.704Zm-5.412,-0.001c0.06,-0.034 0.136,-0.014 0.171,0.046c0.034,0.06 0.014,0.136 -0.046,0.171l-53.293,30.789c-0.059,0.034 -0.136,0.014 -0.17,-0.046c-0.035,-0.06 -0.015,-0.136 0.045,-0.171l53.293,-30.789Zm21.646,0.003c0.059,-0.037 0.136,-0.02 0.173,0.039c0.037,0.058 0.02,0.135 -0.039,0.172l-74.943,47.625c-0.058,0.037 -0.136,0.02 -0.173,-0.038c-0.037,-0.059 -0.02,-0.136 0.039,-0.173l74.943,-47.625Zm-5.411,-0.001c0.058,-0.036 0.136,-0.018 0.172,0.041c0.036,0.058 0.018,0.135 -0.04,0.172l-69.531,43.108c-0.059,0.036 -0.136,0.018 -0.172,-0.04c-0.037,-0.059 -0.019,-0.136 0.04,-0.173l69.531,-43.108Zm21.646,0.004c0.056,-0.04 0.134,-0.025 0.173,0.032c0.039,0.057 0.025,0.135 -0.032,0.174l-91.181,62.64c-0.057,0.039 -0.135,0.024 -0.174,-0.033c-0.039,-0.056 -0.025,-0.134 0.032,-0.173l91.182,-62.64Zm-5.412,-0.001c0.058,-0.039 0.135,-0.023 0.174,0.034c0.038,0.057 0.023,0.135 -0.035,0.173l-85.769,57.372c-0.057,0.039 -0.135,0.023 -0.173,-0.034c-0.039,-0.058 -0.023,-0.135 0.034,-0.174l85.769,-57.371Zm21.646,0.003c0.055,-0.041 0.133,-0.03 0.175,0.026c0.041,0.055 0.029,0.133 -0.026,0.175l-107.419,80.303c-0.056,0.042 -0.134,0.03 -0.175,-0.025c-0.042,-0.055 -0.03,-0.134 0.025,-0.175l107.42,-80.304Zm-5.412,-0.001c0.056,-0.04 0.134,-0.028 0.175,0.028c0.04,0.056 0.028,0.134 -0.028,0.175l-102.007,74.079c-0.056,0.041 -0.134,0.028 -0.174,-0.028c-0.041,-0.055 -0.029,-0.134 0.027,-0.174l102.007,-74.08Zm21.645,0.005c0.053,-0.044 0.132,-0.036 0.176,0.017c0.044,0.054 0.036,0.133 -0.017,0.176l-123.658,101.384c-0.053,0.044 -0.132,0.036 -0.176,-0.017c-0.044,-0.054 -0.036,-0.132 0.017,-0.176l123.658,-101.384Zm-5.411,-0.001c0.054,-0.043 0.133,-0.034 0.176,0.02c0.043,0.054 0.033,0.133 -0.021,0.175l-118.245,93.919c-0.054,0.043 -0.132,0.034 -0.175,-0.021c-0.043,-0.054 -0.034,-0.132 0.02,-0.175l118.245,-93.918Zm21.644,0.005c0.051,-0.046 0.131,-0.043 0.177,0.009c0.046,0.051 0.042,0.13 -0.009,0.176l-139.895,126.979c-0.051,0.046 -0.13,0.043 -0.177,-0.008c-0.046,-0.052 -0.042,-0.131 0.009,-0.177l139.895,-126.979Zm-5.411,-0.001c0.052,-0.046 0.131,-0.041 0.177,0.011c0.045,0.052 0.04,0.131 -0.012,0.177l-134.483,117.859c-0.052,0.045 -0.131,0.04 -0.176,-0.012c-0.046,-0.052 -0.041,-0.131 0.011,-0.176l134.483,-117.859Zm21.644,0.006c0.049,-0.049 0.128,-0.05 0.177,-0.002c0.049,0.049 0.05,0.128 0.002,0.177l-156.134,158.713c-0.049,0.049 -0.128,0.05 -0.177,0.002c-0.049,-0.049 -0.05,-0.128 -0.001,-0.177l156.133,-158.713Zm-5.411,-0.002c0.05,-0.048 0.129,-0.047 0.177,0.002c0.048,0.05 0.047,0.129 -0.002,0.177l-150.721,147.322c-0.049,0.048 -0.128,0.047 -0.177,-0.002c-0.048,-0.05 -0.047,-0.129 0.002,-0.177l150.721,-147.322Zm21.644,0.008c0.045,-0.052 0.124,-0.058 0.176,-0.013c0.052,0.045 0.058,0.124 0.013,0.176l-172.372,199.096c-0.045,0.052 -0.124,0.057 -0.176,0.012c-0.052,-0.045 -0.058,-0.124 -0.013,-0.176l172.372,-199.095Zm-5.411,-0.002c0.046,-0.051 0.125,-0.055 0.177,-0.009c0.051,0.046 0.055,0.125 0.008,0.176l-166.959,184.465c-0.046,0.051 -0.125,0.055 -0.176,0.009c-0.051,-0.046 -0.055,-0.125 -0.009,-0.177l166.959,-184.464Zm21.643,0.009c0.042,-0.056 0.12,-0.067 0.175,-0.026c0.056,0.042 0.067,0.12 0.026,0.175l-163.759,218.987c-0.041,0.055 -0.12,0.067 -0.175,0.025c-0.055,-0.041 -0.067,-0.119 -0.025,-0.175l163.758,-218.986Zm-5.41,-0.003c0.042,-0.054 0.121,-0.063 0.175,-0.021c0.054,0.043 0.064,0.122 0.021,0.176l-172.37,218.987c-0.043,0.054 -0.121,0.063 -0.176,0.02c-0.054,-0.042 -0.063,-0.121 -0.021,-0.175l172.371,-218.987Zm21.643,0.011c0.036,-0.058 0.114,-0.076 0.172,-0.039c0.058,0.037 0.076,0.114 0.039,0.172l-137.924,218.987c-0.036,0.058 -0.114,0.076 -0.172,0.039c-0.058,-0.037 -0.076,-0.114 -0.039,-0.172l137.924,-218.987Zm-5.411,-0.003c0.038,-0.057 0.116,-0.073 0.173,-0.034c0.058,0.038 0.073,0.116 0.035,0.173l-146.536,218.987c-0.038,0.057 -0.116,0.073 -0.173,0.034c-0.057,-0.038 -0.073,-0.116 -0.035,-0.173l146.536,-218.987Zm21.643,0.013c0.032,-0.062 0.107,-0.086 0.168,-0.055c0.062,0.032 0.086,0.107 0.055,0.169l-112.089,218.986c-0.032,0.062 -0.107,0.086 -0.169,0.055c-0.061,-0.032 -0.085,-0.107 -0.054,-0.169l112.089,-218.986Zm-5.411,-0.004c0.034,-0.06 0.11,-0.082 0.17,-0.049c0.06,0.033 0.083,0.109 0.049,0.17l-120.7,218.987c-0.034,0.06 -0.11,0.082 -0.17,0.049c-0.061,-0.034 -0.083,-0.11 -0.049,-0.17l120.7,-218.987Zm21.644,0.015c0.025,-0.064 0.098,-0.096 0.162,-0.071c0.064,0.026 0.096,0.098 0.071,0.162l-86.255,218.987c-0.025,0.064 -0.098,0.096 -0.162,0.071c-0.064,-0.026 -0.096,-0.098 -0.07,-0.163l86.254,-218.986Zm-5.411,-0.004c0.027,-0.063 0.101,-0.093 0.164,-0.065c0.064,0.027 0.093,0.101 0.065,0.164l-94.865,218.987c-0.028,0.063 -0.102,0.092 -0.165,0.065c-0.063,-0.027 -0.092,-0.101 -0.065,-0.164l94.866,-218.987Zm21.645,0.016c0.018,-0.066 0.087,-0.105 0.154,-0.087c0.066,0.018 0.105,0.087 0.087,0.154l-60.42,218.986c-0.018,0.067 -0.087,0.106 -0.153,0.088c-0.067,-0.019 -0.106,-0.087 -0.088,-0.154l60.42,-218.987Zm-5.411,-0.004c0.02,-0.066 0.091,-0.102 0.156,-0.082c0.066,0.021 0.103,0.091 0.082,0.157l-69.031,218.987c-0.021,0.066 -0.091,0.102 -0.157,0.081c-0.066,-0.02 -0.102,-0.091 -0.082,-0.156l69.032,-218.987Zm21.646,0.018c0.011,-0.068 0.075,-0.115 0.143,-0.104c0.068,0.011 0.115,0.075 0.104,0.143l-34.585,218.987c-0.011,0.068 -0.075,0.114 -0.143,0.104c-0.068,-0.011 -0.115,-0.075 -0.104,-0.143l34.585,-218.987Zm-5.412,-0.005c0.013,-0.067 0.079,-0.111 0.147,-0.098c0.068,0.013 0.112,0.079 0.098,0.147l-43.196,218.986c-0.013,0.068 -0.079,0.112 -0.147,0.099c-0.068,-0.013 -0.112,-0.079 -0.098,-0.147l43.196,-218.987Zm21.649,0.02c0.002,-0.069 0.06,-0.123 0.129,-0.12c0.069,0.002 0.123,0.061 0.12,0.13l-8.75,218.986c-0.003,0.069 -0.061,0.123 -0.13,0.12c-0.069,-0.003 -0.122,-0.061 -0.12,-0.13l8.751,-218.986Zm-5.413,-0.005c0.006,-0.069 0.066,-0.12 0.135,-0.115c0.068,0.005 0.12,0.066 0.114,0.134l-17.361,218.987c-0.006,0.069 -0.066,0.12 -0.135,0.115c-0.069,-0.006 -0.12,-0.066 -0.115,-0.135l17.362,-218.986Zm21.651,0.019c-0.006,-0.068 0.046,-0.129 0.115,-0.134c0.068,-0.005 0.129,0.046 0.134,0.115l17.085,218.987c0.005,0.068 -0.047,0.129 -0.115,0.134c-0.069,0.005 -0.129,-0.046 -0.135,-0.115l-17.084,-218.987Zm-5.413,-0.005c-0.003,-0.069 0.051,-0.127 0.12,-0.129c0.069,-0.003 0.127,0.051 0.13,0.12l8.473,218.986c0.002,0.069 -0.052,0.127 -0.121,0.13c-0.068,0.003 -0.127,-0.051 -0.129,-0.12l-8.473,-218.987Zm21.653,0.02c-0.014,-0.068 0.031,-0.134 0.098,-0.147c0.068,-0.013 0.134,0.031 0.147,0.099l42.919,218.986c0.014,0.068 -0.031,0.134 -0.098,0.147c-0.068,0.013 -0.134,-0.031 -0.147,-0.099l-42.919,-218.986Zm-5.414,-0.005c-0.01,-0.068 0.036,-0.132 0.104,-0.143c0.069,-0.011 0.133,0.036 0.143,0.104l34.308,218.987c0.011,0.068 -0.036,0.132 -0.104,0.143c-0.068,0.01 -0.132,-0.036 -0.143,-0.104l-34.308,-218.987Zm21.655,0.018c-0.021,-0.066 0.016,-0.136 0.082,-0.157c0.066,-0.02 0.136,0.016 0.157,0.082l68.754,218.987c0.02,0.066 -0.016,0.136 -0.082,0.157c-0.066,0.02 -0.136,-0.016 -0.157,-0.082l-68.754,-218.987Zm-5.414,-0.004c-0.018,-0.067 0.021,-0.136 0.088,-0.154c0.066,-0.018 0.135,0.021 0.153,0.087l60.143,218.987c0.018,0.067 -0.021,0.136 -0.088,0.154c-0.066,0.018 -0.135,-0.021 -0.153,-0.088l-60.143,-218.986Zm21.657,0.016c-0.028,-0.063 0.002,-0.137 0.065,-0.164c0.063,-0.028 0.137,0.002 0.164,0.065l94.589,218.987c0.027,0.063 -0.002,0.137 -0.065,0.164c-0.064,0.027 -0.137,-0.002 -0.165,-0.065l-94.588,-218.987Zm-5.415,-0.004c-0.025,-0.064 0.007,-0.137 0.071,-0.162c0.064,-0.025 0.137,0.007 0.162,0.071l85.977,218.987c0.025,0.064 -0.006,0.136 -0.071,0.162c-0.064,0.025 -0.136,-0.007 -0.162,-0.071l-85.977,-218.987Zm21.658,0.015c-0.033,-0.061 -0.011,-0.137 0.049,-0.17c0.061,-0.033 0.137,-0.011 0.17,0.049l120.423,218.987c0.034,0.06 0.011,0.137 -0.049,0.17c-0.06,0.033 -0.137,0.011 -0.17,-0.05l-120.423,-218.986Zm-5.415,-0.004c-0.031,-0.061 -0.007,-0.136 0.055,-0.168c0.061,-0.031 0.137,-0.007 0.168,0.055l111.812,218.986c0.031,0.062 0.007,0.137 -0.055,0.169c-0.061,0.031 -0.136,0.007 -0.168,-0.055l-111.812,-218.987Zm21.658,0.013c-0.038,-0.057 -0.022,-0.135 0.035,-0.173c0.057,-0.039 0.135,-0.023 0.173,0.034l146.258,218.987c0.039,0.057 0.023,0.135 -0.034,0.173c-0.057,0.039 -0.135,0.023 -0.173,-0.034l-146.259,-218.987Zm-5.414,-0.003c-0.037,-0.058 -0.019,-0.136 0.039,-0.172c0.059,-0.037 0.136,-0.019 0.173,0.039l137.646,218.987c0.037,0.058 0.019,0.135 -0.039,0.172c-0.059,0.037 -0.136,0.019 -0.173,-0.039l-137.646,-218.987Zm21.658,0.011c-0.042,-0.054 -0.033,-0.133 0.021,-0.176c0.054,-0.042 0.133,-0.033 0.176,0.021l172.092,218.987c0.043,0.054 0.034,0.133 -0.021,0.176c-0.054,0.042 -0.132,0.033 -0.175,-0.022l-172.093,-218.986Zm-5.414,-0.003c-0.042,-0.055 -0.03,-0.133 0.025,-0.175c0.055,-0.041 0.134,-0.029 0.175,0.026l163.481,218.986c0.041,0.056 0.03,0.134 -0.025,0.175c-0.056,0.042 -0.134,0.03 -0.175,-0.025l-163.481,-218.987Zm21.658,0.009c-0.047,-0.051 -0.043,-0.13 0.009,-0.176c0.051,-0.046 0.13,-0.042 0.176,0.009l167.357,185.163c0.046,0.051 0.042,0.131 -0.009,0.177c-0.051,0.046 -0.13,0.042 -0.176,-0.009l-167.357,-185.164Zm-5.415,-0.002c-0.045,-0.052 -0.039,-0.131 0.013,-0.176c0.052,-0.045 0.131,-0.039 0.176,0.013l172.77,199.847c0.045,0.052 0.039,0.131 -0.013,0.176c-0.052,0.045 -0.131,0.04 -0.176,-0.012l-172.77,-199.848Zm21.658,0.008c-0.049,-0.048 -0.05,-0.128 -0.002,-0.177c0.048,-0.049 0.128,-0.05 0.177,-0.002l151.119,147.894c0.049,0.048 0.05,0.128 0.002,0.177c-0.048,0.049 -0.128,0.05 -0.177,0.002l-151.119,-147.894Zm-5.414,-0.002c-0.049,-0.049 -0.048,-0.128 0.001,-0.177c0.049,-0.048 0.129,-0.047 0.177,0.002l156.532,159.323c0.048,0.049 0.047,0.128 -0.002,0.176c-0.049,0.049 -0.128,0.048 -0.177,-0.001l-156.531,-159.323Zm21.657,0.007c-0.052,-0.046 -0.057,-0.125 -0.012,-0.177c0.046,-0.052 0.125,-0.057 0.177,-0.011l134.881,118.339c0.052,0.045 0.057,0.125 0.011,0.176c-0.045,0.052 -0.124,0.057 -0.176,0.012l-134.881,-118.339Zm-5.414,-0.002c-0.051,-0.046 -0.055,-0.125 -0.009,-0.176c0.047,-0.052 0.126,-0.055 0.177,-0.009l140.293,127.487c0.052,0.046 0.055,0.125 0.009,0.176c-0.046,0.051 -0.126,0.055 -0.177,0.009l-140.293,-127.487Zm21.657,0.005c-0.054,-0.043 -0.063,-0.121 -0.02,-0.175c0.043,-0.054 0.121,-0.063 0.175,-0.02l118.643,94.329c0.054,0.043 0.063,0.122 0.02,0.176c-0.043,0.054 -0.121,0.063 -0.175,0.02l-118.643,-94.33Zm-5.415,-0.001c-0.053,-0.044 -0.061,-0.122 -0.017,-0.176c0.044,-0.053 0.123,-0.061 0.176,-0.017l124.056,101.816c0.053,0.044 0.061,0.123 0.017,0.176c-0.044,0.053 -0.123,0.061 -0.176,0.017l-124.056,-101.816Zm21.657,0.005c-0.056,-0.041 -0.068,-0.119 -0.028,-0.175c0.041,-0.056 0.119,-0.068 0.175,-0.028l102.405,74.437c0.056,0.041 0.068,0.119 0.028,0.175c-0.041,0.056 -0.119,0.068 -0.175,0.028l-102.405,-74.437Zm-5.414,-0.001c-0.055,-0.042 -0.067,-0.12 -0.025,-0.175c0.041,-0.056 0.119,-0.067 0.175,-0.026l107.817,80.678c0.056,0.041 0.067,0.12 0.026,0.175c-0.042,0.055 -0.12,0.066 -0.175,0.025l-107.818,-80.677Zm21.656,0.003c-0.057,-0.038 -0.073,-0.116 -0.034,-0.173c0.038,-0.057 0.116,-0.073 0.173,-0.034l86.167,57.687c0.057,0.038 0.073,0.116 0.034,0.173c-0.038,0.057 -0.116,0.073 -0.173,0.034l-86.167,-57.687Zm-5.414,-0c-0.057,-0.04 -0.071,-0.117 -0.032,-0.174c0.039,-0.057 0.117,-0.072 0.174,-0.032l91.579,62.968c0.057,0.039 0.072,0.117 0.032,0.174c-0.039,0.057 -0.117,0.071 -0.173,0.032l-91.58,-62.968Zm21.656,0.003c-0.059,-0.037 -0.077,-0.114 -0.041,-0.172c0.037,-0.059 0.114,-0.077 0.172,-0.041l69.929,43.389c0.059,0.037 0.077,0.114 0.041,0.172c-0.037,0.059 -0.114,0.077 -0.172,0.041l-69.929,-43.389Zm-5.414,-0.001c-0.059,-0.037 -0.076,-0.114 -0.039,-0.173c0.037,-0.058 0.115,-0.075 0.173,-0.038l75.342,47.917c0.058,0.037 0.075,0.114 0.038,0.172c-0.037,0.058 -0.114,0.076 -0.173,0.039l-75.341,-47.917Zm21.655,0.003c-0.06,-0.035 -0.08,-0.111 -0.046,-0.171c0.035,-0.06 0.111,-0.08 0.171,-0.046l53.691,31.042c0.06,0.034 0.08,0.111 0.046,0.171c-0.035,0.059 -0.111,0.08 -0.171,0.045l-53.691,-31.041Zm-5.414,-0.001c-0.059,-0.035 -0.079,-0.112 -0.044,-0.171c0.035,-0.059 0.112,-0.079 0.171,-0.044l59.104,34.966c0.059,0.035 0.079,0.112 0.044,0.171c-0.035,0.059 -0.112,0.079 -0.171,0.044l-59.104,-34.966Zm21.655,0.003c-0.061,-0.033 -0.083,-0.109 -0.05,-0.17c0.032,-0.061 0.108,-0.083 0.169,-0.05l37.453,20.271c0.061,0.032 0.083,0.108 0.05,0.169c-0.032,0.061 -0.108,0.083 -0.169,0.05l-37.453,-20.27Zm-5.414,-0.001c-0.06,-0.033 -0.082,-0.11 -0.049,-0.17c0.034,-0.06 0.11,-0.082 0.17,-0.049l42.866,23.705c0.06,0.034 0.082,0.11 0.049,0.17c-0.034,0.06 -0.11,0.082 -0.17,0.049l-42.866,-23.705Zm21.655,0.002c-0.062,-0.031 -0.086,-0.107 -0.055,-0.168c0.031,-0.062 0.107,-0.086 0.168,-0.055l21.215,10.793c0.062,0.032 0.086,0.107 0.055,0.168c-0.031,0.062 -0.107,0.086 -0.168,0.055l-21.215,-10.793Zm-5.414,-0c-0.061,-0.032 -0.085,-0.108 -0.053,-0.169c0.032,-0.061 0.107,-0.085 0.168,-0.053l26.628,13.823c0.061,0.032 0.085,0.107 0.053,0.169c-0.031,0.061 -0.107,0.085 -0.168,0.053l-26.628,-13.823Zm16.241,0.001c-0.062,-0.03 -0.088,-0.105 -0.058,-0.167c0.031,-0.062 0.106,-0.088 0.168,-0.058l10.389,5.083c0.062,0.03 0.088,0.105 0.058,0.167c-0.031,0.062 -0.106,0.088 -0.167,0.057l-10.39,-5.082Zm-119.105,-0.017c-0.052,-0.045 -0.059,-0.124 -0.014,-0.176c0.044,-0.053 0.123,-0.059 0.176,-0.015l129.468,109.802c0.053,0.045 0.059,0.124 0.015,0.177c-0.045,0.052 -0.124,0.059 -0.176,0.014l-129.469,-109.802Zm16.243,0.004c-0.055,-0.043 -0.065,-0.121 -0.023,-0.176c0.042,-0.054 0.121,-0.065 0.175,-0.022l113.231,87.296c0.054,0.042 0.065,0.121 0.022,0.175c-0.042,0.055 -0.12,0.065 -0.175,0.023l-113.23,-87.296Zm16.242,0.003c-0.056,-0.04 -0.07,-0.118 -0.03,-0.175c0.04,-0.056 0.118,-0.069 0.174,-0.03l96.993,68.544c0.056,0.04 0.069,0.118 0.03,0.174c-0.04,0.056 -0.118,0.07 -0.175,0.03l-96.992,-68.543Zm16.242,0.002c-0.058,-0.037 -0.074,-0.115 -0.037,-0.173c0.038,-0.057 0.116,-0.074 0.173,-0.036l80.755,52.676c0.058,0.038 0.074,0.115 0.036,0.173c-0.038,0.058 -0.115,0.074 -0.173,0.037l-80.754,-52.677Zm16.241,0.002c-0.059,-0.035 -0.078,-0.112 -0.042,-0.171c0.036,-0.059 0.113,-0.078 0.172,-0.042l64.516,39.077c0.059,0.035 0.078,0.112 0.042,0.171c-0.035,0.059 -0.112,0.078 -0.171,0.043l-64.517,-39.078Zm16.242,0.002c-0.06,-0.034 -0.082,-0.11 -0.048,-0.17c0.034,-0.06 0.111,-0.081 0.171,-0.047l48.278,27.291c0.06,0.034 0.081,0.111 0.047,0.171c-0.034,0.06 -0.11,0.081 -0.17,0.047l-48.278,-27.292Zm16.241,0.002c-0.061,-0.032 -0.085,-0.108 -0.052,-0.169c0.032,-0.061 0.108,-0.084 0.169,-0.052l32.04,16.98c0.061,0.032 0.084,0.108 0.052,0.169c-0.032,0.061 -0.108,0.084 -0.169,0.052l-32.04,-16.98Zm16.24,0.001c-0.061,-0.03 -0.087,-0.105 -0.056,-0.167c0.031,-0.062 0.106,-0.087 0.168,-0.056l15.802,7.881c0.062,0.031 0.087,0.106 0.056,0.168c-0.031,0.062 -0.106,0.087 -0.167,0.056l-15.803,-7.882Zm-552.092,-0.223c0.062,-0.031 0.137,-0.006 0.168,0.056c0.031,0.062 0.006,0.137 -0.056,0.167l-15.404,7.679c-0.062,0.031 -0.137,0.005 -0.168,-0.056c-0.031,-0.062 -0.006,-0.137 0.056,-0.168l15.404,-7.678Zm16.236,0.001c0.061,-0.032 0.136,-0.009 0.169,0.052c0.032,0.061 0.009,0.137 -0.052,0.169l-31.643,16.758c-0.061,0.032 -0.136,0.009 -0.169,-0.052c-0.032,-0.061 -0.009,-0.137 0.052,-0.169l31.643,-16.758Zm16.235,0.002c0.06,-0.034 0.136,-0.013 0.17,0.047c0.034,0.06 0.013,0.136 -0.047,0.17l-47.881,27.048c-0.06,0.034 -0.136,0.012 -0.17,-0.048c-0.034,-0.06 -0.013,-0.136 0.047,-0.17l47.881,-27.047Zm16.234,0.002c0.059,-0.036 0.136,-0.017 0.172,0.042c0.036,0.059 0.017,0.136 -0.042,0.172l-64.119,38.806c-0.059,0.035 -0.135,0.017 -0.171,-0.042c-0.036,-0.059 -0.017,-0.136 0.042,-0.172l64.118,-38.806Zm16.235,0.002c0.058,-0.038 0.135,-0.021 0.173,0.036c0.037,0.058 0.021,0.136 -0.037,0.173l-80.356,52.374c-0.058,0.037 -0.135,0.021 -0.173,-0.037c-0.038,-0.057 -0.021,-0.135 0.036,-0.173l80.357,-52.373Zm16.234,0.002c0.056,-0.039 0.134,-0.026 0.174,0.03c0.04,0.057 0.027,0.135 -0.03,0.175l-96.594,68.201c-0.057,0.039 -0.135,0.026 -0.174,-0.03c-0.04,-0.057 -0.027,-0.135 0.03,-0.175l96.594,-68.201Zm16.234,0.004c0.054,-0.043 0.133,-0.032 0.175,0.022c0.042,0.055 0.032,0.134 -0.023,0.176l-112.832,86.904c-0.055,0.042 -0.133,0.032 -0.175,-0.023c-0.042,-0.054 -0.032,-0.133 0.022,-0.175l112.833,-86.904Zm16.233,0.003c0.053,-0.044 0.132,-0.038 0.176,0.015c0.045,0.052 0.039,0.131 -0.014,0.176l-129.07,109.347c-0.053,0.045 -0.132,0.038 -0.177,-0.014c-0.044,-0.053 -0.038,-0.132 0.015,-0.177l129.07,-109.347Zm16.233,0.005c0.051,-0.048 0.13,-0.045 0.177,0.005c0.047,0.05 0.045,0.129 -0.005,0.177l-145.309,136.773c-0.05,0.048 -0.129,0.045 -0.176,-0.005c-0.048,-0.05 -0.045,-0.129 0.005,-0.177l145.308,-136.773Zm16.233,0.005c0.048,-0.05 0.127,-0.053 0.177,-0.005c0.05,0.047 0.052,0.126 0.005,0.176l-161.546,171.053c-0.048,0.05 -0.127,0.052 -0.177,0.005c-0.05,-0.047 -0.052,-0.126 -0.005,-0.177l161.546,-171.052Zm16.233,0.006c0.044,-0.053 0.123,-0.061 0.176,-0.017c0.053,0.044 0.06,0.123 0.016,0.176l-177.784,215.118c-0.044,0.053 -0.123,0.061 -0.176,0.017c-0.053,-0.044 -0.061,-0.123 -0.017,-0.176l177.785,-215.118Zm16.232,0.007c0.04,-0.056 0.118,-0.069 0.174,-0.029c0.057,0.039 0.07,0.118 0.03,0.174l-155.147,218.987c-0.04,0.056 -0.118,0.069 -0.174,0.029c-0.056,-0.04 -0.07,-0.118 -0.03,-0.174l155.147,-218.987Zm16.232,0.009c0.036,-0.059 0.112,-0.079 0.172,-0.044c0.059,0.035 0.079,0.112 0.044,0.171l-129.313,218.987c-0.035,0.059 -0.111,0.079 -0.171,0.044c-0.059,-0.035 -0.079,-0.112 -0.044,-0.171l129.312,-218.987Zm16.233,0.01c0.03,-0.062 0.104,-0.089 0.166,-0.059c0.063,0.029 0.09,0.104 0.06,0.166l-103.477,218.987c-0.03,0.062 -0.104,0.089 -0.167,0.059c-0.062,-0.029 -0.089,-0.104 -0.059,-0.166l103.477,-218.987Zm16.233,0.012c0.023,-0.065 0.095,-0.099 0.16,-0.076c0.065,0.023 0.099,0.094 0.076,0.159l-77.643,218.987c-0.023,0.065 -0.094,0.099 -0.159,0.076c-0.066,-0.023 -0.1,-0.094 -0.077,-0.16l77.643,-218.986Zm16.234,0.013c0.016,-0.067 0.084,-0.109 0.151,-0.093c0.067,0.016 0.109,0.083 0.093,0.15l-51.808,218.987c-0.016,0.067 -0.084,0.109 -0.151,0.093c-0.067,-0.016 -0.109,-0.083 -0.093,-0.151l51.808,-218.986Zm16.236,0.014c0.008,-0.069 0.07,-0.118 0.139,-0.11c0.068,0.009 0.117,0.071 0.109,0.139l-25.973,218.987c-0.008,0.068 -0.071,0.118 -0.139,0.109c-0.069,-0.008 -0.118,-0.07 -0.109,-0.138l25.973,-218.987Zm16.237,0.014c0,-0.068 0.056,-0.124 0.125,-0.124c0.069,-0 0.125,0.056 0.125,0.125l-0.139,218.986c0,0.069 -0.056,0.125 -0.125,0.125c-0.069,0 -0.125,-0.056 -0.125,-0.125l0.139,-218.987Zm16.239,0.015c-0.008,-0.068 0.041,-0.131 0.11,-0.139c0.068,-0.008 0.13,0.041 0.138,0.11l25.696,218.987c0.008,0.068 -0.041,0.13 -0.109,0.138c-0.069,0.008 -0.131,-0.041 -0.139,-0.109l-25.696,-218.987Zm16.24,0.014c-0.015,-0.067 0.026,-0.134 0.093,-0.15c0.068,-0.016 0.135,0.026 0.151,0.093l51.531,218.987c0.015,0.067 -0.026,0.134 -0.094,0.15c-0.067,0.016 -0.134,-0.026 -0.15,-0.093l-51.531,-218.987Zm16.242,0.013c-0.023,-0.065 0.011,-0.136 0.076,-0.159c0.065,-0.023 0.137,0.011 0.16,0.076l77.365,218.987c0.023,0.065 -0.011,0.136 -0.076,0.159c-0.065,0.023 -0.136,-0.011 -0.159,-0.076l-77.366,-218.987Zm16.243,0.012c-0.029,-0.063 -0.003,-0.137 0.06,-0.166c0.062,-0.03 0.137,-0.003 0.166,0.059l103.2,218.987c0.03,0.062 0.003,0.137 -0.059,0.166c-0.063,0.03 -0.137,0.003 -0.167,-0.059l-103.2,-218.987Zm16.243,0.01c-0.035,-0.059 -0.015,-0.136 0.045,-0.171c0.059,-0.035 0.136,-0.015 0.171,0.044l129.035,218.987c0.035,0.059 0.015,0.136 -0.045,0.171c-0.059,0.035 -0.136,0.015 -0.171,-0.044l-129.035,-218.987Zm16.244,0.009c-0.04,-0.057 -0.026,-0.135 0.03,-0.174c0.056,-0.04 0.134,-0.027 0.174,0.029l154.87,218.987c0.04,0.056 0.026,0.134 -0.03,0.174c-0.056,0.04 -0.135,0.027 -0.174,-0.03l-154.87,-218.986Zm16.244,0.007c-0.044,-0.053 -0.037,-0.132 0.017,-0.176c0.053,-0.044 0.132,-0.036 0.176,0.017l178.182,215.93c0.044,0.054 0.036,0.132 -0.017,0.176c-0.053,0.044 -0.132,0.037 -0.176,-0.016l-178.182,-215.931Zm16.243,0.006c-0.047,-0.05 -0.045,-0.129 0.005,-0.176c0.051,-0.048 0.13,-0.045 0.177,0.005l161.944,171.704c0.048,0.05 0.045,0.13 -0.005,0.177c-0.05,0.047 -0.129,0.045 -0.177,-0.005l-161.944,-171.705Zm16.243,0.006c-0.05,-0.048 -0.052,-0.127 -0.005,-0.177c0.047,-0.05 0.127,-0.053 0.177,-0.005l145.706,137.312c0.05,0.047 0.053,0.126 0.005,0.176c-0.047,0.051 -0.126,0.053 -0.176,0.006l-145.707,-137.312Zm142.917,2.603c0.069,-0 0.125,0.056 0.125,0.125c-0,0.069 -0.056,0.125 -0.125,0.125l-577.771,0c-0.069,-0 -0.125,-0.056 -0.125,-0.125c-0,-0.069 0.056,-0.125 0.125,-0.125l577.771,-0Zm-0,6.021c0.069,-0 0.125,0.056 0.125,0.125c-0,0.069 -0.056,0.125 -0.125,0.125l-577.771,-0c-0.069,-0 -0.125,-0.056 -0.125,-0.125c-0,-0.069 0.056,-0.125 0.125,-0.125l577.771,-0Zm-0,6.021c0.069,-0 0.125,0.056 0.125,0.125c-0,0.069 -0.056,0.125 -0.125,0.125l-577.771,-0c-0.069,-0 -0.125,-0.056 -0.125,-0.125c-0,-0.069 0.056,-0.125 0.125,-0.125l577.771,-0Zm-0,6.021c0.069,-0 0.125,0.056 0.125,0.125c-0,0.069 -0.056,0.125 -0.125,0.125l-577.771,-0c-0.069,-0 -0.125,-0.056 -0.125,-0.125c-0,-0.069 0.056,-0.125 0.125,-0.125l577.771,-0Zm-0,6.021c0.069,-0 0.125,0.056 0.125,0.125c-0,0.069 -0.056,0.125 -0.125,0.125l-577.771,-0c-0.069,-0 -0.125,-0.056 -0.125,-0.125c-0,-0.069 0.056,-0.125 0.125,-0.125l577.771,-0Zm-0,6.021c0.069,-0 0.125,0.056 0.125,0.125c-0,0.069 -0.056,0.125 -0.125,0.125l-577.771,-0c-0.069,-0 -0.125,-0.056 -0.125,-0.125c-0,-0.069 0.056,-0.125 0.125,-0.125l577.771,-0Zm-0,6.021c0.069,-0 0.125,0.056 0.125,0.125c-0,0.069 -0.056,0.125 -0.125,0.125l-577.771,-0c-0.069,-0 -0.125,-0.056 -0.125,-0.125c-0,-0.069 0.056,-0.125 0.125,-0.125l577.771,-0Zm-0,6.021c0.069,-0 0.125,0.056 0.125,0.125c-0,0.069 -0.056,0.125 -0.125,0.125l-577.771,-0c-0.069,-0 -0.125,-0.056 -0.125,-0.125c-0,-0.069 0.056,-0.125 0.125,-0.125l577.771,-0Zm-0,6.021c0.069,-0 0.125,0.056 0.125,0.125c-0,0.069 -0.056,0.125 -0.125,0.125l-577.771,-0c-0.069,-0 -0.125,-0.056 -0.125,-0.125c-0,-0.069 0.056,-0.125 0.125,-0.125l577.771,-0Zm-0,6.021c0.069,-0 0.125,0.056 0.125,0.125c-0,0.068 -0.056,0.125 -0.125,0.125l-577.771,-0c-0.069,-0 -0.125,-0.057 -0.125,-0.125c-0,-0.069 0.056,-0.125 0.125,-0.125l577.771,-0Zm-0,6.02c0.069,0 0.125,0.056 0.125,0.125c-0,0.069 -0.056,0.125 -0.125,0.125l-577.771,0c-0.069,0 -0.125,-0.056 -0.125,-0.125c-0,-0.069 0.056,-0.125 0.125,-0.125l577.771,0Zm-0,6.021c0.069,0 0.125,0.056 0.125,0.125c-0,0.069 -0.056,0.125 -0.125,0.125l-577.771,0c-0.069,0 -0.125,-0.056 -0.125,-0.125c-0,-0.069 0.056,-0.125 0.125,-0.125l577.771,0Zm-0,6.021c0.069,0 0.125,0.056 0.125,0.125c-0,0.069 -0.056,0.125 -0.125,0.125l-577.771,0c-0.069,0 -0.125,-0.056 -0.125,-0.125c-0,-0.069 0.056,-0.125 0.125,-0.125l577.771,0Zm-0,6.021c0.069,0 0.125,0.056 0.125,0.125c-0,0.069 -0.056,0.125 -0.125,0.125l-577.771,0c-0.069,0 -0.125,-0.056 -0.125,-0.125c-0,-0.069 0.056,-0.125 0.125,-0.125l577.771,0Zm-0,6.021c0.069,0 0.125,0.056 0.125,0.125c-0,0.069 -0.056,0.125 -0.125,0.125l-577.771,0c-0.069,0 -0.125,-0.056 -0.125,-0.125c-0,-0.069 0.056,-0.125 0.125,-0.125l577.771,0Zm-0,6.021c0.069,0 0.125,0.056 0.125,0.125c-0,0.069 -0.056,0.125 -0.125,0.125l-577.771,0c-0.069,0 -0.125,-0.056 -0.125,-0.125c-0,-0.069 0.056,-0.125 0.125,-0.125l577.771,0Zm-0,6.021c0.069,0 0.125,0.056 0.125,0.125c-0,0.069 -0.056,0.125 -0.125,0.125l-577.771,0c-0.069,0 -0.125,-0.056 -0.125,-0.125c-0,-0.069 0.056,-0.125 0.125,-0.125l577.771,0Zm-0,6.021c0.069,0 0.125,0.056 0.125,0.125c-0,0.069 -0.056,0.125 -0.125,0.125l-577.771,0c-0.069,0 -0.125,-0.056 -0.125,-0.125c-0,-0.069 0.056,-0.125 0.125,-0.125l577.771,0Zm-0,6.021c0.069,0 0.125,0.056 0.125,0.125c-0,0.069 -0.056,0.125 -0.125,0.125l-577.771,0c-0.069,0 -0.125,-0.056 -0.125,-0.125c-0,-0.069 0.056,-0.125 0.125,-0.125l577.771,0Zm-0,6.021c0.069,-0 0.125,0.056 0.125,0.125c-0,0.069 -0.056,0.125 -0.125,0.125l-577.771,-0c-0.069,-0 -0.125,-0.056 -0.125,-0.125c-0,-0.069 0.056,-0.125 0.125,-0.125l577.771,-0Zm-0,6.021c0.069,-0 0.125,0.056 0.125,0.125c-0,0.069 -0.056,0.125 -0.125,0.125l-577.771,-0c-0.069,-0 -0.125,-0.056 -0.125,-0.125c-0,-0.069 0.056,-0.125 0.125,-0.125l577.771,-0Zm-0,6.021c0.069,-0 0.125,0.056 0.125,0.125c-0,0.069 -0.056,0.125 -0.125,0.125l-577.771,-0c-0.069,-0 -0.125,-0.056 -0.125,-0.125c-0,-0.069 0.056,-0.125 0.125,-0.125l577.771,-0Zm-0,6.021c0.069,-0 0.125,0.056 0.125,0.125c-0,0.069 -0.056,0.125 -0.125,0.125l-577.771,-0c-0.069,-0 -0.125,-0.056 -0.125,-0.125c-0,-0.069 0.056,-0.125 0.125,-0.125l577.771,-0Zm-0,6.021c0.069,-0 0.125,0.056 0.125,0.125c-0,0.069 -0.056,0.125 -0.125,0.125l-577.771,-0c-0.069,-0 -0.125,-0.056 -0.125,-0.125c-0,-0.069 0.056,-0.125 0.125,-0.125l577.771,-0Zm-0,6.021c0.069,-0 0.125,0.056 0.125,0.125c-0,0.069 -0.056,0.125 -0.125,0.125l-577.771,-0c-0.069,-0 -0.125,-0.056 -0.125,-0.125c-0,-0.069 0.056,-0.125 0.125,-0.125l577.771,-0Zm-0,6.021c0.069,-0 0.125,0.056 0.125,0.125c-0,0.069 -0.056,0.125 -0.125,0.125l-577.771,-0c-0.069,-0 -0.125,-0.056 -0.125,-0.125c-0,-0.069 0.056,-0.125 0.125,-0.125l577.771,-0Zm-0,6.021c0.069,-0 0.125,0.056 0.125,0.125c-0,0.069 -0.056,0.125 -0.125,0.125l-577.771,-0c-0.069,-0 -0.125,-0.056 -0.125,-0.125c-0,-0.069 0.056,-0.125 0.125,-0.125l577.771,-0Zm-0,6.021c0.069,-0 0.125,0.056 0.125,0.125c-0,0.068 -0.056,0.125 -0.125,0.125l-577.771,-0c-0.069,-0 -0.125,-0.057 -0.125,-0.125c-0,-0.069 0.056,-0.125 0.125,-0.125l577.771,-0Zm-0,6.02c0.069,0 0.125,0.056 0.125,0.125c-0,0.069 -0.056,0.125 -0.125,0.125l-577.771,0c-0.069,0 -0.125,-0.056 -0.125,-0.125c-0,-0.069 0.056,-0.125 0.125,-0.125l577.771,0Zm-0,6.021c0.069,0 0.125,0.056 0.125,0.125c-0,0.069 -0.056,0.125 -0.125,0.125l-577.771,0c-0.069,0 -0.125,-0.056 -0.125,-0.125c-0,-0.069 0.056,-0.125 0.125,-0.125l577.771,0Zm-0,6.021c0.069,0 0.125,0.056 0.125,0.125c-0,0.069 -0.056,0.125 -0.125,0.125l-577.771,0c-0.069,0 -0.125,-0.056 -0.125,-0.125c-0,-0.069 0.056,-0.125 0.125,-0.125l577.771,0Zm-0,6.021c0.069,0 0.125,0.056 0.125,0.125c-0,0.069 -0.056,0.125 -0.125,0.125l-577.771,0c-0.069,0 -0.125,-0.056 -0.125,-0.125c-0,-0.069 0.056,-0.125 0.125,-0.125l577.771,0Zm-0,6.021c0.069,0 0.125,0.056 0.125,0.125c-0,0.069 -0.056,0.125 -0.125,0.125l-577.771,0c-0.069,0 -0.125,-0.056 -0.125,-0.125c-0,-0.069 0.056,-0.125 0.125,-0.125l577.771,0Zm-0,6.021c0.069,0 0.125,0.056 0.125,0.125c-0,0.069 -0.056,0.125 -0.125,0.125l-577.771,0c-0.069,0 -0.125,-0.056 -0.125,-0.125c-0,-0.069 0.056,-0.125 0.125,-0.125l577.771,0Zm-0,6.021c0.069,0 0.125,0.056 0.125,0.125c-0,0.069 -0.056,0.125 -0.125,0.125l-577.771,0c-0.069,0 -0.125,-0.056 -0.125,-0.125c-0,-0.069 0.056,-0.125 0.125,-0.125l577.771,0Zm-0,6.021c0.069,0 0.125,0.056 0.125,0.125c-0,0.069 -0.056,0.125 -0.125,0.125l-577.771,0c-0.069,0 -0.125,-0.056 -0.125,-0.125c-0,-0.069 0.056,-0.125 0.125,-0.125l577.771,0Zm-0,6.021c0.069,0 0.125,0.056 0.125,0.125c-0,0.069 -0.056,0.125 -0.125,0.125l-577.771,0c-0.069,0 -0.125,-0.056 -0.125,-0.125c-0,-0.069 0.056,-0.125 0.125,-0.125l577.771,0Zm-575.898,-219.561c0.062,-0.03 0.137,-0.004 0.166,0.059c0.03,0.062 0.004,0.136 -0.058,0.166l-4.579,2.197c-0.062,0.029 -0.137,0.003 -0.167,-0.059c-0.03,-0.062 -0.004,-0.137 0.059,-0.167l4.579,-2.196Zm573.742,0.225c-0.062,-0.03 -0.088,-0.104 -0.058,-0.167c0.03,-0.062 0.104,-0.088 0.167,-0.058l4.977,2.389c0.062,0.029 0.088,0.104 0.058,0.166c-0.03,0.063 -0.104,0.089 -0.167,0.059l-4.977,-2.389Zm-578.32,-0.618c0.062,-0.029 0.136,-0.003 0.166,0.06c0.029,0.062 0.002,0.137 -0.06,0.166l-0.834,0.393c-0.062,0.029 -0.137,0.002 -0.166,-0.06c-0.029,-0.063 -0.003,-0.137 0.06,-0.167l0.834,-0.392Z" style="fill:none;"/><clipPath id="_clip2"><path d="M7.571,-2.932c0.062,-0.03 0.137,-0.004 0.168,0.058c0.03,0.062 0.004,0.137 -0.058,0.167l-9.991,4.885c-0.062,0.03 -0.137,0.004 -0.168,-0.058c-0.03,-0.062 -0.004,-0.137 0.058,-0.167l9.991,-4.885Zm16.236,0.002c0.061,-0.032 0.137,-0.008 0.168,0.053c0.032,0.061 0.008,0.137 -0.053,0.169l-26.23,13.607c-0.061,0.032 -0.136,0.008 -0.168,-0.053c-0.032,-0.061 -0.008,-0.137 0.053,-0.169l26.23,-13.607Zm-5.412,-0.001c0.062,-0.031 0.137,-0.007 0.168,0.055c0.031,0.061 0.007,0.137 -0.055,0.168l-20.817,10.584c-0.061,0.031 -0.136,0.007 -0.168,-0.055c-0.031,-0.061 -0.006,-0.137 0.055,-0.168l20.817,-10.584Zm21.647,0.002c0.06,-0.033 0.136,-0.011 0.17,0.049c0.033,0.061 0.011,0.137 -0.049,0.17l-42.468,23.468c-0.06,0.034 -0.136,0.012 -0.17,-0.049c-0.033,-0.06 -0.011,-0.136 0.049,-0.169l42.468,-23.469Zm-5.412,-0c0.061,-0.033 0.137,-0.011 0.17,0.05c0.032,0.061 0.01,0.137 -0.051,0.17l-37.055,20.041c-0.06,0.033 -0.136,0.01 -0.169,-0.05c-0.033,-0.061 -0.01,-0.137 0.05,-0.17l37.055,-20.041Zm21.647,0.002c0.059,-0.035 0.136,-0.015 0.171,0.044c0.035,0.059 0.015,0.136 -0.044,0.171l-58.706,34.705c-0.059,0.035 -0.136,0.015 -0.171,-0.044c-0.035,-0.06 -0.015,-0.137 0.044,-0.172l58.706,-34.704Zm-5.412,-0.001c0.06,-0.034 0.136,-0.014 0.171,0.046c0.034,0.06 0.014,0.136 -0.046,0.171l-53.293,30.789c-0.059,0.034 -0.136,0.014 -0.17,-0.046c-0.035,-0.06 -0.015,-0.136 0.045,-0.171l53.293,-30.789Zm21.646,0.003c0.059,-0.037 0.136,-0.02 0.173,0.039c0.037,0.058 0.02,0.135 -0.039,0.172l-74.943,47.625c-0.058,0.037 -0.136,0.02 -0.173,-0.038c-0.037,-0.059 -0.02,-0.136 0.039,-0.173l74.943,-47.625Zm-5.411,-0.001c0.058,-0.036 0.136,-0.018 0.172,0.041c0.036,0.058 0.018,0.135 -0.04,0.172l-69.531,43.108c-0.059,0.036 -0.136,0.018 -0.172,-0.04c-0.037,-0.059 -0.019,-0.136 0.04,-0.173l69.531,-43.108Zm21.646,0.004c0.056,-0.04 0.134,-0.025 0.173,0.032c0.039,0.057 0.025,0.135 -0.032,0.174l-91.181,62.64c-0.057,0.039 -0.135,0.024 -0.174,-0.033c-0.039,-0.056 -0.025,-0.134 0.032,-0.173l91.182,-62.64Zm-5.412,-0.001c0.058,-0.039 0.135,-0.023 0.174,0.034c0.038,0.057 0.023,0.135 -0.035,0.173l-85.769,57.372c-0.057,0.039 -0.135,0.023 -0.173,-0.034c-0.039,-0.058 -0.023,-0.135 0.034,-0.174l85.769,-57.371Zm21.646,0.003c0.055,-0.041 0.133,-0.03 0.175,0.026c0.041,0.055 0.029,0.133 -0.026,0.175l-107.419,80.303c-0.056,0.042 -0.134,0.03 -0.175,-0.025c-0.042,-0.055 -0.03,-0.134 0.025,-0.175l107.42,-80.304Zm-5.412,-0.001c0.056,-0.04 0.134,-0.028 0.175,0.028c0.04,0.056 0.028,0.134 -0.028,0.175l-102.007,74.079c-0.056,0.041 -0.134,0.028 -0.174,-0.028c-0.041,-0.055 -0.029,-0.134 0.027,-0.174l102.007,-74.08Zm21.645,0.005c0.053,-0.044 0.132,-0.036 0.176,0.017c0.044,0.054 0.036,0.133 -0.017,0.176l-123.658,101.384c-0.053,0.044 -0.132,0.036 -0.176,-0.017c-0.044,-0.054 -0.036,-0.132 0.017,-0.176l123.658,-101.384Zm-5.411,-0.001c0.054,-0.043 0.133,-0.034 0.176,0.02c0.043,0.054 0.033,0.133 -0.021,0.175l-118.245,93.919c-0.054,0.043 -0.132,0.034 -0.175,-0.021c-0.043,-0.054 -0.034,-0.132 0.02,-0.175l118.245,-93.918Zm21.644,0.005c0.051,-0.046 0.131,-0.043 0.177,0.009c0.046,0.051 0.042,0.13 -0.009,0.176l-139.895,126.979c-0.051,0.046 -0.13,0.043 -0.177,-0.008c-0.046,-0.052 -0.042,-0.131 0.009,-0.177l139.895,-126.979Zm-5.411,-0.001c0.052,-0.046 0.131,-0.041 0.177,0.011c0.045,0.052 0.04,0.131 -0.012,0.177l-134.483,117.859c-0.052,0.045 -0.131,0.04 -0.176,-0.012c-0.046,-0.052 -0.041,-0.131 0.011,-0.176l134.483,-117.859Zm21.644,0.006c0.049,-0.049 0.128,-0.05 0.177,-0.002c0.049,0.049 0.05,0.128 0.002,0.177l-156.134,158.713c-0.049,0.049 -0.128,0.05 -0.177,0.002c-0.049,-0.049 -0.05,-0.128 -0.001,-0.177l156.133,-158.713Zm-5.411,-0.002c0.05,-0.048 0.129,-0.047 0.177,0.002c0.048,0.05 0.047,0.129 -0.002,0.177l-150.721,147.322c-0.049,0.048 -0.128,0.047 -0.177,-0.002c-0.048,-0.05 -0.047,-0.129 0.002,-0.177l150.721,-147.322Zm21.644,0.008c0.045,-0.052 0.124,-0.058 0.176,-0.013c0.052,0.045 0.058,0.124 0.013,0.176l-172.372,199.096c-0.045,0.052 -0.124,0.057 -0.176,0.012c-0.052,-0.045 -0.058,-0.124 -0.013,-0.176l172.372,-199.095Zm-5.411,-0.002c0.046,-0.051 0.125,-0.055 0.177,-0.009c0.051,0.046 0.055,0.125 0.008,0.176l-166.959,184.465c-0.046,0.051 -0.125,0.055 -0.176,0.009c-0.051,-0.046 -0.055,-0.125 -0.009,-0.177l166.959,-184.464Zm21.643,0.009c0.042,-0.056 0.12,-0.067 0.175,-0.026c0.056,0.042 0.067,0.12 0.026,0.175l-163.759,218.987c-0.041,0.055 -0.12,0.067 -0.175,0.025c-0.055,-0.041 -0.067,-0.119 -0.025,-0.175l163.758,-218.986Zm-5.41,-0.003c0.042,-0.054 0.121,-0.063 0.175,-0.021c0.054,0.043 0.064,0.122 0.021,0.176l-172.37,218.987c-0.043,0.054 -0.121,0.063 -0.176,0.02c-0.054,-0.042 -0.063,-0.121 -0.021,-0.175l172.371,-218.987Zm21.643,0.011c0.036,-0.058 0.114,-0.076 0.172,-0.039c0.058,0.037 0.076,0.114 0.039,0.172l-137.924,218.987c-0.036,0.058 -0.114,0.076 -0.172,0.039c-0.058,-0.037 -0.076,-0.114 -0.039,-0.172l137.924,-218.987Zm-5.411,-0.003c0.038,-0.057 0.116,-0.073 0.173,-0.034c0.058,0.038 0.073,0.116 0.035,0.173l-146.536,218.987c-0.038,0.057 -0.116,0.073 -0.173,0.034c-0.057,-0.038 -0.073,-0.116 -0.035,-0.173l146.536,-218.987Zm21.643,0.013c0.032,-0.062 0.107,-0.086 0.168,-0.055c0.062,0.032 0.086,0.107 0.055,0.169l-112.089,218.986c-0.032,0.062 -0.107,0.086 -0.169,0.055c-0.061,-0.032 -0.085,-0.107 -0.054,-0.169l112.089,-218.986Zm-5.411,-0.004c0.034,-0.06 0.11,-0.082 0.17,-0.049c0.06,0.033 0.083,0.109 0.049,0.17l-120.7,218.987c-0.034,0.06 -0.11,0.082 -0.17,0.049c-0.061,-0.034 -0.083,-0.11 -0.049,-0.17l120.7,-218.987Zm21.644,0.015c0.025,-0.064 0.098,-0.096 0.162,-0.071c0.064,0.026 0.096,0.098 0.071,0.162l-86.255,218.987c-0.025,0.064 -0.098,0.096 -0.162,0.071c-0.064,-0.026 -0.096,-0.098 -0.07,-0.163l86.254,-218.986Zm-5.411,-0.004c0.027,-0.063 0.101,-0.093 0.164,-0.065c0.064,0.027 0.093,0.101 0.065,0.164l-94.865,218.987c-0.028,0.063 -0.102,0.092 -0.165,0.065c-0.063,-0.027 -0.092,-0.101 -0.065,-0.164l94.866,-218.987Zm21.645,0.016c0.018,-0.066 0.087,-0.105 0.154,-0.087c0.066,0.018 0.105,0.087 0.087,0.154l-60.42,218.986c-0.018,0.067 -0.087,0.106 -0.153,0.088c-0.067,-0.019 -0.106,-0.087 -0.088,-0.154l60.42,-218.987Zm-5.411,-0.004c0.02,-0.066 0.091,-0.102 0.156,-0.082c0.066,0.021 0.103,0.091 0.082,0.157l-69.031,218.987c-0.021,0.066 -0.091,0.102 -0.157,0.081c-0.066,-0.02 -0.102,-0.091 -0.082,-0.156l69.032,-218.987Zm21.646,0.018c0.011,-0.068 0.075,-0.115 0.143,-0.104c0.068,0.011 0.115,0.075 0.104,0.143l-34.585,218.987c-0.011,0.068 -0.075,0.114 -0.143,0.104c-0.068,-0.011 -0.115,-0.075 -0.104,-0.143l34.585,-218.987Zm-5.412,-0.005c0.013,-0.067 0.079,-0.111 0.147,-0.098c0.068,0.013 0.112,0.079 0.098,0.147l-43.196,218.986c-0.013,0.068 -0.079,0.112 -0.147,0.099c-0.068,-0.013 -0.112,-0.079 -0.098,-0.147l43.196,-218.987Zm21.649,0.02c0.002,-0.069 0.06,-0.123 0.129,-0.12c0.069,0.002 0.123,0.061 0.12,0.13l-8.75,218.986c-0.003,0.069 -0.061,0.123 -0.13,0.12c-0.069,-0.003 -0.122,-0.061 -0.12,-0.13l8.751,-218.986Zm-5.413,-0.005c0.006,-0.069 0.066,-0.12 0.135,-0.115c0.068,0.005 0.12,0.066 0.114,0.134l-17.361,218.987c-0.006,0.069 -0.066,0.12 -0.135,0.115c-0.069,-0.006 -0.12,-0.066 -0.115,-0.135l17.362,-218.986Zm21.651,0.019c-0.006,-0.068 0.046,-0.129 0.115,-0.134c0.068,-0.005 0.129,0.046 0.134,0.115l17.085,218.987c0.005,0.068 -0.047,0.129 -0.115,0.134c-0.069,0.005 -0.129,-0.046 -0.135,-0.115l-17.084,-218.987Zm-5.413,-0.005c-0.003,-0.069 0.051,-0.127 0.12,-0.129c0.069,-0.003 0.127,0.051 0.13,0.12l8.473,218.986c0.002,0.069 -0.052,0.127 -0.121,0.13c-0.068,0.003 -0.127,-0.051 -0.129,-0.12l-8.473,-218.987Zm21.653,0.02c-0.014,-0.068 0.031,-0.134 0.098,-0.147c0.068,-0.013 0.134,0.031 0.147,0.099l42.919,218.986c0.014,0.068 -0.031,0.134 -0.098,0.147c-0.068,0.013 -0.134,-0.031 -0.147,-0.099l-42.919,-218.986Zm-5.414,-0.005c-0.01,-0.068 0.036,-0.132 0.104,-0.143c0.069,-0.011 0.133,0.036 0.143,0.104l34.308,218.987c0.011,0.068 -0.036,0.132 -0.104,0.143c-0.068,0.01 -0.132,-0.036 -0.143,-0.104l-34.308,-218.987Zm21.655,0.018c-0.021,-0.066 0.016,-0.136 0.082,-0.157c0.066,-0.02 0.136,0.016 0.157,0.082l68.754,218.987c0.02,0.066 -0.016,0.136 -0.082,0.157c-0.066,0.02 -0.136,-0.016 -0.157,-0.082l-68.754,-218.987Zm-5.414,-0.004c-0.018,-0.067 0.021,-0.136 0.088,-0.154c0.066,-0.018 0.135,0.021 0.153,0.087l60.143,218.987c0.018,0.067 -0.021,0.136 -0.088,0.154c-0.066,0.018 -0.135,-0.021 -0.153,-0.088l-60.143,-218.986Zm21.657,0.016c-0.028,-0.063 0.002,-0.137 0.065,-0.164c0.063,-0.028 0.137,0.002 0.164,0.065l94.589,218.987c0.027,0.063 -0.002,0.137 -0.065,0.164c-0.064,0.027 -0.137,-0.002 -0.165,-0.065l-94.588,-218.987Zm-5.415,-0.004c-0.025,-0.064 0.007,-0.137 0.071,-0.162c0.064,-0.025 0.137,0.007 0.162,0.071l85.977,218.987c0.025,0.064 -0.006,0.136 -0.071,0.162c-0.064,0.025 -0.136,-0.007 -0.162,-0.071l-85.977,-218.987Zm21.658,0.015c-0.033,-0.061 -0.011,-0.137 0.049,-0.17c0.061,-0.033 0.137,-0.011 0.17,0.049l120.423,218.987c0.034,0.06 0.011,0.137 -0.049,0.17c-0.06,0.033 -0.137,0.011 -0.17,-0.05l-120.423,-218.986Zm-5.415,-0.004c-0.031,-0.061 -0.007,-0.136 0.055,-0.168c0.061,-0.031 0.137,-0.007 0.168,0.055l111.812,218.986c0.031,0.062 0.007,0.137 -0.055,0.169c-0.061,0.031 -0.136,0.007 -0.168,-0.055l-111.812,-218.987Zm21.658,0.013c-0.038,-0.057 -0.022,-0.135 0.035,-0.173c0.057,-0.039 0.135,-0.023 0.173,0.034l146.258,218.987c0.039,0.057 0.023,0.135 -0.034,0.173c-0.057,0.039 -0.135,0.023 -0.173,-0.034l-146.259,-218.987Zm-5.414,-0.003c-0.037,-0.058 -0.019,-0.136 0.039,-0.172c0.059,-0.037 0.136,-0.019 0.173,0.039l137.646,218.987c0.037,0.058 0.019,0.135 -0.039,0.172c-0.059,0.037 -0.136,0.019 -0.173,-0.039l-137.646,-218.987Zm21.658,0.011c-0.042,-0.054 -0.033,-0.133 0.021,-0.176c0.054,-0.042 0.133,-0.033 0.176,0.021l172.092,218.987c0.043,0.054 0.034,0.133 -0.021,0.176c-0.054,0.042 -0.132,0.033 -0.175,-0.022l-172.093,-218.986Zm-5.414,-0.003c-0.042,-0.055 -0.03,-0.133 0.025,-0.175c0.055,-0.041 0.134,-0.029 0.175,0.026l163.481,218.986c0.041,0.056 0.03,0.134 -0.025,0.175c-0.056,0.042 -0.134,0.03 -0.175,-0.025l-163.481,-218.987Zm21.658,0.009c-0.047,-0.051 -0.043,-0.13 0.009,-0.176c0.051,-0.046 0.13,-0.042 0.176,0.009l167.357,185.163c0.046,0.051 0.042,0.131 -0.009,0.177c-0.051,0.046 -0.13,0.042 -0.176,-0.009l-167.357,-185.164Zm-5.415,-0.002c-0.045,-0.052 -0.039,-0.131 0.013,-0.176c0.052,-0.045 0.131,-0.039 0.176,0.013l172.77,199.847c0.045,0.052 0.039,0.131 -0.013,0.176c-0.052,0.045 -0.131,0.04 -0.176,-0.012l-172.77,-199.848Zm21.658,0.008c-0.049,-0.048 -0.05,-0.128 -0.002,-0.177c0.048,-0.049 0.128,-0.05 0.177,-0.002l151.119,147.894c0.049,0.048 0.05,0.128 0.002,0.177c-0.048,0.049 -0.128,0.05 -0.177,0.002l-151.119,-147.894Zm-5.414,-0.002c-0.049,-0.049 -0.048,-0.128 0.001,-0.177c0.049,-0.048 0.129,-0.047 0.177,0.002l156.532,159.323c0.048,0.049 0.047,0.128 -0.002,0.176c-0.049,0.049 -0.128,0.048 -0.177,-0.001l-156.531,-159.323Zm21.657,0.007c-0.052,-0.046 -0.057,-0.125 -0.012,-0.177c0.046,-0.052 0.125,-0.057 0.177,-0.011l134.881,118.339c0.052,0.045 0.057,0.125 0.011,0.176c-0.045,0.052 -0.124,0.057 -0.176,0.012l-134.881,-118.339Zm-5.414,-0.002c-0.051,-0.046 -0.055,-0.125 -0.009,-0.176c0.047,-0.052 0.126,-0.055 0.177,-0.009l140.293,127.487c0.052,0.046 0.055,0.125 0.009,0.176c-0.046,0.051 -0.126,0.055 -0.177,0.009l-140.293,-127.487Zm21.657,0.005c-0.054,-0.043 -0.063,-0.121 -0.02,-0.175c0.043,-0.054 0.121,-0.063 0.175,-0.02l118.643,94.329c0.054,0.043 0.063,0.122 0.02,0.176c-0.043,0.054 -0.121,0.063 -0.175,0.02l-118.643,-94.33Zm-5.415,-0.001c-0.053,-0.044 -0.061,-0.122 -0.017,-0.176c0.044,-0.053 0.123,-0.061 0.176,-0.017l124.056,101.816c0.053,0.044 0.061,0.123 0.017,0.176c-0.044,0.053 -0.123,0.061 -0.176,0.017l-124.056,-101.816Zm21.657,0.005c-0.056,-0.041 -0.068,-0.119 -0.028,-0.175c0.041,-0.056 0.119,-0.068 0.175,-0.028l102.405,74.437c0.056,0.041 0.068,0.119 0.028,0.175c-0.041,0.056 -0.119,0.068 -0.175,0.028l-102.405,-74.437Zm-5.414,-0.001c-0.055,-0.042 -0.067,-0.12 -0.025,-0.175c0.041,-0.056 0.119,-0.067 0.175,-0.026l107.817,80.678c0.056,0.041 0.067,0.12 0.026,0.175c-0.042,0.055 -0.12,0.066 -0.175,0.025l-107.818,-80.677Zm21.656,0.003c-0.057,-0.038 -0.073,-0.116 -0.034,-0.173c0.038,-0.057 0.116,-0.073 0.173,-0.034l86.167,57.687c0.057,0.038 0.073,0.116 0.034,0.173c-0.038,0.057 -0.116,0.073 -0.173,0.034l-86.167,-57.687Zm-5.414,-0c-0.057,-0.04 -0.071,-0.117 -0.032,-0.174c0.039,-0.057 0.117,-0.072 0.174,-0.032l91.579,62.968c0.057,0.039 0.072,0.117 0.032,0.174c-0.039,0.057 -0.117,0.071 -0.173,0.032l-91.58,-62.968Zm21.656,0.003c-0.059,-0.037 -0.077,-0.114 -0.041,-0.172c0.037,-0.059 0.114,-0.077 0.172,-0.041l69.929,43.389c0.059,0.037 0.077,0.114 0.041,0.172c-0.037,0.059 -0.114,0.077 -0.172,0.041l-69.929,-43.389Zm-5.414,-0.001c-0.059,-0.037 -0.076,-0.114 -0.039,-0.173c0.037,-0.058 0.115,-0.075 0.173,-0.038l75.342,47.917c0.058,0.037 0.075,0.114 0.038,0.172c-0.037,0.058 -0.114,0.076 -0.173,0.039l-75.341,-47.917Zm21.655,0.003c-0.06,-0.035 -0.08,-0.111 -0.046,-0.171c0.035,-0.06 0.111,-0.08 0.171,-0.046l53.691,31.042c0.06,0.034 0.08,0.111 0.046,0.171c-0.035,0.059 -0.111,0.08 -0.171,0.045l-53.691,-31.041Zm-5.414,-0.001c-0.059,-0.035 -0.079,-0.112 -0.044,-0.171c0.035,-0.059 0.112,-0.079 0.171,-0.044l59.104,34.966c0.059,0.035 0.079,0.112 0.044,0.171c-0.035,0.059 -0.112,0.079 -0.171,0.044l-59.104,-34.966Zm21.655,0.003c-0.061,-0.033 -0.083,-0.109 -0.05,-0.17c0.032,-0.061 0.108,-0.083 0.169,-0.05l37.453,20.271c0.061,0.032 0.083,0.108 0.05,0.169c-0.032,0.061 -0.108,0.083 -0.169,0.05l-37.453,-20.27Zm-5.414,-0.001c-0.06,-0.033 -0.082,-0.11 -0.049,-0.17c0.034,-0.06 0.11,-0.082 0.17,-0.049l42.866,23.705c0.06,0.034 0.082,0.11 0.049,0.17c-0.034,0.06 -0.11,0.082 -0.17,0.049l-42.866,-23.705Zm21.655,0.002c-0.062,-0.031 -0.086,-0.107 -0.055,-0.168c0.031,-0.062 0.107,-0.086 0.168,-0.055l21.215,10.793c0.062,0.032 0.086,0.107 0.055,0.168c-0.031,0.062 -0.107,0.086 -0.168,0.055l-21.215,-10.793Zm-5.414,-0c-0.061,-0.032 -0.085,-0.108 -0.053,-0.169c0.032,-0.061 0.107,-0.085 0.168,-0.053l26.628,13.823c0.061,0.032 0.085,0.107 0.053,0.169c-0.031,0.061 -0.107,0.085 -0.168,0.053l-26.628,-13.823Zm16.241,0.001c-0.062,-0.03 -0.088,-0.105 -0.058,-0.167c0.031,-0.062 0.106,-0.088 0.168,-0.058l10.389,5.083c0.062,0.03 0.088,0.105 0.058,0.167c-0.031,0.062 -0.106,0.088 -0.167,0.057l-10.39,-5.082Zm-119.105,-0.017c-0.052,-0.045 -0.059,-0.124 -0.014,-0.176c0.044,-0.053 0.123,-0.059 0.176,-0.015l129.468,109.802c0.053,0.045 0.059,0.124 0.015,0.177c-0.045,0.052 -0.124,0.059 -0.176,0.014l-129.469,-109.802Zm16.243,0.004c-0.055,-0.043 -0.065,-0.121 -0.023,-0.176c0.042,-0.054 0.121,-0.065 0.175,-0.022l113.231,87.296c0.054,0.042 0.065,0.121 0.022,0.175c-0.042,0.055 -0.12,0.065 -0.175,0.023l-113.23,-87.296Zm16.242,0.003c-0.056,-0.04 -0.07,-0.118 -0.03,-0.175c0.04,-0.056 0.118,-0.069 0.174,-0.03l96.993,68.544c0.056,0.04 0.069,0.118 0.03,0.174c-0.04,0.056 -0.118,0.07 -0.175,0.03l-96.992,-68.543Zm16.242,0.002c-0.058,-0.037 -0.074,-0.115 -0.037,-0.173c0.038,-0.057 0.116,-0.074 0.173,-0.036l80.755,52.676c0.058,0.038 0.074,0.115 0.036,0.173c-0.038,0.058 -0.115,0.074 -0.173,0.037l-80.754,-52.677Zm16.241,0.002c-0.059,-0.035 -0.078,-0.112 -0.042,-0.171c0.036,-0.059 0.113,-0.078 0.172,-0.042l64.516,39.077c0.059,0.035 0.078,0.112 0.042,0.171c-0.035,0.059 -0.112,0.078 -0.171,0.043l-64.517,-39.078Zm16.242,0.002c-0.06,-0.034 -0.082,-0.11 -0.048,-0.17c0.034,-0.06 0.111,-0.081 0.171,-0.047l48.278,27.291c0.06,0.034 0.081,0.111 0.047,0.171c-0.034,0.06 -0.11,0.081 -0.17,0.047l-48.278,-27.292Zm16.241,0.002c-0.061,-0.032 -0.085,-0.108 -0.052,-0.169c0.032,-0.061 0.108,-0.084 0.169,-0.052l32.04,16.98c0.061,0.032 0.084,0.108 0.052,0.169c-0.032,0.061 -0.108,0.084 -0.169,0.052l-32.04,-16.98Zm16.24,0.001c-0.061,-0.03 -0.087,-0.105 -0.056,-0.167c0.031,-0.062 0.106,-0.087 0.168,-0.056l15.802,7.881c0.062,0.031 0.087,0.106 0.056,0.168c-0.031,0.062 -0.106,0.087 -0.167,0.056l-15.803,-7.882Zm-552.092,-0.223c0.062,-0.031 0.137,-0.006 0.168,0.056c0.031,0.062 0.006,0.137 -0.056,0.167l-15.404,7.679c-0.062,0.031 -0.137,0.005 -0.168,-0.056c-0.031,-0.062 -0.006,-0.137 0.056,-0.168l15.404,-7.678Zm16.236,0.001c0.061,-0.032 0.136,-0.009 0.169,0.052c0.032,0.061 0.009,0.137 -0.052,0.169l-31.643,16.758c-0.061,0.032 -0.136,0.009 -0.169,-0.052c-0.032,-0.061 -0.009,-0.137 0.052,-0.169l31.643,-16.758Zm16.235,0.002c0.06,-0.034 0.136,-0.013 0.17,0.047c0.034,0.06 0.013,0.136 -0.047,0.17l-47.881,27.048c-0.06,0.034 -0.136,0.012 -0.17,-0.048c-0.034,-0.06 -0.013,-0.136 0.047,-0.17l47.881,-27.047Zm16.234,0.002c0.059,-0.036 0.136,-0.017 0.172,0.042c0.036,0.059 0.017,0.136 -0.042,0.172l-64.119,38.806c-0.059,0.035 -0.135,0.017 -0.171,-0.042c-0.036,-0.059 -0.017,-0.136 0.042,-0.172l64.118,-38.806Zm16.235,0.002c0.058,-0.038 0.135,-0.021 0.173,0.036c0.037,0.058 0.021,0.136 -0.037,0.173l-80.356,52.374c-0.058,0.037 -0.135,0.021 -0.173,-0.037c-0.038,-0.057 -0.021,-0.135 0.036,-0.173l80.357,-52.373Zm16.234,0.002c0.056,-0.039 0.134,-0.026 0.174,0.03c0.04,0.057 0.027,0.135 -0.03,0.175l-96.594,68.201c-0.057,0.039 -0.135,0.026 -0.174,-0.03c-0.04,-0.057 -0.027,-0.135 0.03,-0.175l96.594,-68.201Zm16.234,0.004c0.054,-0.043 0.133,-0.032 0.175,0.022c0.042,0.055 0.032,0.134 -0.023,0.176l-112.832,86.904c-0.055,0.042 -0.133,0.032 -0.175,-0.023c-0.042,-0.054 -0.032,-0.133 0.022,-0.175l112.833,-86.904Zm16.233,0.003c0.053,-0.044 0.132,-0.038 0.176,0.015c0.045,0.052 0.039,0.131 -0.014,0.176l-129.07,109.347c-0.053,0.045 -0.132,0.038 -0.177,-0.014c-0.044,-0.053 -0.038,-0.132 0.015,-0.177l129.07,-109.347Zm16.233,0.005c0.051,-0.048 0.13,-0.045 0.177,0.005c0.047,0.05 0.045,0.129 -0.005,0.177l-145.309,136.773c-0.05,0.048 -0.129,0.045 -0.176,-0.005c-0.048,-0.05 -0.045,-0.129 0.005,-0.177l145.308,-136.773Zm16.233,0.005c0.048,-0.05 0.127,-0.053 0.177,-0.005c0.05,0.047 0.052,0.126 0.005,0.176l-161.546,171.053c-0.048,0.05 -0.127,0.052 -0.177,0.005c-0.05,-0.047 -0.052,-0.126 -0.005,-0.177l161.546,-171.052Zm16.233,0.006c0.044,-0.053 0.123,-0.061 0.176,-0.017c0.053,0.044 0.06,0.123 0.016,0.176l-177.784,215.118c-0.044,0.053 -0.123,0.061 -0.176,0.017c-0.053,-0.044 -0.061,-0.123 -0.017,-0.176l177.785,-215.118Zm16.232,0.007c0.04,-0.056 0.118,-0.069 0.174,-0.029c0.057,0.039 0.07,0.118 0.03,0.174l-155.147,218.987c-0.04,0.056 -0.118,0.069 -0.174,0.029c-0.056,-0.04 -0.07,-0.118 -0.03,-0.174l155.147,-218.987Zm16.232,0.009c0.036,-0.059 0.112,-0.079 0.172,-0.044c0.059,0.035 0.079,0.112 0.044,0.171l-129.313,218.987c-0.035,0.059 -0.111,0.079 -0.171,0.044c-0.059,-0.035 -0.079,-0.112 -0.044,-0.171l129.312,-218.987Zm16.233,0.01c0.03,-0.062 0.104,-0.089 0.166,-0.059c0.063,0.029 0.09,0.104 0.06,0.166l-103.477,218.987c-0.03,0.062 -0.104,0.089 -0.167,0.059c-0.062,-0.029 -0.089,-0.104 -0.059,-0.166l103.477,-218.987Zm16.233,0.012c0.023,-0.065 0.095,-0.099 0.16,-0.076c0.065,0.023 0.099,0.094 0.076,0.159l-77.643,218.987c-0.023,0.065 -0.094,0.099 -0.159,0.076c-0.066,-0.023 -0.1,-0.094 -0.077,-0.16l77.643,-218.986Zm16.234,0.013c0.016,-0.067 0.084,-0.109 0.151,-0.093c0.067,0.016 0.109,0.083 0.093,0.15l-51.808,218.987c-0.016,0.067 -0.084,0.109 -0.151,0.093c-0.067,-0.016 -0.109,-0.083 -0.093,-0.151l51.808,-218.986Zm16.236,0.014c0.008,-0.069 0.07,-0.118 0.139,-0.11c0.068,0.009 0.117,0.071 0.109,0.139l-25.973,218.987c-0.008,0.068 -0.071,0.118 -0.139,0.109c-0.069,-0.008 -0.118,-0.07 -0.109,-0.138l25.973,-218.987Zm16.237,0.014c0,-0.068 0.056,-0.124 0.125,-0.124c0.069,-0 0.125,0.056 0.125,0.125l-0.139,218.986c0,0.069 -0.056,0.125 -0.125,0.125c-0.069,0 -0.125,-0.056 -0.125,-0.125l0.139,-218.987Zm16.239,0.015c-0.008,-0.068 0.041,-0.131 0.11,-0.139c0.068,-0.008 0.13,0.041 0.138,0.11l25.696,218.987c0.008,0.068 -0.041,0.13 -0.109,0.138c-0.069,0.008 -0.131,-0.041 -0.139,-0.109l-25.696,-218.987Zm16.24,0.014c-0.015,-0.067 0.026,-0.134 0.093,-0.15c0.068,-0.016 0.135,0.026 0.151,0.093l51.531,218.987c0.015,0.067 -0.026,0.134 -0.094,0.15c-0.067,0.016 -0.134,-0.026 -0.15,-0.093l-51.531,-218.987Zm16.242,0.013c-0.023,-0.065 0.011,-0.136 0.076,-0.159c0.065,-0.023 0.137,0.011 0.16,0.076l77.365,218.987c0.023,0.065 -0.011,0.136 -0.076,0.159c-0.065,0.023 -0.136,-0.011 -0.159,-0.076l-77.366,-218.987Zm16.243,0.012c-0.029,-0.063 -0.003,-0.137 0.06,-0.166c0.062,-0.03 0.137,-0.003 0.166,0.059l103.2,218.987c0.03,0.062 0.003,0.137 -0.059,0.166c-0.063,0.03 -0.137,0.003 -0.167,-0.059l-103.2,-218.987Zm16.243,0.01c-0.035,-0.059 -0.015,-0.136 0.045,-0.171c0.059,-0.035 0.136,-0.015 0.171,0.044l129.035,218.987c0.035,0.059 0.015,0.136 -0.045,0.171c-0.059,0.035 -0.136,0.015 -0.171,-0.044l-129.035,-218.987Zm16.244,0.009c-0.04,-0.057 -0.026,-0.135 0.03,-0.174c0.056,-0.04 0.134,-0.027 0.174,0.029l154.87,218.987c0.04,0.056 0.026,0.134 -0.03,0.174c-0.056,0.04 -0.135,0.027 -0.174,-0.03l-154.87,-218.986Zm16.244,0.007c-0.044,-0.053 -0.037,-0.132 0.017,-0.176c0.053,-0.044 0.132,-0.036 0.176,0.017l178.182,215.93c0.044,0.054 0.036,0.132 -0.017,0.176c-0.053,0.044 -0.132,0.037 -0.176,-0.016l-178.182,-215.931Zm16.243,0.006c-0.047,-0.05 -0.045,-0.129 0.005,-0.176c0.051,-0.048 0.13,-0.045 0.177,0.005l161.944,171.704c0.048,0.05 0.045,0.13 -0.005,0.177c-0.05,0.047 -0.129,0.045 -0.177,-0.005l-161.944,-171.705Zm16.243,0.006c-0.05,-0.048 -0.052,-0.127 -0.005,-0.177c0.047,-0.05 0.127,-0.053 0.177,-0.005l145.706,137.312c0.05,0.047 0.053,0.126 0.005,0.176c-0.047,0.051 -0.126,0.053 -0.176,0.006l-145.707,-137.312Zm142.917,2.603c0.069,-0 0.125,0.056 0.125,0.125c-0,0.069 -0.056,0.125 -0.125,0.125l-577.771,0c-0.069,-0 -0.125,-0.056 -0.125,-0.125c-0,-0.069 0.056,-0.125 0.125,-0.125l577.771,-0Zm-0,6.021c0.069,-0 0.125,0.056 0.125,0.125c-0,0.069 -0.056,0.125 -0.125,0.125l-577.771,-0c-0.069,-0 -0.125,-0.056 -0.125,-0.125c-0,-0.069 0.056,-0.125 0.125,-0.125l577.771,-0Zm-0,6.021c0.069,-0 0.125,0.056 0.125,0.125c-0,0.069 -0.056,0.125 -0.125,0.125l-577.771,-0c-0.069,-0 -0.125,-0.056 -0.125,-0.125c-0,-0.069 0.056,-0.125 0.125,-0.125l577.771,-0Zm-0,6.021c0.069,-0 0.125,0.056 0.125,0.125c-0,0.069 -0.056,0.125 -0.125,0.125l-577.771,-0c-0.069,-0 -0.125,-0.056 -0.125,-0.125c-0,-0.069 0.056,-0.125 0.125,-0.125l577.771,-0Zm-0,6.021c0.069,-0 0.125,0.056 0.125,0.125c-0,0.069 -0.056,0.125 -0.125,0.125l-577.771,-0c-0.069,-0 -0.125,-0.056 -0.125,-0.125c-0,-0.069 0.056,-0.125 0.125,-0.125l577.771,-0Zm-0,6.021c0.069,-0 0.125,0.056 0.125,0.125c-0,0.069 -0.056,0.125 -0.125,0.125l-577.771,-0c-0.069,-0 -0.125,-0.056 -0.125,-0.125c-0,-0.069 0.056,-0.125 0.125,-0.125l577.771,-0Zm-0,6.021c0.069,-0 0.125,0.056 0.125,0.125c-0,0.069 -0.056,0.125 -0.125,0.125l-577.771,-0c-0.069,-0 -0.125,-0.056 -0.125,-0.125c-0,-0.069 0.056,-0.125 0.125,-0.125l577.771,-0Zm-0,6.021c0.069,-0 0.125,0.056 0.125,0.125c-0,0.069 -0.056,0.125 -0.125,0.125l-577.771,-0c-0.069,-0 -0.125,-0.056 -0.125,-0.125c-0,-0.069 0.056,-0.125 0.125,-0.125l577.771,-0Zm-0,6.021c0.069,-0 0.125,0.056 0.125,0.125c-0,0.069 -0.056,0.125 -0.125,0.125l-577.771,-0c-0.069,-0 -0.125,-0.056 -0.125,-0.125c-0,-0.069 0.056,-0.125 0.125,-0.125l577.771,-0Zm-0,6.021c0.069,-0 0.125,0.056 0.125,0.125c-0,0.068 -0.056,0.125 -0.125,0.125l-577.771,-0c-0.069,-0 -0.125,-0.057 -0.125,-0.125c-0,-0.069 0.056,-0.125 0.125,-0.125l577.771,-0Zm-0,6.02c0.069,0 0.125,0.056 0.125,0.125c-0,0.069 -0.056,0.125 -0.125,0.125l-577.771,0c-0.069,0 -0.125,-0.056 -0.125,-0.125c-0,-0.069 0.056,-0.125 0.125,-0.125l577.771,0Zm-0,6.021c0.069,0 0.125,0.056 0.125,0.125c-0,0.069 -0.056,0.125 -0.125,0.125l-577.771,0c-0.069,0 -0.125,-0.056 -0.125,-0.125c-0,-0.069 0.056,-0.125 0.125,-0.125l577.771,0Zm-0,6.021c0.069,0 0.125,0.056 0.125,0.125c-0,0.069 -0.056,0.125 -0.125,0.125l-577.771,0c-0.069,0 -0.125,-0.056 -0.125,-0.125c-0,-0.069 0.056,-0.125 0.125,-0.125l577.771,0Zm-0,6.021c0.069,0 0.125,0.056 0.125,0.125c-0,0.069 -0.056,0.125 -0.125,0.125l-577.771,0c-0.069,0 -0.125,-0.056 -0.125,-0.125c-0,-0.069 0.056,-0.125 0.125,-0.125l577.771,0Zm-0,6.021c0.069,0 0.125,0.056 0.125,0.125c-0,0.069 -0.056,0.125 -0.125,0.125l-577.771,0c-0.069,0 -0.125,-0.056 -0.125,-0.125c-0,-0.069 0.056,-0.125 0.125,-0.125l577.771,0Zm-0,6.021c0.069,0 0.125,0.056 0.125,0.125c-0,0.069 -0.056,0.125 -0.125,0.125l-577.771,0c-0.069,0 -0.125,-0.056 -0.125,-0.125c-0,-0.069 0.056,-0.125 0.125,-0.125l577.771,0Zm-0,6.021c0.069,0 0.125,0.056 0.125,0.125c-0,0.069 -0.056,0.125 -0.125,0.125l-577.771,0c-0.069,0 -0.125,-0.056 -0.125,-0.125c-0,-0.069 0.056,-0.125 0.125,-0.125l577.771,0Zm-0,6.021c0.069,0 0.125,0.056 0.125,0.125c-0,0.069 -0.056,0.125 -0.125,0.125l-577.771,0c-0.069,0 -0.125,-0.056 -0.125,-0.125c-0,-0.069 0.056,-0.125 0.125,-0.125l577.771,0Zm-0,6.021c0.069,0 0.125,0.056 0.125,0.125c-0,0.069 -0.056,0.125 -0.125,0.125l-577.771,0c-0.069,0 -0.125,-0.056 -0.125,-0.125c-0,-0.069 0.056,-0.125 0.125,-0.125l577.771,0Zm-0,6.021c0.069,-0 0.125,0.056 0.125,0.125c-0,0.069 -0.056,0.125 -0.125,0.125l-577.771,-0c-0.069,-0 -0.125,-0.056 -0.125,-0.125c-0,-0.069 0.056,-0.125 0.125,-0.125l577.771,-0Zm-0,6.021c0.069,-0 0.125,0.056 0.125,0.125c-0,0.069 -0.056,0.125 -0.125,0.125l-577.771,-0c-0.069,-0 -0.125,-0.056 -0.125,-0.125c-0,-0.069 0.056,-0.125 0.125,-0.125l577.771,-0Zm-0,6.021c0.069,-0 0.125,0.056 0.125,0.125c-0,0.069 -0.056,0.125 -0.125,0.125l-577.771,-0c-0.069,-0 -0.125,-0.056 -0.125,-0.125c-0,-0.069 0.056,-0.125 0.125,-0.125l577.771,-0Zm-0,6.021c0.069,-0 0.125,0.056 0.125,0.125c-0,0.069 -0.056,0.125 -0.125,0.125l-577.771,-0c-0.069,-0 -0.125,-0.056 -0.125,-0.125c-0,-0.069 0.056,-0.125 0.125,-0.125l577.771,-0Zm-0,6.021c0.069,-0 0.125,0.056 0.125,0.125c-0,0.069 -0.056,0.125 -0.125,0.125l-577.771,-0c-0.069,-0 -0.125,-0.056 -0.125,-0.125c-0,-0.069 0.056,-0.125 0.125,-0.125l577.771,-0Zm-0,6.021c0.069,-0 0.125,0.056 0.125,0.125c-0,0.069 -0.056,0.125 -0.125,0.125l-577.771,-0c-0.069,-0 -0.125,-0.056 -0.125,-0.125c-0,-0.069 0.056,-0.125 0.125,-0.125l577.771,-0Zm-0,6.021c0.069,-0 0.125,0.056 0.125,0.125c-0,0.069 -0.056,0.125 -0.125,0.125l-577.771,-0c-0.069,-0 -0.125,-0.056 -0.125,-0.125c-0,-0.069 0.056,-0.125 0.125,-0.125l577.771,-0Zm-0,6.021c0.069,-0 0.125,0.056 0.125,0.125c-0,0.069 -0.056,0.125 -0.125,0.125l-577.771,-0c-0.069,-0 -0.125,-0.056 -0.125,-0.125c-0,-0.069 0.056,-0.125 0.125,-0.125l577.771,-0Zm-0,6.021c0.069,-0 0.125,0.056 0.125,0.125c-0,0.068 -0.056,0.125 -0.125,0.125l-577.771,-0c-0.069,-0 -0.125,-0.057 -0.125,-0.125c-0,-0.069 0.056,-0.125 0.125,-0.125l577.771,-0Zm-0,6.02c0.069,0 0.125,0.056 0.125,0.125c-0,0.069 -0.056,0.125 -0.125,0.125l-577.771,0c-0.069,0 -0.125,-0.056 -0.125,-0.125c-0,-0.069 0.056,-0.125 0.125,-0.125l577.771,0Zm-0,6.021c0.069,0 0.125,0.056 0.125,0.125c-0,0.069 -0.056,0.125 -0.125,0.125l-577.771,0c-0.069,0 -0.125,-0.056 -0.125,-0.125c-0,-0.069 0.056,-0.125 0.125,-0.125l577.771,0Zm-0,6.021c0.069,0 0.125,0.056 0.125,0.125c-0,0.069 -0.056,0.125 -0.125,0.125l-577.771,0c-0.069,0 -0.125,-0.056 -0.125,-0.125c-0,-0.069 0.056,-0.125 0.125,-0.125l577.771,0Zm-0,6.021c0.069,0 0.125,0.056 0.125,0.125c-0,0.069 -0.056,0.125 -0.125,0.125l-577.771,0c-0.069,0 -0.125,-0.056 -0.125,-0.125c-0,-0.069 0.056,-0.125 0.125,-0.125l577.771,0Zm-0,6.021c0.069,0 0.125,0.056 0.125,0.125c-0,0.069 -0.056,0.125 -0.125,0.125l-577.771,0c-0.069,0 -0.125,-0.056 -0.125,-0.125c-0,-0.069 0.056,-0.125 0.125,-0.125l577.771,0Zm-0,6.021c0.069,0 0.125,0.056 0.125,0.125c-0,0.069 -0.056,0.125 -0.125,0.125l-577.771,0c-0.069,0 -0.125,-0.056 -0.125,-0.125c-0,-0.069 0.056,-0.125 0.125,-0.125l577.771,0Zm-0,6.021c0.069,0 0.125,0.056 0.125,0.125c-0,0.069 -0.056,0.125 -0.125,0.125l-577.771,0c-0.069,0 -0.125,-0.056 -0.125,-0.125c-0,-0.069 0.056,-0.125 0.125,-0.125l577.771,0Zm-0,6.021c0.069,0 0.125,0.056 0.125,0.125c-0,0.069 -0.056,0.125 -0.125,0.125l-577.771,0c-0.069,0 -0.125,-0.056 -0.125,-0.125c-0,-0.069 0.056,-0.125 0.125,-0.125l577.771,0Zm-0,6.021c0.069,0 0.125,0.056 0.125,0.125c-0,0.069 -0.056,0.125 -0.125,0.125l-577.771,0c-0.069,0 -0.125,-0.056 -0.125,-0.125c-0,-0.069 0.056,-0.125 0.125,-0.125l577.771,0Zm-575.898,-219.561c0.062,-0.03 0.137,-0.004 0.166,0.059c0.03,0.062 0.004,0.136 -0.058,0.166l-4.579,2.197c-0.062,0.029 -0.137,0.003 -0.167,-0.059c-0.03,-0.062 -0.004,-0.137 0.059,-0.167l4.579,-2.196Zm573.742,0.225c-0.062,-0.03 -0.088,-0.104 -0.058,-0.167c0.03,-0.062 0.104,-0.088 0.167,-0.058l4.977,2.389c0.062,0.029 0.088,0.104 0.058,0.166c-0.03,0.063 -0.104,0.089 -0.167,0.059l-4.977,-2.389Zm-578.32,-0.618c0.062,-0.029 0.136,-0.003 0.166,0.06c0.029,0.062 0.002,0.137 -0.06,0.166l-0.834,0.393c-0.062,0.029 -0.137,0.002 -0.166,-0.06c-0.029,-0.063 -0.003,-0.137 0.06,-0.167l0.834,-0.392Z"/></clipPath><g clip-path="url(#_clip2)"><rect x="0" y="0" width="578.011" height="216.754" style="fill:url(#_Radial3);stroke:#000;stroke-width:0.25px;"/></g></g><defs><radialGradient id="_Radial3" cx="0" cy="0" r="1" gradientUnits="userSpaceOnUse" gradientTransform="matrix(1.43067e-14,-233.646,428.933,0,289.005,249.834)"><stop offset="0" style="stop-color:#0df2c9;stop-opacity:1"/><stop offset="0.54" style="stop-color:#0df2c9;stop-opacity:0.29"/><stop offset="1" style="stop-color:#0df2c9;stop-opacity:0"/></radialGradient></defs></svg>