<svg enable-background="new 0 0 200 100" height="100" viewBox="0 0 200 100" width="200" xmlns="http://www.w3.org/2000/svg"><path d="m9.206 91.433c-2.684 0-4.859-2.177-4.859-4.861v-73.141c0-2.685 2.176-4.861 4.859-4.861s4.86 2.177 4.86 4.861v73.141c0 2.684-2.176 4.861-4.86 4.861" fill="#cedc21"/><path d="m9.209 91.433c-1.818 0-3.561-1.025-4.394-2.777-1.151-2.424-.118-5.322 2.308-6.476l29.307-13.906-30.107-22.181c-2.16-1.593-2.621-4.635-1.029-6.796s4.636-2.622 6.795-1.03l36.647 26.999c1.377 1.016 2.12 2.678 1.956 4.381-.164 1.7-1.209 3.19-2.755 3.925l-36.648 17.392c-.671.317-1.382.469-2.08.469" fill="#51b13e"/><path d="m9.211 62.684c-1.493 0-2.965-.685-3.917-1.979-1.592-2.159-1.131-5.204 1.03-6.795l30.106-22.18-29.307-13.909c-2.426-1.151-3.459-4.05-2.309-6.475 1.152-2.426 4.051-3.459 6.475-2.309l36.648 17.394c1.546.733 2.591 2.225 2.755 3.926.164 1.702-.579 3.364-1.956 4.379l-36.647 27c-.869.639-1.878.948-2.878.948" fill="#cedc21"/><path d="m14.066 39.725v20.553l13.944-10.272z" fill="#1e7a44"/><path d="m4.347 31.106h9.72v23.692h-9.72z" fill="#fff"/><path d="m14.066 13.431c0-2.685-2.177-4.861-4.86-4.861s-4.859 2.177-4.859 4.861v61.165h9.72v-61.165z" fill="#cedc21"/><g fill="#fff"><path d="m78.355 49.412c3.114.884 4.84 3.704 4.84 7.238 0 5.513-3.368 8.082-7.955 8.082h-10.479v-29.461h9.259c4.504 0 7.997 2.146 7.997 7.743 0 2.821-1.179 5.43-3.662 6.398m-4.293-.716c3.324 0 6.018-1.179 6.018-5.724 0-4.586-2.776-5.808-6.145-5.808h-7.197v11.531h7.324zm1.052 14.099c3.366 0 6.06-1.768 6.06-6.145 0-4.713-3.072-6.144-6.901-6.144h-7.534v12.288h8.375z"/><path d="m102.893 35.271v1.81h-8.122v27.651h-1.979v-27.651h-8.123v-1.81z"/><path d="m116.738 34.85c5.01 0 9.554 2.524 10.987 8.543h-1.895c-1.348-4.923-5.303-6.732-9.134-6.732-6.944 0-10.605 5.681-10.605 13.341 0 8.08 3.661 13.256 10.646 13.256 4.125 0 7.828-1.85 9.26-7.279h1.895c-1.264 6.271-6.229 9.174-11.154 9.174-7.87 0-12.583-5.808-12.583-15.15 0-8.966 4.969-15.153 12.583-15.153"/><path d="m142.709 35.271c5.091 0 8.795 3.326 8.795 9.764 0 6.06-3.704 9.722-8.795 9.722h-7.746v9.976h-1.935v-29.462zm0 17.549c3.745 0 6.816-2.397 6.816-7.827 0-5.429-2.947-7.869-6.816-7.869h-7.746v15.696z"/><path d="m151.841 64.732v-.255l11.741-29.29h.885l11.615 29.29v.255h-2.062l-3.322-8.501h-13.428l-3.324 8.501zm12.164-26.052-6.059 15.697h12.078z"/><path d="m193.551 35.271h2.104v.293l-9.176 16.92v12.248h-2.02v-12.248l-9.216-16.961v-.252h2.147l3.997 7.492 4.043 7.786h.04l4.081-7.786z"/></g></svg>