<svg clip-rule="evenodd" fill-rule="evenodd" stroke-linejoin="round" stroke-miterlimit="2" viewBox="0 0 1454 523" xmlns="http://www.w3.org/2000/svg"><g transform="matrix(.967046 0 0 .347875 0 -612.89)"><path d="m0 1761.78h1502.62v1502.62h-1502.62z" fill="none"></path><path d="m374.893 4685.46c0-12.63-5.016-24.74-13.945-33.67s-21.039-13.94-33.666-13.94h-210.624c-12.627 0-24.737 5.01-33.666 13.94s-13.945 21.04-13.945 33.67v210.62c0 12.63 5.016 24.74 13.945 33.67s21.039 13.94 33.666 13.94h210.624c12.627 0 24.737-5.01 33.666-13.94s13.945-21.04 13.945-33.67z" fill="#0ad2d2" transform="matrix(.59493013131 -1.65382427802 .59493013131 1.65382427802 -2767.39085006 -4910.0759349)"></path><g fill="#0064ff"><path d="m374.893 4685.46c0-12.63-5.016-24.74-13.945-33.67s-21.039-13.94-33.666-13.94h-210.624c-12.627 0-24.737 5.01-33.666 13.94s-13.945 21.04-13.945 33.67v210.62c0 12.63 5.016 24.74 13.945 33.67s21.039 13.94 33.666 13.94h210.624c12.627 0 24.737-5.01 33.666-13.94s13.945-21.04 13.945-33.67z" transform="matrix(.59493013131 -1.65382427802 .59493013131 1.65382427802 -2767.39085006 -5185.38548436)"></path><path d="m.245-.57v.185h.324v.13h-.324v.255h-.162v-.7h.529v.13z" fill-rule="nonzero" transform="matrix(338.29830266 0 0 940.41899178 432.6202642 2970.8608792)"></path><path d="m.072-.742h.156v.742h-.156z" fill-rule="nonzero" transform="matrix(338.29830266 0 0 940.41899178 648.79311466 2970.8608792)"></path><path d="m.289-.546c.083 0 .147.02.192.059.045.04.067.1.067.18v.307h-.146v-.067c-.029.05-.084.075-.164.075-.041 0-.077-.007-.107-.021-.031-.014-.054-.033-.07-.058s-.024-.053-.024-.084c0-.05.019-.089.057-.118.037-.029.095-.043.174-.043h.124c0-.034-.01-.06-.031-.079-.021-.018-.052-.027-.093-.027-.029 0-.057.004-.084.013-.028.009-.052.022-.071.037l-.056-.109c.029-.021.065-.037.106-.048s.083-.017.126-.017zm-.012.449c.027 0 .05-.006.071-.019.021-.012.035-.03.044-.054v-.055h-.107c-.064 0-.096.021-.096.063 0 .02.008.036.024.047.015.012.037.018.064.018z" fill-rule="nonzero" transform="matrix(338.29830266 0 0 940.41899178 750.62185459 2970.8608792)"></path><path d="m.419-.026c-.015.011-.034.02-.056.025-.023.006-.046.009-.071.009-.064 0-.113-.016-.148-.049s-.053-.081-.053-.144v-.221h-.083v-.12h.083v-.131h.156v.131h.134v.12h-.134v.219c0 .023.006.04.018.052.011.013.028.019.049.019.025 0 .046-.007.063-.02z" fill-rule="nonzero" transform="matrix(338.29830266 0 0 940.41899178 959.3564243 2970.8608792)"></path><path d="m.309-.7v.7h-.162v-.57h-.14v-.13z" fill-rule="nonzero" transform="matrix(338.29830266 0 0 940.41899178 1101.440822 2970.8608792)"></path><path d="m.518-.368c.035.017.061.04.08.068.018.028.027.06.027.097 0 .043-.012.081-.037.113-.025.033-.059.058-.104.075-.045.018-.096.027-.155.027s-.11-.009-.154-.027c-.045-.017-.079-.042-.103-.075-.025-.032-.037-.07-.037-.113 0-.037.009-.069.028-.097.018-.028.044-.051.078-.068-.026-.016-.046-.036-.06-.061-.014-.024-.021-.052-.021-.083 0-.041.011-.076.034-.106s.054-.053.095-.07c.041-.016.087-.024.14-.024s.101.008.142.024c.04.017.072.04.095.07s.034.065.034.106c0 .031-.007.059-.021.083-.014.025-.034.045-.061.061zm-.189-.225c-.033 0-.059.008-.078.023-.02.016-.03.038-.03.065s.01.048.029.063.046.023.079.023.06-.008.08-.023.03-.036.03-.063-.01-.049-.03-.065c-.02-.015-.047-.023-.08-.023zm0 .486c.041 0 .073-.009.097-.028.023-.018.035-.042.035-.073s-.012-.055-.035-.073c-.024-.018-.056-.027-.097-.027-.04 0-.072.009-.095.027s-.035.042-.035.073.012.056.035.074.055.027.095.027z" fill-rule="nonzero" transform="matrix(338.29830266 0 0 940.41899178 1234.0486912 2970.8608792)"></path></g></g></svg>