<?xml version="1.0" encoding="UTF-8" standalone="no"?>
<!DOCTYPE svg PUBLIC "-//W3C//DTD SVG 1.1//EN" "http://www.w3.org/Graphics/SVG/1.1/DTD/svg11.dtd">
<svg width="100%" height="100%" viewBox="0 0 271 238" version="1.1" xmlns="http://www.w3.org/2000/svg" xmlns:xlink="http://www.w3.org/1999/xlink" xml:space="preserve" xmlns:serif="http://www.serif.com/" style="fill-rule:evenodd;clip-rule:evenodd;stroke-linecap:round;stroke-miterlimit:10;">
    <g transform="matrix(1,0,0,1,-2283.45,-3600.54)">
        <g id="Artboard9" transform="matrix(1,0,0,1,926.667,292.213)">
            <rect x="1356.79" y="3308.33" width="270.018" height="237.83" style="fill:none;"/>
            <g transform="matrix(0.99982,-0.615745,0.615745,0.99982,1233.06,3369)">
                <g>
                    <g transform="matrix(1.23514,0.332205,-0.332205,1.23514,-540.573,-4568.65)">
                        <circle cx="1489.71" cy="3426.91" r="67.203" style="fill:none;"/>
                        <clipPath id="_clip1">
                            <circle cx="1489.71" cy="3426.91" r="67.203"/>
                        </clipPath>
                        <g clip-path="url(#_clip1)">
                            <g transform="matrix(0.204867,-0.97879,0.97879,0.204867,-2169.71,4182.96)">
                                <path d="M1520.29,3436.95C1520.29,3436.95 1511.09,3441.3 1500.77,3439.78C1490.45,3438.25 1488.09,3373.11 1488.09,3373.11L1510.89,3367.98L1537.23,3442.14L1522.32,3461.09L1491.01,3502.63L1442.4,3494.13L1420.12,3465.94L1436.36,3447.35L1488.09,3477.12L1496.96,3458.49C1501.11,3459.73 1517.88,3457.36 1518.78,3455.29C1519.82,3452.92 1520.29,3436.95 1520.29,3436.95Z" style="fill:none;"/>
                                <clipPath id="_clip2">
                                    <path d="M1520.29,3436.95C1520.29,3436.95 1511.09,3441.3 1500.77,3439.78C1490.45,3438.25 1488.09,3373.11 1488.09,3373.11L1510.89,3367.98L1537.23,3442.14L1522.32,3461.09L1491.01,3502.63L1442.4,3494.13L1420.12,3465.94L1436.36,3447.35L1488.09,3477.12L1496.96,3458.49C1501.11,3459.73 1517.88,3457.36 1518.78,3455.29C1519.82,3452.92 1520.29,3436.95 1520.29,3436.95Z"/>
                                </clipPath>
                                <g clip-path="url(#_clip2)">
                                    <g transform="matrix(0.293066,1.40018,-1.40018,0.293066,5861.39,340.393)">
                                        <g transform="matrix(0.446118,0.132765,-0.132765,0.446118,1441.51,3361.54)">
                                            <path d="M64.259,98.317C60.08,102.604 60.169,109.477 64.456,113.656C68.743,117.834 75.616,117.746 79.794,113.459C83.973,109.171 83.884,102.299 79.597,98.12C75.31,93.942 68.437,94.03 64.259,98.317Z" style="fill:none;stroke:rgb(247,147,26);stroke-width:10.85px;"/>
                                            <path d="M79.597,98.12C130.132,70.795 255.716,85.218 229.514,156.116" style="fill:none;stroke:rgb(247,147,26);stroke-width:10.85px;stroke-linejoin:round;stroke-miterlimit:1.5;"/>
                                        </g>
                                    </g>
                                </g>
                            </g>
                        </g>
                        <circle cx="1489.71" cy="3426.91" r="67.203" style="fill:none;stroke:rgb(247,147,26);stroke-width:7.22px;stroke-linejoin:round;stroke-miterlimit:1.5;"/>
                    </g>
                    <g transform="matrix(0.332205,-1.23514,1.23514,0.332205,-4566.62,860.509)">
                        <circle cx="1489.71" cy="3426.91" r="67.203" style="fill:none;"/>
                        <clipPath id="_clip3">
                            <circle cx="1489.71" cy="3426.91" r="67.203"/>
                        </clipPath>
                        <g clip-path="url(#_clip3)">
                            <g transform="matrix(0.204867,-0.97879,0.97879,0.204867,-2169.71,4182.96)">
                                <path d="M1520.29,3436.95C1520.29,3436.95 1511.09,3441.3 1500.77,3439.78C1490.45,3438.25 1488.09,3373.11 1488.09,3373.11L1510.89,3367.98L1537.23,3442.14L1522.32,3461.09L1491.01,3502.63L1442.4,3494.13L1420.12,3465.94L1436.36,3447.35L1488.09,3477.12L1496.96,3458.49C1501.11,3459.73 1517.88,3457.36 1518.78,3455.29C1519.82,3452.92 1520.29,3436.95 1520.29,3436.95Z" style="fill:none;"/>
                                <clipPath id="_clip4">
                                    <path d="M1520.29,3436.95C1520.29,3436.95 1511.09,3441.3 1500.77,3439.78C1490.45,3438.25 1488.09,3373.11 1488.09,3373.11L1510.89,3367.98L1537.23,3442.14L1522.32,3461.09L1491.01,3502.63L1442.4,3494.13L1420.12,3465.94L1436.36,3447.35L1488.09,3477.12L1496.96,3458.49C1501.11,3459.73 1517.88,3457.36 1518.78,3455.29C1519.82,3452.92 1520.29,3436.95 1520.29,3436.95Z"/>
                                </clipPath>
                                <g clip-path="url(#_clip4)">
                                    <g transform="matrix(0.293066,1.40018,-1.40018,0.293066,5861.39,340.393)">
                                        <g transform="matrix(-0.132765,0.446118,-0.446118,-0.132765,1557.47,3388.94)">
                                            <path d="M112.949,191.314C117.236,195.493 124.109,195.405 128.288,191.117C132.466,186.83 132.378,179.957 128.09,175.779C123.803,171.601 116.93,171.689 112.752,175.976C108.574,180.263 108.662,187.136 112.949,191.314Z" style="fill:none;stroke:rgb(247,147,26);stroke-width:10.85px;"/>
                                            <path d="M112.752,175.976C85.427,125.441 99.85,-0.143 170.748,26.059" style="fill:none;stroke:rgb(247,147,26);stroke-width:10.85px;stroke-linejoin:round;stroke-miterlimit:1.5;"/>
                                        </g>
                                    </g>
                                </g>
                            </g>
                        </g>
                        <circle cx="1489.71" cy="3426.91" r="67.203" style="fill:none;stroke:rgb(247,147,26);stroke-width:7.22px;stroke-linejoin:round;stroke-miterlimit:1.5;"/>
                    </g>
                    <g transform="matrix(-1.23514,-0.332205,0.332205,-1.23514,862.54,4886.55)">
                        <circle cx="1489.71" cy="3426.91" r="67.203" style="fill:none;"/>
                        <clipPath id="_clip5">
                            <circle cx="1489.71" cy="3426.91" r="67.203"/>
                        </clipPath>
                        <g clip-path="url(#_clip5)">
                            <g transform="matrix(0.204867,-0.97879,0.97879,0.204867,-2169.71,4182.96)">
                                <path d="M1520.29,3436.95C1520.29,3436.95 1511.09,3441.3 1500.77,3439.78C1490.45,3438.25 1488.09,3373.11 1488.09,3373.11L1510.89,3367.98L1537.23,3442.14L1522.32,3461.09L1491.01,3502.63L1442.4,3494.13L1420.12,3465.94L1436.36,3447.35L1488.09,3477.12L1496.96,3458.49C1501.11,3459.73 1517.88,3457.36 1518.78,3455.29C1519.82,3452.92 1520.29,3436.95 1520.29,3436.95Z" style="fill:none;"/>
                                <clipPath id="_clip6">
                                    <path d="M1520.29,3436.95C1520.29,3436.95 1511.09,3441.3 1500.77,3439.78C1490.45,3438.25 1488.09,3373.11 1488.09,3373.11L1510.89,3367.98L1537.23,3442.14L1522.32,3461.09L1491.01,3502.63L1442.4,3494.13L1420.12,3465.94L1436.36,3447.35L1488.09,3477.12L1496.96,3458.49C1501.11,3459.73 1517.88,3457.36 1518.78,3455.29C1519.82,3452.92 1520.29,3436.95 1520.29,3436.95Z"/>
                                </clipPath>
                                <g clip-path="url(#_clip6)">
                                    <g transform="matrix(0.293066,1.40018,-1.40018,0.293066,5861.39,340.393)">
                                        <g transform="matrix(-0.446118,-0.132765,0.132765,-0.446118,1530.06,3504.9)">
                                            <path d="M205.946,142.624C210.125,138.337 210.036,131.464 205.749,127.286C201.462,123.107 194.589,123.196 190.411,127.483C186.233,131.77 186.321,138.643 190.608,142.821C194.895,146.999 201.768,146.911 205.946,142.624Z" style="fill:none;stroke:rgb(247,147,26);stroke-width:10.85px;"/>
                                            <path d="M190.608,142.821C140.073,170.146 14.489,155.723 40.691,84.825" style="fill:none;stroke:rgb(247,147,26);stroke-width:10.85px;stroke-linejoin:round;stroke-miterlimit:1.5;"/>
                                        </g>
                                    </g>
                                </g>
                            </g>
                        </g>
                        <circle cx="1489.71" cy="3426.91" r="67.203" style="fill:none;stroke:rgb(247,147,26);stroke-width:7.22px;stroke-linejoin:round;stroke-miterlimit:1.5;"/>
                    </g>
                    <g transform="matrix(-0.332205,1.23514,-1.23514,-0.332205,4888.58,-542.604)">
                        <circle cx="1489.71" cy="3426.91" r="67.203" style="fill:none;"/>
                        <clipPath id="_clip7">
                            <circle cx="1489.71" cy="3426.91" r="67.203"/>
                        </clipPath>
                        <g clip-path="url(#_clip7)">
                            <g transform="matrix(0.204867,-0.97879,0.97879,0.204867,-2169.71,4182.96)">
                                <path d="M1520.29,3436.95C1520.29,3436.95 1511.09,3441.3 1500.77,3439.78C1490.45,3438.25 1488.09,3373.11 1488.09,3373.11L1510.89,3367.98L1537.23,3442.14L1522.32,3461.09L1491.01,3502.63L1442.4,3494.13L1420.12,3465.94L1436.36,3447.35L1488.09,3477.12L1496.96,3458.49C1501.11,3459.73 1517.88,3457.36 1518.78,3455.29C1519.82,3452.92 1520.29,3436.95 1520.29,3436.95Z" style="fill:none;"/>
                                <clipPath id="_clip8">
                                    <path d="M1520.29,3436.95C1520.29,3436.95 1511.09,3441.3 1500.77,3439.78C1490.45,3438.25 1488.09,3373.11 1488.09,3373.11L1510.89,3367.98L1537.23,3442.14L1522.32,3461.09L1491.01,3502.63L1442.4,3494.13L1420.12,3465.94L1436.36,3447.35L1488.09,3477.12L1496.96,3458.49C1501.11,3459.73 1517.88,3457.36 1518.78,3455.29C1519.82,3452.92 1520.29,3436.95 1520.29,3436.95Z"/>
                                </clipPath>
                                <g clip-path="url(#_clip8)">
                                    <g transform="matrix(0.293066,1.40018,-1.40018,0.293066,5861.39,340.393)">
                                        <g transform="matrix(0.132765,-0.446118,0.446118,0.132765,1414.1,3477.5)">
                                            <path d="M157.256,49.627C152.969,45.448 146.096,45.537 141.918,49.824C137.739,54.111 137.828,60.984 142.115,65.162C146.402,69.341 153.275,69.252 157.453,64.965C161.631,60.678 161.543,53.805 157.256,49.627Z" style="fill:none;stroke:rgb(247,147,26);stroke-width:10.85px;"/>
                                            <path d="M157.453,64.965C184.778,115.5 170.355,241.084 99.457,214.882" style="fill:none;stroke:rgb(247,147,26);stroke-width:10.85px;stroke-linejoin:round;stroke-miterlimit:1.5;"/>
                                        </g>
                                    </g>
                                </g>
                            </g>
                        </g>
                        <circle cx="1489.71" cy="3426.91" r="67.203" style="fill:none;stroke:rgb(247,147,26);stroke-width:7.22px;stroke-linejoin:round;stroke-miterlimit:1.5;"/>
                    </g>
                </g>
            </g>
        </g>
    </g>
</svg>
