<?xml version="1.0" encoding="UTF-8" standalone="no"?><!DOCTYPE svg PUBLIC "-//W3C//DTD SVG 1.1//EN" "http://www.w3.org/Graphics/SVG/1.1/DTD/svg11.dtd"><svg width="100%" height="100%" viewBox="0 0 12675 12675" version="1.1" xmlns="http://www.w3.org/2000/svg" xmlns:xlink="http://www.w3.org/1999/xlink" xml:space="preserve" xmlns:serif="http://www.serif.com/" style="fill-rule:evenodd;clip-rule:evenodd;stroke-linejoin:round;stroke-miterlimit:2;"><rect id="Artboard2" x="0" y="0" width="12674.3" height="12674.3" style="fill:none;"/><clipPath id="_clip1"><rect x="0" y="0" width="12674.3" height="12674.3"/></clipPath><g clip-path="url(#_clip1)"><g><circle cx="6337.5" cy="6337.5" r="6337.13" style="fill:#1963fd;"/><g><path d="M4277.74,2541.37l0,765.499l1741.99,0c49.898,0 74.853,20.82 74.853,62.362l-0,799.572c-0,18.892 -6.808,34.025 -20.417,45.35c-18.147,15.133 -36.289,18.892 -54.436,11.326l-1728.38,-249.496l0,1400.64l190.528,396.918c9.071,18.892 6.807,35.952 -6.802,51.037c-13.609,18.94 -34.025,28.385 -61.244,28.385l-1551.46,0c-27.218,0 -47.634,-9.445 -61.244,-28.385c-13.609,-15.085 -15.872,-32.145 -6.801,-51.037l190.527,-396.918l0,-3005.37l-190.527,-396.967c-9.071,-18.892 -6.808,-35.904 6.801,-51.036c13.61,-18.892 34.026,-28.338 61.244,-28.338l3674.51,0c49.904,0 74.853,20.819 74.853,62.362l0,771.186c0,18.94 -6.807,34.025 -20.416,45.398c-13.609,11.326 -31.751,17.012 -54.437,17.012l-2259.14,-249.495Z" style="fill:#27f2eb;fill-rule:nonzero;"/><path d="M7346.65,2626.43l-231.35,-317.593c-13.647,-15.085 -15.922,-32.097 -6.823,-50.989c4.549,-15.132 18.141,-26.506 40.832,-34.024l238.174,-62.41l1156.75,-260.821c18.142,-3.807 38.558,-0 61.249,11.325c18.142,11.326 27.24,26.458 27.24,45.35l0,1071.77l877.796,-0c49.876,-0 74.842,20.771 74.842,62.362l-0,708.824c-0,22.651 -11.318,39.663 -34.009,51.037c-18.142,11.325 -38.558,13.205 -61.249,5.638l-850.556,-306.17l0,1377.94c0,120.965 26.076,211.665 78.226,272.147c52.151,60.482 119.059,97.35 200.725,110.603c81.666,13.205 171.265,3.759 268.798,-28.337c97.533,-32.145 191.681,-80.338 282.39,-144.628c22.691,-18.892 47.657,-22.699 74.842,-11.325c27.24,11.325 40.833,28.337 40.833,51.036l-0,419.618c-0,18.892 -9.043,34.024 -27.241,45.35c-181.417,120.964 -365.165,202.266 -551.132,243.857c-186.023,41.542 -401.505,62.362 -646.447,62.362c-326.663,-0 -576.154,-69.013 -748.528,-206.99c-172.375,-137.977 -258.59,-343.038 -258.59,-615.233l-6.768,-2500.69Z" style="fill:#27f2eb;fill-rule:nonzero;"/><g><path d="M11019.6,4575.01c95.313,0 184.857,17.979 268.798,53.879c83.94,35.957 157.672,85.37 221.141,148.238c63.524,62.868 113.455,135.87 149.739,218.95c36.283,83.08 54.425,171.77 54.425,266.13c-0,94.302 -18.142,182.992 -54.425,266.072c-36.284,83.08 -86.215,156.082 -149.739,218.95c-63.469,62.925 -137.201,112.281 -221.141,148.238c-83.941,35.9 -173.485,53.879 -268.798,53.879l-13.593,-0c-95.258,-0 -184.857,-17.979 -268.798,-53.879c-83.885,-35.957 -157.617,-85.313 -221.141,-148.238c-63.524,-62.868 -113.4,-135.87 -149.683,-218.95c-36.284,-83.08 -54.425,-171.77 -54.425,-266.072c-0,-94.36 18.141,-183.05 54.425,-266.13c36.283,-83.08 86.159,-156.082 149.683,-218.95c63.524,-62.868 137.256,-112.281 221.141,-148.238c83.941,-35.9 173.54,-53.879 268.798,-53.879l13.593,0Z" style="fill:#ffc738;fill-rule:nonzero;"/></g><path d="M4361.69,10124.1l166.742,396.967c8.232,18.891 6.173,35.904 -6.178,51.036c-12.351,18.892 -30.875,28.338 -55.578,28.338l-1370.99,-0c-24.702,-0 -43.231,-9.446 -55.582,-28.338c-12.351,-15.132 -14.411,-32.145 -6.173,-51.036l166.742,-396.967l-0,-2614.09l-401.418,0c-28.821,0 -49.404,-11.325 -61.755,-34.024c-12.352,-22.699 -8.233,-43.47 12.351,-62.362l802.831,-754.174c12.351,-11.374 26.761,-17.061 43.231,-17.061l685.493,-16.964c20.589,0 37.053,5.639 49.404,16.964c12.352,11.374 18.53,24.579 18.53,39.712l-0,3442l12.351,-0Z" style="fill:#27f2eb;fill-rule:nonzero;"/><path d="M6399.65,8388.92c-164.698,-83.182 -306.728,-191.857 -426.12,-326.075c-119.397,-134.218 -179.094,-292.05 -179.094,-473.498c0,-154.989 46.318,-292.966 138.949,-413.93c92.636,-120.965 204.828,-223.038 336.561,-306.22c197.627,-120.964 418.92,-204.146 663.877,-249.495c244.958,-45.35 484.83,-68.049 719.465,-68.049c238.815,-0 484.779,22.699 737.994,68.049c253.215,45.349 482.715,128.531 688.6,249.495c135.847,83.182 252.158,185.255 348.932,306.22c96.725,120.964 145.112,260.821 145.112,419.617c-0,177.688 -65.859,338.316 -197.628,481.98c-57.652,64.289 -123.511,121.928 -197.627,172.965c-74.117,51.036 -152.312,97.35 -234.686,138.941c131.768,45.349 258.351,101.109 379.797,167.278c121.497,66.121 229.55,146.459 324.26,240.966c90.582,86.988 162.634,185.254 216.157,294.893c53.473,109.64 80.26,224.918 80.26,345.882c-0,185.255 -57.652,349.69 -172.906,493.353c-115.303,143.664 -253.215,264.629 -413.784,362.895c-123.511,71.856 -254.222,132.338 -392.133,181.447c-137.962,49.157 -281.009,87.904 -429.242,116.242c-148.183,28.385 -297.423,48.241 -447.721,59.566c-150.247,11.326 -295.409,17.013 -435.385,17.013c-279.951,-0 -567.103,-27.422 -861.505,-82.218c-294.351,-54.796 -560.909,-154.073 -799.729,-297.689c-160.564,-98.314 -296.426,-220.242 -407.591,-365.786c-111.16,-145.543 -166.742,-309.014 -166.742,-490.509c-0,-120.965 25.734,-236.243 77.198,-345.882c51.463,-109.64 120.424,-207.906 206.882,-294.846c94.695,-94.507 200.709,-174.845 318.047,-241.014c117.332,-66.169 241.891,-121.928 373.609,-167.278l6.193,5.687Zm1550.11,-283.521c164.647,-7.566 290.223,-58.602 376.675,-153.109c86.453,-94.555 94.71,-215.52 24.723,-362.943c-45.316,-94.506 -113.24,-176.724 -203.821,-246.652c-90.531,-69.928 -187.306,-125.688 -290.223,-167.278c-144.104,-52.916 -288.209,-77.495 -432.313,-73.736c-164.698,7.566 -290.274,58.603 -376.726,153.11c-86.453,94.506 -94.66,215.471 -24.672,362.942c45.265,94.507 113.189,176.724 203.77,246.653c90.581,69.928 187.356,125.687 290.273,167.278c144.105,52.916 288.209,77.494 432.314,73.735Zm-1173.38,918.61c-41.187,68.048 -58.659,139.856 -52.516,215.471c6.193,75.615 25.729,149.302 58.659,221.158c82.374,173.881 206.892,314.702 373.654,422.461c166.712,107.712 348.932,178.604 546.56,212.628c86.453,15.133 174.97,21.736 265.551,19.856c90.531,-1.88 176.984,-12.289 259.358,-31.181c69.988,-18.94 135.847,-44.434 197.627,-76.579c61.731,-32.096 113.189,-74.651 154.376,-127.567c53.523,-71.808 76.181,-148.387 67.924,-229.64c-8.207,-81.302 -28.801,-159.761 -61.731,-235.327c-61.78,-128.531 -154.426,-241.014 -277.937,-337.4c-123.511,-96.435 -253.164,-171.086 -389.062,-224.002c-90.581,-37.832 -185.241,-66.169 -284.08,-85.061c-98.788,-18.892 -197.627,-24.578 -296.416,-17.012c-107.046,7.566 -213.035,32.145 -318.067,73.735c-104.982,41.591 -184.234,109.592 -237.757,204.146l-6.143,-5.686Z" style="fill:#27f2eb;fill-rule:nonzero;"/></g></g></g></svg>