<?xml version="1.0" encoding="UTF-8" standalone="no"?>
<!DOCTYPE svg PUBLIC "-//W3C//DTD SVG 1.1//EN" "http://www.w3.org/Graphics/SVG/1.1/DTD/svg11.dtd">
<svg width="100%" height="100%" viewBox="0 0 404 65" version="1.1" xmlns="http://www.w3.org/2000/svg" xmlns:xlink="http://www.w3.org/1999/xlink" xml:space="preserve" xmlns:serif="http://www.serif.com/" style="fill-rule:evenodd;clip-rule:evenodd;stroke-linecap:round;stroke-miterlimit:1.5;">
    <g id="Artboard1" transform="matrix(0.918218,0,0,1,0,0)">
        <rect x="0" y="0" width="439.574" height="64.311" style="fill:none;"/>
        <g transform="matrix(1.3414,0,0,1.17093,-5.5781,-5.55875)">
            <path d="M28.253,5.37C35.219,10.004 42.367,14.284 51.689,14.353C51.722,41.386 42.573,48.488 28.253,59.67C13.933,48.488 4.786,41.387 4.816,14.353C14.138,14.284 21.286,10.003 28.253,5.371L28.253,5.37Z" style="fill:rgb(202,62,71);fill-rule:nonzero;"/>
            <clipPath id="_clip1">
                <path d="M28.253,5.37C35.219,10.004 42.367,14.284 51.689,14.353C51.722,41.386 42.573,48.488 28.253,59.67C13.933,48.488 4.786,41.387 4.816,14.353C14.138,14.284 21.286,10.003 28.253,5.371L28.253,5.37Z" clip-rule="nonzero"/>
            </clipPath>
            <g clip-path="url(#_clip1)">
                <g transform="matrix(-1,-2.12818e-17,-2.12818e-17,-1.17378,60.1332,111.233)">
                    <g transform="matrix(1.52964,4.71357e-33,0,1.52964,3.5588,17.1192)">
                        <path d="M-6.719,9.6L41.378,25.48" style="fill:none;stroke:rgb(228,157,161);stroke-width:0.38px;"/>
                    </g>
                    <g transform="matrix(1.52964,4.71357e-33,0,1.52964,3.5588,19.5863)">
                        <path d="M-6.719,9.6L41.378,25.48" style="fill:none;stroke:rgb(228,157,161);stroke-width:0.38px;"/>
                    </g>
                    <g transform="matrix(1.52964,4.71357e-33,0,1.52964,3.5588,22.0534)">
                        <path d="M-6.719,9.6L41.378,25.48" style="fill:none;stroke:rgb(228,157,161);stroke-width:0.38px;"/>
                    </g>
                    <g transform="matrix(1.52964,4.71357e-33,0,1.52964,3.5588,24.5205)">
                        <path d="M-6.719,9.6L41.378,25.48" style="fill:none;stroke:rgb(228,157,161);stroke-width:0.38px;"/>
                    </g>
                    <g transform="matrix(1.52964,4.71357e-33,0,1.52964,3.5588,26.9875)">
                        <path d="M-6.719,9.6L41.378,25.48" style="fill:none;stroke:rgb(228,157,161);stroke-width:0.38px;"/>
                    </g>
                    <g transform="matrix(1.52964,4.71357e-33,0,1.52964,3.5588,29.4546)">
                        <path d="M-6.719,9.6L41.378,25.48" style="fill:none;stroke:rgb(228,157,161);stroke-width:0.38px;"/>
                    </g>
                    <g transform="matrix(1.52964,4.71357e-33,0,1.52964,3.5588,31.9217)">
                        <path d="M-6.719,9.6L41.378,25.48" style="fill:none;stroke:rgb(228,157,161);stroke-width:0.38px;"/>
                    </g>
                    <g transform="matrix(1.52964,4.71357e-33,0,1.52964,3.5588,34.3888)">
                        <path d="M-6.719,9.6L41.378,25.48" style="fill:none;stroke:rgb(228,157,161);stroke-width:0.38px;"/>
                    </g>
                    <g transform="matrix(1.52964,4.71357e-33,0,1.52964,3.5588,36.8559)">
                        <path d="M-6.719,9.6L41.378,25.48" style="fill:none;stroke:rgb(228,157,161);stroke-width:0.38px;"/>
                    </g>
                    <g transform="matrix(1.52964,4.71357e-33,0,1.52964,3.5588,39.323)">
                        <path d="M-6.719,9.6L41.378,25.48" style="fill:none;stroke:rgb(228,157,161);stroke-width:0.38px;"/>
                    </g>
                    <g transform="matrix(1.52964,4.71357e-33,0,1.52964,3.5588,41.79)">
                        <path d="M-6.719,9.6L41.378,25.48" style="fill:none;stroke:rgb(228,157,161);stroke-width:0.38px;"/>
                    </g>
                    <g transform="matrix(1.52964,4.71357e-33,0,1.52964,3.5588,44.2571)">
                        <path d="M-6.719,9.6L41.378,25.48" style="fill:none;stroke:rgb(228,157,161);stroke-width:0.38px;"/>
                    </g>
                    <g transform="matrix(1.52964,4.71357e-33,0,1.52964,3.5588,46.7242)">
                        <path d="M-6.719,9.6L41.378,25.48" style="fill:none;stroke:rgb(228,157,161);stroke-width:0.38px;"/>
                    </g>
                    <g transform="matrix(1.52964,4.71357e-33,0,1.52964,3.5588,49.1913)">
                        <path d="M-6.719,9.6L41.378,25.48" style="fill:none;stroke:rgb(228,157,161);stroke-width:0.38px;"/>
                    </g>
                    <g transform="matrix(1.52964,4.71357e-33,0,1.52964,3.5588,51.6584)">
                        <path d="M-6.719,9.6L41.378,25.48" style="fill:none;stroke:rgb(228,157,161);stroke-width:0.38px;"/>
                    </g>
                    <g transform="matrix(1.52964,4.71357e-33,0,1.52964,3.5588,54.1255)">
                        <path d="M-6.719,9.6L41.378,25.48" style="fill:none;stroke:rgb(228,157,161);stroke-width:0.38px;"/>
                    </g>
                    <g transform="matrix(1.52964,4.71357e-33,0,1.52964,3.5588,56.5925)">
                        <path d="M-6.719,9.6L41.378,25.48" style="fill:none;stroke:rgb(228,157,161);stroke-width:0.38px;"/>
                    </g>
                    <g transform="matrix(1.52964,4.71357e-33,0,1.52964,3.5588,59.0596)">
                        <path d="M-6.719,9.6L41.378,25.48" style="fill:none;stroke:rgb(228,157,161);stroke-width:0.38px;"/>
                    </g>
                    <g transform="matrix(1.52964,4.71357e-33,0,1.52964,3.5588,61.5267)">
                        <path d="M-6.719,9.6L41.378,25.48" style="fill:none;stroke:rgb(228,157,161);stroke-width:0.38px;"/>
                    </g>
                </g>
                <path d="M28.253,5.37C21.287,10.004 14.138,14.284 4.816,14.353C4.783,41.386 13.932,48.488 28.253,59.67L28.253,5.37Z" style="fill:url(#_Linear2);fill-rule:nonzero;"/>
                <clipPath id="_clip3">
                    <path d="M28.253,5.37C21.287,10.004 14.138,14.284 4.816,14.353C4.783,41.386 13.932,48.488 28.253,59.67L28.253,5.37Z" clip-rule="nonzero"/>
                </clipPath>
                <g clip-path="url(#_clip3)">
                    <g transform="matrix(1,2.12818e-17,-2.12818e-17,-1.17378,6.0535e-16,113.581)">
                        <g transform="matrix(1.52964,0,0,1.52964,3.5588,22.0534)">
                            <path d="M-6.719,9.6L41.378,25.48" style="fill:none;stroke:black;stroke-width:0.38px;"/>
                        </g>
                        <g transform="matrix(1.52964,0,0,1.52964,3.5588,24.5205)">
                            <path d="M-6.719,9.6L41.378,25.48" style="fill:none;stroke:black;stroke-width:0.38px;"/>
                        </g>
                        <g transform="matrix(1.52964,0,0,1.52964,3.5588,26.9875)">
                            <path d="M-6.719,9.6L41.378,25.48" style="fill:none;stroke:black;stroke-width:0.38px;"/>
                        </g>
                        <g transform="matrix(1.52964,0,0,1.52964,3.5588,29.4546)">
                            <path d="M-6.719,9.6L41.378,25.48" style="fill:none;stroke:black;stroke-width:0.38px;"/>
                        </g>
                        <g transform="matrix(1.52964,0,0,1.52964,3.5588,31.9217)">
                            <path d="M-6.719,9.6L41.378,25.48" style="fill:none;stroke:black;stroke-width:0.38px;"/>
                        </g>
                        <g transform="matrix(1.52964,0,0,1.52964,3.5588,34.3888)">
                            <path d="M-6.719,9.6L41.378,25.48" style="fill:none;stroke:black;stroke-width:0.38px;"/>
                        </g>
                        <g transform="matrix(1.52964,0,0,1.52964,3.5588,36.8559)">
                            <path d="M-6.719,9.6L41.378,25.48" style="fill:none;stroke:black;stroke-width:0.38px;"/>
                        </g>
                        <g transform="matrix(1.52964,0,0,1.52964,3.5588,39.323)">
                            <path d="M-6.719,9.6L41.378,25.48" style="fill:none;stroke:black;stroke-width:0.38px;"/>
                        </g>
                        <g transform="matrix(1.52964,0,0,1.52964,3.5588,41.79)">
                            <path d="M-6.719,9.6L41.378,25.48" style="fill:none;stroke:black;stroke-width:0.38px;"/>
                        </g>
                        <g transform="matrix(1.52964,0,0,1.52964,3.5588,44.2571)">
                            <path d="M-6.719,9.6L41.378,25.48" style="fill:none;stroke:black;stroke-width:0.38px;"/>
                        </g>
                        <g transform="matrix(1.52964,0,0,1.52964,3.5588,46.7242)">
                            <path d="M-6.719,9.6L41.378,25.48" style="fill:none;stroke:black;stroke-width:0.38px;"/>
                        </g>
                        <g transform="matrix(1.52964,0,0,1.52964,3.5588,49.1913)">
                            <path d="M-6.719,9.6L41.378,25.48" style="fill:none;stroke:black;stroke-width:0.38px;"/>
                        </g>
                        <g transform="matrix(1.52964,0,0,1.52964,3.5588,51.6584)">
                            <path d="M-6.719,9.6L41.378,25.48" style="fill:none;stroke:black;stroke-width:0.38px;"/>
                        </g>
                        <g transform="matrix(1.52964,0,0,1.52964,3.5588,54.1255)">
                            <path d="M-6.719,9.6L41.378,25.48" style="fill:none;stroke:black;stroke-width:0.38px;"/>
                        </g>
                        <g transform="matrix(1.52964,0,0,1.52964,3.5588,56.5925)">
                            <path d="M-6.719,9.6L41.378,25.48" style="fill:none;stroke:black;stroke-width:0.38px;"/>
                        </g>
                        <g transform="matrix(1.52964,0,0,1.52964,3.5588,59.0596)">
                            <path d="M-6.719,9.6L41.378,25.48" style="fill:none;stroke:black;stroke-width:0.38px;"/>
                        </g>
                        <g transform="matrix(1.52964,0,0,1.52964,3.5588,61.5267)">
                            <path d="M-6.719,9.6L41.378,25.48" style="fill:none;stroke:black;stroke-width:0.38px;"/>
                        </g>
                        <g transform="matrix(1.52964,0,0,1.52964,3.5588,63.9938)">
                            <path d="M-6.719,9.6L41.378,25.48" style="fill:none;stroke:black;stroke-width:0.38px;"/>
                        </g>
                    </g>
                </g>
            </g>
        </g>
        <g transform="matrix(18.2074,0,0,1.52822,-833.445,-11.1709)">
            <path d="M62.325,42.444L62.325,14.735L62.865,14.735L63.991,33.239L63.991,14.735L64.507,14.735L64.507,42.444L63.95,42.444L62.841,24.375L62.841,42.444L62.325,42.444Z" style="fill:rgb(202,62,71);fill-rule:nonzero;"/>
            <path d="M65.095,42.444L65.095,14.735L67.134,14.735L67.134,19.423L65.65,19.423L65.65,25.565L67.031,25.565L67.031,30.234L65.65,30.234L65.65,37.775L67.187,37.775L67.187,42.444L65.095,42.444Z" style="fill:rgb(202,62,71);fill-rule:nonzero;"/>
            <path d="M68.277,42.444L68.277,19.423L67.461,19.423L67.461,14.735L69.647,14.735L69.647,19.423L68.833,19.423L68.833,42.444L68.277,42.444Z" style="fill:rgb(202,62,71);fill-rule:nonzero;"/>
        </g>
        <g transform="matrix(17.836,0,0,1.52822,-1038.79,-11.1709)">
            <rect x="62.308" y="14.735" width="0.567" height="27.709" style="fill:rgb(228,157,161);fill-rule:nonzero;"/>
            <path d="M63.421,42.444L63.421,14.735L63.972,14.735L65.122,33.239L65.122,14.735L65.649,14.735L65.649,42.444L65.08,42.444L63.947,24.375L63.947,42.444L63.421,42.444Z" style="fill:rgb(228,157,161);fill-rule:nonzero;"/>
            <path d="M68.045,32.256L68.595,33.976C68.511,37 68.37,39.246 68.174,40.714C67.978,42.182 67.73,42.916 67.428,42.916C67.055,42.916 66.749,41.659 66.509,39.146C66.269,36.632 66.149,33.195 66.149,28.835C66.149,24.223 66.269,20.642 66.511,18.09C66.752,15.538 67.069,14.263 67.463,14.263C67.806,14.263 68.085,15.264 68.3,17.268C68.428,18.452 68.523,20.153 68.587,22.371L68.026,23.694C67.993,22.258 67.923,21.124 67.818,20.292C67.713,19.46 67.585,19.044 67.434,19.044C67.226,19.044 67.057,19.782 66.927,21.256C66.798,22.73 66.733,25.118 66.733,28.419C66.733,31.922 66.797,34.417 66.924,35.904C67.052,37.391 67.218,38.134 67.423,38.134C67.573,38.134 67.703,37.662 67.811,36.717C67.92,35.772 67.998,34.285 68.045,32.256Z" style="fill:rgb(228,157,161);fill-rule:nonzero;"/>
            <path d="M68.967,28.76C68.967,25.937 69.009,23.568 69.095,21.653C69.159,20.242 69.246,18.975 69.356,17.854C69.467,16.732 69.588,15.901 69.719,15.359C69.894,14.628 70.096,14.263 70.325,14.263C70.739,14.263 71.07,15.529 71.318,18.062C71.566,20.594 71.691,24.116 71.691,28.627C71.691,33.1 71.567,36.6 71.321,39.127C71.074,41.653 70.745,42.916 70.332,42.916C69.915,42.916 69.583,41.659 69.336,39.146C69.09,36.632 68.967,33.17 68.967,28.76ZM69.551,28.571C69.551,31.708 69.624,34.086 69.771,35.706C69.918,37.325 70.104,38.134 70.331,38.134C70.557,38.134 70.742,37.331 70.887,35.724C71.032,34.118 71.104,31.708 71.104,28.495C71.104,25.32 71.034,22.951 70.893,21.388C70.752,19.826 70.564,19.044 70.331,19.044C70.097,19.044 69.908,19.835 69.765,21.417C69.622,22.998 69.551,25.383 69.551,28.571Z" style="fill:rgb(228,157,161);fill-rule:nonzero;"/>
            <path d="M73.44,32.256L73.44,27.588L74.662,27.588L74.662,38.626C74.543,39.76 74.371,40.758 74.146,41.622C73.92,42.485 73.692,42.916 73.461,42.916C73.167,42.916 72.911,42.308 72.693,41.092C72.474,39.876 72.31,38.137 72.2,35.876C72.09,33.614 72.035,31.154 72.035,28.495C72.035,25.609 72.097,23.045 72.219,20.802C72.342,18.559 72.521,16.839 72.758,15.642C72.938,14.722 73.162,14.263 73.43,14.263C73.779,14.263 74.051,14.984 74.247,16.427C74.443,17.869 74.569,19.864 74.625,22.409L74.062,23.448C74.023,22.088 73.948,21.013 73.839,20.226C73.73,19.438 73.594,19.044 73.43,19.044C73.182,19.044 72.985,19.819 72.839,21.369C72.693,22.919 72.62,25.219 72.62,28.268C72.62,31.557 72.694,34.023 72.842,35.668C72.99,37.312 73.184,38.134 73.424,38.134C73.543,38.134 73.662,37.904 73.782,37.444C73.901,36.985 74.004,36.427 74.089,35.772L74.089,32.256L73.44,32.256Z" style="fill:rgb(228,157,161);fill-rule:nonzero;"/>
        </g>
    </g>
    <defs>
        <linearGradient id="_Linear2" x1="0" y1="0" x2="1" y2="0" gradientUnits="userSpaceOnUse" gradientTransform="matrix(2.65976e-15,43.4372,-43.4372,2.65976e-15,15.1216,13.3142)"><stop offset="0" style="stop-color:rgb(202,62,71);stop-opacity:1"/><stop offset="1" style="stop-color:rgb(146,14,23);stop-opacity:1"/></linearGradient>
    </defs>
</svg>
