<svg clip-rule="evenodd" fill-rule="evenodd" stroke-linecap="round" stroke-miterlimit="1.5" viewBox="0 0 404 65" xmlns="http://www.w3.org/2000/svg" xmlns:xlink="http://www.w3.org/1999/xlink"><linearGradient id="a" gradientTransform="matrix(0 43.4372 -43.4372 0 15.1216 13.3142)" gradientUnits="userSpaceOnUse" x1="0" x2="1" y1="0" y2="0"><stop offset="0" stop-color="#ca3e47"/><stop offset="1" stop-color="#920e17"/></linearGradient><clipPath id="b"><path clip-rule="nonzero" d="m28.253 5.37c6.966 4.634 14.114 8.914 23.436 8.983.033 27.033-9.116 34.135-23.436 45.317-14.32-11.182-23.467-18.283-23.437-45.317 9.322-.069 16.47-4.35 23.437-8.982z"/></clipPath><clipPath id="c"><path clip-rule="nonzero" d="m28.253 5.37c-6.966 4.634-14.115 8.914-23.437 8.983-.033 27.033 9.116 34.135 23.437 45.317z"/></clipPath><g transform="scale(.918218 1)"><path d="m0 0h439.574v64.311h-439.574z" fill="none"/><g transform="matrix(1.3414 0 0 1.17093 -5.5781 -5.55875)"><path d="m28.253 5.37c6.966 4.634 14.114 8.914 23.436 8.983.033 27.033-9.116 34.135-23.436 45.317-14.32-11.182-23.467-18.283-23.437-45.317 9.322-.069 16.47-4.35 23.437-8.982z" fill="#ca3e47" fill-rule="nonzero"/><g clip-path="url(#b)"><g fill="none"><path d="m-6.719 9.6 48.097 15.88" stroke="#e49da1" stroke-width=".38" transform="matrix(-1.52964 0 0 -1.7954608392 56.5744 91.138825424)"/><path d="m-6.719 9.6 48.097 15.88" stroke="#e49da1" stroke-width=".38" transform="matrix(-1.52964 0 0 -1.7954608392 56.5744 88.242992786)"/><path d="m-6.719 9.6 48.097 15.88" stroke="#e49da1" stroke-width=".38" transform="matrix(-1.52964 0 0 -1.7954608392 56.5744 85.347160148)"/><path d="m-6.719 9.6 48.097 15.88" stroke="#e49da1" stroke-width=".38" transform="matrix(-1.52964 0 0 -1.7954608392 56.5744 82.45132751)"/><path d="m-6.719 9.6 48.097 15.88" stroke="#e49da1" stroke-width=".38" transform="matrix(-1.52964 0 0 -1.7954608392 56.5744 79.55561225)"/><path d="m-6.719 9.6 48.097 15.88" stroke="#e49da1" stroke-width=".38" transform="matrix(-1.52964 0 0 -1.7954608392 56.5744 76.659779612)"/><path d="m-6.719 9.6 48.097 15.88" stroke="#e49da1" stroke-width=".38" transform="matrix(-1.52964 0 0 -1.7954608392 56.5744 73.763946974)"/><path d="m-6.719 9.6 48.097 15.88" stroke="#e49da1" stroke-width=".38" transform="matrix(-1.52964 0 0 -1.7954608392 56.5744 70.868114336)"/><path d="m-6.719 9.6 48.097 15.88" stroke="#e49da1" stroke-width=".38" transform="matrix(-1.52964 0 0 -1.7954608392 56.5744 67.972281698)"/><path d="m-6.719 9.6 48.097 15.88" stroke="#e49da1" stroke-width=".38" transform="matrix(-1.52964 0 0 -1.7954608392 56.5744 65.07644906)"/><path d="m-6.719 9.6 48.097 15.88" stroke="#e49da1" stroke-width=".38" transform="matrix(-1.52964 0 0 -1.7954608392 56.5744 62.1807338)"/><path d="m-6.719 9.6 48.097 15.88" stroke="#e49da1" stroke-width=".38" transform="matrix(-1.52964 0 0 -1.7954608392 56.5744 59.284901162)"/><path d="m-6.719 9.6 48.097 15.88" stroke="#e49da1" stroke-width=".38" transform="matrix(-1.52964 0 0 -1.7954608392 56.5744 56.389068524)"/><path d="m-6.719 9.6 48.097 15.88" stroke="#e49da1" stroke-width=".38" transform="matrix(-1.52964 0 0 -1.7954608392 56.5744 53.493235886)"/><path d="m-6.719 9.6 48.097 15.88" stroke="#e49da1" stroke-width=".38" transform="matrix(-1.52964 0 0 -1.7954608392 56.5744 50.597403248)"/><path d="m-6.719 9.6 48.097 15.88" stroke="#e49da1" stroke-width=".38" transform="matrix(-1.52964 0 0 -1.7954608392 56.5744 47.70157061)"/><path d="m-6.719 9.6 48.097 15.88" stroke="#e49da1" stroke-width=".38" transform="matrix(-1.52964 0 0 -1.7954608392 56.5744 44.80585535)"/><path d="m-6.719 9.6 48.097 15.88" stroke="#e49da1" stroke-width=".38" transform="matrix(-1.52964 0 0 -1.7954608392 56.5744 41.910022712)"/><path d="m-6.719 9.6 48.097 15.88" stroke="#e49da1" stroke-width=".38" transform="matrix(-1.52964 0 0 -1.7954608392 56.5744 39.014190074)"/></g><path d="m28.253 5.37c-6.966 4.634-14.115 8.914-23.437 8.983-.033 27.033 9.116 34.135 23.437 45.317z" fill="url(#a)" fill-rule="nonzero"/><g clip-path="url(#c)" fill="none" stroke="#000" stroke-width=".38"><path d="m-6.719 9.6 48.097 15.88" transform="matrix(1.52964 0 0 -1.7954608392 3.5588 87.695160148)"/><path d="m-6.719 9.6 48.097 15.88" transform="matrix(1.52964 0 0 -1.7954608392 3.5588 84.79932751)"/><path d="m-6.719 9.6 48.097 15.88" transform="matrix(1.52964 0 0 -1.7954608392 3.5588 81.90361225)"/><path d="m-6.719 9.6 48.097 15.88" transform="matrix(1.52964 0 0 -1.7954608392 3.5588 79.007779612)"/><path d="m-6.719 9.6 48.097 15.88" transform="matrix(1.52964 0 0 -1.7954608392 3.5588 76.111946974)"/><path d="m-6.719 9.6 48.097 15.88" transform="matrix(1.52964 0 0 -1.7954608392 3.5588 73.216114336)"/><path d="m-6.719 9.6 48.097 15.88" transform="matrix(1.52964 0 0 -1.7954608392 3.5588 70.320281698)"/><path d="m-6.719 9.6 48.097 15.88" transform="matrix(1.52964 0 0 -1.7954608392 3.5588 67.42444906)"/><path d="m-6.719 9.6 48.097 15.88" transform="matrix(1.52964 0 0 -1.7954608392 3.5588 64.5287338)"/><path d="m-6.719 9.6 48.097 15.88" transform="matrix(1.52964 0 0 -1.7954608392 3.5588 61.632901162)"/><path d="m-6.719 9.6 48.097 15.88" transform="matrix(1.52964 0 0 -1.7954608392 3.5588 58.737068524)"/><path d="m-6.719 9.6 48.097 15.88" transform="matrix(1.52964 0 0 -1.7954608392 3.5588 55.841235886)"/><path d="m-6.719 9.6 48.097 15.88" transform="matrix(1.52964 0 0 -1.7954608392 3.5588 52.945403248)"/><path d="m-6.719 9.6 48.097 15.88" transform="matrix(1.52964 0 0 -1.7954608392 3.5588 50.04957061)"/><path d="m-6.719 9.6 48.097 15.88" transform="matrix(1.52964 0 0 -1.7954608392 3.5588 47.15385535)"/><path d="m-6.719 9.6 48.097 15.88" transform="matrix(1.52964 0 0 -1.7954608392 3.5588 44.258022712)"/><path d="m-6.719 9.6 48.097 15.88" transform="matrix(1.52964 0 0 -1.7954608392 3.5588 41.362190074)"/><path d="m-6.719 9.6 48.097 15.88" transform="matrix(1.52964 0 0 -1.7954608392 3.5588 38.466357436)"/></g></g></g><g fill-rule="nonzero"><g fill="#ca3e47" transform="matrix(18.2074 0 0 1.52822 -833.445 -11.1709)"><path d="m62.325 42.444v-27.709h.54l1.126 18.504v-18.504h.516v27.709h-.557l-1.109-18.069v18.069z"/><path d="m65.095 42.444v-27.709h2.039v4.688h-1.484v6.142h1.381v4.669h-1.381v7.541h1.537v4.669z"/><path d="m68.277 42.444v-23.021h-.816v-4.688h2.186v4.688h-.814v23.021z"/></g><g fill="#e49da1" transform="matrix(17.836 0 0 1.52822 -1038.79 -11.1709)"><path d="m62.308 14.735h.567v27.709h-.567z"/><path d="m63.421 42.444v-27.709h.551l1.15 18.504v-18.504h.527v27.709h-.569l-1.133-18.069v18.069z"/><path d="m68.045 32.256.55 1.72c-.084 3.024-.225 5.27-.421 6.738s-.444 2.202-.746 2.202c-.373 0-.679-1.257-.919-3.77-.24-2.514-.36-5.951-.36-10.311 0-4.612.12-8.193.362-10.745.241-2.552.558-3.827.952-3.827.343 0 .622 1.001.837 3.005.128 1.184.223 2.885.287 5.103l-.561 1.323c-.033-1.436-.103-2.57-.208-3.402s-.233-1.248-.384-1.248c-.208 0-.377.738-.507 2.212-.129 1.474-.194 3.862-.194 7.163 0 3.503.064 5.998.191 7.485.128 1.487.294 2.23.499 2.23.15 0 .28-.472.388-1.417.109-.945.187-2.432.234-4.461z"/><path d="m68.967 28.76c0-2.823.042-5.192.128-7.107.064-1.411.151-2.678.261-3.799.111-1.122.232-1.953.363-2.495.175-.731.377-1.096.606-1.096.414 0 .745 1.266.993 3.799.248 2.532.373 6.054.373 10.565 0 4.473-.124 7.973-.37 10.5-.247 2.526-.576 3.789-.989 3.789-.417 0-.749-1.257-.996-3.77-.246-2.514-.369-5.976-.369-10.386zm.584-.189c0 3.137.073 5.515.22 7.135.147 1.619.333 2.428.56 2.428.226 0 .411-.803.556-2.41.145-1.606.217-4.016.217-7.229 0-3.175-.07-5.544-.211-7.107-.141-1.562-.329-2.344-.562-2.344-.234 0-.423.791-.566 2.373-.143 1.581-.214 3.966-.214 7.154z"/><path d="m73.44 32.256v-4.668h1.222v11.038c-.119 1.134-.291 2.132-.516 2.996-.226.863-.454 1.294-.685 1.294-.294 0-.55-.608-.768-1.824-.219-1.216-.383-2.955-.493-5.216-.11-2.262-.165-4.722-.165-7.381 0-2.886.062-5.45.184-7.693.123-2.243.302-3.963.539-5.16.18-.92.404-1.379.672-1.379.349 0 .621.721.817 2.164.196 1.442.322 3.437.378 5.982l-.563 1.039c-.039-1.36-.114-2.435-.223-3.222-.109-.788-.245-1.182-.409-1.182-.248 0-.445.775-.591 2.325s-.219 3.85-.219 6.899c0 3.289.074 5.755.222 7.4.148 1.644.342 2.466.582 2.466.119 0 .238-.23.358-.69.119-.459.222-1.017.307-1.672v-3.516z"/></g></g></g></svg>