<svg enable-background="new 0 0 40 40" height="40" viewBox="0 0 40 40" width="40" xmlns="http://www.w3.org/2000/svg"><path d="m24.43 27.469c-.392 0-.771-.185-1.011-.514l-6.801-9.335v8.599c0 .69-.56 1.25-1.25 1.25s-1.25-.56-1.25-1.25v-12.438c0-.541.348-1.021.863-1.188.513-.167 1.078.014 1.397.453l6.801 9.334v-8.599c0-.69.56-1.25 1.25-1.25s1.25.56 1.25 1.25v12.438c0 .541-.349 1.021-.863 1.188-.127.042-.257.062-.386.062z" fill="#1c7526"/><path d="m24.43 27.469c-.392 0-.771-.185-1.011-.514l-6.801-9.335v7.341c0 .69-.56 1.25-1.25 1.25s-1.25-.56-1.25-1.25v-11.18c0-.541.348-1.021.863-1.188.513-.167 1.078.014 1.397.453l6.801 9.334v-4.781c0-.69.56-1.25 1.25-1.25s1.25.56 1.25 1.25v8.62c0 .541-.349 1.021-.863 1.188-.127.042-.257.062-.386.062z" fill="#393"/><path d="m24.43 27.469c-.392 0-.771-.185-1.011-.514l-6.801-9.335v6.14c0 .69-.56 1.25-1.25 1.25s-1.25-.56-1.25-1.25v-9.979c0-.541.348-1.021.863-1.188.513-.167 1.078.014 1.397.453l6.801 9.334v-2.595c0-.69.56-1.25 1.25-1.25s1.25.56 1.25 1.25v6.434c0 .541-.349 1.021-.863 1.188-.127.042-.257.062-.386.062z" fill="#7dd11c"/><path d="m26.125 34.566c-.559 0-1.066-.376-1.211-.942-.17-.669.235-1.349.904-1.52 4.328-1.1 7.071-5.421 6.67-10.509-.055-.688.46-1.291 1.147-1.345.716-.049 1.29.461 1.345 1.147.499 6.325-3.016 11.724-8.547 13.13-.102.027-.206.039-.308.039z" fill="#1c7526"/><path d="m26.125 34.568c-.558 0-1.066-.376-1.21-.941-.171-.669.233-1.35.902-1.52 1.24-.316 2.359-.892 3.327-1.709.527-.446 1.315-.378 1.762.148.445.527.379 1.315-.148 1.762-1.259 1.063-2.713 1.811-4.323 2.221-.104.027-.207.039-.31.039z" fill="#393"/><path d="m18.17 37.25c-.394 0-.781-.186-1.024-.532l-1.583-2.257c-.285-.405-.303-.941-.046-1.365s.74-.655 1.231-.592c4.772.62 8.557-.292 8.595-.302.674-.169 1.349.243 1.514.911.167.67-.239 1.347-.908 1.515-.141.034-2.91.716-6.81.577l.054.077c.396.565.26 1.345-.306 1.741-.219.154-.469.227-.717.227z" fill="#7dd11c"/><path d="m5.955 19.752c-.69 0-1.25-.56-1.25-1.25 0-6.696 3.276-11.689 8.551-13.03.67-.172 1.349.234 1.52.903.17.669-.234 1.35-.903 1.52-4.916 1.25-6.667 6.299-6.667 10.607-.001.69-.56 1.25-1.251 1.25z" fill="#1c7526"/><path d="m10.036 9.656c-.372 0-.74-.165-.986-.481-.425-.544-.328-1.33.216-1.754 1.179-.92 2.521-1.576 3.989-1.95.667-.171 1.35.234 1.52.903s-.234 1.35-.903 1.52c-1.131.288-2.164.792-3.068 1.498-.228.178-.499.264-.768.264z" fill="#393"/><path d="m14.045 7.836c-.561 0-1.071-.38-1.212-.948-.167-.669.239-1.347.908-1.514.141-.035 2.914-.71 6.805-.579l-.053-.077c-.397-.565-.26-1.345.305-1.741.564-.396 1.345-.26 1.741.305l1.584 2.257c.284.406.303.941.046 1.366-.257.424-.738.658-1.231.592-4.765-.619-8.553.294-8.591.303-.101.024-.202.036-.302.036z" fill="#7dd11c"/></svg>