<?xml version="1.0" encoding="UTF-8" standalone="no"?><!DOCTYPE svg PUBLIC "-//W3C//DTD SVG 1.1//EN" "http://www.w3.org/Graphics/SVG/1.1/DTD/svg11.dtd"><svg width="100%" height="100%" viewBox="0 0 32 32" version="1.1" xmlns="http://www.w3.org/2000/svg" xmlns:xlink="http://www.w3.org/1999/xlink" xml:space="preserve" xmlns:serif="http://www.serif.com/" style="fill-rule:evenodd;clip-rule:evenodd;stroke-linejoin:round;stroke-miterlimit:2;"><rect id="Artboard2" x="0" y="0" width="31.994" height="31.994" style="fill:none;"/><path d="M13.807,31.994l-0,-7.197c-0,-0.58 -0.528,-1.027 -1.105,-0.971c-2.624,0.254 -8.988,0.251 -8.713,-5.808c1.518,-0.664 4.593,-1.951 5.644,-2.39c0.226,-0.094 0.383,-0.299 0.418,-0.541l0.234,-1.641c0.036,-0.252 0.172,-0.476 0.386,-0.613c1.019,-0.655 4.236,-2.553 7.294,-2.553c0.577,-2.079 1.27,-5.66 0.577,-10.28c2.943,2.648 5.135,10.209 5.73,12.431c0.107,0.4 0.047,0.821 -0.159,1.18l-0.475,0.833c-0.377,0.66 -0.467,1.445 -0.248,2.173l4.624,15.377l-14.207,-0Zm2.656,-22.638c-0.577,-1.964 -0.924,-6.468 -0.924,-9.356c-1.386,1.271 -2.772,7.739 -2.541,9.587c1.155,-0.231 2.31,-0.231 3.465,-0.231Z" style="fill:#1caaa2;"/></svg>