<svg enable-background="new 0 0 500 200" height="200" viewBox="0 0 500 200" width="500" xmlns="http://www.w3.org/2000/svg"><g fill="#1634db"><path d="m183.182 166.34 1.119-1.579 28.364-41.986v-10.287h-45.24v11.657h26.585 1.937l-1.121 1.579-29.157 43.043v9.229h48.015v-11.656h-28.567z"/><path d="m228.201 112.488h15.275v65.508h-15.275z"/><path d="m299.426 145.731c-2.219-1.73-5.801-3.638-10.646-5.668-5.668-2.354-9.545-4.661-11.268-5.891-1.912-1.365-3.166-4.172-3.166-6.107 0-4.363 5.27-5.562 9.213-5.562 2.959 0 5.904.47 8.75 1.397 2.504.816 5.205 1.852 8.041 3.08l4.471-11.061c-6.785-3.095-13.838-4.663-20.979-4.663-7.748 0-13.791 1.543-17.959 4.584-4.127 3.014-6.133 7.169-6.133 12.702 0 3.244.496 5.995 1.471 8.178.967 2.166 2.545 4.686 4.689 6.372 2.205 1.735 5.742 5.079 10.514 7.146 3.424 1.497 6.195 2.821 8.238 3.938 2.15 1.175 3.641 2.215 4.551 3.181 1.01 1.065 1.52 2.45 1.52 4.115 0 5.477-5.656 6.626-10.402 6.626-3.131 0-6.789-.543-10.873-1.615-3.477-.912-6.695-2.027-9.594-3.324v12.541c2.586 1.092 5.381 1.938 8.314 2.52 3.168.629 7.066.948 11.586.948 8.717 0 15.324-1.704 19.635-5.063 4.295-3.348 6.383-8.112 6.383-14.566 0-3.081-.521-5.759-1.549-7.957-1.022-2.189-2.639-4.157-4.807-5.851z"/><path d="m394.631 111.258c-3.975 0-7.586.812-10.732 2.412-3.109 1.58-5.492 3.829-7.086 6.687l-.285.514h-.588-1.529-.604l-.281-.535c-3.205-6.108-9.215-9.077-18.373-9.077-3.971 0-7.529.818-10.576 2.434-3.021 1.6-5.363 3.844-6.961 6.671l-.287.508h-.584-.963-.76l-.203-.732-2.119-7.649h-11.438v65.508h15.275v-29.828c0-7.955 1.029-15.53 3.143-19.081 2.186-3.668 5.715-5.528 10.488-5.528 3.631 0 6.344 1.347 8.062 4.003 1.627 2.518 2.453 8.262 2.453 13.163v37.271h15.275v-31.88c0-7.065 1.084-14.1 3.312-17.426 2.285-3.405 5.756-5.132 10.318-5.132 3.631 0 6.344 1.347 8.062 4.003 1.627 2.518 2.453 8.262 2.453 13.163v37.271h15.332v-43.709c0-8.093-1.764-14.021-5.24-17.62-3.468-3.591-8.705-5.411-15.564-5.411z"/><path d="m487.076 126.579c-2.395-4.916-5.863-8.736-10.312-11.356-4.469-2.631-9.711-3.965-15.58-3.965-9.439 0-16.852 2.887-22.029 8.582-5.201 5.722-7.84 15.877-7.84 26.276 0 6.692 1.225 12.619 3.639 17.617 2.395 4.953 5.865 8.803 10.314 11.443 4.467 2.648 9.707 3.991 15.576 3.991 9.365 0 16.758-2.927 21.971-8.696 5.242-5.799 7.898-13.992 7.898-24.355 0-6.691-1.223-14.58-3.637-19.537zm-14.123 36.412c-2.426 3.964-6.422 5.974-11.875 5.974-5.491 0-9.528-2.019-11.994-6.001-2.361-3.81-3.561-9.449-3.561-16.761 0-7.356 1.19-15.146 3.537-18.854 2.446-3.867 6.449-5.829 11.894-5.829 5.489 0 9.513 1.973 11.96 5.864 2.344 3.731 3.532 11.509 3.532 18.819 0 7.348-1.175 12.997-3.493 16.788z"/></g><path d="m235.807 83.754c5.482 0 9.494 4.531 9.494 9.419 0 4.771-4.012 9.016-9.494 9.016-5.486 0-9.492-4.246-9.492-9.016-.001-4.886 4.005-9.419 9.492-9.419" fill="#00d07b"/><circle cx="84.41" cy="135.493" fill="#1634db" r="62.872"/><path d="m320.147 1.699c-2.127 4.619-4.885 9.017-8.299 12.9-3.425 3.869-7.45 7.257-11.875 10.015-4.42 2.774-9.207 4.931-14.104 6.676-4.905 1.728-9.924 3.099-14.981 4.149-10.123 2.102-20.322 3.306-30.415 4.542-10.101 1.154-20.131 2.319-29.922 4.206-4.893.952-9.722 2.069-14.448 3.422-4.705 1.359-9.373 3.008-13.718 4.962-1.131.525-2.377 1.043-3.415 1.575-1.069.545-2.132 1.021-3.21 1.621-2.156 1.137-4.282 2.334-6.356 3.62-4.158 2.557-8.157 5.384-12.018 8.41-7.714 6.081-14.743 13.062-21.575 20.412l-10.301 11.253c-3.564 3.761-7.158 7.595-11.775 11.054l-.605.454-.717.243-10.316 3.5c-3.437 1.169-6.92 2.243-10.377 3.369-3.456 1.127-6.968 2.151-10.448 3.23-3.519 1.012-7.013 2.064-10.58 2.963-3.544.945-7.131 1.809-10.712 2.607-1.793.396-3.585.792-5.362 1.153l-2.632.54c-.94.188-1.627.334-2.456.537-1.593.391-3.124.863-4.475 1.433-1.344.556-2.476 1.293-3.019 1.858-.269.283-.393.47-.46.64-.072.168-.119.402-.053.812.115.818.757 2.087 1.645 3.287 1.808 2.456 4.377 4.821 7.038 7.127l.062.055c.035.028-.194-.149-.081-.062l.033.026.134.104.268.209c.177.135.2.127.303.207.209.132.52.317.819.465.614.31 1.308.595 2.055.838 1.497.487 3.146.86 4.842 1.16 3.397.603 6.967.971 10.554 1.345 3.592.37 7.225.722 10.858 1.254 3.634.519 7.278 1.153 10.881 2.065 3.599.906 7.172 2.104 10.497 3.874 3.312 1.753 6.423 4.057 8.695 7.051 2.279 2.979 3.71 6.499 4.236 10.085-1.055-3.468-2.829-6.674-5.305-9.161-2.441-2.521-5.487-4.332-8.72-5.614-3.244-1.276-6.677-2.075-10.151-2.647-3.481-.559-7.021-.857-10.585-1.046-3.566-.174-7.153-.286-10.778-.407-3.629-.127-7.284-.239-11.053-.637-1.885-.201-3.803-.482-5.788-.976-.992-.248-2.009-.569-3.044-.999-.528-.217-1.018-.456-1.588-.781-.276-.166-.65-.394-.838-.526l-.278-.194-.139-.098-.252-.189c-2.941-2.249-5.949-4.577-8.68-7.773-1.332-1.632-2.7-3.484-3.443-6.201-.358-1.345-.475-2.969-.114-4.561.34-1.598 1.134-3.026 2.024-4.125 1.825-2.193 3.882-3.354 5.803-4.315 1.941-.932 3.854-1.603 5.749-2.167.915-.273 1.986-.553 2.812-.756l2.668-.624c1.76-.396 3.49-.817 5.222-1.237 3.462-.849 6.892-1.75 10.317-2.741 1.715-.474 3.426-.978 5.134-1.511l5.133-1.557c3.414-1.106 6.836-2.149 10.243-3.308 3.408-1.154 6.821-2.267 10.224-3.454l10.221-3.515-1.322.696c3.536-2.65 6.97-6.245 10.366-9.88l10.346-11.21c3.527-3.751 7.129-7.493 10.954-11.048 3.814-3.562 7.779-7.004 11.96-10.205 4.172-3.209 8.553-6.178 13.118-8.849 2.276-1.346 4.609-2.599 6.977-3.784 1.158-.611 2.426-1.16 3.637-1.738 1.242-.595 2.358-1.026 3.544-1.546 4.995-2.075 9.995-3.664 15.099-4.985 5.086-1.321 10.221-2.299 15.352-3.069 10.264-1.545 20.504-2.305 30.649-3.049 10.149-.675 20.237-1.288 30.146-2.771 4.953-.732 9.865-1.651 14.662-2.977 4.8-1.312 9.457-3.081 13.879-5.339 4.427-2.25 8.541-5.134 12.178-8.582 3.686-3.407 6.774-7.452 9.446-11.79z" fill="#00d07b"/><path d="m355.468 7.01s-.383.739-1.1 2.125c-.345.7-.818 1.537-1.397 2.513-.286.49-.595 1.017-.923 1.578-.354.545-.731 1.124-1.129 1.735-1.606 2.438-3.703 5.322-6.473 8.327-2.753 3.016-6.148 6.174-10.199 9.186-4.062 2.992-8.769 5.821-13.975 8.353-5.222 2.488-10.919 4.726-16.941 6.586-12.038 3.79-25.26 6.298-38.431 8.461-13.178 2.163-26.352 4.009-38.452 6.456-6.053 1.208-11.826 2.586-17.186 4.146-5.358 1.559-10.279 3.351-14.645 5.28-8.754 3.862-15.025 8.531-18.872 12.217-1.914 1.86-3.3 3.421-4.197 4.521-.884 1.109-1.354 1.701-1.354 1.701l-.158.197c-1.722 2.161-4.869 2.518-7.029.796-2.161-1.722-2.518-4.869-.797-7.029.045-.057.103-.125.148-.179 0 0 .599-.683 1.72-1.964 1.137-1.264 2.879-3.053 5.246-5.14 2.387-2.062 5.442-4.367 9.145-6.608 3.702-2.238 8.044-4.414 12.904-6.3 4.86-1.883 10.214-3.542 15.912-4.914 5.698-1.371 11.733-2.512 17.973-3.455 12.479-1.917 25.764-3.142 38.947-4.676 13.177-1.533 26.294-3.394 38.25-6.55 5.983-1.545 11.644-3.468 16.858-5.657 5.195-2.232 9.921-4.777 14.033-7.519 4.101-2.76 7.58-5.701 10.432-8.546 2.87-2.832 5.08-5.59 6.787-7.935.424-.589.826-1.147 1.204-1.672.352-.542.682-1.051.989-1.523.621-.942 1.134-1.756 1.511-2.44.782-1.352 1.199-2.071 1.199-2.071z" fill="#00d07b"/></svg>