<?xml version="1.0" standalone="no"?>
<!DOCTYPE svg PUBLIC "-//W3C//DTD SVG 1.1//EN" "http://www.w3.org/Graphics/SVG/1.1/DTD/svg11.dtd" >
<svg xmlns="http://www.w3.org/2000/svg" xmlns:xlink="http://www.w3.org/1999/xlink" version="1.1">
<metadata>
Created by FontForge 20200427 at Tue Jul  7 07:10:44 2015
 By www
Copyright (C)2015 Commercial Type.
</metadata>
<defs>
<font id="AustinNewsTextWeb-Roman" horiz-adv-x="460" >
  <font-face 
    font-family="Austin News Text Web Roman"
    font-weight="400"
    font-stretch="normal"
    units-per-em="1000"
    panose-1="0 0 0 0 0 0 0 0 0 0"
    ascent="800"
    descent="-200"
    x-height="505"
    cap-height="698"
    bbox="-120 -223 1087 920"
    underline-thickness="46"
    underline-position="-121"
    unicode-range="U+000D-FB02"
  />
<missing-glyph horiz-adv-x="220" 
 />
    <glyph glyph-name="f_i" unicode="fi" horiz-adv-x="621" 
d="M30 0v34q10 1 21 3.5t17 4.5q28 14 35 43q2 11 2.5 24t0.5 29v325h-78v42h78v56q0 56 21 92.5t45 56.5q29 25 65.5 37t70.5 12q48 0 73 -7t42 -15q29 -15 42 -33t13 -48q0 -24 -13 -39t-37 -15q-34 0 -49 21q-10 18 -15 44q-2 11 -2 20.5t-5 16.5q-5 9 -16 12.5t-35 3.5
q-25 0 -42.5 -7t-31.5 -21t-19 -33.5t-5 -51.5v-102h312q7 0 7 -8q-1 -21 -2 -47.5t-1 -65.5v-246q0 -16 0.5 -29t3.5 -24q4 -15 11.5 -25t23.5 -18q6 -2 16 -4.5t20 -3.5v-34h-251v34q10 1 20 3.5t16 4.5q28 14 35 43q2 11 2.5 24t0.5 29v224q0 12 -1.5 29t-3.5 25
q-2 9 -8 18.5t-13 14.5q-8 6 -20.5 10t-35.5 4h-132v-325q0 -6 0.5 -24t3.5 -29q4 -15 10.5 -25t21.5 -18q6 -2 19 -4.5t23 -3.5v-34h-256z" />
    <glyph glyph-name="f_l" unicode="fl" horiz-adv-x="623" 
d="M286 0h-256v34q10 1 21 3.5t17 4.5q28 14 35 43q2 11 2.5 24t0.5 29v325h-78v42h78v56q0 33 6 56.5t15 40.5t21 29.5t24 22.5q15 12 33 21.5t37.5 15.5t39 9t36.5 3q30 0 51 -3h149q7 0 7 -8q0 -19 -1 -54t-1 -69v-487q0 -16 0.5 -29t3.5 -24q4 -15 10.5 -25t21.5 -18
q6 -2 15.5 -4.5t19.5 -3.5v-34h-243v34q10 1 18.5 3.5t14.5 4.5q28 14 35 43q2 11 2.5 24t0.5 29v467q-6 5 -11 11q-11 17 -16 46q-2 11 -3.5 19t-6.5 17q-8 12 -24 17t-45 5q-25 0 -47 -8t-35 -24q-13 -15 -19.5 -33t-6.5 -50v-100h162v-42h-162v-325q0 -6 0.5 -24t3.5 -29
q4 -15 10.5 -25t21.5 -18q6 -2 19 -4.5t23 -3.5v-34z" />
    <glyph glyph-name=".notdef" horiz-adv-x="220" 
 />
    <glyph glyph-name=".null" horiz-adv-x="0" 
 />
    <glyph glyph-name="nonmarkingreturn" unicode="&#xd;" horiz-adv-x="220" 
 />
    <glyph glyph-name="NULL" horiz-adv-x="0" 
 />
    <glyph glyph-name="NULL" horiz-adv-x="0" 
 />
    <glyph glyph-name="space" unicode=" " horiz-adv-x="220" 
 />
    <glyph glyph-name="exclam" unicode="!" horiz-adv-x="266" 
d="M134 711q22 0 40 -16t18 -56q0 -37 -3.5 -78t-9.5 -103l-26 -272h-40q-2 32 -9 103.5t-16 168.5q-6 62 -9.5 103t-3.5 78q0 39 18 55.5t41 16.5zM201 56q0 -30 -19 -49.5t-48 -19.5q-32 0 -50.5 19.5t-18.5 49.5q0 27 18.5 47t50.5 20q29 0 48 -20t19 -47z" />
    <glyph glyph-name="quotedbl" unicode="&#x22;" horiz-adv-x="356" 
d="M210 668q0 28 14.5 40t33.5 12t33.5 -12t14.5 -40q0 -12 -3 -36t-8 -50q-2 -14 -4.5 -31t-5 -34.5t-5 -34t-4.5 -28.5h-36q-2 12 -4.5 28.5t-5 34t-5 34.5t-4.5 31q-5 26 -8 50t-3 36zM98 720q19 0 33.5 -12t14.5 -40q0 -12 -3 -36t-8 -50q-2 -14 -4.5 -31t-5 -34.5
t-5 -34t-4.5 -28.5h-36q-2 12 -4.5 28.5t-5 34t-5 34.5t-4.5 31q-5 26 -8 50t-3 36q0 28 14.5 40t33.5 12z" />
    <glyph glyph-name="numbersign" unicode="#" horiz-adv-x="618" 
d="M408 422h-164l-28 -161h164zM373 222h-164l-38 -222h-44l38 222h-140v39h147l28 161h-139v39h146l37 216h44l-37 -216h164l37 216h44l-37 -216h135v-39h-142l-28 -161h133v-39h-140l-38 -222h-44z" />
    <glyph glyph-name="dollar" unicode="$" horiz-adv-x="503" 
d="M133 549q0 -27 8 -47.5t22 -36.5t33.5 -29t42.5 -25v243q-51 -5 -78.5 -35t-27.5 -70zM396 137q0 31 -7 52t-21.5 37t-36 28.5t-50.5 26.5v-256q57 7 86 37t29 75zM239 -109v96q-45 1 -82.5 14.5t-64.5 33t-42 44t-15 48.5q0 28 15.5 44.5t35.5 16.5q28 0 42 -15.5
t14 -44.5q0 -10 -4.5 -23t-4.5 -21q0 -26 30.5 -42.5t75.5 -18.5v277q-30 13 -63 30.5t-60 42t-44.5 58.5t-17.5 82q0 37 14.5 68.5t40 54.5t59 37t71.5 17v96h42v-96q46 -3 79.5 -16t55.5 -31t32.5 -39.5t10.5 -42.5q0 -28 -15.5 -41.5t-32.5 -13.5q-29 0 -42 17t-13 45
q0 4 1.5 11.5t1.5 11.5q0 28 -23.5 43t-54.5 19v-264q40 -20 75 -38.5t61 -41t41 -52.5t15 -73q0 -36 -13 -69t-37.5 -59.5t-60 -44t-81.5 -22.5v-98h-42z" />
    <glyph glyph-name="percent" unicode="%" horiz-adv-x="771" 
d="M199 -16l-33 20l407 691l32 -20zM351 510q0 -39 -11.5 -72t-32 -57t-48.5 -38t-61 -14q-32 0 -59.5 14t-47.5 38t-31.5 57t-11.5 72t11.5 72t31.5 57t47.5 38t59.5 14q33 0 61 -14t48.5 -38t32 -57t11.5 -72zM198 658q-74 0 -74 -148q0 -149 74 -149q40 0 58 36.5
t18 112.5t-18 112t-58 36zM420 169q0 39 11.5 72t32 57t48.5 38t61 14q32 0 59.5 -14t47.5 -38t31.5 -57t11.5 -72t-11.5 -72t-31.5 -57t-47.5 -38t-59.5 -14q-33 0 -61 14t-48.5 38t-32 57t-11.5 72zM573 21q74 0 74 148q0 149 -74 149q-40 0 -58 -36.5t-18 -112.5t18 -112
t58 -36z" />
    <glyph glyph-name="ampersand" unicode="&#x26;" horiz-adv-x="710" 
d="M566 -13q-35 0 -57 12t-38 41q-2 4 -7 11.5t-13 18.5q-34 -38 -89 -60.5t-118 -22.5q-50 0 -90 14.5t-67.5 39t-42 57.5t-14.5 71q0 42 17.5 75.5t44.5 61t58.5 49t59.5 38.5l-32 46q-23 32 -32.5 65t-9.5 53q0 68 42 111t114 43t111 -32t39 -89q0 -28 -12.5 -53
t-31 -46.5t-40.5 -39.5t-40 -31q15 -19 31 -40t31 -41q18 -25 48.5 -65t60.5 -81q13 20 21.5 41t14.5 44q5 18 8 38t3 40q0 36 -27 53q-10 5 -19.5 7t-20.5 3v34h216v-34q-14 -2 -22 -4t-18 -7q-14 -8 -21 -16.5t-16 -21.5q-6 -10 -15.5 -33t-21.5 -63q-8 -28 -22 -60.5
t-31 -58.5l33 -48q33 -50 72 -50q23 0 40 8t28 19l19 -26q-5 -11 -18.5 -23.5t-33 -23t-43 -17.5t-49.5 -7zM295 51q43 0 74 14.5t56 40.5q-15 21 -32.5 45t-34 46.5t-31 42t-24.5 31.5q-9 11 -27.5 35t-40.5 53q-23 -18 -40.5 -32t-29.5 -31t-18 -40t-6 -58
q0 -41 13.5 -69.5t35 -45.5t49 -24.5t56.5 -7.5zM215 598q0 -34 22 -67t56 -78q15 12 28.5 24t23 27.5t15 36t5.5 47.5q0 35 -16.5 58.5t-55.5 23.5q-33 0 -55.5 -18t-22.5 -54z" />
    <glyph glyph-name="quotesingle" unicode="'" horiz-adv-x="196" 
d="M98 720q19 0 33.5 -12t14.5 -40q0 -12 -3 -36t-8 -50q-2 -14 -4.5 -31t-5 -34.5t-5 -34t-4.5 -28.5h-36q-2 12 -4.5 28.5t-5 34t-5 34.5t-4.5 31q-5 26 -8 50t-3 36q0 28 14.5 40t33.5 12z" />
    <glyph glyph-name="parenleft" unicode="(" horiz-adv-x="284" 
d="M235 -121q-34 44 -65.5 90.5t-56 99t-39 113t-14.5 132.5t14.5 132.5t39 113t56 99t65.5 90.5l37 -29q-29 -41 -53.5 -84.5t-41.5 -93t-26.5 -105.5t-9.5 -123t9.5 -123t26.5 -105.5t41.5 -93t53.5 -84.5z" />
    <glyph glyph-name="parenright" unicode=")" horiz-adv-x="284" 
d="M12 -92q29 41 53 84.5t41.5 93t27 105.5t9.5 123t-9.5 123t-27 105.5t-41.5 93t-53 84.5l37 29q34 -44 65.5 -90.5t56 -99t39 -113t14.5 -132.5t-14.5 -132.5t-39 -113t-56 -99t-65.5 -90.5l-37 29v0z" />
    <glyph glyph-name="asterisk" unicode="*" horiz-adv-x="418" 
d="M335 347q-11 -7 -24 -5t-24 16q-6 9 -14.5 24t-18 33.5t-21 39t-24.5 39.5q-13 -20 -24.5 -40t-21 -38.5t-18 -33.5t-14.5 -24q-11 -14 -24 -16t-24 5q-11 8 -14 21.5t8 29.5q13 16 43.5 45.5t58.5 64.5q-42 9 -80 14.5t-56 10.5q-17 6 -23 18.5t-2 24.5q5 13 16.5 20
t29.5 1t53.5 -24.5t74.5 -34.5q-3 42 -9.5 79.5t-6.5 57.5q0 19 10 28t23 9t23 -9t10 -28q0 -20 -6.5 -57.5t-9.5 -79.5q39 16 74.5 34.5t53.5 24.5t29.5 -1t16.5 -20q4 -12 -2 -24.5t-23 -18.5q-18 -5 -56 -10.5t-80 -14.5q28 -35 58.5 -64.5t43.5 -45.5q11 -16 8 -29.5
t-14 -21.5z" />
    <glyph glyph-name="plus" unicode="+" horiz-adv-x="469" 
d="M256 283v-173h-42v173h-174v42h174v174h42v-174h173v-42h-173z" />
    <glyph glyph-name="comma" unicode="," horiz-adv-x="278" 
d="M218 40q0 -36 -12.5 -67t-34 -56.5t-51 -44t-62.5 -30.5l-13 30q54 23 78.5 46.5t24.5 46.5q0 10 -3.5 16t-14.5 10q-23 8 -39.5 23t-16.5 47q0 28 21 45t46 17q32 0 54.5 -20.5t22.5 -62.5z" />
    <glyph glyph-name="hyphen" unicode="-" horiz-adv-x="353" 
d="M60 273v80h233v-80h-233z" />
    <glyph glyph-name="period" unicode="." horiz-adv-x="256" 
d="M129 -13q-32 0 -50.5 19.5t-18.5 49.5q0 27 18.5 47t50.5 20q29 0 48 -20t19 -47q0 -30 -19 -49.5t-48 -19.5z" />
    <glyph glyph-name="slash" unicode="/" horiz-adv-x="420" 
d="M39 -185l-53 21l367 932l53 -21z" />
    <glyph glyph-name="zero" unicode="0" horiz-adv-x="656" 
d="M51 338q0 72 19.5 136.5t55.5 112.5t87.5 76t114.5 28t114.5 -28t87.5 -76t55.5 -112.5t19.5 -136.5t-19.5 -136t-55.5 -111.5t-87.5 -75.5t-114.5 -28t-114.5 28t-87.5 75.5t-55.5 111.5t-19.5 136zM486 338q0 84 -10.5 143.5t-31 97t-50 55t-66.5 17.5t-66.5 -17.5
t-49.5 -55t-31 -97t-11 -143.5t11 -143t31 -96.5t49.5 -54.5t66.5 -17t66.5 17t50 54.5t31 96.5t10.5 143z" />
    <glyph glyph-name="one" unicode="1" horiz-adv-x="364" 
d="M44 0v34q17 2 33 6.5t23 8.5q13 8 18.5 14t10.5 20q3 11 4.5 30.5t1.5 43.5v343q0 14 -0.5 35.5t-2.5 34.5q-2 17 -9 23.5t-16 11.5q-11 5 -35.5 11.5t-41.5 9.5v34q14 1 32.5 2.5t38 3.5t39 4.5t36.5 5.5q20 4 35 6.5t23 2.5t8 -8q0 -6 -0.5 -21.5t-0.5 -33.5t-0.5 -36
t-0.5 -28v-401q0 -24 1.5 -43.5t4.5 -30.5q5 -14 10.5 -20t18.5 -14q7 -4 23.5 -8.5t32.5 -6.5v-34h-287z" />
    <glyph glyph-name="two" unicode="2" horiz-adv-x="536" 
d="M228 651q-41 0 -66 -14.5t-25 -40.5q0 -10 3.5 -16.5t11.5 -20.5q5 -8 7.5 -15t2.5 -21q0 -23 -18 -38.5t-44 -15.5q-27 0 -45.5 19t-18.5 48q0 31 13.5 59t40 49.5t66 34t90.5 12.5q108 0 167.5 -51t59.5 -138q0 -59 -27 -110.5t-64.5 -94t-77.5 -75t-66 -54.5
q-19 -17 -39.5 -32.5t-52.5 -40.5v-5h161q48 0 73 13.5t41 29.5q14 14 27.5 34.5t19.5 35.5h40l-55 -203h-436l-7 17q16 14 34 30t44 39q40 37 87 80t88 94.5t68.5 112t27.5 132.5q0 42 -9 70t-26 45t-41 24t-55 7z" />
    <glyph glyph-name="three" unicode="3" horiz-adv-x="537" 
d="M257 691q92 0 146 -34t54 -104q0 -34 -15 -59.5t-40 -45.5t-56 -37.5t-64 -34.5v-3q57 8 98.5 -3.5t69.5 -34.5t41.5 -55t13.5 -66q0 -39 -16 -79.5t-50 -73.5t-87.5 -53.5t-127.5 -20.5q-47 0 -86 14t-67 36t-44 48.5t-16 50.5q0 30 15.5 44t36.5 14q27 0 39.5 -17.5
t12.5 -43.5q0 -11 1 -23.5t3 -21.5q4 -18 12.5 -26t16.5 -15q12 -8 29.5 -14.5t46.5 -6.5q88 0 127.5 49t39.5 146q0 61 -27.5 91t-92.5 30q-17 0 -35.5 -6t-34.5 -14l-44 -26l-19 32l74 43q39 23 65.5 41.5t42 38.5t22.5 44t7 58q0 25 -4.5 43.5t-15.5 30.5t-30.5 18
t-50.5 6q-44 0 -69.5 -11t-25.5 -29q0 -9 2 -15.5t4 -13.5q3 -7 5 -14.5t2 -18.5q0 -27 -14.5 -40.5t-37.5 -13.5q-24 0 -40 17t-16 46q0 23 12 46.5t36.5 43t62 31.5t88.5 12z" />
    <glyph glyph-name="four" unicode="4" horiz-adv-x="592" 
d="M295 260v280h-14l-214 -280h228zM492 0h-287v35q16 2 31.5 6.5t23.5 8.5q13 8 18 14t10 20q3 11 5 30.5t2 43.5v64h-281v31l329 423h57q3 0 3 -4q0 -12 -1 -28.5t-1 -37.5v-346h24q33 0 49 6t26 19q11 15 16 33t8 40h37v-233h-37q-3 22 -8 40t-16 33q-10 13 -26 18.5
t-49 5.5h-24v-64q0 -24 1.5 -43.5t5.5 -30.5q5 -14 10 -20t18 -14q8 -4 24 -8.5t32 -6.5v-35z" />
    <glyph glyph-name="five" unicode="5" horiz-adv-x="550" 
d="M224 25q79 0 123 46t44 143q0 90 -30.5 127t-100.5 37q-26 0 -48.5 -8.5t-40 -21.5t-30 -29.5t-19.5 -31.5l-44 10l83 380h37q32 -13 64 -21.5t82 -8.5q32 0 55.5 9.5t39.5 23.5t25.5 30t13.5 28l28 -9q-10 -43 -25.5 -75.5t-39.5 -54t-57.5 -32.5t-78.5 -11
q-30 0 -62 5.5t-58 12.5l-44 -199l8 -2q18 18 50 32t86 14q55 0 96 -16t68.5 -43.5t41 -64.5t13.5 -80q0 -51 -19.5 -93t-56 -72t-88.5 -46.5t-118 -16.5q-49 0 -88 13.5t-66 35t-41.5 47.5t-14.5 50q0 31 16 46t37 15q27 0 39 -17.5t12 -43.5v-24.5t3 -26.5
q3 -14 12.5 -23.5t18.5 -14.5q14 -8 31 -13.5t43 -5.5z" />
    <glyph glyph-name="six" unicode="6" horiz-adv-x="585" 
d="M554 562q0 -29 -15.5 -46t-39.5 -17q-23 0 -39 13.5t-16 40.5q0 13 2 20l4 14q4 13 5 18t1 10q0 13 -23 24t-64 11q-43 0 -79.5 -23t-63.5 -64.5t-44 -98.5t-20 -124h10q20 43 61.5 65t95.5 22q48 0 86.5 -14.5t66.5 -42.5t43 -67.5t15 -90.5q0 -50 -19 -91.5t-52 -71
t-76.5 -46t-92.5 -16.5q-60 0 -106.5 23t-79 62.5t-49 93.5t-16.5 117q0 99 29.5 175.5t76 128t103.5 78t111 26.5q51 0 86.5 -11t57.5 -29t31.5 -41.5t9.5 -47.5zM297 380q-25 0 -49 -7.5t-43 -27.5t-30.5 -55t-11.5 -91t11 -90t30 -52t43.5 -24t50.5 -6q30 0 54.5 8t42 28
t27 55.5t9.5 90.5t-10 88.5t-28 52t-42.5 24.5t-53.5 6z" />
    <glyph glyph-name="seven" unicode="7" horiz-adv-x="494" 
d="M496 660q-58 -102 -100 -177.5t-70.5 -139.5t-46.5 -125t-28 -136q-7 -54 -19 -74.5t-41 -20.5q-28 0 -40 16t-12 39q0 30 10 63.5t26 67.5t34.5 68t35.5 64q38 69 79.5 135.5t84.5 141.5v4h-200q-22 0 -36.5 -0.5t-25 -2.5t-18.5 -5t-18 -9q-20 -11 -32 -32.5t-21 -44.5
h-32l42 222h27q5 -14 20 -25.5t48 -11.5h333v-17v0z" />
    <glyph glyph-name="eight" unicode="8" horiz-adv-x="562" 
d="M285 -13q-49 0 -92 11.5t-75 33t-50.5 53t-18.5 71.5q0 32 11.5 58.5t31 48t45 37t54.5 26.5q-22 10 -44 25t-40 37t-29.5 51t-11.5 68q0 43 17 77t46 58t69 36.5t86 12.5q100 0 156.5 -38.5t56.5 -119.5q0 -57 -35.5 -98t-89.5 -66q27 -11 54 -26t49.5 -36.5t36.5 -50.5
t14 -68q0 -42 -16 -78.5t-47 -63.5t-75.5 -43t-102.5 -16zM156 542q0 -31 10 -53t31.5 -40t54.5 -33t79 -32q39 20 65 55.5t26 91.5q0 67 -35 93t-103 26q-65 0 -96.5 -29t-31.5 -79zM285 27q31 0 58 4t46.5 16t30.5 33t11 54q0 35 -8.5 57.5t-31 40.5t-61 35.5t-98.5 41.5
q-44 -17 -75 -51.5t-31 -95.5q0 -37 12 -62.5t33 -41.5t50 -23.5t64 -7.5z" />
    <glyph glyph-name="nine" unicode="9" horiz-adv-x="590" 
d="M295 281q25 0 49 8.5t42.5 29.5t30 57.5t11.5 92.5t-11 91.5t-29.5 55.5t-43 27t-50.5 7q-30 0 -53.5 -9t-40.5 -31t-26 -59t-9 -92t9.5 -90t26.5 -54.5t41 -26.5t53 -7zM53 111q0 29 15.5 46t39.5 17q23 0 38.5 -13.5t15.5 -40.5q0 -13 -2 -20l-4 -14q-5 -13 -6 -16.5
t-1 -12.5q0 -14 22 -22t63 -8q96 0 145 70t53 220h-10q-17 -39 -57.5 -62.5t-94.5 -23.5q-48 0 -87 16t-67.5 45.5t-44 71t-15.5 92.5q0 50 17 93t48.5 74.5t75 49.5t96.5 18q64 0 111 -24.5t78.5 -66t47 -97t15.5 -118.5q0 -106 -26.5 -181.5t-70.5 -123.5t-100 -70.5
t-114 -22.5q-51 0 -85.5 11t-56 28.5t-30.5 39.5t-9 45z" />
    <glyph glyph-name="colon" unicode=":" horiz-adv-x="256" 
d="M129 379q-32 0 -50.5 19.5t-18.5 49.5q0 27 18.5 47t50.5 20q29 0 48 -20t19 -47q0 -30 -19 -49.5t-48 -19.5zM129 -13q-32 0 -50.5 19.5t-18.5 49.5q0 27 18.5 47t50.5 20q29 0 48 -20t19 -47q0 -30 -19 -49.5t-48 -19.5z" />
    <glyph glyph-name="semicolon" unicode=";" horiz-adv-x="278" 
d="M143 379q-32 0 -50.5 19.5t-18.5 49.5q0 27 18.5 47t50.5 20q29 0 48 -20t19 -47q0 -30 -19 -49.5t-48 -19.5zM218 40q0 -36 -12.5 -67t-34 -56.5t-51 -44t-62.5 -30.5l-13 30q54 23 78.5 46.5t24.5 46.5q0 10 -3.5 16t-14.5 10q-23 8 -39.5 23t-16.5 47q0 28 21 45
t46 17q32 0 54.5 -20.5t22.5 -62.5z" />
    <glyph glyph-name="less" unicode="&#x3c;" horiz-adv-x="469" 
d="M61 285v38l319 152v-46l-270 -125l270 -125v-46z" />
    <glyph glyph-name="equal" unicode="=" horiz-adv-x="469" 
d="M50 383v42h369v-42h-369zM50 183v42h369v-42h-369z" />
    <glyph glyph-name="greater" unicode="&#x3e;" horiz-adv-x="469" 
d="M89 133v47l271 124l-271 124v47l319 -152v-38z" />
    <glyph glyph-name="question" unicode="?" horiz-adv-x="447" 
d="M414 507q0 -52 -23 -89t-56.5 -60.5t-72.5 -34.5t-71 -11h-51v-126h-36v163h63q35 0 62 15.5t45.5 43t28 64.5t9.5 80q0 29 -10 52t-26.5 38.5t-38.5 23.5t-46 8q-18 0 -31 -9.5t-19 -38.5q-5 -26 -18.5 -41t-40.5 -15q-23 0 -38.5 12t-15.5 41q0 15 11 30.5t31 28.5
t49.5 21t65.5 8q45 0 76.5 -9t57.5 -24q41 -25 68 -65t27 -106zM193 56q0 -30 -19 -49.5t-48 -19.5q-32 0 -50.5 19.5t-18.5 49.5q0 27 18.5 47t50.5 20q29 0 48 -20t19 -47z" />
    <glyph glyph-name="at" unicode="@" horiz-adv-x="869" 
d="M844 312q0 -65 -20.5 -120.5t-55 -96.5t-80 -64.5t-95.5 -23.5q-49 0 -73.5 23.5t-24.5 63.5q0 18 6 44h-7q-15 -26 -28.5 -45.5t-29.5 -35.5q-26 -26 -54 -38t-55 -12q-18 0 -36.5 6.5t-33.5 22t-25 42t-10 66.5q0 32 9.5 67.5t26.5 71t41.5 67.5t53.5 57t62.5 39.5
t69.5 14.5q31 0 52.5 -18.5t23.5 -50.5h9q8 17 13 31.5t13 29.5h83q-7 -21 -13 -41t-13 -42t-15 -48t-18 -58q-24 -71 -34 -114.5t-10 -58.5q0 -23 10 -35.5t30 -12.5q36 0 70.5 20t62 56t44 85t16.5 108q0 139 -81.5 216t-232.5 77q-76 0 -147.5 -29.5t-127.5 -82.5
t-90 -128t-34 -165q0 -81 23 -145.5t67.5 -109.5t110 -68.5t151.5 -23.5q48 0 94 7.5t87 20t75.5 29t59.5 34.5l16 -26q-25 -19 -60 -36t-77.5 -30t-91 -21t-101.5 -8q-93 0 -169 25.5t-130 73t-83.5 115.5t-29.5 153q0 99 39 180.5t103 140t146 91t168 32.5q83 0 148 -23
t110 -65t68.5 -101.5t23.5 -132.5zM535 358q0 69 -50 69q-56 0 -104 -76q-19 -31 -31.5 -64.5t-19.5 -65.5t-9.5 -60t-2.5 -46q0 -37 11 -52t29 -15q19 0 36.5 12t33.5 31q9 12 16 21.5t13 18.5t11.5 19t12.5 23q11 19 17.5 35.5t11.5 33.5q11 32 18 62t7 54z" />
    <glyph glyph-name="A" unicode="A" horiz-adv-x="691" 
d="M205 278h193l-92 247h-11zM238 0h-242v36q28 3 48 14q9 5 18.5 15t17.5 25q15 28 40 95l198 517h43l195 -521q11 -29 20.5 -49t19.5 -35q13 -19 26 -29.5t27 -18.5q9 -4 17.5 -7.5t19.5 -5.5v-36h-317v36q20 2 29.5 4t18.5 6q15 7 25.5 15t10.5 33q0 23 -6.5 46.5
t-17.5 52.5l-17 45h-222l-22 -61q-9 -24 -12 -41t-3 -35q0 -21 9.5 -35t23.5 -20q9 -4 23.5 -6.5t28.5 -3.5v-36z" />
    <glyph glyph-name="B" unicode="B" horiz-adv-x="666" 
d="M35 36q24 2 38 7q17 5 28.5 14t20.5 26q4 9 7 19t5 22.5t2.5 29t0.5 39.5v313q0 24 -0.5 40.5t-2.5 28.5t-5 21.5t-7 19.5q-9 17 -20.5 25.5t-28.5 14.5q-15 5 -38 6v36h315q43 0 87.5 -7t79.5 -25t57.5 -48.5t22.5 -77.5q0 -28 -7.5 -49t-20 -37t-29.5 -28t-35 -22
q-15 -8 -32.5 -14t-46.5 -12v-7q40 -4 78 -15.5t67 -32t46.5 -52t17.5 -75.5q0 -45 -19 -81t-51 -61.5t-74.5 -39.5t-89.5 -14h-366v36zM355 390q42 0 66.5 9.5t38.5 28.5q17 23 23 54.5t6 57.5q0 35 -10 58.5t-28 37.5t-43 20t-56 6h-74q-18 0 -23 -6q-5 -7 -5 -19v-247
h105zM373 36q36 0 65.5 9.5t49.5 30.5q17 19 24.5 48t7.5 72q0 34 -8 67t-31 56q-20 20 -53 26.5t-73 6.5h-105v-198q0 -37 4 -60.5t18 -37.5q11 -12 31.5 -16t47.5 -4h22z" />
    <glyph glyph-name="C" unicode="C" horiz-adv-x="679" 
d="M371 670q-26 0 -51 -5.5t-48 -19.5t-44 -36t-36.5 -57t-24.5 -84.5t-9 -118.5q0 -65 7.5 -110t21 -75.5t32.5 -50.5t41 -35q28 -20 56.5 -27.5t75.5 -7.5q71 0 130 31t94 100l30 -17q-19 -38 -44.5 -69.5t-60 -54t-78.5 -35t-101 -12.5q-74 0 -133.5 27t-102.5 75
t-66 114.5t-23 146.5q0 79 28 145.5t74.5 114.5t106.5 75t125 27q40 0 70.5 -5.5t53 -13.5t38 -18.5t26.5 -20.5h8l34 46h22v-239h-38q-13 54 -31 89t-36 57q-13 15 -25.5 27t-28.5 20.5t-38.5 12.5t-54.5 4z" />
    <glyph glyph-name="D" unicode="D" horiz-adv-x="748" 
d="M348 698q63 0 110 -11.5t80 -30.5q36 -20 68 -49t56 -67.5t37.5 -85.5t13.5 -104q0 -58 -12.5 -105.5t-35 -86t-53.5 -67.5t-68 -50q-33 -18 -78.5 -29.5t-90.5 -11.5h-340v36q24 2 38 7q17 5 28.5 14t20.5 26q4 9 7 19t5 22.5t2.5 29t0.5 39.5v312q0 24 -0.5 40.5
t-2.5 29t-5 22t-7 19.5q-9 17 -20.5 25.5t-28.5 14.5q-15 5 -38 6v36h313zM598 348q0 101 -26 165t-68 101q-30 26 -74.5 37t-85.5 11h-66q-8 0 -12.5 -1t-9.5 -6q-6 -6 -6 -25v-476q0 -37 4 -60.5t18 -37.5q11 -12 31.5 -16t47.5 -4h14q35 0 74.5 13t68.5 40q20 20 36.5 44
t28.5 55t18.5 70t6.5 90z" />
    <glyph glyph-name="E" unicode="E" horiz-adv-x="644" 
d="M576 0h-541v36q24 2 38 7q17 5 28.5 14t20.5 26q4 9 7 19t5 22.5t2.5 29t0.5 39.5v312q0 24 -0.5 40.5t-2.5 29t-5 22t-7 19.5q-9 17 -20.5 25.5t-28.5 14.5q-15 5 -38 6v36h522l31 -173h-34q-10 18 -18 32t-16 25.5t-18 22t-23 20.5q-14 12 -44.5 24.5t-75.5 12.5h-49
q-14 0 -27.5 -3.5t-21.5 -14.5q-9 -11 -10.5 -24.5t-1.5 -33.5v-207h46q35 0 56.5 6.5t36.5 20.5q21 19 26.5 40t8.5 45h33v-261h-33q-3 25 -9.5 47t-27.5 41q-15 14 -36 19t-55 5h-46v-188q0 -37 4 -60.5t18 -37.5q11 -12 31.5 -16t47.5 -4h18q28 0 47.5 4t34.5 10.5
t26.5 15t22.5 18.5q33 30 47.5 56.5t28.5 55.5h32z" />
    <glyph glyph-name="F" unicode="F" horiz-adv-x="605" 
d="M359 0h-324v36q24 2 38 7q17 5 28.5 14t20.5 26q4 9 7 19t5 22.5t2.5 29t0.5 39.5v312q0 24 -0.5 40.5t-2.5 29t-5 22t-7 19.5q-9 17 -20.5 25.5t-28.5 14.5q-15 5 -38 6v36h521l29 -191h-32q-21 38 -40.5 67t-45.5 49q-14 12 -41.5 25.5t-75.5 13.5h-39
q-14 0 -27.5 -2.5t-21.5 -13.5q-9 -11 -10.5 -24.5t-1.5 -33.5v-204h31q35 0 57 6t37 20q20 20 25.5 40.5t9.5 44.5h33v-261h-33q-4 25 -10.5 47t-26.5 41q-16 14 -36.5 19.5t-55.5 5.5h-31v-154q0 -23 0.5 -39.5t2.5 -29t4.5 -22.5t7.5 -19q9 -17 20.5 -26t28.5 -14
q8 -3 20.5 -4.5t24.5 -2.5v-36z" />
    <glyph glyph-name="G" unicode="G" horiz-adv-x="760" 
d="M519 177q0 17 -1 29.5t-3 22t-5 18t-8 17.5q-8 17 -19.5 23.5t-28.5 12.5q-15 4 -39 6v35h315v-35q-25 -2 -38 -6q-17 -6 -28.5 -14.5t-20.5 -25.5q-10 -19 -12.5 -54t-2.5 -83v-86q-11 -7 -32 -14.5t-48 -14.5q-29 -6 -76 -14t-96 -8q-79 0 -141.5 27t-105.5 75
t-66 114.5t-23 146.5q0 79 27 145.5t73 114.5t105 75t124 27q42 0 74 -5.5t55.5 -13.5t40 -18.5t27.5 -20.5h7l31 46h22v-239h-34q-13 54 -28 88t-38 59q-14 15 -28 26.5t-31.5 20t-41 12.5t-57.5 4q-24 0 -46.5 -5.5t-46.5 -19.5q-20 -12 -39.5 -33.5t-35 -57t-25 -86
t-9.5 -119.5q0 -66 6 -113.5t18 -81t30 -55.5t42 -37q28 -17 54 -25.5t61 -8.5q29 0 48.5 2.5t32.5 6t21.5 9t15.5 11.5q4 3 8 8t7.5 14.5t6 25.5t2.5 40v32v0z" />
    <glyph glyph-name="H" unicode="H" horiz-adv-x="811" 
d="M349 0h-314v36q24 2 38 7q17 5 28.5 14t20.5 26q4 9 7 19t5 22.5t2.5 29t0.5 39.5v312q0 24 -0.5 40.5t-2.5 29t-5 22t-7 19.5q-9 17 -20.5 26t-28.5 14q-10 3 -18 4t-20 2v36h314v-36q-12 -1 -19.5 -2t-15.5 -4q-16 -6 -28 -14.5t-21 -25.5q-5 -10 -7.5 -19.5t-4.5 -22
t-2.5 -29t-0.5 -40.5v-132h311v132q0 24 -0.5 40.5t-2.5 29t-5 22t-7 19.5q-9 17 -20.5 25.5t-28.5 14.5q-8 3 -15.5 4t-19.5 2v36h314v-36q-12 -1 -21 -2t-17 -4q-17 -6 -28.5 -14.5t-20.5 -25.5q-5 -10 -7.5 -19.5t-4.5 -22t-2.5 -29t-0.5 -40.5v-312q0 -23 0.5 -39.5
t2.5 -29t4.5 -22.5t7.5 -19q9 -17 21 -26t28 -14q9 -3 17.5 -4.5t20.5 -2.5v-36h-314v36q11 1 18.5 2.5t16.5 4.5q17 5 28.5 14t20.5 26q4 9 7 19t5 22.5t2.5 29t0.5 39.5v140h-311v-140q0 -23 0.5 -39.5t2.5 -29t4.5 -22.5t7.5 -19q9 -17 20.5 -26t28.5 -14q9 -3 16.5 -4.5
t18.5 -2.5v-36z" />
    <glyph glyph-name="I" unicode="I" horiz-adv-x="387" 
d="M250 193q0 -23 0.5 -39.5t2.5 -29t4.5 -22.5t7.5 -19q9 -17 21 -25.5t28 -14.5q14 -5 38 -7v-36h-317v36q23 1 38 7q17 6 28.5 14.5t20.5 25.5q4 9 7 19t5 22.5t2.5 29t0.5 39.5v312q0 24 -0.5 40.5t-2.5 29t-5 22t-7 19.5q-9 17 -20 26t-29 14q-15 5 -38 6v36h317v-36
q-23 -1 -38 -6q-17 -5 -28.5 -14t-20.5 -26q-5 -10 -7.5 -19.5t-4.5 -22t-2.5 -29t-0.5 -40.5v-312z" />
    <glyph glyph-name="J" unicode="J" horiz-adv-x="437" 
d="M215 505q0 24 -0.5 40.5t-2 29t-4.5 22t-8 18.5q-8 17 -19.5 26t-28.5 15q-15 4 -39 6v36h315v-36q-25 -2 -38 -6q-17 -6 -28.5 -15t-20.5 -26q-5 -9 -8 -18.5t-4.5 -22t-2 -29t-0.5 -40.5v-293q0 -36 -6 -63.5t-15 -48t-20 -35.5t-20 -25q-24 -25 -56 -40t-77 -15
q-12 0 -26 1.5t-29 5.5t-29 10.5t-25 16.5t-21 28t-10 38q0 28 17.5 43.5t41.5 15.5q31 0 46 -23q11 -19 16 -45q2 -9 5 -17.5t8 -15.5q6 -8 14 -11.5t16 -3.5q16 0 27 6t20 26q11 24 11.5 55.5t0.5 58.5v331v0z" />
    <glyph glyph-name="K" unicode="K" horiz-adv-x="712" 
d="M349 0h-319v36q24 2 38 7q17 5 28.5 14t20.5 26q4 9 7 19t5 22.5t2.5 29t0.5 39.5v312q0 24 -0.5 40.5t-2.5 29t-5 22t-7 19.5q-9 17 -20.5 25.5t-28.5 14.5q-15 5 -38 6v36h319v-36q-25 -2 -40 -6q-17 -6 -28.5 -14.5t-20.5 -25.5q-5 -10 -7.5 -19.5t-4.5 -22t-2.5 -29
t-0.5 -40.5v-137l156 153q33 33 52 54.5t19 42.5q0 19 -9 25.5t-21 11.5q-8 3 -18.5 4.5t-21.5 2.5v36h273v-36q-17 -2 -41 -11.5t-43 -20.5q-24 -14 -49.5 -35t-65.5 -61l-127 -120v-8q55 0 91.5 -12t61.5 -37q29 -29 50 -70t27 -100q4 -35 9.5 -57t13 -36t15.5 -22.5
t17 -14.5q11 -8 32 -13.5t32 -7.5v-36h-182q-9 8 -18 25.5t-17 40.5t-14 49.5t-8 53.5q-5 56 -13.5 90t-18.5 53q-17 30 -34.5 45t-54.5 15q-17 0 -32.5 -9.5t-28.5 -20.5q-7 -6 -16 -15.5t-16 -18.5v-115q0 -23 0.5 -39.5t2.5 -29t4.5 -22.5t7.5 -19q9 -17 20.5 -26
t28.5 -14q8 -3 18 -4.5t22 -2.5v-36z" />
    <glyph glyph-name="L" unicode="L" horiz-adv-x="622" 
d="M35 36q24 2 38 7q17 5 28.5 14t20.5 26q4 9 7 19t5 22.5t2.5 29t0.5 39.5v312q0 24 -0.5 40.5t-2.5 29t-5 22t-7 19.5q-9 17 -20.5 25.5t-28.5 14.5q-15 5 -38 6v36h315v-36q-23 -1 -38 -6q-17 -6 -28.5 -14.5t-20.5 -25.5q-5 -10 -7.5 -19.5t-4.5 -22t-2.5 -29
t-0.5 -40.5v-351q0 -37 4 -60.5t18 -37.5q11 -12 29.5 -16t45.5 -4h7q27 0 47 3.5t35 10.5t26.5 15.5t22.5 19.5q36 34 55.5 64.5t35.5 64.5h33l-36 -214h-536v36z" />
    <glyph glyph-name="M" unicode="M" horiz-adv-x="937" 
d="M902 662q-25 -2 -38 -6q-17 -5 -28.5 -14t-20.5 -26q-5 -10 -8 -19.5t-4.5 -22t-2 -29t-0.5 -39.5v-314q0 -23 0.5 -39.5t2 -29t4.5 -22t8 -19.5q9 -17 20.5 -26t28.5 -14q13 -4 38 -6v-36h-321v36q12 1 23.5 2.5t19.5 3.5q17 5 28.5 14t19.5 26q5 10 8 19.5t4.5 22t2 29
t0.5 39.5v401h-10l-210 -597h-51l-213 597h-11v-423q0 -42 4.5 -61.5t14.5 -32.5q9 -14 19 -21t24 -11q11 -3 20 -4.5t24 -3.5v-36h-266v36q24 2 40 6q14 4 24.5 10.5t22.5 20.5t18 34.5t6 62.5v336q0 23 -0.5 39.5t-2 29t-4.5 22t-8 19.5q-8 17 -20 26t-29 14q-7 2 -21 3.5
t-26 2.5v36h259l182 -522h10l182 522h237v-36z" />
    <glyph glyph-name="N" unicode="N" horiz-adv-x="773" 
d="M603 -8l-396 579h-10v-401q0 -42 5 -61.5t14 -32.5q10 -14 20 -20.5t24 -11.5q11 -3 20 -4.5t23 -3.5v-36h-265v36q11 1 21.5 2.5t18.5 3.5q14 4 24.5 10.5t21.5 20.5q12 14 18.5 34.5t6.5 62.5v291q0 58 -6 88.5t-15 49.5q-8 17 -20 28.5t-39 25.5q-15 7 -40 9v36h228
l340 -504h9v333q0 42 -5.5 63.5t-17.5 35.5t-23 19.5t-25 9.5q-8 3 -21 4.5t-24 2.5v36h270v-36q-14 -2 -23 -4t-20 -5q-14 -4 -24 -11t-19 -21q-10 -13 -15 -32.5t-5 -61.5v-535h-51z" />
    <glyph glyph-name="O" unicode="O" horiz-adv-x="746" 
d="M373 711q69 0 130 -27t106.5 -75t72.5 -114.5t27 -145.5q0 -80 -27 -146.5t-72.5 -114.5t-106.5 -75t-130 -27t-130 27t-106.5 75t-72.5 114.5t-27 146.5q0 79 27 145.5t72.5 114.5t106.5 75t130 27zM373 27q58 0 104 29q21 14 41 35.5t35.5 55.5t24.5 83.5t9 118.5
t-9 118t-24.5 83t-35.5 55.5t-41 35.5q-46 29 -104 29t-104 -29q-21 -14 -41 -35.5t-35 -55.5t-24 -83t-9 -118t9 -118.5t24 -83.5t35 -55.5t41 -35.5q46 -29 104 -29z" />
    <glyph glyph-name="P" unicode="P" horiz-adv-x="610" 
d="M354 0h-318v36q24 2 38 7q17 5 28.5 14t20.5 26q4 9 7 19t5 22.5t2.5 29t0.5 39.5v313q0 24 -0.5 40.5t-2.5 29t-5 22t-7 19.5q-9 17 -20.5 26t-28.5 14q-8 2 -17.5 3t-21.5 2v36h314q54 0 99 -12t77 -35t49.5 -57t17.5 -78q0 -59 -25.5 -100t-63.5 -62
q-28 -15 -75 -28.5t-118 -13.5h-60v-119q0 -23 0.5 -39.5t2.5 -29t4.5 -22.5t7.5 -19q9 -17 20.5 -26t28.5 -14q8 -3 18 -4.5t22 -2.5v-36zM250 350h60q57 0 92 15.5t52 38.5t21.5 52.5t4.5 55.5q0 70 -33.5 110t-113.5 40h-54q-17 0 -23 -7q-2 -3 -4 -8t-2 -14v-283z" />
    <glyph glyph-name="Q" unicode="Q" horiz-adv-x="742" 
d="M600 -138q-67 0 -107 32t-64 97q-14 -2 -28 -3.5t-28 -1.5q-69 0 -130 27t-106.5 75t-72.5 114.5t-27 146.5q0 79 27 145.5t72.5 114.5t106.5 75t130 27t130 -27t106.5 -75t72.5 -114.5t27 -145.5q0 -54 -12.5 -102.5t-35.5 -89t-55 -73t-70 -54.5q10 -32 18.5 -55
t19.5 -38t26 -22.5t38 -7.5q25 0 42 8t34 22l18 -27q-20 -18 -51.5 -33t-80.5 -15zM346 206q62 0 105.5 -34.5t64.5 -82.5q15 16 28 39t22.5 54.5t15 72.5t5.5 94q0 69 -9 118t-24.5 83t-35.5 55.5t-41 35.5q-46 29 -104 29t-104 -29q-21 -14 -41 -35.5t-35 -55.5t-24 -83
t-9 -118q0 -79 11.5 -131.5t29.5 -87.5q21 33 56.5 54.5t88.5 21.5zM373 27q24 0 43 4q-10 32 -19.5 55t-21.5 37.5t-27.5 21.5t-37.5 7q-26 0 -49 -15.5t-36 -41.5q11 -13 22 -22t22 -17q46 -29 104 -29z" />
    <glyph glyph-name="R" unicode="R" horiz-adv-x="717" 
d="M275 662q-9 0 -14 -0.5t-7 -4.5q-4 -4 -4 -21v-268h73q31 0 52 2.5t35.5 7.5t24.5 13.5t19 19.5q29 40 29 107q0 71 -31.5 107.5t-103.5 36.5h-73zM352 0h-317v36q24 2 38 7q17 5 28.5 14t20.5 26q4 9 7 19t5 22.5t2.5 29t0.5 39.5v312q0 24 -0.5 40.5t-2.5 29t-5 22
t-7 19.5q-9 17 -20.5 25.5t-28.5 14.5q-15 5 -38 6v36h328q52 0 95 -13t74 -36.5t48 -56.5t17 -74q0 -49 -22.5 -80t-54.5 -52q-14 -9 -37 -18.5t-64 -17.5v-8q25 -3 48 -10.5t38 -18.5q12 -8 23 -16.5t20.5 -21.5t17.5 -31.5t13 -45.5q6 -35 13 -59t14.5 -40t15.5 -26
t17 -16q11 -8 28 -13.5t38 -7.5v-36h-181q-9 10 -17 26t-14.5 36t-12 42t-8.5 45q-5 31 -8.5 52.5t-8.5 38t-12 29.5t-18 27q-17 22 -43.5 28t-61.5 6h-70v-137q0 -23 0.5 -39.5t2.5 -29t4.5 -22.5t7.5 -19q9 -17 20.5 -26t28.5 -14q14 -5 38 -7v-36z" />
    <glyph glyph-name="S" unicode="S" horiz-adv-x="546" 
d="M513 193q0 -50 -19 -88.5t-51 -64.5t-73 -40t-86 -14q-57 0 -102.5 21.5t-71.5 46.5h-10l-28 -49h-25l-10 231h34q15 -41 37.5 -79t50 -67.5t59.5 -47.5t66 -18q69 0 104 34t35 86q0 35 -13 58.5t-36 41t-54.5 32.5t-69.5 34q-36 18 -70.5 36.5t-61.5 43.5t-43.5 58
t-16.5 80q0 40 15.5 74t42.5 58t63.5 37.5t78.5 13.5q30 0 51 -3.5t36.5 -9.5t28 -15.5t26.5 -21.5h9l22 42h31l17 -203h-34q-16 41 -36 75.5t-44 57.5q-19 18 -42 29t-65 11q-45 0 -76.5 -26t-31.5 -75q0 -35 13 -58t34 -39.5t48 -29.5t55 -27q41 -21 79.5 -40.5t68 -44
t47.5 -58t18 -82.5z" />
    <glyph glyph-name="T" unicode="T" horiz-adv-x="670" 
d="M392 193q0 -23 0.5 -39.5t2 -29t4.5 -22.5t8 -19q8 -17 19.5 -26t28.5 -14q13 -5 38 -7v-36h-316v36q26 2 38 7q17 5 28.5 14t20.5 26q5 9 8 19t4.5 22.5t2 29t0.5 39.5v467h-29q-36 0 -65 -7.5t-62 -31.5q-18 -14 -30.5 -26t-21.5 -24t-16 -25t-14 -28h-34l31 180h594
l31 -180h-32q-15 31 -32 54.5t-51 48.5q-33 24 -62.5 31.5t-65.5 7.5h-28v-467v0z" />
    <glyph glyph-name="U" unicode="U" horiz-adv-x="752" 
d="M638 234q0 -54 -7.5 -91t-30.5 -71q-26 -39 -78 -62t-136 -23q-41 0 -81.5 7.5t-75.5 23t-61.5 40t-39.5 59.5q-6 15 -9.5 34t-5.5 39t-3 39t-1 34v242q0 24 -0.5 40.5t-2 29t-4.5 22t-8 18.5q-8 17 -19.5 26t-28.5 15q-15 4 -39 6v36h318v-36q-25 -2 -38 -6
q-17 -6 -28.5 -15t-20.5 -26q-5 -9 -8 -18.5t-5 -22t-2.5 -29t-0.5 -39.5v-282q0 -23 3 -46.5t11 -49.5q9 -29 24 -48t36 -30.5t46 -16t53 -4.5q129 0 169 67q15 25 21 56t6 76v299q0 43 -6 64t-18 35t-22.5 19.5t-24.5 10.5q-8 2 -21 3.5t-24 2.5v36h269v-36q-26 -3 -43 -8
q-14 -5 -24 -11.5t-20 -20.5q-10 -13 -14.5 -32.5t-4.5 -62.5v-293v0z" />
    <glyph glyph-name="V" unicode="V" horiz-adv-x="696" 
d="M389 170h9l126 348q8 23 12.5 41.5t4.5 37.5q0 20 -9.5 34.5t-23.5 20.5q-9 4 -23.5 6t-28.5 4v36h240v-36q-15 -2 -27.5 -5t-22.5 -9t-19.5 -15.5t-17.5 -25.5q-8 -14 -17.5 -36.5t-22.5 -57.5l-193 -518h-42l-195 521q-10 28 -20 49t-20 36q-13 18 -26 29t-27 19
q-9 4 -19.5 7t-21.5 6v36h332v-36q-40 -4 -55 -9t-26.5 -14.5t-11.5 -34.5q0 -24 9 -50t17 -49z" />
    <glyph glyph-name="W" unicode="W" horiz-adv-x="1044" 
d="M535 478h-6l-169 -483h-41l-175 513q-23 67 -43 95q-13 19 -25 28.5t-26 17.5q-9 4 -20 7.5t-24 5.5v36h325v-36q-20 -2 -33.5 -4.5t-21.5 -4.5q-15 -5 -26 -14.5t-11 -29.5q0 -24 7 -47.5t18 -55.5l108 -332h7l131 375q-8 23 -15 37t-15 26q-13 18 -23.5 27t-25.5 14
q-17 6 -40 9v36h320v-36q-37 -3 -54 -8q-15 -5 -26 -13t-11 -32t8 -52t16 -51l108 -332h7l113 344q10 31 14 48t4 35q0 21 -9.5 33t-23.5 18q-9 4 -23.5 6t-28.5 4v36h240v-36q-15 -2 -27.5 -5t-23.5 -9q-17 -11 -36 -41q-8 -12 -17.5 -35t-22.5 -59l-178 -518h-41z" />
    <glyph glyph-name="X" unicode="X" horiz-adv-x="701" 
d="M-6 0v36q11 2 21 5.5t23 9.5q25 12 52 38q11 11 28.5 31.5t43.5 54.5l127 167l-114 165q-27 39 -46 67t-37 46.5t-38.5 28.5t-48.5 13v36h334v-36q-38 -3 -63 -11.5t-25 -29.5q0 -15 6 -27.5t19 -31.5l100 -146h6l84 109q21 26 31 44.5t10 38.5q0 17 -9.5 28.5
t-24.5 17.5q-7 3 -20 4.5t-27 3.5v36h260v-36q-8 -1 -20.5 -5.5t-22.5 -9.5q-12 -5 -24 -13t-25 -20q-11 -10 -28.5 -31.5t-46.5 -59.5l-114 -148l126 -184q23 -33 42 -60.5t38 -47.5t40.5 -32t49.5 -15v-36h-336v36q16 2 31 5t27 8.5t19 14t7 20.5q0 14 -6 29.5t-29 47.5
l-96 139h-4l-101 -133q-20 -27 -28.5 -42.5t-8.5 -34.5q0 -17 10 -28.5t24 -16.5q8 -3 21 -5t27 -4v-36h-264z" />
    <glyph glyph-name="Y" unicode="Y" horiz-adv-x="646" 
d="M106 555q-18 31 -32 50.5t-27 31t-26.5 17t-28.5 8.5v36h307v-36q-37 -3 -54 -8q-35 -12 -32 -39.5t30 -72.5l112 -185h6l98 167q21 34 27 53t6 39q0 17 -6.5 25.5t-20.5 13.5q-8 3 -21.5 4.5t-21.5 2.5v36h230v-36q-27 -3 -46 -13t-35.5 -27.5t-32 -43.5t-35.5 -62
l-128 -219v-104q0 -23 0.5 -39.5t2 -29t4 -22.5t7.5 -19q9 -17 21 -25.5t28 -14.5q10 -4 18 -5t20 -2v-36h-316v36q12 1 20.5 2.5t17.5 4.5q16 5 28 14t21 26q5 9 8 19t4.5 22.5t2 29t0.5 39.5v105z" />
    <glyph glyph-name="Z" unicode="Z" horiz-adv-x="624" 
d="M581 671l-404 -635h87q36 0 62.5 2t46.5 5.5t36.5 9.5t33.5 15q27 14 47 32.5t34.5 38t25.5 39t21 37.5h37l-59 -215h-512v27l411 635h-109q-27 0 -48 -2t-38.5 -6t-32 -11.5t-28.5 -17.5q-27 -20 -51.5 -49t-44.5 -71h-36l40 193h481v-27z" />
    <glyph glyph-name="bracketleft" unicode="[" horiz-adv-x="345" 
d="M100 -120v870h235v-36h-151v-798h151v-36h-235z" />
    <glyph glyph-name="backslash" unicode="\" horiz-adv-x="420" 
d="M67 768l367 -932l-53 -21l-367 932z" />
    <glyph glyph-name="bracketright" unicode="]" horiz-adv-x="345" 
d="M245 -120h-235v36h151v798h-151v36h235v-870z" />
    <glyph glyph-name="asciicircum" unicode="^" 
d="M135 456h-50l121 251h48l121 -251h-50l-95 203z" />
    <glyph glyph-name="underscore" unicode="_" horiz-adv-x="295" 
d="M-5 -167v46h305v-46h-305z" />
    <glyph glyph-name="grave" unicode="`" 
d="M310 568l-162 72q-58 26 -58 61q0 22 11.5 35t31.5 13q22 0 39.5 -12t40.5 -33t48.5 -46t66.5 -62z" />
    <glyph glyph-name="a" unicode="a" horiz-adv-x="500" 
d="M492 14q-8 -5 -35 -14.5t-58 -9.5q-22 0 -35 3.5t-22 9.5q-11 8 -18.5 22.5t-10.5 40.5h-11q-5 -10 -15 -23t-26 -25t-39 -20t-53 -8q-64 0 -101.5 32.5t-37.5 97.5q0 22 9 46.5t29 43.5q27 24 55 35t72 24q48 14 71 26.5t33 28.5v89q0 36 -14 51.5t-47 15.5
q-32 0 -54 -13q-8 -6 -16 -18.5t-12 -35.5q-7 -49 -50 -49q-20 0 -33 12.5t-13 33.5q0 31 23 54q19 20 59.5 37t94.5 17q78 0 121 -23.5t43 -83.5v-276q0 -20 0.5 -33.5t2 -22t3.5 -14t4 -9.5q9 -19 35 -19q9 0 20 2t17 5zM299 282q-8 -8 -27 -18t-45 -21q-24 -11 -42.5 -21
t-29.5 -23q-11 -14 -19.5 -30.5t-8.5 -44.5q0 -24 7 -40t17.5 -25t24 -13t27.5 -4q35 0 60.5 18.5t35.5 50.5v171z" />
    <glyph glyph-name="b" unicode="b" horiz-adv-x="594" 
d="M182 756q7 0 7 -7q0 -26 -1.5 -56t-1.5 -78v-175h9q29 42 65 60t87 18q38 0 76 -13.5t68 -45t49 -82t19 -123.5q0 -69 -22 -118.5t-56.5 -82t-78 -47.5t-85.5 -15q-43 0 -82.5 21t-59.5 56h-16l-49 -69h-28q2 26 2.5 53t0.5 50v525q0 12 -1 29.5t-3 25.5q-7 20 -21 29
q-11 6 -22.5 8.5t-31.5 3.5v33h176zM327 471q-29 0 -52 -7.5t-43 -25.5q-16 -14 -31 -40.5t-15 -70.5v-132q0 -46 7 -74.5t24 -47.5q18 -21 44.5 -31.5t51.5 -10.5q69 0 104 59.5t35 163.5q0 61 -10 103t-27 67t-39.5 36t-48.5 11z" />
    <glyph glyph-name="c" unicode="c" horiz-adv-x="508" 
d="M284 480q-20 0 -40.5 -6t-35.5 -18q-32 -25 -49.5 -74t-17.5 -127t19 -123.5t51 -71.5q15 -11 35 -18t41 -7q39 0 67 10t47.5 25.5t31 35.5t19.5 41l35 -13q-20 -65 -73 -104.5t-138 -39.5q-45 0 -81 13t-68 37q-45 34 -69 88.5t-24 126.5q0 61 20.5 110t55 83t79.5 52
t95 18q37 0 64.5 -5.5t46.5 -13.5t32 -18.5t22 -19.5q12 -14 17.5 -27.5t5.5 -25.5q0 -30 -14 -42t-34 -12q-28 0 -40.5 17t-20.5 46q-10 34 -26.5 48.5t-52.5 14.5z" />
    <glyph glyph-name="d" unicode="d" horiz-adv-x="593" 
d="M405 342q0 29 -6.5 55t-24.5 46q-17 18 -36.5 26t-48.5 8q-30 0 -56.5 -12.5t-47 -39t-32.5 -69t-12 -102.5q0 -62 12 -104.5t32.5 -68.5t46 -37t52.5 -11q28 0 50 11.5t38 32t24.5 47.5t8.5 58v160zM432 0q-10 0 -13 6q-2 5 -2 10v12v55h-11q-17 -42 -56 -67.5
t-95 -25.5q-43 0 -83 17.5t-70.5 51t-49 83t-18.5 112.5q0 69 21.5 119t56 82.5t77.5 47.5t87 15q27 0 46.5 -5t33.5 -13t23.5 -17.5t16.5 -17.5h9v163q0 11 -1.5 28t-4.5 25q-2 9 -9 16.5t-15 12.5q-20 11 -54 13v33h182q7 0 7 -7q-1 -22 -2.5 -54t-1.5 -80v-479
q0 -15 0.5 -28t3.5 -24q4 -15 11.5 -25t22.5 -17q7 -3 17 -5t21 -3v-34h-150z" />
    <glyph glyph-name="e" unicode="e" horiz-adv-x="523" 
d="M489 139q-24 -65 -77 -107t-133 -42q-52 0 -91.5 15.5t-68.5 41.5q-45 39 -65 94.5t-20 112.5q0 58 20 106.5t54 83.5t78 54.5t91 19.5q56 0 96 -18t65 -46t36.5 -61.5t11.5 -63.5q0 -17 -1 -33t-3 -25h-337v-17q0 -51 10.5 -100t40.5 -81q17 -18 41.5 -28.5t58.5 -10.5
q36 0 62 10t45.5 26.5t33 38t22.5 44.5zM203 452q-8 -8 -16.5 -19t-16.5 -28t-14 -40.5t-9 -56.5h202q17 0 25.5 11t8.5 41q0 35 -5 54t-20 36q-13 15 -32 22t-48 7q-19 0 -38.5 -6t-36.5 -21z" />
    <glyph glyph-name="f" unicode="f" horiz-adv-x="346" 
d="M30 0v34q10 1 21 3.5t17 4.5q28 14 35 43q2 11 2.5 24t0.5 29v325h-78v42h78v56q0 65 18.5 102t42.5 57q46 39 112 39q38 0 57 -5.5t34 -14.5q23 -14 34.5 -34t11.5 -43t-12 -37t-35 -14q-16 0 -25.5 5.5t-16.5 15.5q-6 8 -10 19t-7 23q-2 10 -3.5 16t-6.5 14
q-4 6 -11.5 11t-21.5 5q-17 0 -27 -6.5t-18 -19.5q-11 -17 -12.5 -37t-1.5 -52v-100h129v-42h-129v-325q0 -6 0.5 -24t3.5 -29q4 -15 10.5 -25t21.5 -18q6 -2 19 -4.5t23 -3.5v-34h-256z" />
    <glyph glyph-name="g" unicode="g" horiz-adv-x="567" 
d="M150 350q0 -37 7.5 -62t21 -40t30.5 -21.5t37 -6.5t39.5 6.5t34.5 21.5t24.5 40t9.5 62q0 36 -9 61t-23.5 40.5t-33 22.5t-38.5 7t-38 -7t-31.5 -22.5t-22 -40.5t-8.5 -61zM520 -21q0 -46 -25.5 -80.5t-66 -57t-91.5 -34t-102 -11.5q-117 0 -171 31.5t-54 84.5
q0 44 38 67t97 32v10q-35 6 -61 30.5t-26 61.5q0 21 7 35.5t19 25t27.5 17t32.5 10.5v7q-39 20 -66 54t-27 88q0 40 17 71.5t45 53t64.5 32.5t74.5 11q49 0 91.5 -15t71.5 -53h11q8 32 34.5 50t58.5 18t47 -17.5t15 -41.5q0 -23 -12.5 -33t-29.5 -10q-14 0 -22 5t-15 16
q-6 11 -11.5 17.5t-16.5 6.5q-10 0 -20 -14.5t-10 -34.5q0 -8 2.5 -16.5t4.5 -19.5q1 -6 1.5 -12t0.5 -14q0 -42 -18.5 -73.5t-47.5 -53t-65.5 -32t-73.5 -10.5q-14 0 -28.5 1.5t-25.5 1.5q-25 0 -47 -8.5t-22 -32.5q0 -21 15.5 -31.5t44.5 -10.5q9 0 33 1t51.5 2t53.5 2
t39 1q34 0 63 -4t50 -17.5t33 -39t12 -67.5zM450 -50q0 20 -6.5 31.5t-18 17.5t-27.5 8t-36 2q-32 1 -71.5 -0.5t-68.5 -4.5q-18 -2 -41.5 -5.5t-44.5 -13t-35 -26t-14 -44.5q0 -23 11.5 -38.5t32.5 -24.5t50.5 -13t65.5 -4q38 0 74.5 6t65 20t46 35.5t17.5 53.5z" />
    <glyph glyph-name="h" unicode="h" horiz-adv-x="624" 
d="M278 0h-249v34q10 1 21 3.5t17 4.5q28 14 35 43q2 11 2.5 24t0.5 29v488q0 12 -0.5 29t-2.5 25q-7 20 -22 28q-11 7 -24.5 9.5t-30.5 4.5v34h174q7 0 7 -8v-319h11q12 15 25 30t33 27q47 32 110 32q58 0 93 -25q23 -17 36 -44t13 -63v-248q0 -16 0.5 -29t2.5 -24
q4 -15 11.5 -25t23.5 -18q6 -2 16.5 -4.5t20.5 -3.5v-34h-249v34q10 1 20.5 3.5t17.5 4.5q15 8 21.5 18t10.5 25q2 11 2.5 24t0.5 29v238q0 20 -4.5 37t-16.5 29q-18 17 -59 17q-32 0 -62 -12.5t-49 -38.5q-14 -19 -21.5 -46.5t-7.5 -55.5v-168q0 -16 0.5 -29t3.5 -24
q4 -15 10.5 -25t21.5 -18q6 -2 16 -4.5t20 -3.5v-34z" />
    <glyph glyph-name="i" unicode="i" horiz-adv-x="302" 
d="M159 608q-28 0 -46 17.5t-18 45.5t18 45.5t46 17.5t46 -17.5t18 -45.5t-18 -45.5t-46 -17.5zM204 138q0 -16 0.5 -29t3.5 -24q4 -15 11.5 -25t23.5 -18q6 -2 16.5 -4.5t20.5 -3.5v-34h-251v34q10 1 20 3.5t16 4.5q28 14 35 43q2 11 2.5 24t0.5 29v232q0 12 -0.5 29
t-2.5 25q-6 18 -22 28q-20 12 -53 19v34h175q7 0 7 -8q-1 -21 -2 -47.5t-1 -65.5v-246z" />
    <glyph glyph-name="j" unicode="j" horiz-adv-x="285" 
d="M156 608q-28 0 -46 17.5t-18 45.5t18 45.5t46 17.5t46 -17.5t18 -45.5t-18 -45.5t-46 -17.5zM105 370q0 12 -0.5 29t-2.5 25q-6 18 -22 28q-11 6 -24.5 10.5t-30.5 8.5v34h177q7 0 7 -7q0 -22 -1 -48.5t-1 -64.5v-349q0 -48 -7 -82.5t-18 -59t-25 -40.5t-29 -27
q-17 -14 -39 -22.5t-56 -8.5q-27 0 -49 4t-40 17q-43 28 -43 77q0 27 16 41.5t37 14.5q25 0 38 -13.5t13 -36.5q0 -5 -0.5 -11t-1.5 -12q-1 -5 -1.5 -9.5t-0.5 -8.5q0 -16 10 -23t27 -7t28 4t20 18q11 15 15 38.5t4 65.5v415z" />
    <glyph glyph-name="k" unicode="k" horiz-adv-x="586" 
d="M277 0h-243v34q10 1 18.5 3.5t14.5 4.5q28 14 35 43q2 11 2.5 24t0.5 29v488q0 12 -0.5 29t-2.5 25q-7 20 -22 28q-11 7 -24.5 9.5t-30.5 4.5v34h176q7 0 7 -8q0 -19 -1 -54t-1 -69v-353l98 79q28 23 45.5 40.5t17.5 37.5q0 14 -7 21t-17 12q-8 4 -19 5.5t-25 3.5v34h261
v-34q-16 -5 -30.5 -11t-35.5 -18q-11 -6 -21 -12.5t-22 -15t-27.5 -20t-37.5 -27.5l-86 -64q28 -2 54.5 -10t48.5 -22t37 -32.5t21 -41.5q10 -44 20.5 -73t24.5 -52q10 -17 25.5 -25.5t49.5 -12.5v-34h-165q-5 6 -8.5 16.5t-8.5 27.5t-11.5 42.5t-16.5 61.5q-6 22 -14 43
t-19.5 38t-28.5 29.5t-42 17.5l-61 -50v-88q0 -16 0.5 -29t3.5 -24q4 -15 10.5 -25t21.5 -18q6 -2 15.5 -4.5t19.5 -3.5v-34z" />
    <glyph glyph-name="l" unicode="l" horiz-adv-x="303" 
d="M203 138q0 -16 0.5 -29t3.5 -24q4 -15 10.5 -25t21.5 -18q6 -2 15.5 -4.5t19.5 -3.5v-34h-243v34q10 1 18.5 3.5t14.5 4.5q28 14 35 43q2 11 2.5 24t0.5 29v488q0 12 -0.5 29t-2.5 25q-7 20 -22 28q-11 7 -24.5 9.5t-30.5 4.5v34h176q7 0 7 -8q0 -19 -1 -54t-1 -69v-487z
" />
    <glyph glyph-name="m" unicode="m" horiz-adv-x="911" 
d="M278 0h-249v34q10 1 21 3.5t17 4.5q28 14 35 43q2 11 2.5 24t0.5 29v232q0 12 -0.5 29t-2.5 25q-6 18 -22 28q-11 6 -24.5 10.5t-30.5 9.5v33h174q7 0 7 -8l-4 -76h10q11 18 24.5 34t28.5 28q20 17 46 26t58 9t54.5 -6t39.5 -21q17 -14 26 -30.5t14 -37.5h8q23 39 58 63
q44 32 104 32q32 0 54 -6t40 -21q23 -19 34.5 -44.5t11.5 -61.5v-247q0 -16 0.5 -29t3.5 -24q4 -15 11.5 -25t22.5 -18q7 -2 17.5 -4.5t20.5 -3.5v-34h-249v34q10 1 20 3.5t16 4.5q16 8 22.5 18t10.5 25q2 11 2.5 24t0.5 29v242q0 20 -3.5 35.5t-16.5 27.5q-10 9 -21 12.5
t-31 3.5q-32 0 -57.5 -15t-44.5 -41q-14 -19 -21 -46.5t-7 -55.5v-163q0 -16 0.5 -29t2.5 -24q7 -29 35 -43q6 -2 15 -4.5t19 -3.5v-34h-245v34q10 1 20 3.5t16 4.5q15 8 21.5 18t10.5 25q3 11 3.5 24t0.5 29v242q0 20 -4 35.5t-16 27.5q-11 9 -21.5 12.5t-31.5 3.5
q-32 0 -57 -15t-44 -41q-14 -19 -21.5 -46.5t-7.5 -55.5v-163q0 -16 0.5 -29t3.5 -24q4 -15 10.5 -25t21.5 -18q6 -2 16 -4.5t20 -3.5v-34z" />
    <glyph glyph-name="n" unicode="n" horiz-adv-x="624" 
d="M527 138q0 -16 0.5 -29t2.5 -24q4 -15 11.5 -25t23.5 -18q6 -2 16.5 -4.5t20.5 -3.5v-34h-249v34q10 1 20.5 3.5t17.5 4.5q15 8 21.5 18t10.5 25q2 11 2.5 24t0.5 29v238q0 20 -5 37t-17 29q-18 17 -58 17q-32 0 -62 -12.5t-49 -38.5q-14 -19 -21.5 -46.5t-7.5 -55.5
v-168q0 -16 0.5 -29t3.5 -24q4 -15 10.5 -25t21.5 -18q6 -2 16 -4.5t20 -3.5v-34h-249v34q10 1 21 3.5t17 4.5q28 14 35 43q2 11 2.5 24t0.5 29v232q0 12 -0.5 29t-2.5 25q-6 18 -22 28q-11 6 -24.5 10.5t-30.5 8.5v34h170q7 0 7 -8l-2 -74h12q12 19 27.5 35t35.5 28
q47 32 110 32q58 0 93 -25q23 -17 36 -44t13 -63v-248v0z" />
    <glyph glyph-name="o" unicode="o" horiz-adv-x="566" 
d="M34 255q0 61 20 110t54.5 83t79.5 52t95 18t95 -18t79.5 -52t54.5 -83t20 -110t-20 -110t-54.5 -83.5t-79.5 -53t-95 -18.5t-95 18.5t-79.5 53t-54.5 83.5t-20 110zM144 255q0 -78 17 -127t49 -75q32 -24 73 -24q40 0 72 24q32 26 49.5 75t17.5 127t-17.5 127t-49.5 74
q-15 12 -33.5 17.5t-38.5 5.5t-39 -5.5t-34 -17.5q-32 -25 -49 -74t-17 -127z" />
    <glyph glyph-name="p" unicode="p" horiz-adv-x="601" 
d="M462 253q0 61 -10 103t-27 67.5t-39.5 36.5t-48.5 11q-29 0 -49.5 -8.5t-40.5 -25.5q-8 -7 -16 -20t-15 -30t-11.5 -37t-4.5 -42v-115q0 -46 7 -75t24 -48q18 -20 42.5 -31t48.5 -11q69 0 104.5 60.5t35.5 164.5zM97 371q0 11 -1 28t-3 25q-6 19 -21 29q-11 6 -25 10.5
t-30 7.5v34h173q7 0 7 -7l-2 -68h10q53 88 152 88q38 0 76 -14t68 -45t49 -82t19 -124q0 -69 -21.5 -119t-55.5 -82.5t-77 -47.5t-85 -15q-73 0 -123 42h-7v-89q0 -15 0.5 -28t2.5 -24q7 -29 35 -43q6 -2 18 -4.5t27 -3.5v-32h-266v32q10 1 22.5 3.5t19.5 4.5q15 8 22.5 18
t11.5 25q3 11 3.5 24t0.5 28v429z" />
    <glyph glyph-name="q" unicode="q" horiz-adv-x="601" 
d="M440 448l46 66h39q-1 -15 -2.5 -34.5t-2.5 -40.5l-2 -42t-1 -39v-416q0 -15 0.5 -28t3.5 -24q4 -15 11.5 -25t22.5 -18q7 -2 17 -4.5t20 -3.5v-32h-257v32q11 1 24 2.5t21 5.5q14 5 21.5 16.5t11.5 26.5q2 11 2.5 24t0.5 28v124h-9q-17 -34 -56.5 -55.5t-95.5 -21.5
q-43 0 -83 17.5t-70.5 51.5t-49 83.5t-18.5 112.5q0 69 23 119t59.5 82t81.5 47.5t88 15.5q49 0 83 -16t63 -54h8zM404 350q0 29 -6 50.5t-24 41.5q-17 18 -36.5 26.5t-48.5 8.5q-30 0 -57 -12.5t-47.5 -39.5t-32.5 -69t-12 -102q0 -63 12.5 -104.5t33 -66.5t46.5 -35.5
t53 -10.5q26 0 47 9.5t36 26.5q36 41 36 108v169z" />
    <glyph glyph-name="r" unicode="r" horiz-adv-x="436" 
d="M206 408q15 32 29 49.5t30 30.5q14 11 35.5 20.5t50.5 9.5q17 0 33.5 -5t28.5 -16q7 -7 12.5 -18.5t5.5 -31.5q0 -21 -11 -38t-40 -17q-23 0 -34.5 11.5t-18.5 30.5q-5 12 -12 16t-18 4q-12 0 -27 -10.5t-28.5 -28t-24 -41t-13.5 -49.5q-1 -7 -2 -29t-1 -42v-116
q0 -16 0.5 -29t3.5 -24q4 -15 11 -26.5t21 -16.5q9 -3 22 -5t24 -3v-34h-259v34q10 1 21 3.5t17 4.5q28 14 35 43q2 11 2.5 24t0.5 29v232q0 12 -0.5 29t-2.5 25q-6 18 -22 28q-11 6 -24.5 10.5t-30.5 8.5v34h173q7 0 7 -8l-5 -89h11v0z" />
    <glyph glyph-name="s" unicode="s" horiz-adv-x="436" 
d="M409 147q0 -41 -14.5 -70.5t-38.5 -48.5t-55.5 -28.5t-66.5 -9.5q-40 0 -77.5 19.5t-58.5 46.5h-12l-17 -54h-29l-6 191h36q12 -36 28.5 -66t37.5 -52t46.5 -34.5t54.5 -12.5q42 0 66 17.5t24 53.5q0 23 -7.5 39t-23 29t-39.5 24.5t-57 25.5q-31 13 -59 25t-49 29.5
t-33.5 43t-12.5 65.5q0 29 11.5 54t33 44t52.5 29.5t70 10.5q47 0 74 -17.5t37 -33.5h10l13 42h26l8 -152h-35q-12 32 -25 56t-30 40q-15 13 -33.5 20t-44.5 7q-39 0 -61.5 -19t-22.5 -50q0 -18 5 -31.5t18.5 -25t36 -22.5t57.5 -24q32 -13 61.5 -27t52 -32.5t36 -43
t13.5 -58.5z" />
    <glyph glyph-name="t" unicode="t" horiz-adv-x="358" 
d="M358 49q-28 -35 -62 -47t-69 -12t-59 7t-44 25q-17 14 -23 34t-6 53v355h-87v28q28 6 50.5 17t41.5 32.5t35.5 55.5t31.5 85h29v-177h132v-41h-132v-355q0 -32 14.5 -50t50.5 -18q45 0 79 32z" />
    <glyph glyph-name="u" unicode="u" horiz-adv-x="621" 
d="M516 137q0 -15 0.5 -28t3.5 -24q4 -15 11.5 -26t23.5 -17q8 -3 20 -5t22 -3v-34h-165q-9 0 -9 11q0 3 -0.5 14t-0.5 24v32h-10q-14 -24 -25 -37.5t-26 -24.5q-19 -14 -45 -22.5t-61 -8.5t-70 10.5t-59 39.5q-15 18 -23 41.5t-8 66.5v227q0 12 -0.5 29t-2.5 25
q-6 18 -22 28q-20 13 -55 16v34h178q7 0 7 -7q-1 -22 -2.5 -49t-1.5 -71v-225q0 -28 4.5 -48t19.5 -36q15 -17 32.5 -23t39.5 -6q19 0 38.5 6t36.5 20t29.5 36.5t15.5 52.5q2 22 2.5 37.5t0.5 42.5v138q0 12 -0.5 29t-2.5 25q-6 18 -22 28q-22 13 -57 16v34h180q7 0 7 -7
q-1 -22 -2.5 -49t-1.5 -71v-241v0z" />
    <glyph glyph-name="v" unicode="v" horiz-adv-x="563" 
d="M562 471q-8 -1 -18 -3t-19 -7q-7 -5 -13.5 -11t-14.5 -18q-8 -11 -17 -31t-26 -58l-148 -347h-50l-137 328q-9 23 -16 38t-12 25.5t-8 17t-6 12.5q-9 20 -14 27.5t-16 14.5q-9 7 -21 9.5t-22 2.5v34h257v-34q-16 -1 -29.5 -2.5t-19.5 -5.5q-7 -4 -13.5 -11.5t-6.5 -24.5
q0 -16 7.5 -36t18.5 -49l92 -219h9l89 213q7 20 12 34t7.5 24t3.5 17t1 13q0 17 -7 25.5t-16 13.5t-24 6.5t-23 1.5v34h200v-34v0z" />
    <glyph glyph-name="w" unicode="w" horiz-adv-x="841" 
d="M427 321h-4l-127 -325h-48l-129 319q-14 36 -24.5 61.5t-15.5 36.5q-10 20 -15.5 29.5t-16.5 16.5q-9 7 -22 9t-21 3v34h252v-34q-9 -1 -21 -2.5t-19 -5.5q-8 -5 -15 -13t-7 -25q0 -16 5.5 -34.5t16.5 -48.5l79 -219h10l98 241l-20 49q-9 20 -15.5 29.5t-17.5 16.5
q-9 7 -20.5 9t-19.5 3v34h248v-34q-27 -1 -39 -8q-8 -5 -15 -13t-7 -25q0 -16 5.5 -34.5t16.5 -48.5l80 -219h10l82 213q12 38 17 56t5 32q0 17 -7 25.5t-16 13.5t-18.5 6t-21.5 2v34h190v-34q-8 -1 -17.5 -3.5t-18.5 -8.5q-7 -5 -13 -10t-14 -17q-8 -11 -17.5 -29
t-24.5 -60l-136 -347h-48z" />
    <glyph glyph-name="x" unicode="x" horiz-adv-x="522" 
d="M9 0v34q14 3 25 9t19 11q14 9 25.5 19t22.5 22.5t23.5 28t28.5 35.5l67 84l-96 129q-23 30 -36.5 51t-27.5 30q-8 5 -21 10.5t-29 7.5v34h249v-34q-12 -2 -20 -3t-17 -3q-9 -3 -15.5 -7.5t-6.5 -16.5t5 -21.5t16 -23.5l62 -84h9l36 50q22 30 28.5 45t6.5 27q0 13 -4.5 18
t-13.5 10q-8 4 -16.5 5.5t-22.5 3.5v34h199v-33q-14 -3 -27 -8t-21 -10q-14 -9 -25 -19t-21.5 -23t-21.5 -29.5t-26 -38.5l-53 -69l101 -137q23 -31 39.5 -54t30.5 -32q8 -5 22 -10.5t28 -7.5v-34h-248v34q11 1 19.5 2t16.5 4q9 3 16 9.5t7 16.5q0 11 -5 20t-16 23l-73 97
h-8l-51 -65q-23 -29 -29.5 -42.5t-6.5 -24.5t6.5 -18t14.5 -11q10 -5 18.5 -7t20.5 -4v-34h-204z" />
    <glyph glyph-name="y" unicode="y" horiz-adv-x="551" 
d="M274 -50q-9 -21 -15.5 -34.5t-12 -23.5t-11.5 -18.5t-15 -20.5q-19 -25 -46.5 -40t-69.5 -15q-36 0 -59.5 19t-23.5 48q0 23 14.5 38.5t31.5 15.5q21 0 32.5 -8t22.5 -21q10 -11 16 -15q5 -4 10.5 -5t12.5 -1q11 0 21 7.5t18.5 19.5t15.5 27t13 30q7 17 9.5 31t2.5 23
q0 14 -4 24.5t-7 18.5l-113 265q-16 36 -25.5 61t-14.5 37q-9 20 -15 29.5t-17 16.5q-9 6 -21 8.5t-20 3.5v34h254v-34q-9 -1 -24.5 -3t-23.5 -5q-8 -5 -14.5 -13t-6.5 -25t6.5 -35.5t18.5 -48.5l86 -211h11l88 205q7 17 12 29t7.5 21.5t3.5 18t1 19.5q0 17 -7 26t-16 14
t-22 6t-21 2v34h193v-34q-8 -1 -17.5 -3.5t-18.5 -7.5q-7 -5 -13.5 -11t-14.5 -17q-8 -12 -19 -35.5t-24 -53.5l-169 -393v0z" />
    <glyph glyph-name="z" unicode="z" horiz-adv-x="493" 
d="M441 0h-411v17l301 449v5h-122q-23 0 -38.5 -7.5t-30.5 -22.5q-20 -19 -33.5 -41t-27.5 -51h-35l35 156h372v-21l-294 -446v-4h112q41 0 60 10.5t36 29.5q24 28 37.5 49.5t24.5 48.5h33z" />
    <glyph glyph-name="braceleft" unicode="{" horiz-adv-x="372" 
d="M362 -121q-41 1 -78 9t-65.5 26t-45.5 47.5t-17 75.5q0 14 2 34t4.5 39.5t4.5 37t2 27.5q0 46 -17.5 71t-51.5 39q-12 5 -27.5 8t-32.5 5v33q17 2 32.5 5t27.5 8q34 14 51.5 39t17.5 71q0 10 -2 27.5t-4.5 37t-4.5 39.5t-2 34q0 46 17 75.5t45.5 47.5t65.5 25.5t78 9.5
v-37q-21 -3 -42 -6.5t-37.5 -14t-26.5 -29.5t-10 -53q0 -12 1 -29t2.5 -35t3 -35.5t1.5 -31.5q0 -36 -11.5 -63.5t-32 -47t-49 -32t-61.5 -19.5v-5q33 -7 61.5 -19.5t49 -32t32 -47t11.5 -63.5q0 -14 -1.5 -31.5t-3 -35.5t-2.5 -35t-1 -29q0 -34 10 -53t26.5 -29.5t37.5 -14
t42 -6.5v-37v0z" />
    <glyph glyph-name="bar" unicode="|" horiz-adv-x="226" 
d="M85 -179v945h56v-945h-56z" />
    <glyph glyph-name="braceright" unicode="}" horiz-adv-x="372" 
d="M10 -84q21 3 42 6.5t37.5 14t26.5 29.5t10 53q0 12 -1.5 29t-3 35t-2.5 35.5t-1 31.5q0 36 11.5 63.5t32 47t49 32t61.5 19.5v5q-33 7 -61.5 19.5t-49 32t-32 47t-11.5 63.5q0 14 1 31.5t2.5 35.5t3 35t1.5 29q0 34 -10 53t-26.5 29.5t-37.5 14t-42 6.5v37q41 -2 78 -9.5
t65.5 -25.5t45.5 -47.5t17 -75.5q0 -14 -2 -34t-4.5 -39.5t-4.5 -37t-2 -27.5q0 -46 17.5 -71t51.5 -39q12 -5 27.5 -8t32.5 -5v-33q-17 -2 -32.5 -5t-27.5 -8q-34 -14 -51.5 -39t-17.5 -71q0 -10 2 -27.5t4.5 -37t4.5 -39.5t2 -34q0 -46 -17 -75.5t-45.5 -47.5t-65.5 -26
t-78 -9v37z" />
    <glyph glyph-name="asciitilde" unicode="~" horiz-adv-x="426" 
d="M396 386q-7 -22 -18.5 -42.5t-27 -36t-34 -25t-39.5 -9.5q-22 0 -40 4.5t-35 10.5t-34 10.5t-37 4.5t-36 -12t-28 -41l-37 13q7 22 18.5 42.5t27 36t34 25t39.5 9.5t38.5 -4.5t33.5 -10.5t32.5 -10.5t34.5 -4.5q20 0 39.5 12t31.5 41l37 -13v0z" />
    <glyph glyph-name="uni00A0" unicode="&#xa0;" horiz-adv-x="220" 
 />
    <glyph glyph-name="exclamdown" unicode="&#xa1;" horiz-adv-x="266" 
d="M132 -205q-22 0 -40 16t-18 56q0 37 3.5 78t9.5 103l26 272h40q2 -32 9 -103.5t16 -168.5q6 -62 9.5 -103t3.5 -78q0 -39 -18 -55.5t-41 -16.5zM201 450q0 -27 -18.5 -47t-50.5 -20q-29 0 -48 20t-19 47q0 30 19 49.5t48 19.5q32 0 50.5 -19.5t18.5 -49.5z" />
    <glyph glyph-name="cent" unicode="&#xa2;" horiz-adv-x="508" 
d="M211 60q26 -19 61 -24v443q-17 -2 -34 -7t-30 -16q-32 -25 -49.5 -74t-17.5 -127t19 -123.5t51 -71.5zM487 134q-17 -57 -60 -95t-112 -47v-88h-43v86q-43 1 -78.5 14t-66.5 36q-45 34 -69 88.5t-24 126.5q0 59 19 107t52 81.5t76 53t91 21.5v95h43v-96q59 -5 88.5 -22
t45.5 -34q12 -14 17.5 -27.5t5.5 -25.5q0 -30 -14 -42t-34 -12q-28 0 -40.5 17t-20.5 46q-8 26 -18 40t-30 19v-440q31 4 54 14.5t39 26t26.5 33.5t17.5 37z" />
    <glyph glyph-name="sterling" unicode="&#xa3;" horiz-adv-x="694" 
d="M467 -28q-24 0 -49.5 7.5t-51.5 19.5t-51 26.5t-47 27.5q-29 -32 -71 -49t-81 -17q-49 0 -77.5 22.5t-28.5 61.5q0 41 32.5 66t82.5 25q28 0 54 -7t49 -15q4 22 6.5 50.5t5.5 65.5h-113v39h116l3 35q8 83 34.5 150t65 114t84 72t92.5 25q75 0 111 -34.5t36 -83.5
q0 -30 -11 -53.5t-29.5 -39.5t-43 -24.5t-50.5 -8.5q-39 0 -65.5 18t-37.5 46l34 22q11 -23 27.5 -35.5t41.5 -12.5q13 0 25 4.5t21.5 15t15.5 27t6 41.5q0 39 -23.5 58.5t-60.5 19.5q-38 0 -65.5 -19t-43.5 -51q-20 -40 -34 -106.5t-25 -157.5l-3 -22h185v-39h-191
q-7 -41 -15.5 -77.5t-21.5 -65.5q40 -16 85 -32t88 -16q31 0 51 5.5t32 16.5t19 27.5t12 38.5l38 -7q-6 -35 -18 -66.5t-31.5 -55.5t-47.5 -38t-66 -14zM116 27q32 0 55.5 12t41.5 47q-21 11 -47 21t-51 10q-26 0 -40.5 -12.5t-14.5 -33.5q0 -22 16 -33t40 -11z" />
    <glyph glyph-name="yen" unicode="&#xa5;" horiz-adv-x="598" 
d="M437 0h-287v33q17 2 33 6.5t23 8.5q13 8 18.5 14t10.5 20q3 11 4.5 30.5t1.5 43.5v46h-174v39h174v69h-174v39h150l-117 191q-17 30 -31 49t-26.5 30t-25 16.5t-27.5 8.5v33h288v-33q-20 -2 -30.5 -4t-17.5 -4q-17 -6 -24 -15.5t-6 -23t8.5 -30.5t19.5 -39l96 -164h5
l90 146q10 17 16.5 29.5t10.5 22.5t5.5 18.5t1.5 18.5q0 19 -6.5 26t-20.5 12q-8 3 -21 4.5t-21 2.5v33h224v-33q-23 -3 -41.5 -14.5t-35 -29.5t-33 -43t-35.5 -55l-93 -153h150v-39h-174v-69h174v-39h-174v-46q0 -24 1.5 -43.5t4.5 -30.5q5 -14 10.5 -20t18.5 -14
q7 -4 23.5 -8.5t32.5 -6.5v-33z" />
    <glyph glyph-name="brokenbar" unicode="&#xa6;" horiz-adv-x="226" 
d="M85 361v405h56v-405h-56zM85 -179v405h56v-405h-56z" />
    <glyph glyph-name="section" unicode="&#xa7;" horiz-adv-x="543" 
d="M285 174q29 -22 58 -42.5t51 -46.5q21 14 36.5 39.5t15.5 50.5q0 30 -9.5 52.5t-31 44.5t-56 47.5t-84.5 61.5q-29 21 -56.5 43t-47.5 48q-26 -12 -41 -34t-15 -60q0 -30 9.5 -52t30.5 -43.5t55.5 -47t84.5 -61.5zM260 -204q-45 0 -77 10t-52 26t-29.5 36t-9.5 39
q0 18 11 33.5t34 15.5q20 0 31 -9.5t16 -23.5q4 -11 4 -23t5 -24q7 -16 20.5 -28.5t46.5 -12.5q19 0 37 6.5t32.5 19.5t23 30.5t8.5 40.5q0 31 -14.5 56t-36.5 46t-47.5 38.5t-46.5 32.5q-42 30 -76.5 54t-59 49t-37.5 55.5t-13 72.5q0 29 9.5 54.5t25 46t35.5 36.5t42 27
q-22 39 -22 90q0 39 14 70.5t37.5 53t54.5 33.5t64 12q45 0 77 -8.5t52 -23t29.5 -32.5t9.5 -37q0 -18 -11 -33.5t-34 -15.5q-20 0 -31 9.5t-16 23.5q-4 11 -4 23t-5 24q-5 13 -19.5 22t-47.5 9q-38 0 -65.5 -23.5t-27.5 -68.5q0 -31 13.5 -57t33.5 -48t44.5 -40t45.5 -33
l77 -55t60 -51t38.5 -57.5t13.5 -73.5q0 -24 -8.5 -47.5t-23 -44t-34.5 -37t-42 -27.5q11 -18 17 -39.5t6 -47.5q0 -39 -15.5 -71t-40.5 -55t-57 -35.5t-65 -12.5z" />
    <glyph glyph-name="dieresis" unicode="&#xa8;" 
d="M139 611q-22 0 -37.5 14.5t-15.5 39.5q0 24 15.5 39t37.5 15t37.5 -15t15.5 -39q0 -25 -15.5 -39.5t-37.5 -14.5zM322 611q-22 0 -37.5 14.5t-15.5 39.5q0 24 15.5 39t37.5 15t37.5 -15t15.5 -39q0 -25 -15.5 -39.5t-37.5 -14.5z" />
    <glyph glyph-name="copyright" unicode="&#xa9;" horiz-adv-x="982" 
d="M491 721q91 0 171 -35t140 -95t95 -140t35 -170q0 -91 -35 -170.5t-95 -139t-140 -94t-171 -34.5t-171 34.5t-140 94.5t-95 140t-35 171q0 90 35 170t95 139.5t140 94t171 34.5zM491 680q-83 0 -154 -30.5t-123.5 -84t-82.5 -126t-30 -156.5t30 -157t82.5 -127
t123.5 -84.5t154 -30.5q82 0 153.5 30.5t124 84t82.5 126t30 156.5t-30 157t-82.5 127t-124 84.5t-153.5 30.5zM719 210q-12 -36 -29 -70t-44 -60.5t-64.5 -42.5t-89.5 -16q-103 0 -171 56q-42 35 -65.5 87.5t-23.5 118.5q0 59 22.5 107.5t60 83.5t87 54t102.5 19
q32 0 55 -5t40 -12.5t28.5 -16.5t20.5 -17h9l22 38h26v-205h-36q-11 44 -22 72t-28 52q-10 13 -20.5 24t-23.5 18.5t-30.5 11.5t-40.5 4q-20 0 -41.5 -5.5t-37.5 -16.5q-17 -11 -32.5 -28t-27 -41.5t-19 -58t-7.5 -78.5q0 -59 14 -100.5t38 -67.5q23 -24 52.5 -35.5
t62.5 -11.5q71 0 111 41t65 114z" />
    <glyph glyph-name="ordfeminine" unicode="&#xaa;" horiz-adv-x="373" 
d="M121 326q-16 0 -31.5 5.5t-27.5 16.5t-19.5 29t-7.5 43q0 17 5 30t15 26q15 17 36.5 28.5t44.5 19.5q21 7 35 13t24.5 12t18 12.5t15.5 14.5v43q0 30 -11 43.5t-40 13.5q-27 0 -37 -9q-6 -6 -9.5 -13.5t-7.5 -27.5t-14 -28t-27 -8q-14 0 -24 7.5t-10 25.5q0 20 15 38
q7 9 20 17t29 13t32.5 8t31.5 3q25 0 48 -3.5t40.5 -12.5t27.5 -24.5t10 -39.5v-195q0 -32 1.5 -43.5t7.5 -17.5q6 -7 19 -7q11 0 22 4l5 -21q-6 -5 -21 -10.5t-42 -5.5q-26 0 -39 9q-9 6 -15.5 16.5t-6.5 32.5h-8q-13 -21 -39 -39.5t-66 -18.5zM230 539q-13 -9 -35 -21
t-42 -22q-8 -4 -16.5 -10.5t-16.5 -16.5q-8 -11 -10 -19t-2 -27q0 -30 14 -43t36 -13q29 0 50.5 22t21.5 60v90z" />
    <glyph glyph-name="guillemotleft" unicode="&#xab;" horiz-adv-x="453" 
d="M396 409l27 -26l-106 -137l106 -136l-27 -26l-172 149v27zM208 409l27 -26l-106 -137l106 -136l-27 -26l-172 149v27z" />
    <glyph glyph-name="registered" unicode="&#xae;" horiz-adv-x="625" 
d="M585 440q0 -56 -21.5 -105t-59 -86.5t-87 -59t-105.5 -21.5t-105.5 21.5t-86.5 59t-58.5 86.5t-21.5 105q0 55 21.5 104.5t58.5 86.5t86.5 58.5t105.5 21.5t105.5 -21.5t87 -58.5t59 -86.5t21.5 -104.5zM82 440q0 -48 18 -90.5t49 -74.5t73 -50.5t90 -18.5t90.5 18.5
t73.5 50.5t49 74.5t18 90.5q0 47 -18 89.5t-49 74.5t-73.5 50.5t-90.5 18.5t-90 -18.5t-73 -50.5t-49 -74.5t-18 -89.5zM353 522q0 32 -9 42t-31 10h-42v-106h27q29 0 42 14.5t13 39.5zM380 302q-8 8 -15.5 25.5t-9.5 37.5q-3 26 -7 38t-14 25q-8 9 -16.5 12.5t-27.5 3.5
h-19v-65q0 -26 3 -36l4 -10t8 -7q4 -2 12 -2.5t12 -0.5v-21h-136v21q4 0 11.5 0.5t11.5 2.5q6 2 8 7l4 10t2 14v21v143v23t-2 14q-2 6 -4 10t-8 6q-4 2 -11.5 3t-11.5 1v22h150q45 0 68 -19.5t23 -54.5q0 -31 -21.5 -47t-55.5 -22v-6q15 -2 27 -4t21 -9t15.5 -20t10.5 -35
q5 -29 13 -37t18 -13q6 -4 15.5 -6.5t17.5 -3.5v-21h-96z" />
    <glyph glyph-name="macron" unicode="&#xaf;" 
d="M102 606v53h254v-53h-254z" />
    <glyph glyph-name="degree" unicode="&#xb0;" horiz-adv-x="296" 
d="M266 577q0 -25 -8.5 -46.5t-24.5 -37t-37.5 -24.5t-47.5 -9t-47.5 9t-37.5 24.5t-24.5 37t-8.5 46.5q0 50 33 83t85 33t85 -33t33 -83zM220 577q0 35 -19 57t-53 22t-53 -22t-19 -57q0 -36 19 -58t53 -22t53 22t19 58z" />
    <glyph glyph-name="acute" unicode="&#xb4;" 
d="M122 596q41 37 66.5 62t48.5 46t40.5 33t39.5 12q20 0 31.5 -13t11.5 -35q0 -35 -58 -61l-162 -72l-18 28v0z" />
    <glyph glyph-name="paragraph" unicode="&#xb6;" horiz-adv-x="614" 
d="M512 662v-772h-42v772h-96v-772h-43v347h-40q-61 0 -106.5 20t-75.5 52.5t-44.5 73.5t-14.5 82q0 42 17 84t50 75t80.5 53.5t108.5 20.5h298v-36h-92z" />
    <glyph glyph-name="periodcentered" unicode="&#xb7;" horiz-adv-x="256" 
d="M60 278q0 27 18.5 47t50.5 20q29 0 48 -20t19 -47q0 -30 -19 -49.5t-48 -19.5q-32 0 -50.5 19.5t-18.5 49.5z" />
    <glyph glyph-name="cedilla" unicode="&#xb8;" 
d="M326 -117q0 -46 -37 -66t-100 -20q-30 0 -53.5 8t-38.5 19l18 30q14 -10 34 -17t39 -7q26 0 44.5 10.5t18.5 39.5q0 26 -12.5 36t-29.5 10q-24 0 -41 -14l-32 19l29 80h41l-23 -63q9 5 24 8.5t26 3.5q46 0 69.5 -20t23.5 -57z" />
    <glyph glyph-name="ordmasculine" unicode="&#xba;" horiz-adv-x="426" 
d="M391 515q0 -48 -15 -83t-40 -58.5t-57 -35t-66 -11.5t-66 11.5t-57 35t-40 58.5t-15 83q0 47 15 82t40 58.5t57 35t66 11.5t66 -11.5t57 -35t40 -58.5t15 -82zM310 514q0 51 -13 91.5t-39 56.5q-22 13 -45 13t-45 -13q-26 -16 -39 -56.5t-13 -91.5t13 -90.5t39 -55.5
q22 -13 45 -13t45 13q26 16 39 55.5t13 90.5z" />
    <glyph glyph-name="guillemotright" unicode="&#xbb;" horiz-adv-x="453" 
d="M417 233l-172 -149l-27 26l106 136l-106 137l27 26l172 -149v-27zM229 233l-172 -149l-27 26l106 136l-106 137l27 26l172 -149v-27z" />
    <glyph glyph-name="onequarter" unicode="&#xbc;" horiz-adv-x="797" 
d="M575 175v159h-6l-129 -159h135zM729 0h-223v27q29 3 39 8t16.5 12t9.5 20q2 8 3 20.5t1 23.5v33h-181v26l230 278h33q4 0 4 -5q0 -9 -0.5 -28t-0.5 -36v-204h8q28 0 39.5 5t20.5 15t13.5 24t6.5 26h29v-171h-29q-2 13 -6.5 27t-13.5 23q-9 10 -20.5 15t-39.5 5h-8v-33
q0 -12 1 -24t3 -20q5 -14 10 -20.5t16 -11.5q5 -2 15 -4t24 -4v-27zM35 283v27q29 3 39 8t16.5 12t9.5 20q2 8 3 20.5t1 23.5v198q0 20 -0.5 32t-3.5 23t-6.5 16t-13.5 9t-26 4.5t-30 1.5v28q36 2 61.5 6t49.5 12q11 3 24.5 7.5t21.5 4.5q10 0 10 -11q0 -5 -0.5 -18.5
t-0.5 -31.5t-0.5 -38.5t-0.5 -40.5v-202q0 -12 1 -24t3 -20q5 -14 10 -20.5t16 -11.5q5 -2 15 -4t24 -4v-27h-223zM160 -31l-35 22l501 737l34 -24z" />
    <glyph glyph-name="onehalf" unicode="&#xbd;" horiz-adv-x="855" 
d="M35 283v27q29 3 39 8t16.5 12t9.5 20q2 8 3 20.5t1 23.5v198q0 20 -0.5 32t-3.5 23t-6.5 16t-13.5 9t-26 4.5t-30 1.5v28q36 2 61.5 6t49.5 12q11 3 24.5 7.5t21.5 4.5q10 0 10 -11q0 -5 -0.5 -18.5t-0.5 -31.5t-0.5 -38.5t-0.5 -40.5v-202q0 -12 1 -24t3 -20
q5 -14 10 -20.5t16 -11.5q5 -2 15 -4t24 -4v-27h-223zM490 0l-6 37l79 50q34 24 63.5 48t51.5 52t35 62.5t13 79.5q0 48 -19 70t-64 22q-32 0 -52.5 -11.5t-20.5 -27.5q0 -9 3 -15t8 -17q6 -12 6 -29q0 -20 -12.5 -32.5t-35.5 -12.5q-24 0 -38.5 16.5t-14.5 42.5q0 52 47 86
t127 34q35 0 64 -9.5t50 -26t32.5 -39.5t11.5 -49q0 -33 -9.5 -59.5t-25 -48.5t-36.5 -40t-43 -34q-19 -14 -43 -31t-60 -39v-7h108q17 0 29 1.5t20 5t14.5 8.5t12.5 12q11 12 16.5 21.5t10.5 17.5h28q-8 -26 -17 -63t-17 -75h-316zM160 -31l-35 22l501 737l34 -24z" />
    <glyph glyph-name="threequarters" unicode="&#xbe;" horiz-adv-x="847" 
d="M625 175v159h-6l-129 -159h135zM779 0h-223v27q29 3 39 8t16.5 12t9.5 20q2 8 3 20.5t1 23.5v33h-181v26l230 278h33q4 0 4 -5q0 -9 -0.5 -28t-0.5 -36v-204h8q28 0 39.5 5t20.5 15t13.5 24t6.5 26h29v-171h-29q-2 13 -6.5 27t-13.5 23q-9 10 -20.5 15t-39.5 5h-8v-33
q0 -12 1 -24t3 -20q5 -14 10 -20.5t16 -11.5q5 -2 15 -4t24 -4v-27zM196 706q-33 0 -50 -9.5t-17 -21.5q0 -8 2.5 -13t7.5 -16q5 -10 5 -26q0 -18 -11.5 -29t-31.5 -12q-22 1 -34.5 15.5t-12.5 38.5q0 21 11 40t30 33.5t45.5 23t57.5 8.5q28 0 55 -4.5t48 -15.5t34 -29
t13 -45q0 -20 -8 -35.5t-22.5 -28t-34 -23.5t-41.5 -23v-5q25 0 48 -6t40.5 -18t28 -31t10.5 -46q0 -32 -14.5 -60t-40.5 -49t-62.5 -33.5t-79.5 -12.5q-36 0 -62.5 8.5t-44.5 22t-27 31t-9 35.5q0 23 13 36t33 13q14 0 22.5 -4.5t13.5 -12.5q9 -14 9 -31q0 -8 -2.5 -15.5
t-2.5 -15.5q0 -17 13.5 -26t43.5 -9q57 0 81 33t24 90q0 36 -14.5 55.5t-41.5 19.5q-17 0 -28 -4t-24 -12l-26 -17l-16 25l63 42q18 12 31.5 22.5t23 22.5t14 27t4.5 35q0 31 -19 46.5t-48 15.5zM210 -31l-35 22l501 737l34 -24z" />
    <glyph glyph-name="questiondown" unicode="&#xbf;" horiz-adv-x="447" 
d="M254 451q0 30 19 49.5t48 19.5q32 0 50.5 -19.5t18.5 -49.5q0 -27 -18.5 -47t-50.5 -20q-29 0 -48 20t-19 47zM33 0q0 52 22.5 89t56.5 60.5t73 34.5t71 11h51v126h36v-163h-63q-35 0 -62 -15.5t-45.5 -43t-28 -64.5t-9.5 -80q0 -29 10 -52t26.5 -38.5t38.5 -23.5t46 -8
q18 0 31 9.5t19 38.5q5 26 18.5 41t40.5 15q23 0 38.5 -12t15.5 -41q0 -15 -11 -30.5t-31 -28.5t-49.5 -21t-65.5 -8q-45 0 -76.5 9t-57.5 24q-41 25 -68 65t-27 106z" />
    <glyph glyph-name="Agrave" unicode="&#xc0;" horiz-adv-x="691" 
d="M444 755q-62 11 -101.5 18.5t-73.5 15.5q-11 3 -24 6.5t-24 10.5t-18 17t-7 26q0 22 13 35t33 13q24 0 40.5 -8t44.5 -25t55.5 -34t71.5 -43zM205 278h193l-92 247h-11zM238 0h-242v36q28 3 48 14q9 5 18.5 15t17.5 25q15 28 40 95l198 517h43l195 -521q11 -29 20.5 -49
t19.5 -35q13 -19 26 -29.5t27 -18.5q9 -4 17.5 -7.5t19.5 -5.5v-36h-317v36q20 2 29.5 4t18.5 6q15 7 25.5 15t10.5 33q0 23 -6.5 46.5t-17.5 52.5l-17 45h-222l-22 -61q-9 -24 -12 -41t-3 -35q0 -21 9.5 -35t23.5 -20q9 -4 23.5 -6.5t28.5 -3.5v-36z" />
    <glyph glyph-name="Aacute" unicode="&#xc1;" horiz-adv-x="691" 
d="M224 787q22 13 39.5 23.5t32 19.5t28 17t27.5 17q28 17 44.5 25t40.5 8q20 0 33 -13t13 -35q0 -16 -7 -26t-18 -17t-24 -10.5t-24 -6.5q-34 -8 -73.5 -15.5t-101.5 -18.5l-10 32v0zM205 278h193l-92 247h-11zM238 0h-242v36q28 3 48 14q9 5 18.5 15t17.5 25q15 28 40 95
l198 517h43l195 -521q11 -29 20.5 -49t19.5 -35q13 -19 26 -29.5t27 -18.5q9 -4 17.5 -7.5t19.5 -5.5v-36h-317v36q20 2 29.5 4t18.5 6q15 7 25.5 15t10.5 33q0 23 -6.5 46.5t-17.5 52.5l-17 45h-222l-22 -61q-9 -24 -12 -41t-3 -35q0 -21 9.5 -35t23.5 -20q9 -4 23.5 -6.5
t28.5 -3.5v-36z" />
    <glyph glyph-name="Acircumflex" unicode="&#xc2;" horiz-adv-x="691" 
d="M458 755l-122 63l-122 -63l-19 28l115 105h52l115 -105zM205 278h193l-92 247h-11zM238 0h-242v36q28 3 48 14q9 5 18.5 15t17.5 25q15 28 40 95l198 517h43l195 -521q11 -29 20.5 -49t19.5 -35q13 -19 26 -29.5t27 -18.5q9 -4 17.5 -7.5t19.5 -5.5v-36h-317v36
q20 2 29.5 4t18.5 6q15 7 25.5 15t10.5 33q0 23 -6.5 46.5t-17.5 52.5l-17 45h-222l-22 -61q-9 -24 -12 -41t-3 -35q0 -21 9.5 -35t23.5 -20q9 -4 23.5 -6.5t28.5 -3.5v-36z" />
    <glyph glyph-name="Atilde" unicode="&#xc3;" horiz-adv-x="691" 
d="M503 863q-13 -42 -40 -70.5t-62 -28.5q-19 0 -34.5 4.5t-30 10t-27.5 10t-28 4.5q-16 0 -31 -12.5t-23 -32.5l-30 11q6 17 15 35t21 33t26.5 24.5t31.5 9.5q18 0 33.5 -4.5t30.5 -10t29.5 -10t30.5 -4.5q23 0 36 10t22 32l30 -11v0zM205 278h193l-92 247h-11zM238 0h-242
v36q28 3 48 14q9 5 18.5 15t17.5 25q15 28 40 95l198 517h43l195 -521q11 -29 20.5 -49t19.5 -35q13 -19 26 -29.5t27 -18.5q9 -4 17.5 -7.5t19.5 -5.5v-36h-317v36q20 2 29.5 4t18.5 6q15 7 25.5 15t10.5 33q0 23 -6.5 46.5t-17.5 52.5l-17 45h-222l-22 -61q-9 -24 -12 -41
t-3 -35q0 -21 9.5 -35t23.5 -20q9 -4 23.5 -6.5t28.5 -3.5v-36z" />
    <glyph glyph-name="Adieresis" unicode="&#xc4;" horiz-adv-x="691" 
d="M244 750q-23 0 -39 15t-16 41t16 41t39 15t39 -15t16 -41t-16 -41t-39 -15zM445 750q-23 0 -39 15t-16 41t16 41t39 15t39 -15t16 -41t-16 -41t-39 -15zM205 278h193l-92 247h-11zM238 0h-242v36q28 3 48 14q9 5 18.5 15t17.5 25q15 28 40 95l198 517h43l195 -521
q11 -29 20.5 -49t19.5 -35q13 -19 26 -29.5t27 -18.5q9 -4 17.5 -7.5t19.5 -5.5v-36h-317v36q20 2 29.5 4t18.5 6q15 7 25.5 15t10.5 33q0 23 -6.5 46.5t-17.5 52.5l-17 45h-222l-22 -61q-9 -24 -12 -41t-3 -35q0 -21 9.5 -35t23.5 -20q9 -4 23.5 -6.5t28.5 -3.5v-36z" />
    <glyph glyph-name="Aring" unicode="&#xc5;" horiz-adv-x="691" 
d="M426 830q0 -21 -7.5 -38t-20 -28t-28.5 -17t-34 -6q-17 0 -33.5 6t-29 17t-20 28t-7.5 38q0 22 7.5 38.5t20 28t29 17.5t33.5 6q35 0 62.5 -23.5t27.5 -66.5zM279 830q0 -29 16.5 -45t40.5 -16t40.5 16t16.5 45t-16.5 45.5t-40.5 16.5t-40.5 -16.5t-16.5 -45.5zM205 278
h193l-92 247h-11zM238 0h-242v36q28 3 48 14q9 5 18.5 15t17.5 25q15 28 40 95l198 517h43l195 -521q11 -29 20.5 -49t19.5 -35q13 -19 26 -29.5t27 -18.5q9 -4 17.5 -7.5t19.5 -5.5v-36h-317v36q20 2 29.5 4t18.5 6q15 7 25.5 15t10.5 33q0 23 -6.5 46.5t-17.5 52.5l-17 45
h-222l-22 -61q-9 -24 -12 -41t-3 -35q0 -21 9.5 -35t23.5 -20q9 -4 23.5 -6.5t28.5 -3.5v-36z" />
    <glyph glyph-name="AE" unicode="&#xc6;" horiz-adv-x="924" 
d="M429 619l-186 -321h194v321h-8zM227 0h-250v36q15 2 26 7t22 11q16 11 38 37q12 15 26.5 35.5t36.5 58.5l269 461q-5 3 -10.5 5.5t-11.5 4.5q-15 5 -38 6v36h502l31 -173h-34q-10 18 -18 32t-16 25.5t-18 22t-23 20.5q-14 12 -44.5 24.5t-75.5 12.5h-29q-14 0 -27.5 -3.5
t-21.5 -14.5q-9 -11 -10.5 -24.5t-1.5 -33.5v-207h46q35 0 56.5 6.5t36.5 20.5q21 19 26.5 40t8.5 45h33v-261h-33q-3 25 -9.5 47t-27.5 41q-15 14 -36 19t-55 5h-46v-188q0 -37 4 -60.5t18 -37.5q11 -12 31.5 -16t47.5 -4h18q38 0 63.5 14t47.5 34q33 30 47.5 56.5
t28.5 55.5h32l-31 -196h-521v36q24 2 38 7q17 5 28.5 14t20.5 26q4 9 7 19t5 22.5t2.5 29t0.5 39.5v65h-217l-46 -79q-14 -24 -21.5 -45t-7.5 -39q0 -21 8 -32t23 -17q8 -4 22.5 -6.5t28.5 -3.5v-36z" />
    <glyph glyph-name="Ccedilla" unicode="&#xc7;" horiz-adv-x="679" 
d="M505 -137q0 -46 -37 -66t-100 -20q-30 0 -53.5 8t-38.5 19l18 30q14 -10 34 -17t39 -7q26 0 44.5 10.5t18.5 39.5q0 26 -12.5 36t-29.5 10q-24 0 -41 -14l-32 19l27 76q-62 3 -114 26q-59 27 -102 75t-66 114.5t-23 146.5q0 79 28 145.5t74.5 114.5t106.5 75t125 27
q40 0 70.5 -5.5t53 -13.5t38 -18.5t26.5 -20.5h8l34 46h22v-239h-38q-13 54 -31 89t-36 57q-13 15 -25.5 27t-28.5 20.5t-38.5 12.5t-54.5 4q-26 0 -51 -5.5t-48 -19.5t-44 -36t-36.5 -57t-24.5 -84.5t-9 -118.5q0 -65 7.5 -110t21 -75.5t32.5 -50.5t41 -35
q28 -20 56.5 -27.5t75.5 -7.5q71 0 130 31t94 100l30 -17q-19 -38 -44.5 -69.5t-60 -54t-78.5 -34.5q-36 -10 -80 -12l-21 -59q9 5 24 8.5t26 3.5q46 0 69.5 -20t23.5 -57z" />
    <glyph glyph-name="Egrave" unicode="&#xc8;" horiz-adv-x="644" 
d="M436 755q-62 11 -101.5 18.5t-73.5 15.5q-11 3 -24 6.5t-24 10.5t-18 17t-7 26q0 22 13 35t33 13q24 0 40.5 -8t44.5 -25t55.5 -34t71.5 -43zM576 0h-541v36q24 2 38 7q17 5 28.5 14t20.5 26q4 9 7 19t5 22.5t2.5 29t0.5 39.5v312q0 24 -0.5 40.5t-2.5 29t-5 22t-7 19.5
q-9 17 -20.5 25.5t-28.5 14.5q-15 5 -38 6v36h522l31 -173h-34q-10 18 -18 32t-16 25.5t-18 22t-23 20.5q-14 12 -44.5 24.5t-75.5 12.5h-49q-14 0 -27.5 -3.5t-21.5 -14.5q-9 -11 -10.5 -24.5t-1.5 -33.5v-207h46q35 0 56.5 6.5t36.5 20.5q21 19 26.5 40t8.5 45h33v-261
h-33q-3 25 -9.5 47t-27.5 41q-15 14 -36 19t-55 5h-46v-188q0 -37 4 -60.5t18 -37.5q11 -12 31.5 -16t47.5 -4h18q28 0 47.5 4t34.5 10.5t26.5 15t22.5 18.5q33 30 47.5 56.5t28.5 55.5h32z" />
    <glyph glyph-name="Eacute" unicode="&#xc9;" horiz-adv-x="644" 
d="M237 787q22 13 39.5 23.5t32 19.5t28 17t27.5 17q28 17 44.5 25t40.5 8q20 0 33 -13t13 -35q0 -16 -7 -26t-18 -17t-24 -10.5t-24 -6.5q-34 -8 -73.5 -15.5t-101.5 -18.5l-10 32v0zM576 0h-541v36q24 2 38 7q17 5 28.5 14t20.5 26q4 9 7 19t5 22.5t2.5 29t0.5 39.5v312
q0 24 -0.5 40.5t-2.5 29t-5 22t-7 19.5q-9 17 -20.5 25.5t-28.5 14.5q-15 5 -38 6v36h522l31 -173h-34q-10 18 -18 32t-16 25.5t-18 22t-23 20.5q-14 12 -44.5 24.5t-75.5 12.5h-49q-14 0 -27.5 -3.5t-21.5 -14.5q-9 -11 -10.5 -24.5t-1.5 -33.5v-207h46q35 0 56.5 6.5
t36.5 20.5q21 19 26.5 40t8.5 45h33v-261h-33q-3 25 -9.5 47t-27.5 41q-15 14 -36 19t-55 5h-46v-188q0 -37 4 -60.5t18 -37.5q11 -12 31.5 -16t47.5 -4h18q28 0 47.5 4t34.5 10.5t26.5 15t22.5 18.5q33 30 47.5 56.5t28.5 55.5h32z" />
    <glyph glyph-name="Ecircumflex" unicode="&#xca;" horiz-adv-x="644" 
d="M450 755l-122 63l-122 -63l-19 28l115 105h52l115 -105zM576 0h-541v36q24 2 38 7q17 5 28.5 14t20.5 26q4 9 7 19t5 22.5t2.5 29t0.5 39.5v312q0 24 -0.5 40.5t-2.5 29t-5 22t-7 19.5q-9 17 -20.5 25.5t-28.5 14.5q-15 5 -38 6v36h522l31 -173h-34q-10 18 -18 32
t-16 25.5t-18 22t-23 20.5q-14 12 -44.5 24.5t-75.5 12.5h-49q-14 0 -27.5 -3.5t-21.5 -14.5q-9 -11 -10.5 -24.5t-1.5 -33.5v-207h46q35 0 56.5 6.5t36.5 20.5q21 19 26.5 40t8.5 45h33v-261h-33q-3 25 -9.5 47t-27.5 41q-15 14 -36 19t-55 5h-46v-188q0 -37 4 -60.5
t18 -37.5q11 -12 31.5 -16t47.5 -4h18q28 0 47.5 4t34.5 10.5t26.5 15t22.5 18.5q33 30 47.5 56.5t28.5 55.5h32z" />
    <glyph glyph-name="Edieresis" unicode="&#xcb;" horiz-adv-x="644" 
d="M218 750q-23 0 -39 15t-16 41t16 41t39 15t39 -15t16 -41t-16 -41t-39 -15zM419 750q-23 0 -39 15t-16 41t16 41t39 15t39 -15t16 -41t-16 -41t-39 -15zM576 0h-541v36q24 2 38 7q17 5 28.5 14t20.5 26q4 9 7 19t5 22.5t2.5 29t0.5 39.5v312q0 24 -0.5 40.5t-2.5 29
t-5 22t-7 19.5q-9 17 -20.5 25.5t-28.5 14.5q-15 5 -38 6v36h522l31 -173h-34q-10 18 -18 32t-16 25.5t-18 22t-23 20.5q-14 12 -44.5 24.5t-75.5 12.5h-49q-14 0 -27.5 -3.5t-21.5 -14.5q-9 -11 -10.5 -24.5t-1.5 -33.5v-207h46q35 0 56.5 6.5t36.5 20.5q21 19 26.5 40
t8.5 45h33v-261h-33q-3 25 -9.5 47t-27.5 41q-15 14 -36 19t-55 5h-46v-188q0 -37 4 -60.5t18 -37.5q11 -12 31.5 -16t47.5 -4h18q28 0 47.5 4t34.5 10.5t26.5 15t22.5 18.5q33 30 47.5 56.5t28.5 55.5h32z" />
    <glyph glyph-name="Igrave" unicode="&#xcc;" horiz-adv-x="387" 
d="M314 755q-62 11 -101.5 18.5t-73.5 15.5q-11 3 -24 6.5t-24 10.5t-18 17t-7 26q0 22 13 35t33 13q24 0 40.5 -8t44.5 -25t55.5 -34t71.5 -43zM250 193q0 -23 0.5 -39.5t2.5 -29t4.5 -22.5t7.5 -19q9 -17 21 -25.5t28 -14.5q14 -5 38 -7v-36h-317v36q23 1 38 7
q17 6 28.5 14.5t20.5 25.5q4 9 7 19t5 22.5t2.5 29t0.5 39.5v312q0 24 -0.5 40.5t-2.5 29t-5 22t-7 19.5q-9 17 -20 26t-29 14q-15 5 -38 6v36h317v-36q-23 -1 -38 -6q-17 -5 -28.5 -14t-20.5 -26q-5 -10 -7.5 -19.5t-4.5 -22t-2.5 -29t-0.5 -40.5v-312z" />
    <glyph glyph-name="Iacute" unicode="&#xcd;" horiz-adv-x="387" 
d="M78 787q22 13 39.5 23.5t32 19.5t28 17t27.5 17q28 17 44.5 25t40.5 8q20 0 33 -13t13 -35q0 -16 -7 -26t-18 -17t-24 -10.5t-24 -6.5q-34 -8 -73.5 -15.5t-101.5 -18.5l-10 32v0zM250 193q0 -23 0.5 -39.5t2.5 -29t4.5 -22.5t7.5 -19q9 -17 21 -25.5t28 -14.5
q14 -5 38 -7v-36h-317v36q23 1 38 7q17 6 28.5 14.5t20.5 25.5q4 9 7 19t5 22.5t2.5 29t0.5 39.5v312q0 24 -0.5 40.5t-2.5 29t-5 22t-7 19.5q-9 17 -20 26t-29 14q-15 5 -38 6v36h317v-36q-23 -1 -38 -6q-17 -5 -28.5 -14t-20.5 -26q-5 -10 -7.5 -19.5t-4.5 -22t-2.5 -29
t-0.5 -40.5v-312z" />
    <glyph glyph-name="Icircumflex" unicode="&#xce;" horiz-adv-x="387" 
d="M315 755l-122 63l-122 -63l-19 28l115 105h52l115 -105zM250 193q0 -23 0.5 -39.5t2.5 -29t4.5 -22.5t7.5 -19q9 -17 21 -25.5t28 -14.5q14 -5 38 -7v-36h-317v36q23 1 38 7q17 6 28.5 14.5t20.5 25.5q4 9 7 19t5 22.5t2.5 29t0.5 39.5v312q0 24 -0.5 40.5t-2.5 29t-5 22
t-7 19.5q-9 17 -20 26t-29 14q-15 5 -38 6v36h317v-36q-23 -1 -38 -6q-17 -5 -28.5 -14t-20.5 -26q-5 -10 -7.5 -19.5t-4.5 -22t-2.5 -29t-0.5 -40.5v-312z" />
    <glyph glyph-name="Idieresis" unicode="&#xcf;" horiz-adv-x="387" 
d="M93 750q-23 0 -39 15t-16 41t16 41t39 15t39 -15t16 -41t-16 -41t-39 -15zM294 750q-23 0 -39 15t-16 41t16 41t39 15t39 -15t16 -41t-16 -41t-39 -15zM250 193q0 -23 0.5 -39.5t2.5 -29t4.5 -22.5t7.5 -19q9 -17 21 -25.5t28 -14.5q14 -5 38 -7v-36h-317v36q23 1 38 7
q17 6 28.5 14.5t20.5 25.5q4 9 7 19t5 22.5t2.5 29t0.5 39.5v312q0 24 -0.5 40.5t-2.5 29t-5 22t-7 19.5q-9 17 -20 26t-29 14q-15 5 -38 6v36h317v-36q-23 -1 -38 -6q-17 -5 -28.5 -14t-20.5 -26q-5 -10 -7.5 -19.5t-4.5 -22t-2.5 -29t-0.5 -40.5v-312z" />
    <glyph glyph-name="Eth" unicode="&#xd0;" horiz-adv-x="748" 
d="M36 375h101v130q0 24 -0.5 40.5t-2.5 29t-5 22t-7 19.5q-9 17 -20.5 25.5t-28.5 14.5q-15 5 -38 6v36h313q63 0 110 -11.5t80 -30.5q36 -20 68 -49t56 -67.5t37.5 -85.5t13.5 -104q0 -58 -12.5 -105.5t-35 -86t-53.5 -67.5t-68 -50q-33 -18 -78.5 -29.5t-90.5 -11.5h-340
v36q24 2 38 7q17 5 28.5 14t20.5 26q4 9 7 19t5 22.5t2.5 29t0.5 39.5v142h-101v40zM598 348q0 101 -26 165t-68 101q-30 26 -74.5 37t-85.5 11h-66q-8 0 -12.5 -1t-9.5 -6q-6 -6 -6 -25v-255h159v-40h-159v-181q0 -37 4 -60.5t18 -37.5q11 -12 31.5 -16t47.5 -4h14
q35 0 74.5 13t68.5 40q20 20 36.5 44t28.5 55t18.5 70t6.5 90z" />
    <glyph glyph-name="Ntilde" unicode="&#xd1;" horiz-adv-x="773" 
d="M582 863q-13 -42 -40 -70.5t-62 -28.5q-19 0 -34.5 4.5t-30 10t-27.5 10t-28 4.5q-16 0 -31 -12.5t-23 -32.5l-30 11q6 17 15 35t21 33t26.5 24.5t31.5 9.5q18 0 33.5 -4.5t30.5 -10t29.5 -10t30.5 -4.5q23 0 36 10t22 32l30 -11v0zM603 -8l-396 579h-10v-401
q0 -42 5 -61.5t14 -32.5q10 -14 20 -20.5t24 -11.5q11 -3 20 -4.5t23 -3.5v-36h-265v36q11 1 21.5 2.5t18.5 3.5q14 4 24.5 10.5t21.5 20.5q12 14 18.5 34.5t6.5 62.5v291q0 58 -6 88.5t-15 49.5q-8 17 -20 28.5t-39 25.5q-15 7 -40 9v36h228l340 -504h9v333q0 42 -5.5 63.5
t-17.5 35.5t-23 19.5t-25 9.5q-8 3 -21 4.5t-24 2.5v36h270v-36q-14 -2 -23 -4t-20 -5q-14 -4 -24 -11t-19 -21q-10 -13 -15 -32.5t-5 -61.5v-535h-51z" />
    <glyph glyph-name="Ograve" unicode="&#xd2;" horiz-adv-x="746" 
d="M493 755q-62 11 -101.5 18.5t-73.5 15.5q-11 3 -24 6.5t-24 10.5t-18 17t-7 26q0 22 13 35t33 13q24 0 40.5 -8t44.5 -25t55.5 -34t71.5 -43zM373 711q69 0 130 -27t106.5 -75t72.5 -114.5t27 -145.5q0 -80 -27 -146.5t-72.5 -114.5t-106.5 -75t-130 -27t-130 27
t-106.5 75t-72.5 114.5t-27 146.5q0 79 27 145.5t72.5 114.5t106.5 75t130 27zM373 27q58 0 104 29q21 14 41 35.5t35.5 55.5t24.5 83.5t9 118.5t-9 118t-24.5 83t-35.5 55.5t-41 35.5q-46 29 -104 29t-104 -29q-21 -14 -41 -35.5t-35 -55.5t-24 -83t-9 -118t9 -118.5
t24 -83.5t35 -55.5t41 -35.5q46 -29 104 -29z" />
    <glyph glyph-name="Oacute" unicode="&#xd3;" horiz-adv-x="746" 
d="M252 787q22 13 39.5 23.5t32 19.5t28 17t27.5 17q28 17 44.5 25t40.5 8q20 0 33 -13t13 -35q0 -16 -7 -26t-18 -17t-24 -10.5t-24 -6.5q-34 -8 -73.5 -15.5t-101.5 -18.5l-10 32v0zM373 711q69 0 130 -27t106.5 -75t72.5 -114.5t27 -145.5q0 -80 -27 -146.5t-72.5 -114.5
t-106.5 -75t-130 -27t-130 27t-106.5 75t-72.5 114.5t-27 146.5q0 79 27 145.5t72.5 114.5t106.5 75t130 27zM373 27q58 0 104 29q21 14 41 35.5t35.5 55.5t24.5 83.5t9 118.5t-9 118t-24.5 83t-35.5 55.5t-41 35.5q-46 29 -104 29t-104 -29q-21 -14 -41 -35.5t-35 -55.5
t-24 -83t-9 -118t9 -118.5t24 -83.5t35 -55.5t41 -35.5q46 -29 104 -29z" />
    <glyph glyph-name="Ocircumflex" unicode="&#xd4;" horiz-adv-x="746" 
d="M492 755l-122 63l-122 -63l-19 28l115 105h52l115 -105zM373 711q69 0 130 -27t106.5 -75t72.5 -114.5t27 -145.5q0 -80 -27 -146.5t-72.5 -114.5t-106.5 -75t-130 -27t-130 27t-106.5 75t-72.5 114.5t-27 146.5q0 79 27 145.5t72.5 114.5t106.5 75t130 27zM373 27
q58 0 104 29q21 14 41 35.5t35.5 55.5t24.5 83.5t9 118.5t-9 118t-24.5 83t-35.5 55.5t-41 35.5q-46 29 -104 29t-104 -29q-21 -14 -41 -35.5t-35 -55.5t-24 -83t-9 -118t9 -118.5t24 -83.5t35 -55.5t41 -35.5q46 -29 104 -29z" />
    <glyph glyph-name="Otilde" unicode="&#xd5;" horiz-adv-x="746" 
d="M527 863q-13 -42 -40 -70.5t-62 -28.5q-19 0 -34.5 4.5t-30 10t-27.5 10t-28 4.5q-16 0 -31 -12.5t-23 -32.5l-30 11q6 17 15 35t21 33t26.5 24.5t31.5 9.5q18 0 33.5 -4.5t30.5 -10t29.5 -10t30.5 -4.5q23 0 36 10t22 32l30 -11v0zM373 711q69 0 130 -27t106.5 -75
t72.5 -114.5t27 -145.5q0 -80 -27 -146.5t-72.5 -114.5t-106.5 -75t-130 -27t-130 27t-106.5 75t-72.5 114.5t-27 146.5q0 79 27 145.5t72.5 114.5t106.5 75t130 27zM373 27q58 0 104 29q21 14 41 35.5t35.5 55.5t24.5 83.5t9 118.5t-9 118t-24.5 83t-35.5 55.5t-41 35.5
q-46 29 -104 29t-104 -29q-21 -14 -41 -35.5t-35 -55.5t-24 -83t-9 -118t9 -118.5t24 -83.5t35 -55.5t41 -35.5q46 -29 104 -29z" />
    <glyph glyph-name="Odieresis" unicode="&#xd6;" horiz-adv-x="746" 
d="M267 750q-23 0 -39 15t-16 41t16 41t39 15t39 -15t16 -41t-16 -41t-39 -15zM468 750q-23 0 -39 15t-16 41t16 41t39 15t39 -15t16 -41t-16 -41t-39 -15zM373 711q69 0 130 -27t106.5 -75t72.5 -114.5t27 -145.5q0 -80 -27 -146.5t-72.5 -114.5t-106.5 -75t-130 -27
t-130 27t-106.5 75t-72.5 114.5t-27 146.5q0 79 27 145.5t72.5 114.5t106.5 75t130 27zM373 27q58 0 104 29q21 14 41 35.5t35.5 55.5t24.5 83.5t9 118.5t-9 118t-24.5 83t-35.5 55.5t-41 35.5q-46 29 -104 29t-104 -29q-21 -14 -41 -35.5t-35 -55.5t-24 -83t-9 -118
t9 -118.5t24 -83.5t35 -55.5t41 -35.5q46 -29 104 -29z" />
    <glyph glyph-name="multiply" unicode="&#xd7;" horiz-adv-x="469" 
d="M235 275l-144 -144l-30 29l145 145l-145 144l30 29l144 -144l144 144l29 -30l-143 -143l143 -144l-29 -30z" />
    <glyph glyph-name="Oslash" unicode="&#xd8;" horiz-adv-x="746" 
d="M160 349q0 -85 13 -139t34 -89l300 497q-8 7 -15 12.5t-15 10.5q-46 29 -104 29t-104 -29q-21 -14 -41 -35.5t-35 -55.5t-24 -83t-9 -118zM373 27q58 0 104 29q21 14 41 35.5t35.5 55.5t24.5 83.5t9 118.5q0 90 -15 145.5t-38 90.5l-301 -499q18 -18 36 -30
q46 -29 104 -29zM373 -14q-47 0 -90 12.5t-81 35.5l-56 -93l-36 19l59 98q-60 48 -96 122.5t-36 168.5q0 79 27 145.5t72.5 114.5t106.5 75t130 27q45 0 86 -11.5t77 -32.5l57 94l35 -20l-58 -96q63 -48 101 -124t38 -172q0 -80 -27 -146.5t-72.5 -114.5t-106.5 -75
t-130 -27z" />
    <glyph glyph-name="Ugrave" unicode="&#xd9;" horiz-adv-x="752" 
d="M511 755q-62 11 -101.5 18.5t-73.5 15.5q-11 3 -24 6.5t-24 10.5t-18 17t-7 26q0 22 13 35t33 13q24 0 40.5 -8t44.5 -25t55.5 -34t71.5 -43zM638 234q0 -54 -7.5 -91t-30.5 -71q-26 -39 -78 -62t-136 -23q-41 0 -81.5 7.5t-75.5 23t-61.5 40t-39.5 59.5q-6 15 -9.5 34
t-5.5 39t-3 39t-1 34v242q0 24 -0.5 40.5t-2 29t-4.5 22t-8 18.5q-8 17 -19.5 26t-28.5 15q-15 4 -39 6v36h318v-36q-25 -2 -38 -6q-17 -6 -28.5 -15t-20.5 -26q-5 -9 -8 -18.5t-5 -22t-2.5 -29t-0.5 -39.5v-282q0 -23 3 -46.5t11 -49.5q9 -29 24 -48t36 -30.5t46 -16
t53 -4.5q129 0 169 67q15 25 21 56t6 76v299q0 43 -6 64t-18 35t-22.5 19.5t-24.5 10.5q-8 2 -21 3.5t-24 2.5v36h269v-36q-26 -3 -43 -8q-14 -5 -24 -11.5t-20 -20.5q-10 -13 -14.5 -32.5t-4.5 -62.5v-293v0z" />
    <glyph glyph-name="Uacute" unicode="&#xda;" horiz-adv-x="752" 
d="M292 787q22 13 39.5 23.5t32 19.5t28 17t27.5 17q28 17 44.5 25t40.5 8q20 0 33 -13t13 -35q0 -16 -7 -26t-18 -17t-24 -10.5t-24 -6.5q-34 -8 -73.5 -15.5t-101.5 -18.5l-10 32v0zM638 234q0 -54 -7.5 -91t-30.5 -71q-26 -39 -78 -62t-136 -23q-41 0 -81.5 7.5t-75.5 23
t-61.5 40t-39.5 59.5q-6 15 -9.5 34t-5.5 39t-3 39t-1 34v242q0 24 -0.5 40.5t-2 29t-4.5 22t-8 18.5q-8 17 -19.5 26t-28.5 15q-15 4 -39 6v36h318v-36q-25 -2 -38 -6q-17 -6 -28.5 -15t-20.5 -26q-5 -9 -8 -18.5t-5 -22t-2.5 -29t-0.5 -39.5v-282q0 -23 3 -46.5t11 -49.5
q9 -29 24 -48t36 -30.5t46 -16t53 -4.5q129 0 169 67q15 25 21 56t6 76v299q0 43 -6 64t-18 35t-22.5 19.5t-24.5 10.5q-8 2 -21 3.5t-24 2.5v36h269v-36q-26 -3 -43 -8q-14 -5 -24 -11.5t-20 -20.5q-10 -13 -14.5 -32.5t-4.5 -62.5v-293v0z" />
    <glyph glyph-name="Ucircumflex" unicode="&#xdb;" horiz-adv-x="752" 
d="M523 755l-122 63l-122 -63l-19 28l115 105h52l115 -105zM638 234q0 -54 -7.5 -91t-30.5 -71q-26 -39 -78 -62t-136 -23q-41 0 -81.5 7.5t-75.5 23t-61.5 40t-39.5 59.5q-6 15 -9.5 34t-5.5 39t-3 39t-1 34v242q0 24 -0.5 40.5t-2 29t-4.5 22t-8 18.5q-8 17 -19.5 26
t-28.5 15q-15 4 -39 6v36h318v-36q-25 -2 -38 -6q-17 -6 -28.5 -15t-20.5 -26q-5 -9 -8 -18.5t-5 -22t-2.5 -29t-0.5 -39.5v-282q0 -23 3 -46.5t11 -49.5q9 -29 24 -48t36 -30.5t46 -16t53 -4.5q129 0 169 67q15 25 21 56t6 76v299q0 43 -6 64t-18 35t-22.5 19.5t-24.5 10.5
q-8 2 -21 3.5t-24 2.5v36h269v-36q-26 -3 -43 -8q-14 -5 -24 -11.5t-20 -20.5q-10 -13 -14.5 -32.5t-4.5 -62.5v-293v0z" />
    <glyph glyph-name="Udieresis" unicode="&#xdc;" horiz-adv-x="752" 
d="M303 750q-23 0 -39 15t-16 41t16 41t39 15t39 -15t16 -41t-16 -41t-39 -15zM504 750q-23 0 -39 15t-16 41t16 41t39 15t39 -15t16 -41t-16 -41t-39 -15zM638 234q0 -54 -7.5 -91t-30.5 -71q-26 -39 -78 -62t-136 -23q-41 0 -81.5 7.5t-75.5 23t-61.5 40t-39.5 59.5
q-6 15 -9.5 34t-5.5 39t-3 39t-1 34v242q0 24 -0.5 40.5t-2 29t-4.5 22t-8 18.5q-8 17 -19.5 26t-28.5 15q-15 4 -39 6v36h318v-36q-25 -2 -38 -6q-17 -6 -28.5 -15t-20.5 -26q-5 -9 -8 -18.5t-5 -22t-2.5 -29t-0.5 -39.5v-282q0 -23 3 -46.5t11 -49.5q9 -29 24 -48
t36 -30.5t46 -16t53 -4.5q129 0 169 67q15 25 21 56t6 76v299q0 43 -6 64t-18 35t-22.5 19.5t-24.5 10.5q-8 2 -21 3.5t-24 2.5v36h269v-36q-26 -3 -43 -8q-14 -5 -24 -11.5t-20 -20.5q-10 -13 -14.5 -32.5t-4.5 -62.5v-293v0z" />
    <glyph glyph-name="Yacute" unicode="&#xdd;" horiz-adv-x="646" 
d="M228 787q22 13 39.5 23.5t32 19.5t28 17t27.5 17q28 17 44.5 25t40.5 8q20 0 33 -13t13 -35q0 -16 -7 -26t-18 -17t-24 -10.5t-24 -6.5q-34 -8 -73.5 -15.5t-101.5 -18.5l-10 32v0zM106 555q-18 31 -32 50.5t-27 31t-26.5 17t-28.5 8.5v36h307v-36q-37 -3 -54 -8
q-35 -12 -32 -39.5t30 -72.5l112 -185h6l98 167q21 34 27 53t6 39q0 17 -6.5 25.5t-20.5 13.5q-8 3 -21.5 4.5t-21.5 2.5v36h230v-36q-27 -3 -46 -13t-35.5 -27.5t-32 -43.5t-35.5 -62l-128 -219v-104q0 -23 0.5 -39.5t2 -29t4 -22.5t7.5 -19q9 -17 21 -25.5t28 -14.5
q10 -4 18 -5t20 -2v-36h-316v36q12 1 20.5 2.5t17.5 4.5q16 5 28 14t21 26q5 9 8 19t4.5 22.5t2 29t0.5 39.5v105z" />
    <glyph glyph-name="Thorn" unicode="&#xde;" horiz-adv-x="599" 
d="M352 0h-317v36q23 1 38 7q17 6 28.5 14.5t20.5 25.5q4 9 7 19t5 22.5t2.5 29t0.5 39.5v312q0 24 -0.5 40.5t-2.5 29t-5 22t-7 19.5q-9 17 -20 26t-29 14q-15 5 -38 6v36h317v-36q-23 -1 -38 -6q-17 -5 -28.5 -14t-20.5 -26q-7 -15 -10 -30t-4 -41h77q54 0 100 -10
t79.5 -30.5t52.5 -52.5t19 -75q0 -59 -20.5 -93t-57.5 -58q-27 -17 -73.5 -28t-114.5 -11h-63q0 -22 0.5 -37.5t2.5 -27.5t4.5 -21t7.5 -18q9 -17 21 -25.5t28 -14.5q14 -5 38 -7v-36zM250 226h69q42 0 73.5 9.5t51.5 35.5q14 20 20 45t6 56q0 71 -33.5 103.5t-113.5 32.5
h-44q-17 0 -23 -7q-2 -3 -4 -8t-2 -14v-253z" />
    <glyph glyph-name="germandbls" unicode="&#xdf;" horiz-adv-x="653" 
d="M638 142q0 -36 -12 -64t-33 -47.5t-50 -30t-63 -10.5q-41 0 -67 17.5t-42 41.5h-9l-16 -47h-28l-6 181h33q20 -74 53.5 -114.5t81.5 -40.5q42 0 58 20.5t16 55.5q0 17 -7.5 29.5t-22 24.5t-36 24.5t-48.5 28.5q-26 15 -49.5 31t-42 34.5t-29.5 41t-11 50.5t9.5 49
t23.5 37.5t31 30.5t32 28q23 20 34.5 44.5t11.5 60.5q0 21 -5.5 39.5t-18.5 32.5t-34.5 22t-52.5 8q-23 0 -46 -6.5t-42 -23t-31 -44.5t-12 -71v-437q0 -16 0.5 -29t3.5 -24q4 -15 10.5 -25t21.5 -18q6 -2 19 -4.5t23 -3.5v-34h-256v34q10 1 21 3.5t17 4.5q28 14 35 43
q2 11 2.5 24t0.5 29v325h-78v42h78v46q0 60 22.5 99t56.5 63q36 26 77.5 36t76.5 10q97 0 148 -36t51 -90q0 -30 -10.5 -51.5t-26 -39t-34 -31.5t-33.5 -27q-20 -18 -33 -33t-13 -38q0 -19 4 -31t15 -23t30.5 -23t49.5 -31q28 -18 55.5 -33t48.5 -32.5t34 -40.5t13 -57z" />
    <glyph glyph-name="agrave" unicode="&#xe0;" horiz-adv-x="500" 
d="M492 14q-8 -5 -35 -14.5t-58 -9.5q-22 0 -35 3.5t-22 9.5q-11 8 -18.5 22.5t-10.5 40.5h-11q-5 -10 -15 -23t-26 -25t-39 -20t-53 -8q-64 0 -101.5 32.5t-37.5 97.5q0 22 9 46.5t29 43.5q27 24 55 35t72 24q48 14 71 26.5t33 28.5v89q0 36 -14 51.5t-47 15.5
q-32 0 -54 -13q-8 -6 -16 -18.5t-12 -35.5q-7 -49 -50 -49q-20 0 -33 12.5t-13 33.5q0 31 23 54q19 20 59.5 37t94.5 17q78 0 121 -23.5t43 -83.5v-276q0 -20 0.5 -33.5t2 -22t3.5 -14t4 -9.5q9 -19 35 -19q9 0 20 2t17 5zM299 282q-8 -8 -27 -18t-45 -21q-24 -11 -42.5 -21
t-29.5 -23q-11 -14 -19.5 -30.5t-8.5 -44.5q0 -24 7 -40t17.5 -25t24 -13t27.5 -4q35 0 60.5 18.5t35.5 50.5v171zM331 568l-162 72q-58 26 -58 61q0 22 11.5 35t31.5 13q22 0 39.5 -12t40.5 -33t48.5 -46t66.5 -62z" />
    <glyph glyph-name="aacute" unicode="&#xe1;" horiz-adv-x="500" 
d="M492 14q-8 -5 -35 -14.5t-58 -9.5q-22 0 -35 3.5t-22 9.5q-11 8 -18.5 22.5t-10.5 40.5h-11q-5 -10 -15 -23t-26 -25t-39 -20t-53 -8q-64 0 -101.5 32.5t-37.5 97.5q0 22 9 46.5t29 43.5q27 24 55 35t72 24q48 14 71 26.5t33 28.5v89q0 36 -14 51.5t-47 15.5
q-32 0 -54 -13q-8 -6 -16 -18.5t-12 -35.5q-7 -49 -50 -49q-20 0 -33 12.5t-13 33.5q0 31 23 54q19 20 59.5 37t94.5 17q78 0 121 -23.5t43 -83.5v-276q0 -20 0.5 -33.5t2 -22t3.5 -14t4 -9.5q9 -19 35 -19q9 0 20 2t17 5zM299 282q-8 -8 -27 -18t-45 -21q-24 -11 -42.5 -21
t-29.5 -23q-11 -14 -19.5 -30.5t-8.5 -44.5q0 -24 7 -40t17.5 -25t24 -13t27.5 -4q35 0 60.5 18.5t35.5 50.5v171zM118 596q41 37 66.5 62t48.5 46t40.5 33t39.5 12q20 0 31.5 -13t11.5 -35q0 -35 -58 -61l-162 -72l-18 28v0z" />
    <glyph glyph-name="acircumflex" unicode="&#xe2;" horiz-adv-x="500" 
d="M492 14q-8 -5 -35 -14.5t-58 -9.5q-22 0 -35 3.5t-22 9.5q-11 8 -18.5 22.5t-10.5 40.5h-11q-5 -10 -15 -23t-26 -25t-39 -20t-53 -8q-64 0 -101.5 32.5t-37.5 97.5q0 22 9 46.5t29 43.5q27 24 55 35t72 24q48 14 71 26.5t33 28.5v89q0 36 -14 51.5t-47 15.5
q-32 0 -54 -13q-8 -6 -16 -18.5t-12 -35.5q-7 -49 -50 -49q-20 0 -33 12.5t-13 33.5q0 31 23 54q19 20 59.5 37t94.5 17q78 0 121 -23.5t43 -83.5v-276q0 -20 0.5 -33.5t2 -22t3.5 -14t4 -9.5q9 -19 35 -19q9 0 20 2t17 5zM299 282q-8 -8 -27 -18t-45 -21q-24 -11 -42.5 -21
t-29.5 -23q-11 -14 -19.5 -30.5t-8.5 -44.5q0 -24 7 -40t17.5 -25t24 -13t27.5 -4q35 0 60.5 18.5t35.5 50.5v171zM346 560l-112 87l-112 -87l-27 25l115 132h48l115 -132z" />
    <glyph glyph-name="atilde" unicode="&#xe3;" horiz-adv-x="500" 
d="M492 14q-8 -5 -35 -14.5t-58 -9.5q-22 0 -35 3.5t-22 9.5q-11 8 -18.5 22.5t-10.5 40.5h-11q-5 -10 -15 -23t-26 -25t-39 -20t-53 -8q-64 0 -101.5 32.5t-37.5 97.5q0 22 9 46.5t29 43.5q27 24 55 35t72 24q48 14 71 26.5t33 28.5v89q0 36 -14 51.5t-47 15.5
q-32 0 -54 -13q-8 -6 -16 -18.5t-12 -35.5q-7 -49 -50 -49q-20 0 -33 12.5t-13 33.5q0 31 23 54q19 20 59.5 37t94.5 17q78 0 121 -23.5t43 -83.5v-276q0 -20 0.5 -33.5t2 -22t3.5 -14t4 -9.5q9 -19 35 -19q9 0 20 2t17 5zM299 282q-8 -8 -27 -18t-45 -21q-24 -11 -42.5 -21
t-29.5 -23q-11 -14 -19.5 -30.5t-8.5 -44.5q0 -24 7 -40t17.5 -25t24 -13t27.5 -4q35 0 60.5 18.5t35.5 50.5v171zM390 703q-13 -42 -40 -70.5t-62 -28.5q-19 0 -34.5 4.5t-30 10t-27.5 10t-28 4.5q-16 0 -31 -12.5t-23 -32.5l-30 11q6 17 15 35t21 33t26.5 24.5t31.5 9.5
q18 0 33.5 -4.5t30.5 -10t29.5 -10t30.5 -4.5q23 0 36 10t22 32l30 -11v0z" />
    <glyph glyph-name="adieresis" unicode="&#xe4;" horiz-adv-x="500" 
d="M492 14q-8 -5 -35 -14.5t-58 -9.5q-22 0 -35 3.5t-22 9.5q-11 8 -18.5 22.5t-10.5 40.5h-11q-5 -10 -15 -23t-26 -25t-39 -20t-53 -8q-64 0 -101.5 32.5t-37.5 97.5q0 22 9 46.5t29 43.5q27 24 55 35t72 24q48 14 71 26.5t33 28.5v89q0 36 -14 51.5t-47 15.5
q-32 0 -54 -13q-8 -6 -16 -18.5t-12 -35.5q-7 -49 -50 -49q-20 0 -33 12.5t-13 33.5q0 31 23 54q19 20 59.5 37t94.5 17q78 0 121 -23.5t43 -83.5v-276q0 -20 0.5 -33.5t2 -22t3.5 -14t4 -9.5q9 -19 35 -19q9 0 20 2t17 5zM299 282q-8 -8 -27 -18t-45 -21q-24 -11 -42.5 -21
t-29.5 -23q-11 -14 -19.5 -30.5t-8.5 -44.5q0 -24 7 -40t17.5 -25t24 -13t27.5 -4q35 0 60.5 18.5t35.5 50.5v171zM142 591q-22 0 -37.5 14.5t-15.5 39.5q0 24 15.5 39t37.5 15t37.5 -15t15.5 -39q0 -25 -15.5 -39.5t-37.5 -14.5zM325 591q-22 0 -37.5 14.5t-15.5 39.5
q0 24 15.5 39t37.5 15t37.5 -15t15.5 -39q0 -25 -15.5 -39.5t-37.5 -14.5z" />
    <glyph glyph-name="aring" unicode="&#xe5;" horiz-adv-x="500" 
d="M492 14q-8 -5 -35 -14.5t-58 -9.5q-22 0 -35 3.5t-22 9.5q-11 8 -18.5 22.5t-10.5 40.5h-11q-5 -10 -15 -23t-26 -25t-39 -20t-53 -8q-64 0 -101.5 32.5t-37.5 97.5q0 22 9 46.5t29 43.5q27 24 55 35t72 24q48 14 71 26.5t33 28.5v89q0 36 -14 51.5t-47 15.5
q-32 0 -54 -13q-8 -6 -16 -18.5t-12 -35.5q-7 -49 -50 -49q-20 0 -33 12.5t-13 33.5q0 31 23 54q19 20 59.5 37t94.5 17q78 0 121 -23.5t43 -83.5v-276q0 -20 0.5 -33.5t2 -22t3.5 -14t4 -9.5q9 -19 35 -19q9 0 20 2t17 5zM299 282q-8 -8 -27 -18t-45 -21q-24 -11 -42.5 -21
t-29.5 -23q-11 -14 -19.5 -30.5t-8.5 -44.5q0 -24 7 -40t17.5 -25t24 -13t27.5 -4q35 0 60.5 18.5t35.5 50.5v171zM323 655q0 -21 -7.5 -38t-20 -28t-28.5 -17t-34 -6q-17 0 -33.5 6t-29 17t-20 28t-7.5 38q0 22 7.5 38.5t20 28t29 17.5t33.5 6q35 0 62.5 -23.5t27.5 -66.5z
M176 655q0 -29 16.5 -45t40.5 -16t40.5 16t16.5 45t-16.5 45.5t-40.5 16.5t-40.5 -16.5t-16.5 -45.5z" />
    <glyph glyph-name="ae" unicode="&#xe6;" horiz-adv-x="768" 
d="M524 -10q-27 0 -51 6t-43.5 15.5t-35 20.5t-25.5 21q-14 14 -21.5 24.5t-18.5 28.5h-6q-9 -32 -25.5 -54t-37.5 -35.5t-45.5 -19t-49.5 -5.5q-28 0 -52.5 8.5t-43 25t-29 40.5t-10.5 56q0 22 8.5 46.5t28.5 42.5q13 12 26.5 20.5t28.5 15t32.5 12t39.5 11.5
q47 13 70.5 26t33.5 29v92q0 35 -14.5 50t-43.5 15q-17 0 -31.5 -3t-25.5 -11q-9 -6 -17 -19t-11 -36q-4 -25 -16.5 -35.5t-35.5 -10.5q-19 0 -31.5 13t-12.5 33q0 31 21 52q20 21 64 37t94 16q85 0 131 -60h8q10 12 27 23t37.5 19.5t41.5 13t41 4.5q56 0 95 -18.5t63 -46.5
t35 -61.5t11 -63.5q0 -17 -0.5 -33t-2.5 -25h-326q0 -63 10.5 -113.5t40.5 -81.5q17 -18 38 -29.5t55 -11.5q36 0 62 10t45 26.5t32 38t22 44.5l30 -14q-24 -65 -77 -107t-133 -42zM628 359q0 33 -6 57t-21 41q-13 14 -30 21t-46 7q-19 0 -38.5 -6t-35.5 -21
q-20 -19 -32.5 -55.5t-17.5 -95.5h188q22 0 30.5 11t8.5 41zM299 280q-8 -8 -29 -18t-47 -21q-24 -11 -42.5 -20.5t-29.5 -23.5t-17 -30.5t-6 -39.5q0 -48 22 -66t50 -18q16 0 32 6.5t29 18t23 26t15 30.5v156z" />
    <glyph glyph-name="ccedilla" unicode="&#xe7;" horiz-adv-x="508" 
d="M426 -117q0 -46 -37 -66t-100 -20q-30 0 -53.5 8t-38.5 19l18 30q14 -10 34 -17t39 -7q26 0 44.5 10.5t18.5 39.5q0 26 -12.5 36t-29.5 10q-24 0 -41 -14l-32 19l21 60q-34 2 -62 12q-36 13 -68 37q-45 34 -69 88.5t-24 126.5q0 61 20.5 110t55 83t79.5 52t95 18
q37 0 64.5 -5.5t46.5 -13.5t32 -18.5t22 -19.5q12 -14 17.5 -27.5t5.5 -25.5q0 -30 -14 -42t-34 -12q-28 0 -40.5 17t-20.5 46q-10 34 -26.5 48.5t-52.5 14.5q-20 0 -40.5 -6t-35.5 -18q-32 -25 -49.5 -74t-17.5 -127t19 -123.5t51 -71.5q15 -11 35 -18t41 -7q39 0 67 10
t47.5 25.5t31 35.5t19.5 41l35 -13q-20 -65 -73 -105q-46 -33 -116 -38l-15 -43q9 5 24 8.5t26 3.5q46 0 69.5 -20t23.5 -57z" />
    <glyph glyph-name="egrave" unicode="&#xe8;" horiz-adv-x="523" 
d="M489 139q-24 -65 -77 -107t-133 -42q-52 0 -91.5 15.5t-68.5 41.5q-45 39 -65 94.5t-20 112.5q0 58 20 106.5t54 83.5t78 54.5t91 19.5q56 0 96 -18t65 -46t36.5 -61.5t11.5 -63.5q0 -17 -1 -33t-3 -25h-337v-17q0 -51 10.5 -100t40.5 -81q17 -18 41.5 -28.5t58.5 -10.5
q36 0 62 10t45.5 26.5t33 38t22.5 44.5zM203 452q-8 -8 -16.5 -19t-16.5 -28t-14 -40.5t-9 -56.5h202q17 0 25.5 11t8.5 41q0 35 -5 54t-20 36q-13 15 -32 22t-48 7q-19 0 -38.5 -6t-36.5 -21zM362 568l-162 72q-58 26 -58 61q0 22 11.5 35t31.5 13q22 0 39.5 -12t40.5 -33
t48.5 -46t66.5 -62z" />
    <glyph glyph-name="eacute" unicode="&#xe9;" horiz-adv-x="523" 
d="M489 139q-24 -65 -77 -107t-133 -42q-52 0 -91.5 15.5t-68.5 41.5q-45 39 -65 94.5t-20 112.5q0 58 20 106.5t54 83.5t78 54.5t91 19.5q56 0 96 -18t65 -46t36.5 -61.5t11.5 -63.5q0 -17 -1 -33t-3 -25h-337v-17q0 -51 10.5 -100t40.5 -81q17 -18 41.5 -28.5t58.5 -10.5
q36 0 62 10t45.5 26.5t33 38t22.5 44.5zM203 452q-8 -8 -16.5 -19t-16.5 -28t-14 -40.5t-9 -56.5h202q17 0 25.5 11t8.5 41q0 35 -5 54t-20 36q-13 15 -32 22t-48 7q-19 0 -38.5 -6t-36.5 -21zM159 596q41 37 66.5 62t48.5 46t40.5 33t39.5 12q20 0 31.5 -13t11.5 -35
q0 -35 -58 -61l-162 -72l-18 28v0z" />
    <glyph glyph-name="ecircumflex" unicode="&#xea;" horiz-adv-x="523" 
d="M489 139q-24 -65 -77 -107t-133 -42q-52 0 -91.5 15.5t-68.5 41.5q-45 39 -65 94.5t-20 112.5q0 58 20 106.5t54 83.5t78 54.5t91 19.5q56 0 96 -18t65 -46t36.5 -61.5t11.5 -63.5q0 -17 -1 -33t-3 -25h-337v-17q0 -51 10.5 -100t40.5 -81q17 -18 41.5 -28.5t58.5 -10.5
q36 0 62 10t45.5 26.5t33 38t22.5 44.5zM203 452q-8 -8 -16.5 -19t-16.5 -28t-14 -40.5t-9 -56.5h202q17 0 25.5 11t8.5 41q0 35 -5 54t-20 36q-13 15 -32 22t-48 7q-19 0 -38.5 -6t-36.5 -21zM383 560l-112 87l-112 -87l-27 25l115 132h48l115 -132z" />
    <glyph glyph-name="edieresis" unicode="&#xeb;" horiz-adv-x="523" 
d="M489 139q-24 -65 -77 -107t-133 -42q-52 0 -91.5 15.5t-68.5 41.5q-45 39 -65 94.5t-20 112.5q0 58 20 106.5t54 83.5t78 54.5t91 19.5q56 0 96 -18t65 -46t36.5 -61.5t11.5 -63.5q0 -17 -1 -33t-3 -25h-337v-17q0 -51 10.5 -100t40.5 -81q17 -18 41.5 -28.5t58.5 -10.5
q36 0 62 10t45.5 26.5t33 38t22.5 44.5zM203 452q-8 -8 -16.5 -19t-16.5 -28t-14 -40.5t-9 -56.5h202q17 0 25.5 11t8.5 41q0 35 -5 54t-20 36q-13 15 -32 22t-48 7q-19 0 -38.5 -6t-36.5 -21zM182 591q-22 0 -37.5 14.5t-15.5 39.5q0 24 15.5 39t37.5 15t37.5 -15t15.5 -39
q0 -25 -15.5 -39.5t-37.5 -14.5zM365 591q-22 0 -37.5 14.5t-15.5 39.5q0 24 15.5 39t37.5 15t37.5 -15t15.5 -39q0 -25 -15.5 -39.5t-37.5 -14.5z" />
    <glyph glyph-name="igrave" unicode="&#xec;" horiz-adv-x="302" 
d="M204 138q0 -16 0.5 -29t3.5 -24q4 -15 11.5 -25t23.5 -18q6 -2 16.5 -4.5t20.5 -3.5v-34h-251v34q10 1 20 3.5t16 4.5q28 14 35 43q2 11 2.5 24t0.5 29v232q0 12 -0.5 29t-2.5 25q-6 18 -22 28q-20 12 -53 19v34h175q7 0 7 -8q-1 -21 -2 -47.5t-1 -65.5v-246zM232 568
l-162 72q-58 26 -58 61q0 22 11.5 35t31.5 13q22 0 39.5 -12t40.5 -33t48.5 -46t66.5 -62z" />
    <glyph glyph-name="iacute" unicode="&#xed;" horiz-adv-x="302" 
d="M204 138q0 -16 0.5 -29t3.5 -24q4 -15 11.5 -25t23.5 -18q6 -2 16.5 -4.5t20.5 -3.5v-34h-251v34q10 1 20 3.5t16 4.5q28 14 35 43q2 11 2.5 24t0.5 29v232q0 12 -0.5 29t-2.5 25q-6 18 -22 28q-20 12 -53 19v34h175q7 0 7 -8q-1 -21 -2 -47.5t-1 -65.5v-246zM11 596
q41 37 66.5 62t48.5 46t40.5 33t39.5 12q20 0 31.5 -13t11.5 -35q0 -35 -58 -61l-162 -72l-18 28v0z" />
    <glyph glyph-name="icircumflex" unicode="&#xee;" horiz-adv-x="302" 
d="M204 138q0 -16 0.5 -29t3.5 -24q4 -15 11.5 -25t23.5 -18q6 -2 16.5 -4.5t20.5 -3.5v-34h-251v34q10 1 20 3.5t16 4.5q28 14 35 43q2 11 2.5 24t0.5 29v232q0 12 -0.5 29t-2.5 25q-6 18 -22 28q-20 12 -53 19v34h175q7 0 7 -8q-1 -21 -2 -47.5t-1 -65.5v-246zM237 560
l-112 87l-112 -87l-27 25l115 132h48l115 -132z" />
    <glyph glyph-name="idieresis" unicode="&#xef;" horiz-adv-x="302" 
d="M204 138q0 -16 0.5 -29t3.5 -24q4 -15 11.5 -25t23.5 -18q6 -2 16.5 -4.5t20.5 -3.5v-34h-251v34q10 1 20 3.5t16 4.5q28 14 35 43q2 11 2.5 24t0.5 29v232q0 12 -0.5 29t-2.5 25q-6 18 -22 28q-20 12 -53 19v34h175q7 0 7 -8q-1 -21 -2 -47.5t-1 -65.5v-246zM28 591
q-22 0 -37.5 14.5t-15.5 39.5q0 24 15.5 39t37.5 15t37.5 -15t15.5 -39q0 -25 -15.5 -39.5t-37.5 -14.5zM211 591q-22 0 -37.5 14.5t-15.5 39.5q0 24 15.5 39t37.5 15t37.5 -15t15.5 -39q0 -25 -15.5 -39.5t-37.5 -14.5z" />
    <glyph glyph-name="eth" unicode="&#xf0;" horiz-adv-x="552" 
d="M274 -10q-53 0 -98 18.5t-78 53t-51.5 83.5t-18.5 110t20.5 110t54.5 83t78.5 52t92.5 18q30 0 58.5 -6.5t52.5 -29.5h4q-17 43 -38 77t-47 63l-132 -66l-20 35l121 60q-27 23 -59 42t-71 37l20 35q37 -16 78 -38t82 -51l147 73l19 -35l-132 -66q34 -29 64.5 -65.5
t53.5 -81.5t36 -98.5t13 -116.5q0 -75 -19 -131t-52.5 -92.5t-79.5 -54.5t-99 -18zM415 263q2 66 -12 108.5t-39 71.5q-18 21 -42 28.5t-48 7.5q-21 0 -43.5 -7.5t-39.5 -25.5q-27 -28 -40 -77t-13 -114q0 -66 13.5 -113.5t38.5 -76.5q18 -21 41 -28.5t43 -7.5
q21 0 43.5 6.5t41.5 28.5q24 29 39 81.5t17 117.5z" />
    <glyph glyph-name="ntilde" unicode="&#xf1;" horiz-adv-x="624" 
d="M527 138q0 -16 0.5 -29t2.5 -24q4 -15 11.5 -25t23.5 -18q6 -2 16.5 -4.5t20.5 -3.5v-34h-249v34q10 1 20.5 3.5t17.5 4.5q15 8 21.5 18t10.5 25q2 11 2.5 24t0.5 29v238q0 20 -5 37t-17 29q-18 17 -58 17q-32 0 -62 -12.5t-49 -38.5q-14 -19 -21.5 -46.5t-7.5 -55.5
v-168q0 -16 0.5 -29t3.5 -24q4 -15 10.5 -25t21.5 -18q6 -2 16 -4.5t20 -3.5v-34h-249v34q10 1 21 3.5t17 4.5q28 14 35 43q2 11 2.5 24t0.5 29v232q0 12 -0.5 29t-2.5 25q-6 18 -22 28q-11 6 -24.5 10.5t-30.5 8.5v34h170q7 0 7 -8l-2 -74h12q12 19 27.5 35t35.5 28
q47 32 110 32q58 0 93 -25q23 -17 36 -44t13 -63v-248v0zM465 703q-13 -42 -40 -70.5t-62 -28.5q-19 0 -34.5 4.5t-30 10t-27.5 10t-28 4.5q-16 0 -31 -12.5t-23 -32.5l-30 11q6 17 15 35t21 33t26.5 24.5t31.5 9.5q18 0 33.5 -4.5t30.5 -10t29.5 -10t30.5 -4.5q23 0 36 10
t22 32l30 -11v0z" />
    <glyph glyph-name="ograve" unicode="&#xf2;" horiz-adv-x="566" 
d="M34 255q0 61 20 110t54.5 83t79.5 52t95 18t95 -18t79.5 -52t54.5 -83t20 -110t-20 -110t-54.5 -83.5t-79.5 -53t-95 -18.5t-95 18.5t-79.5 53t-54.5 83.5t-20 110zM144 255q0 -78 17 -127t49 -75q32 -24 73 -24q40 0 72 24q32 26 49.5 75t17.5 127t-17.5 127t-49.5 74
q-15 12 -33.5 17.5t-38.5 5.5t-39 -5.5t-34 -17.5q-32 -25 -49 -74t-17 -127zM374 568l-162 72q-58 26 -58 61q0 22 11.5 35t31.5 13q22 0 39.5 -12t40.5 -33t48.5 -46t66.5 -62z" />
    <glyph glyph-name="oacute" unicode="&#xf3;" horiz-adv-x="566" 
d="M34 255q0 61 20 110t54.5 83t79.5 52t95 18t95 -18t79.5 -52t54.5 -83t20 -110t-20 -110t-54.5 -83.5t-79.5 -53t-95 -18.5t-95 18.5t-79.5 53t-54.5 83.5t-20 110zM144 255q0 -78 17 -127t49 -75q32 -24 73 -24q40 0 72 24q32 26 49.5 75t17.5 127t-17.5 127t-49.5 74
q-15 12 -33.5 17.5t-38.5 5.5t-39 -5.5t-34 -17.5q-32 -25 -49 -74t-17 -127zM151 596q41 37 66.5 62t48.5 46t40.5 33t39.5 12q20 0 31.5 -13t11.5 -35q0 -35 -58 -61l-162 -72l-18 28v0z" />
    <glyph glyph-name="ocircumflex" unicode="&#xf4;" horiz-adv-x="566" 
d="M34 255q0 61 20 110t54.5 83t79.5 52t95 18t95 -18t79.5 -52t54.5 -83t20 -110t-20 -110t-54.5 -83.5t-79.5 -53t-95 -18.5t-95 18.5t-79.5 53t-54.5 83.5t-20 110zM144 255q0 -78 17 -127t49 -75q32 -24 73 -24q40 0 72 24q32 26 49.5 75t17.5 127t-17.5 127t-49.5 74
q-15 12 -33.5 17.5t-38.5 5.5t-39 -5.5t-34 -17.5q-32 -25 -49 -74t-17 -127zM394 560l-112 87l-112 -87l-27 25l115 132h48l115 -132z" />
    <glyph glyph-name="otilde" unicode="&#xf5;" horiz-adv-x="566" 
d="M34 255q0 61 20 110t54.5 83t79.5 52t95 18t95 -18t79.5 -52t54.5 -83t20 -110t-20 -110t-54.5 -83.5t-79.5 -53t-95 -18.5t-95 18.5t-79.5 53t-54.5 83.5t-20 110zM144 255q0 -78 17 -127t49 -75q32 -24 73 -24q40 0 72 24q32 26 49.5 75t17.5 127t-17.5 127t-49.5 74
q-15 12 -33.5 17.5t-38.5 5.5t-39 -5.5t-34 -17.5q-32 -25 -49 -74t-17 -127zM434 703q-13 -42 -40 -70.5t-62 -28.5q-19 0 -34.5 4.5t-30 10t-27.5 10t-28 4.5q-16 0 -31 -12.5t-23 -32.5l-30 11q6 17 15 35t21 33t26.5 24.5t31.5 9.5q18 0 33.5 -4.5t30.5 -10t29.5 -10
t30.5 -4.5q23 0 36 10t22 32l30 -11v0z" />
    <glyph glyph-name="odieresis" unicode="&#xf6;" horiz-adv-x="566" 
d="M34 255q0 61 20 110t54.5 83t79.5 52t95 18t95 -18t79.5 -52t54.5 -83t20 -110t-20 -110t-54.5 -83.5t-79.5 -53t-95 -18.5t-95 18.5t-79.5 53t-54.5 83.5t-20 110zM144 255q0 -78 17 -127t49 -75q32 -24 73 -24q40 0 72 24q32 26 49.5 75t17.5 127t-17.5 127t-49.5 74
q-15 12 -33.5 17.5t-38.5 5.5t-39 -5.5t-34 -17.5q-32 -25 -49 -74t-17 -127zM188 591q-22 0 -37.5 14.5t-15.5 39.5q0 24 15.5 39t37.5 15t37.5 -15t15.5 -39q0 -25 -15.5 -39.5t-37.5 -14.5zM371 591q-22 0 -37.5 14.5t-15.5 39.5q0 24 15.5 39t37.5 15t37.5 -15t15.5 -39
q0 -25 -15.5 -39.5t-37.5 -14.5z" />
    <glyph glyph-name="divide" unicode="&#xf7;" horiz-adv-x="469" 
d="M288 438q0 -22 -15 -37.5t-38 -15.5t-38 15.5t-15 37.5q0 23 15 38t38 15t38 -15t15 -38zM40 283v42h389v-42h-389zM288 170q0 -22 -15 -37.5t-38 -15.5t-38 15.5t-15 37.5q0 23 15 38t38 15t38 -15t15 -38z" />
    <glyph glyph-name="oslash" unicode="&#xf8;" horiz-adv-x="566" 
d="M283 -10q-54 0 -105 23l-46 -87l-36 17l48 89q-50 34 -80 90.5t-30 132.5q0 61 20 110t54.5 83t79.5 52t95 18q59 0 109 -24l44 82l35 -18l-45 -84q48 -33 77 -88.5t29 -130.5q0 -61 -20 -110t-54.5 -83.5t-79.5 -53t-95 -18.5zM144 255q0 -106 32 -162l190 353
q-3 4 -11 10q-15 12 -33.5 17.5t-38.5 5.5t-39 -5.5t-34 -17.5q-32 -25 -49 -74t-17 -127zM283 29q40 0 72 24q32 26 49.5 75t17.5 127q0 102 -30 156l-189 -352l7 -6q32 -24 73 -24z" />
    <glyph glyph-name="ugrave" unicode="&#xf9;" horiz-adv-x="621" 
d="M516 137q0 -15 0.5 -28t3.5 -24q4 -15 11.5 -26t23.5 -17q8 -3 20 -5t22 -3v-34h-165q-9 0 -9 11q0 3 -0.5 14t-0.5 24v32h-10q-14 -24 -25 -37.5t-26 -24.5q-19 -14 -45 -22.5t-61 -8.5t-70 10.5t-59 39.5q-15 18 -23 41.5t-8 66.5v227q0 12 -0.5 29t-2.5 25
q-6 18 -22 28q-20 13 -55 16v34h178q7 0 7 -7q-1 -22 -2.5 -49t-1.5 -71v-225q0 -28 4.5 -48t19.5 -36q15 -17 32.5 -23t39.5 -6q19 0 38.5 6t36.5 20t29.5 36.5t15.5 52.5q2 22 2.5 37.5t0.5 42.5v138q0 12 -0.5 29t-2.5 25q-6 18 -22 28q-22 13 -57 16v34h180q7 0 7 -7
q-1 -22 -2.5 -49t-1.5 -71v-241v0zM362 568l-162 72q-58 26 -58 61q0 22 11.5 35t31.5 13q22 0 39.5 -12t40.5 -33t48.5 -46t66.5 -62z" />
    <glyph glyph-name="uacute" unicode="&#xfa;" horiz-adv-x="621" 
d="M516 137q0 -15 0.5 -28t3.5 -24q4 -15 11.5 -26t23.5 -17q8 -3 20 -5t22 -3v-34h-165q-9 0 -9 11q0 3 -0.5 14t-0.5 24v32h-10q-14 -24 -25 -37.5t-26 -24.5q-19 -14 -45 -22.5t-61 -8.5t-70 10.5t-59 39.5q-15 18 -23 41.5t-8 66.5v227q0 12 -0.5 29t-2.5 25
q-6 18 -22 28q-20 13 -55 16v34h178q7 0 7 -7q-1 -22 -2.5 -49t-1.5 -71v-225q0 -28 4.5 -48t19.5 -36q15 -17 32.5 -23t39.5 -6q19 0 38.5 6t36.5 20t29.5 36.5t15.5 52.5q2 22 2.5 37.5t0.5 42.5v138q0 12 -0.5 29t-2.5 25q-6 18 -22 28q-22 13 -57 16v34h180q7 0 7 -7
q-1 -22 -2.5 -49t-1.5 -71v-241v0zM179 596q41 37 66.5 62t48.5 46t40.5 33t39.5 12q20 0 31.5 -13t11.5 -35q0 -35 -58 -61l-162 -72l-18 28v0z" />
    <glyph glyph-name="ucircumflex" unicode="&#xfb;" horiz-adv-x="621" 
d="M516 137q0 -15 0.5 -28t3.5 -24q4 -15 11.5 -26t23.5 -17q8 -3 20 -5t22 -3v-34h-165q-9 0 -9 11q0 3 -0.5 14t-0.5 24v32h-10q-14 -24 -25 -37.5t-26 -24.5q-19 -14 -45 -22.5t-61 -8.5t-70 10.5t-59 39.5q-15 18 -23 41.5t-8 66.5v227q0 12 -0.5 29t-2.5 25
q-6 18 -22 28q-20 13 -55 16v34h178q7 0 7 -7q-1 -22 -2.5 -49t-1.5 -71v-225q0 -28 4.5 -48t19.5 -36q15 -17 32.5 -23t39.5 -6q19 0 38.5 6t36.5 20t29.5 36.5t15.5 52.5q2 22 2.5 37.5t0.5 42.5v138q0 12 -0.5 29t-2.5 25q-6 18 -22 28q-22 13 -57 16v34h180q7 0 7 -7
q-1 -22 -2.5 -49t-1.5 -71v-241v0zM387 560l-112 87l-112 -87l-27 25l115 132h48l115 -132z" />
    <glyph glyph-name="udieresis" unicode="&#xfc;" horiz-adv-x="621" 
d="M516 137q0 -15 0.5 -28t3.5 -24q4 -15 11.5 -26t23.5 -17q8 -3 20 -5t22 -3v-34h-165q-9 0 -9 11q0 3 -0.5 14t-0.5 24v32h-10q-14 -24 -25 -37.5t-26 -24.5q-19 -14 -45 -22.5t-61 -8.5t-70 10.5t-59 39.5q-15 18 -23 41.5t-8 66.5v227q0 12 -0.5 29t-2.5 25
q-6 18 -22 28q-20 13 -55 16v34h178q7 0 7 -7q-1 -22 -2.5 -49t-1.5 -71v-225q0 -28 4.5 -48t19.5 -36q15 -17 32.5 -23t39.5 -6q19 0 38.5 6t36.5 20t29.5 36.5t15.5 52.5q2 22 2.5 37.5t0.5 42.5v138q0 12 -0.5 29t-2.5 25q-6 18 -22 28q-22 13 -57 16v34h180q7 0 7 -7
q-1 -22 -2.5 -49t-1.5 -71v-241v0zM183 591q-22 0 -37.5 14.5t-15.5 39.5q0 24 15.5 39t37.5 15t37.5 -15t15.5 -39q0 -25 -15.5 -39.5t-37.5 -14.5zM366 591q-22 0 -37.5 14.5t-15.5 39.5q0 24 15.5 39t37.5 15t37.5 -15t15.5 -39q0 -25 -15.5 -39.5t-37.5 -14.5z" />
    <glyph glyph-name="yacute" unicode="&#xfd;" horiz-adv-x="551" 
d="M274 -50q-9 -21 -15.5 -34.5t-12 -23.5t-11.5 -18.5t-15 -20.5q-19 -25 -46.5 -40t-69.5 -15q-36 0 -59.5 19t-23.5 48q0 23 14.5 38.5t31.5 15.5q21 0 32.5 -8t22.5 -21q10 -11 16 -15q5 -4 10.5 -5t12.5 -1q11 0 21 7.5t18.5 19.5t15.5 27t13 30q7 17 9.5 31t2.5 23
q0 14 -4 24.5t-7 18.5l-113 265q-16 36 -25.5 61t-14.5 37q-9 20 -15 29.5t-17 16.5q-9 6 -21 8.5t-20 3.5v34h254v-34q-9 -1 -24.5 -3t-23.5 -5q-8 -5 -14.5 -13t-6.5 -25t6.5 -35.5t18.5 -48.5l86 -211h11l88 205q7 17 12 29t7.5 21.5t3.5 18t1 19.5q0 17 -7 26t-16 14
t-22 6t-21 2v34h193v-34q-8 -1 -17.5 -3.5t-18.5 -7.5q-7 -5 -13.5 -11t-14.5 -17q-8 -12 -19 -35.5t-24 -53.5l-169 -393v0zM196 596q41 37 66.5 62t48.5 46t40.5 33t39.5 12q20 0 31.5 -13t11.5 -35q0 -35 -58 -61l-162 -72l-18 28v0z" />
    <glyph glyph-name="thorn" unicode="&#xfe;" horiz-adv-x="589" 
d="M450 253q0 61 -10 103t-27 67t-39.5 36t-48.5 11q-29 0 -49.5 -8t-40.5 -25q-8 -7 -16 -20t-15 -30t-11.5 -37t-4.5 -42v-115q0 -46 7 -75t24 -48q18 -20 42.5 -31t48.5 -11q69 0 104.5 60.5t35.5 164.5zM271 -193h-266v32q10 1 22.5 3.5t19.5 4.5q15 8 22.5 18t11.5 25
q3 11 3.5 24t0.5 28v680q0 11 -1 28t-3 25q-6 19 -21 29q-11 6 -25 10.5t-30 7.5v34h175q7 0 7 -7v-309h10q26 44 61.5 60.5t86.5 16.5q38 0 76 -13.5t68 -45t49 -82t19 -123.5q0 -69 -21.5 -119t-55.5 -82.5t-77 -47.5t-85 -15q-35 0 -66.5 11t-54.5 31h-9v-89
q0 -15 0.5 -28t2.5 -24q7 -29 35 -43q6 -2 18 -4.5t27 -3.5v-32z" />
    <glyph glyph-name="ydieresis" unicode="&#xff;" horiz-adv-x="551" 
d="M274 -50q-9 -21 -15.5 -34.5t-12 -23.5t-11.5 -18.5t-15 -20.5q-19 -25 -46.5 -40t-69.5 -15q-36 0 -59.5 19t-23.5 48q0 23 14.5 38.5t31.5 15.5q21 0 32.5 -8t22.5 -21q10 -11 16 -15q5 -4 10.5 -5t12.5 -1q11 0 21 7.5t18.5 19.5t15.5 27t13 30q7 17 9.5 31t2.5 23
q0 14 -4 24.5t-7 18.5l-113 265q-16 36 -25.5 61t-14.5 37q-9 20 -15 29.5t-17 16.5q-9 6 -21 8.5t-20 3.5v34h254v-34q-9 -1 -24.5 -3t-23.5 -5q-8 -5 -14.5 -13t-6.5 -25t6.5 -35.5t18.5 -48.5l86 -211h11l88 205q7 17 12 29t7.5 21.5t3.5 18t1 19.5q0 17 -7 26t-16 14
t-22 6t-21 2v34h193v-34q-8 -1 -17.5 -3.5t-18.5 -7.5q-7 -5 -13.5 -11t-14.5 -17q-8 -12 -19 -35.5t-24 -53.5l-169 -393v0zM200 591q-22 0 -37.5 14.5t-15.5 39.5q0 24 15.5 39t37.5 15t37.5 -15t15.5 -39q0 -25 -15.5 -39.5t-37.5 -14.5zM383 591q-22 0 -37.5 14.5
t-15.5 39.5q0 24 15.5 39t37.5 15t37.5 -15t15.5 -39q0 -25 -15.5 -39.5t-37.5 -14.5z" />
    <glyph glyph-name="dotlessi" unicode="&#x131;" horiz-adv-x="302" 
d="M204 138q0 -16 0.5 -29t3.5 -24q4 -15 11.5 -25t23.5 -18q6 -2 16.5 -4.5t20.5 -3.5v-34h-251v34q10 1 20 3.5t16 4.5q28 14 35 43q2 11 2.5 24t0.5 29v232q0 12 -0.5 29t-2.5 25q-6 18 -22 28q-20 12 -53 19v34h175q7 0 7 -8q-1 -21 -2 -47.5t-1 -65.5v-246z" />
    <glyph glyph-name="Lslash" unicode="&#x141;" horiz-adv-x="622" 
d="M35 36q24 2 38 7q17 5 28.5 14t20.5 26q4 9 7 19t5 22.5t2.5 29t0.5 39.5v85l-108 -45v42l108 45v185q0 24 -0.5 40.5t-2.5 29t-5 22t-7 19.5q-9 17 -20.5 25.5t-28.5 14.5q-15 5 -38 6v36h315v-36q-23 -1 -38 -6q-17 -6 -28.5 -14.5t-20.5 -25.5q-5 -10 -7.5 -19.5
t-4.5 -22t-2.5 -29t-0.5 -40.5v-138l189 79v-42l-189 -79v-171q0 -37 4 -60.5t18 -37.5q11 -12 29.5 -16t45.5 -4h7q27 0 47 3.5t35 10.5t26.5 15.5t22.5 19.5q36 34 55.5 64.5t35.5 64.5h33l-36 -214h-536v36z" />
    <glyph glyph-name="lslash" unicode="&#x142;" horiz-adv-x="301" 
d="M203 138q0 -16 0.5 -29t3.5 -24q4 -15 10.5 -25t21.5 -18q6 -2 15.5 -4.5t19.5 -3.5v-34h-243v34q10 1 18.5 3.5t14.5 4.5q28 14 35 43q2 11 2.5 24t0.5 29v139l-84 -56v51l84 56v298q0 12 -0.5 29t-2.5 25q-7 20 -22 28q-11 7 -24.5 9.5t-30.5 4.5v34h176q7 0 7 -8
q0 -19 -1 -54t-1 -69v-229l80 54v-51l-80 -54v-207z" />
    <glyph glyph-name="OE" unicode="&#x152;" horiz-adv-x="1022" 
d="M366 661q-33 0 -60 -7t-52 -24q-25 -18 -43 -42.5t-29 -58.5t-16.5 -78.5t-5.5 -101.5q0 -65 5 -110.5t16.5 -77.5t29 -54t42.5 -40q27 -19 54.5 -24.5t58.5 -5.5q46 0 75.5 12.5t46 47t22.5 95.5t6 157q0 100 -6 161t-22.5 94.5t-46 45t-75.5 11.5zM952 0h-585
q-72 0 -132.5 24.5t-104.5 70.5t-68.5 110t-24.5 144t24.5 144.5t68.5 110t104.5 70t132.5 24.5h568l31 -173h-34q-20 36 -38.5 57.5t-44.5 42.5q-14 12 -43 24t-73 12h-47q-14 0 -27 -2.5t-21 -13.5q-8 -12 -9.5 -25.5t-1.5 -32.5v-207h49q35 0 56 6t35 20q20 20 26 40.5
t9 44.5h32v-261h-32q-3 25 -10 47t-27 41q-15 14 -35 19.5t-54 5.5h-49v-188q0 -37 3.5 -60.5t17.5 -37.5q11 -12 31 -16t47 -4h13q28 0 47.5 3.5t34.5 10.5t26.5 15.5t24.5 19.5q26 22 45.5 50t36.5 60h31z" />
    <glyph glyph-name="oe" unicode="&#x153;" horiz-adv-x="881" 
d="M847 139q-24 -65 -77 -107t-133 -42q-31 0 -55 5.5t-42.5 15t-33 21.5t-26.5 25q-7 8 -12.5 14.5t-10.5 14.5h-8q-29 -45 -73.5 -70.5t-102.5 -25.5q-50 0 -93.5 18.5t-76 53t-51 83.5t-18.5 110t18.5 110t51 83t76 52t93.5 18q60 0 105.5 -25t74.5 -73h8q30 46 75 72
t99 26q56 0 94 -18t61.5 -46t33.5 -61.5t10 -63.5q0 -17 -1 -33t-3 -25h-317v-17q0 -26 1 -51.5t4.5 -49t12 -44t23.5 -36.5q17 -18 41.5 -28.5t58.5 -10.5q36 0 62 10t45.5 26.5t33 38t22.5 44.5zM561 452q-8 -8 -15.5 -19t-13.5 -28t-10.5 -40.5t-6.5 -56.5h182
q17 0 25.5 11t8.5 41v54t-15 36q-13 15 -32 22t-48 7q-19 0 -38.5 -6t-36.5 -21zM144 255q0 -78 12 -127t44 -75q32 -24 73 -24q40 0 72 24q32 26 44.5 75t12.5 127t-12.5 127t-44.5 74q-15 12 -33.5 17.5t-38.5 5.5t-39 -5.5t-34 -17.5q-32 -25 -44 -74t-12 -127z" />
    <glyph glyph-name="Scaron" unicode="&#x160;" horiz-adv-x="546" 
d="M287 755h-52l-115 105l19 28l122 -63l122 63l19 -28zM513 193q0 -50 -19 -88.5t-51 -64.5t-73 -40t-86 -14q-57 0 -102.5 21.5t-71.5 46.5h-10l-28 -49h-25l-10 231h34q15 -41 37.5 -79t50 -67.5t59.5 -47.5t66 -18q69 0 104 34t35 86q0 35 -13 58.5t-36 41t-54.5 32.5
t-69.5 34q-36 18 -70.5 36.5t-61.5 43.5t-43.5 58t-16.5 80q0 40 15.5 74t42.5 58t63.5 37.5t78.5 13.5q30 0 51 -3.5t36.5 -9.5t28 -15.5t26.5 -21.5h9l22 42h31l17 -203h-34q-16 41 -36 75.5t-44 57.5q-19 18 -42 29t-65 11q-45 0 -76.5 -26t-31.5 -75q0 -35 13 -58
t34 -39.5t48 -29.5t55 -27q41 -21 79.5 -40.5t68 -44t47.5 -58t18 -82.5z" />
    <glyph glyph-name="scaron" unicode="&#x161;" horiz-adv-x="436" 
d="M409 147q0 -41 -14.5 -70.5t-38.5 -48.5t-55.5 -28.5t-66.5 -9.5q-40 0 -77.5 19.5t-58.5 46.5h-12l-17 -54h-29l-6 191h36q12 -36 28.5 -66t37.5 -52t46.5 -34.5t54.5 -12.5q42 0 66 17.5t24 53.5q0 23 -7.5 39t-23 29t-39.5 24.5t-57 25.5q-31 13 -59 25t-49 29.5
t-33.5 43t-12.5 65.5q0 29 11.5 54t33 44t52.5 29.5t70 10.5q47 0 74 -17.5t37 -33.5h10l13 42h26l8 -152h-35q-12 32 -25 56t-30 40q-15 13 -33.5 20t-44.5 7q-39 0 -61.5 -19t-22.5 -50q0 -18 5 -31.5t18.5 -25t36 -22.5t57.5 -24q32 -13 61.5 -27t52 -32.5t36 -43
t13.5 -58.5zM236 560h-48l-115 132l27 25l112 -87l112 87l27 -25z" />
    <glyph glyph-name="Ydieresis" unicode="&#x178;" horiz-adv-x="646" 
d="M254 750q-23 0 -39 15t-16 41t16 41t39 15t39 -15t16 -41t-16 -41t-39 -15zM455 750q-23 0 -39 15t-16 41t16 41t39 15t39 -15t16 -41t-16 -41t-39 -15zM106 555q-18 31 -32 50.5t-27 31t-26.5 17t-28.5 8.5v36h307v-36q-37 -3 -54 -8q-35 -12 -32 -39.5t30 -72.5
l112 -185h6l98 167q21 34 27 53t6 39q0 17 -6.5 25.5t-20.5 13.5q-8 3 -21.5 4.5t-21.5 2.5v36h230v-36q-27 -3 -46 -13t-35.5 -27.5t-32 -43.5t-35.5 -62l-128 -219v-104q0 -23 0.5 -39.5t2 -29t4 -22.5t7.5 -19q9 -17 21 -25.5t28 -14.5q10 -4 18 -5t20 -2v-36h-316v36
q12 1 20.5 2.5t17.5 4.5q16 5 28 14t21 26q5 9 8 19t4.5 22.5t2 29t0.5 39.5v105z" />
    <glyph glyph-name="Zcaron" unicode="&#x17d;" horiz-adv-x="624" 
d="M351 765h-52l-115 105l19 28l122 -63l122 63l19 -28zM581 671l-404 -635h87q36 0 62.5 2t46.5 5.5t36.5 9.5t33.5 15q27 14 47 32.5t34.5 38t25.5 39t21 37.5h37l-59 -215h-512v27l411 635h-109q-27 0 -48 -2t-38.5 -6t-32 -11.5t-28.5 -17.5q-27 -20 -51.5 -49
t-44.5 -71h-36l40 193h481v-27z" />
    <glyph glyph-name="zcaron" unicode="&#x17e;" horiz-adv-x="493" 
d="M441 0h-411v17l301 449v5h-122q-23 0 -38.5 -7.5t-30.5 -22.5q-20 -19 -33.5 -41t-27.5 -51h-35l35 156h372v-21l-294 -446v-4h112q41 0 60 10.5t36 29.5q24 28 37.5 49.5t24.5 48.5h33zM293 560h-48l-115 132l27 25l112 -87l112 87l27 -25z" />
    <glyph glyph-name="circumflex" unicode="&#x2c6;" 
d="M342 571l-112 87l-112 -87l-27 25l115 132h48l115 -132z" />
    <glyph glyph-name="caron" unicode="&#x2c7;" 
d="M254 571h-48l-115 132l27 25l112 -87l112 87l27 -25z" />
    <glyph glyph-name="breve" unicode="&#x2d8;" 
d="M230 581q-56 0 -87 35.5t-37 94.5l30 8q7 -22 17 -35.5t22 -21t25.5 -10t28.5 -2.5q16 0 30.5 2.5t26.5 10t21.5 21t16.5 35.5l30 -8q-6 -59 -37 -94.5t-87 -35.5z" />
    <glyph glyph-name="dotaccent" unicode="&#x2d9;" 
d="M230 608q-28 0 -46 17.5t-18 45.5t18 45.5t46 17.5t46 -17.5t18 -45.5t-18 -45.5t-46 -17.5z" />
    <glyph glyph-name="ring" unicode="&#x2da;" 
d="M320 655q0 -21 -7.5 -38t-20 -28t-28.5 -17t-34 -6q-17 0 -33.5 6t-29 17t-20 28t-7.5 38q0 22 7.5 38.5t20 28t29 17.5t33.5 6q35 0 62.5 -23.5t27.5 -66.5zM173 655q0 -29 16.5 -45t40.5 -16t40.5 16t16.5 45t-16.5 45.5t-40.5 16.5t-40.5 -16.5t-16.5 -45.5z" />
    <glyph glyph-name="ogonek" unicode="&#x2db;" 
d="M314 -215q-39 -2 -72.5 3t-58 17t-38.5 30.5t-14 44.5q0 38 30.5 67.5t86.5 52.5h40q-35 -25 -52.5 -51t-17.5 -62q0 -29 27 -45t69 -19v-38v0z" />
    <glyph glyph-name="tilde" unicode="&#x2dc;" 
d="M377 703q-13 -42 -40 -70.5t-62 -28.5q-19 0 -34.5 4.5t-30 10t-27.5 10t-28 4.5q-16 0 -31 -12.5t-23 -32.5l-30 11q6 17 15 35t21 33t26.5 24.5t31.5 9.5q18 0 33.5 -4.5t30.5 -10t29.5 -10t30.5 -4.5q23 0 36 10t22 32l30 -11v0z" />
    <glyph glyph-name="hungarumlaut" unicode="&#x2dd;" 
d="M210 759q15 0 24.5 -10t9.5 -24q0 -18 -7.5 -32t-23.5 -31q-18 -19 -42 -45t-64 -67l-26 16l74 150q21 43 55 43zM383 759q15 0 24.5 -10t9.5 -24q0 -18 -7.5 -32t-23.5 -31q-18 -19 -42 -45t-64 -67l-26 16l74 150q21 43 55 43z" />
    <glyph glyph-name="endash" unicode="&#x2013;" horiz-adv-x="500" 
d="M30 290v56h440v-56h-440z" />
    <glyph glyph-name="emdash" unicode="&#x2014;" horiz-adv-x="960" 
d="M30 290v56h900v-56h-900z" />
    <glyph glyph-name="quoteleft" unicode="&#x2018;" horiz-adv-x="255" 
d="M55 527q0 38 12 67.5t33 51.5t50 37.5t62 27.5l13 -30q-56 -22 -77 -41.5t-21 -41.5q0 -10 3.5 -16t14.5 -10q23 -8 37.5 -23t14.5 -43t-20 -45t-45 -17q-32 0 -54.5 20.5t-22.5 62.5z" />
    <glyph glyph-name="quoteright" unicode="&#x2019;" horiz-adv-x="255" 
d="M200 628q0 -38 -12 -67.5t-33 -51.5t-50 -37.5t-62 -27.5l-13 30q56 22 77 41t21 42q0 10 -3.5 16t-14.5 10q-23 8 -37.5 23t-14.5 43t20 45t45 17q32 0 54.5 -20.5t22.5 -62.5z" />
    <glyph glyph-name="quotesinglbase" unicode="&#x201a;" horiz-adv-x="265" 
d="M210 14q0 -38 -12 -67.5t-33 -51.5t-50 -37.5t-62 -27.5l-13 30q56 22 77 41t21 42q0 10 -3.5 16t-14.5 10q-23 8 -37.5 23t-14.5 43t20 45t45 17q32 0 54.5 -20.5t22.5 -62.5z" />
    <glyph glyph-name="quotedblleft" unicode="&#x201c;" horiz-adv-x="455" 
d="M255 527q0 38 12 67.5t33 51.5t50 37.5t62 27.5l13 -30q-56 -22 -77 -41.5t-21 -41.5q0 -10 3.5 -16t14.5 -10q23 -8 37.5 -23t14.5 -43t-20 -45t-45 -17q-32 0 -54.5 20.5t-22.5 62.5zM55 527q0 38 12 67.5t33 51.5t50 37.5t62 27.5l13 -30q-56 -22 -77 -41.5t-21 -41.5
q0 -10 3.5 -16t14.5 -10q23 -8 37.5 -23t14.5 -43t-20 -45t-45 -17q-32 0 -54.5 20.5t-22.5 62.5z" />
    <glyph glyph-name="quotedblright" unicode="&#x201d;" horiz-adv-x="455" 
d="M400 628q0 -38 -12 -67.5t-33 -51.5t-50 -37.5t-62 -27.5l-13 30q56 22 77 41t21 42q0 10 -3.5 16t-14.5 10q-23 8 -37.5 23t-14.5 43t20 45t45 17q32 0 54.5 -20.5t22.5 -62.5zM200 628q0 -38 -12 -67.5t-33 -51.5t-50 -37.5t-62 -27.5l-13 30q56 22 77 41t21 42
q0 10 -3.5 16t-14.5 10q-23 8 -37.5 23t-14.5 43t20 45t45 17q32 0 54.5 -20.5t22.5 -62.5z" />
    <glyph glyph-name="quotedblbase" unicode="&#x201e;" horiz-adv-x="453" 
d="M398 14q0 -38 -12 -67.5t-33 -51.5t-50 -37.5t-62 -27.5l-13 30q56 22 77 41t21 42q0 10 -3.5 16t-14.5 10q-23 8 -37.5 23t-14.5 43t20 45t45 17q32 0 54.5 -20.5t22.5 -62.5zM210 14q0 -38 -12 -67.5t-33 -51.5t-50 -37.5t-62 -27.5l-13 30q56 22 77 41t21 42
q0 10 -3.5 16t-14.5 10q-23 8 -37.5 23t-14.5 43t20 45t45 17q32 0 54.5 -20.5t22.5 -62.5z" />
    <glyph glyph-name="dagger" unicode="&#x2020;" horiz-adv-x="510" 
d="M233 -162l-36 544l28 66q-23 -7 -48 -12.5t-59 -5.5q-17 0 -33.5 5t-29.5 16.5t-21.5 28.5t-8.5 41q0 20 12.5 35t36.5 15q20 0 32.5 -11t12.5 -32q0 -8 -2.5 -14t-5.5 -11t-7 -10.5t-4 -11.5q0 -12 22 -12q16 0 28 1.5t23 3.5t22.5 5.5t26.5 8.5q0 25 -4 44t-9 37t-9 38
t-4 47q0 25 17.5 42t41.5 17t41.5 -17t17.5 -42q0 -27 -4 -47t-9 -38t-9 -37t-4 -44q15 -5 26.5 -8.5t22.5 -5.5t23 -3.5t28 -1.5q22 0 22 12q0 6 -4 11.5t-7 10.5t-5.5 11t-2.5 14q0 21 12.5 32t32.5 11q24 0 36.5 -15t12.5 -35q0 -24 -8.5 -41t-21.5 -28.5t-30 -16.5
t-33 -5q-34 0 -59 5.5t-48 12.5l28 -66l-36 -544h-44z" />
    <glyph glyph-name="daggerdbl" unicode="&#x2021;" horiz-adv-x="520" 
d="M238 298l-36 104l28 46q-23 -7 -48 -12.5t-59 -5.5q-17 0 -33.5 5t-29.5 16.5t-21.5 28.5t-8.5 41q0 20 12.5 35t36.5 15q20 0 32.5 -11t12.5 -32q0 -8 -2.5 -14t-5.5 -11t-7 -10.5t-4 -11.5q0 -12 22 -12q16 0 28 1.5t23 3.5t22.5 5.5t26.5 8.5q0 25 -4 44t-9 37t-9 38
t-4 47q0 25 17.5 42t41.5 17t41.5 -17t17.5 -42q0 -27 -4 -47t-9 -38t-9 -37t-4 -44q15 -5 26.5 -8.5t22.5 -5.5t23 -3.5t28 -1.5q22 0 22 12q0 6 -4 11.5t-7 10.5t-5.5 11t-2.5 14q0 21 12.5 32t32.5 11q24 0 36.5 -15t12.5 -35q0 -24 -8.5 -41t-21.5 -28.5t-30 -16.5
t-33 -5q-34 0 -59 5.5t-48 12.5l28 -46l-36 -104h-44zM318 149l-28 -46q23 7 48 12.5t59 5.5q16 0 33 -5t30 -16.5t21.5 -28.5t8.5 -41q0 -20 -12.5 -35t-36.5 -15q-20 0 -32.5 11t-12.5 32q0 8 2.5 14t5.5 11t7 10.5t4 11.5q0 12 -22 12q-16 0 -28 -1.5t-23 -3.5t-22.5 -6
t-26.5 -8q0 -26 4 -45t9 -37t9 -37.5t4 -46.5q0 -25 -17.5 -42t-41.5 -17t-41.5 17t-17.5 42q0 27 4 46.5t9 37.5t9 37t4 45q-15 4 -26.5 8t-22.5 6t-23 3.5t-28 1.5q-22 0 -22 -12q0 -6 4 -11.5t7 -10.5t5.5 -11t2.5 -14q0 -21 -12.5 -32t-32.5 -11q-24 0 -36.5 15
t-12.5 35q0 24 8.5 41t21.5 28.5t29.5 16.5t33.5 5q34 0 59 -5.5t48 -12.5l-28 46l36 104h44z" />
    <glyph glyph-name="bullet" unicode="&#x2022;" horiz-adv-x="432" 
d="M216 439q24 0 45 -9t36.5 -24.5t25 -36t9.5 -44.5t-9.5 -44.5t-25 -36t-36.5 -24.5t-45 -9t-45 9t-36.5 24.5t-25 36t-9.5 44.5t9.5 44.5t25 36t36.5 24.5t45 9z" />
    <glyph glyph-name="ellipsis" unicode="&#x2026;" horiz-adv-x="906" 
d="M154 -13q-32 0 -50.5 19.5t-18.5 49.5q0 27 18.5 47t50.5 20q29 0 48 -20t19 -47q0 -30 -19 -49.5t-48 -19.5zM454 -13q-32 0 -50.5 19.5t-18.5 49.5q0 27 18.5 47t50.5 20q29 0 48 -20t19 -47q0 -30 -19 -49.5t-48 -19.5zM754 -13q-32 0 -50.5 19.5t-18.5 49.5
q0 27 18.5 47t50.5 20q29 0 48 -20t19 -47q0 -30 -19 -49.5t-48 -19.5z" />
    <glyph glyph-name="perthousand" unicode="&#x2030;" horiz-adv-x="1132" 
d="M202 -16l-32 20l406 691l33 -20zM355 510q0 -39 -11.5 -72t-32 -57t-48.5 -38t-61 -14q-32 0 -59.5 14t-47.5 38t-31.5 57t-11.5 72t11.5 72t31.5 57t47.5 38t59.5 14q33 0 61 -14t48.5 -38t32 -57t11.5 -72zM202 663q-38 0 -57 -39.5t-19 -113.5t19 -113.5t57 -39.5
q78 0 78 153t-78 153zM937 350q32 0 59.5 -14t47.5 -38t31.5 -57t11.5 -72t-11.5 -72t-31.5 -57t-47.5 -38t-59.5 -14q-33 0 -61 14t-48.5 38t-32 57t-11.5 72t11.5 72t32 57t48.5 38t61 14zM577 350q32 0 59.5 -14t47.5 -38t31.5 -57t11.5 -72t-11.5 -72t-31.5 -57
t-47.5 -38t-59.5 -14q-33 0 -61 14t-48.5 38t-32 57t-11.5 72t11.5 72t32 57t48.5 38t61 14zM1013 169q0 74 -19 113.5t-57 39.5q-78 0 -78 -153t78 -153q38 0 57 39.5t19 113.5zM653 169q0 74 -19 113.5t-57 39.5q-78 0 -78 -153t78 -153q38 0 57 39.5t19 113.5z" />
    <glyph glyph-name="guilsinglleft" unicode="&#x2039;" horiz-adv-x="265" 
d="M208 409l27 -26l-106 -137l106 -136l-27 -26l-172 149v27z" />
    <glyph glyph-name="guilsinglright" unicode="&#x203a;" horiz-adv-x="265" 
d="M229 233l-172 -149l-27 26l106 136l-106 137l27 26l172 -149v-27z" />
    <glyph glyph-name="fraction" unicode="&#x2044;" horiz-adv-x="295" 
d="M-85 -31l-35 22l501 737l34 -24z" />
    <glyph glyph-name="Euro" unicode="&#x20ac;" horiz-adv-x="596" 
d="M586 222q-9 -53 -25 -96t-43.5 -74t-67.5 -48t-95 -17q-46 0 -87.5 18t-74.5 52t-56.5 83t-33.5 111h-83v39h78q-1 12 -1.5 24t-0.5 25q0 12 0.5 24t1.5 23h-78v39h84q11 60 36.5 109.5t62 84t82.5 53.5t97 19t89 -12.5t62.5 -34t36.5 -49.5t12 -59q0 -29 -17 -48
t-46 -19q-28 0 -43.5 17.5t-15.5 40.5q0 14 2 21.5t6 17.5q6 16 8.5 23.5t2.5 17.5q0 21 -23.5 34.5t-73.5 13.5q-29 0 -55.5 -13t-48.5 -40.5t-37.5 -71.5t-22.5 -105h176v-39h-179q-1 -11 -1 -23v-24v-24.5t1 -24.5h127v-39h-123q4 -44 15 -83.5t30 -69.5t46.5 -47.5
t66.5 -17.5q29 0 54.5 7.5t46.5 28.5t38.5 59.5t29.5 100.5l40 -7v0z" />
    <glyph glyph-name="trademark" unicode="&#x2122;" horiz-adv-x="779" 
d="M337 653h-27q-4 10 -10.5 29t-23.5 33q-13 11 -22.5 14t-19.5 2h-22v-166q0 -23 1 -35t4 -20q2 -5 6 -8.5t13 -6.5q5 -2 9.5 -2.5l13.5 -1.5v-27h-157v27q16 1 24 4q14 5 18 15q3 8 4 20t1 35v166h-21q-10 0 -20 -2.5t-22 -13.5q-17 -14 -23.5 -33t-10.5 -29h-27l14 103
h283zM597 464v28q10 1 14.5 1.5t9.5 2.5q15 5 19 15q3 8 4 20t1 35v144h-7l-76 -249h-48l-76 251h-7v-140q0 -27 1.5 -40.5t3.5 -20.5q2 -5 5.5 -8.5t12.5 -6.5q8 -3 25 -4v-28h-123v28q16 1 25 4t12 6.5t5 8.5q2 7 3.5 20.5t1.5 40.5v74q0 28 -1.5 40.5t-3.5 18.5
q-5 11 -17 18q-10 4 -23 6v27h135l59 -208h7l60 208h135v-27q-16 -1 -24 -4q-14 -5 -18 -16q-3 -8 -4 -19.5t-1 -34.5v-89q0 -23 1 -35t4 -20q4 -10 18 -15q8 -3 24 -4v-28h-157z" />
    <glyph glyph-name="minus" unicode="&#x2212;" horiz-adv-x="469" 
d="M40 283v42h389v-42h-389z" />
    <glyph glyph-name="one.sup" horiz-adv-x="278" 
d="M35 359v27q29 3 39 8t16.5 12t9.5 20q2 8 3 20.5t1 23.5v198q0 20 -0.5 32t-3.5 23t-6.5 16t-13.5 9t-26 4.5t-30 1.5v28q36 2 61.5 6t49.5 12q11 3 24.5 7.5t21.5 4.5q10 0 10 -11q0 -5 -0.5 -18.5t-0.5 -31.5t-0.5 -38.5t-0.5 -40.5v-202q0 -12 1 -24t3 -20
q5 -14 10 -20.5t16 -11.5q5 -2 15 -4t24 -4v-27h-223z" />
    <glyph glyph-name="two.sup" horiz-adv-x="391" 
d="M26 359l-6 37l79 50q34 24 63.5 48t51.5 52t35 62.5t13 79.5q0 48 -19 70t-64 22q-32 0 -52.5 -11.5t-20.5 -27.5q0 -9 3 -15t8 -17q6 -12 6 -29q0 -20 -12.5 -32.5t-35.5 -12.5q-24 0 -38.5 16.5t-14.5 42.5q0 52 47 86t127 34q35 0 64 -9.5t50 -26t32.5 -39.5t11.5 -49
q0 -33 -9.5 -59.5t-25 -48.5t-36.5 -40t-43 -34q-19 -14 -43 -31t-60 -39v-7h108q17 0 29 1.5t20 5t14.5 8.5t12.5 12q11 12 16.5 21.5t10.5 17.5h28q-8 -26 -17 -63t-17 -75h-316z" />
    <glyph glyph-name="three.sup" horiz-adv-x="399" 
d="M196 782q-33 0 -50 -9.5t-17 -21.5q0 -8 2.5 -13t7.5 -16q5 -10 5 -26q0 -18 -11.5 -29t-31.5 -12q-22 1 -34.5 15.5t-12.5 38.5q0 21 11 40t30 33.5t45.5 23t57.5 8.5q28 0 55 -4.5t48 -15.5t34 -29t13 -45q0 -20 -8 -35.5t-22.5 -28t-34 -23.5t-41.5 -23v-5q25 0 48 -6
t40.5 -18t28 -31t10.5 -46q0 -32 -14.5 -60t-40.5 -49t-62.5 -33.5t-79.5 -12.5q-36 0 -62.5 8.5t-44.5 22t-27 31t-9 35.5q0 23 13 36t33 13q14 0 22.5 -4.5t13.5 -12.5q9 -14 9 -31q0 -8 -2.5 -15.5t-2.5 -15.5q0 -17 13.5 -26t43.5 -9q57 0 81 33t24 90q0 36 -14.5 55.5
t-41.5 19.5q-17 0 -28 -4t-24 -12l-26 -17l-16 25l63 42q18 12 31.5 22.5t23 22.5t14 27t4.5 35q0 31 -19 46.5t-48 15.5z" />
    </font>
</defs>
</svg>
